<?xml version="1.0" encoding="UTF-8" standalone="no"?>
<!-- Created with Inkscape (http://www.inkscape.org/) -->

<svg
   xmlns:dc="http://purl.org/dc/elements/1.1/"
   xmlns:cc="http://creativecommons.org/ns#"
   xmlns:rdf="http://www.w3.org/1999/02/22-rdf-syntax-ns#"
   xmlns:svg="http://www.w3.org/2000/svg"
   xmlns="http://www.w3.org/2000/svg"
   xmlns:sodipodi="http://sodipodi.sourceforge.net/DTD/sodipodi-0.dtd"
   xmlns:inkscape="http://www.inkscape.org/namespaces/inkscape"
   width="200px"
   height="200px"
   viewBox="0 0 200 200"
   version="1.1"
   id="SVGRoot"
   sodipodi:docname="body-3.svg"
   inkscape:version="0.92.4 (5da689c313, 2019-01-14)">
  <defs
     id="defs909">
    <inkscape:path-effect
       effect="bspline"
       id="path-effect12527"
       is_visible="true"
       weight="33.333333"
       steps="2"
       helper_size="0"
       apply_no_weight="true"
       apply_with_weight="true"
       only_selected="false" />
    <inkscape:path-effect
       effect="bspline"
       id="path-effect12520"
       is_visible="true"
       weight="33.333333"
       steps="2"
       helper_size="0"
       apply_no_weight="true"
       apply_with_weight="true"
       only_selected="false" />
    <inkscape:path-effect
       effect="bspline"
       id="path-effect1868"
       is_visible="true"
       weight="33.333333"
       steps="2"
       helper_size="0"
       apply_no_weight="true"
       apply_with_weight="true"
       only_selected="false" />
    <inkscape:path-effect
       effect="bspline"
       id="path-effect1853"
       is_visible="true"
       weight="33.333333"
       steps="2"
       helper_size="0"
       apply_no_weight="true"
       apply_with_weight="true"
       only_selected="false" />
  </defs>
  <sodipodi:namedview
     id="base"
     pagecolor="#ffffff"
     bordercolor="#666666"
     borderopacity="1.0"
     inkscape:pageopacity="0.0"
     inkscape:pageshadow="2"
     inkscape:zoom="5.12"
     inkscape:cx="103.82214"
     inkscape:cy="58.317035"
     inkscape:document-units="px"
     inkscape:current-layer="layer1"
     showgrid="false"
     inkscape:window-width="1920"
     inkscape:window-height="1001"
     inkscape:window-x="-9"
     inkscape:window-y="-9"
     inkscape:window-maximized="1"
     showguides="false" />
  <metadata
     id="metadata912">
    <rdf:RDF>
      <cc:Work
         rdf:about="">
        <dc:format>image/svg+xml</dc:format>
        <dc:type
           rdf:resource="http://purl.org/dc/dcmitype/StillImage" />
        <dc:title></dc:title>
      </cc:Work>
    </rdf:RDF>
  </metadata>
  <g
     inkscape:label="Layer 1"
     inkscape:groupmode="layer"
     id="layer1">
    <path
       style="fill:#dec2a8;fill-opacity:1;stroke:#000000;stroke-width:0;stroke-linecap:butt;stroke-linejoin:miter;stroke-miterlimit:4;stroke-dasharray:none;stroke-opacity:1"
       d="m 102.94141,131.71484 c -3.197358,-0.0129 -4.457038,0.49172 -6.640629,1.0625 -4.367181,1.14156 -3.254476,4.49721 -3.373046,7.38087 -0.11857,2.88365 0.84588,7.43438 -1.162109,10.20898 -1.452804,2.00745 -4.425472,2.25821 -6.753471,3.10729 -1.620181,0.59092 -3.316765,0.94844 -4.988717,1.37122 -2.707848,0.68473 -5.746268,1.13953 -8.164063,1.88672 -3.948397,1.22021 -8.019442,2.7125 -12.009766,5.90039 -3.990323,3.18789 -3.402153,9.23918 -3.044922,16.69531 0.341851,7.13512 1.428357,15.20741 3.273438,21.64844 l 86.505855,-0.11523 c 1.49517,-4.43487 2.19131,-14.57974 2.61524,-22.30274 -0.27396,-5.67291 -0.17807,-11.78012 -4.48829,-15.90038 -3.17145,-3.03169 -6.84934,-4.32222 -11.35741,-5.99805 -5.77631,-2.82034 -10.60479,-1.55841 -15.48438,-3.63086 -1.71004,-0.72628 -4.45565,-0.80062 -4.6836,-3.02149 -0.22779,-2.22087 -1.01072,-6.39092 -1.01172,-9.38866 -0.001,-2.99775 1.16888,-6.57967 -3.07421,-8.02735 -2.1217,-0.72384 -2.96085,-0.8641 -6.1582,-0.87696 z"
       id="path12518"
       inkscape:connector-curvature="0"
       sodipodi:nodetypes="cssaaacsscccccaccsc" />
  </g>
</svg>
