<?xml version="1.0" encoding="UTF-8" standalone="no"?>
<!-- Created with Inkscape (http://www.inkscape.org/) -->

<svg
   xmlns:dc="http://purl.org/dc/elements/1.1/"
   xmlns:cc="http://creativecommons.org/ns#"
   xmlns:rdf="http://www.w3.org/1999/02/22-rdf-syntax-ns#"
   xmlns:svg="http://www.w3.org/2000/svg"
   xmlns="http://www.w3.org/2000/svg"
   xmlns:sodipodi="http://sodipodi.sourceforge.net/DTD/sodipodi-0.dtd"
   xmlns:inkscape="http://www.inkscape.org/namespaces/inkscape"
   width="200px"
   height="200px"
   viewBox="0 0 200 200"
   version="1.1"
   id="SVGRoot"
   sodipodi:docname="body-5.svg"
   inkscape:version="0.92.4 (5da689c313, 2019-01-14)">
  <defs
     id="defs909">
    <inkscape:path-effect
       effect="bspline"
       id="path-effect12527"
       is_visible="true"
       weight="33.333333"
       steps="2"
       helper_size="0"
       apply_no_weight="true"
       apply_with_weight="true"
       only_selected="false" />
    <inkscape:path-effect
       effect="bspline"
       id="path-effect12520"
       is_visible="true"
       weight="33.333333"
       steps="2"
       helper_size="0"
       apply_no_weight="true"
       apply_with_weight="true"
       only_selected="false" />
    <inkscape:path-effect
       effect="bspline"
       id="path-effect1868"
       is_visible="true"
       weight="33.333333"
       steps="2"
       helper_size="0"
       apply_no_weight="true"
       apply_with_weight="true"
       only_selected="false" />
    <inkscape:path-effect
       effect="bspline"
       id="path-effect1853"
       is_visible="true"
       weight="33.333333"
       steps="2"
       helper_size="0"
       apply_no_weight="true"
       apply_with_weight="true"
       only_selected="false" />
    <inkscape:path-effect
       only_selected="false"
       apply_with_weight="true"
       apply_no_weight="true"
       helper_size="0"
       steps="2"
       weight="33.333333"
       is_visible="true"
       id="path-effect1868-2"
       effect="bspline" />
    <inkscape:path-effect
       only_selected="false"
       apply_with_weight="true"
       apply_no_weight="true"
       helper_size="0"
       steps="2"
       weight="33.333333"
       is_visible="true"
       id="path-effect1853-9"
       effect="bspline" />
  </defs>
  <sodipodi:namedview
     id="base"
     pagecolor="#ffffff"
     bordercolor="#666666"
     borderopacity="1.0"
     inkscape:pageopacity="0.0"
     inkscape:pageshadow="2"
     inkscape:zoom="3.6203867"
     inkscape:cx="24.858203"
     inkscape:cy="50.833678"
     inkscape:document-units="px"
     inkscape:current-layer="layer1"
     showgrid="false"
     inkscape:window-width="1920"
     inkscape:window-height="1001"
     inkscape:window-x="-9"
     inkscape:window-y="-9"
     inkscape:window-maximized="1"
     showguides="false" />
  <metadata
     id="metadata912">
    <rdf:RDF>
      <cc:Work
         rdf:about="">
        <dc:format>image/svg+xml</dc:format>
        <dc:type
           rdf:resource="http://purl.org/dc/dcmitype/StillImage" />
        <dc:title></dc:title>
      </cc:Work>
    </rdf:RDF>
  </metadata>
  <g
     inkscape:label="Layer 1"
     inkscape:groupmode="layer"
     id="layer1">
    <path
       style="fill:#dec2a8;fill-opacity:1;stroke:#000000;stroke-width:0;stroke-linecap:butt;stroke-linejoin:miter;stroke-miterlimit:4;stroke-dasharray:none;stroke-opacity:1"
       d="m 102.94141,131.71484 c -3.197366,-0.0129 -4.457038,0.49172 -6.640629,1.0625 -4.367181,1.14156 -2.277914,4.79017 -2.396484,7.67383 -0.11857,2.88365 -0.670318,5.45891 -2.138672,7.66992 -1.589213,2.39299 -4.191788,4.05446 -6.753906,5.35352 -1.538163,0.77989 -3.31633,0.94831 -4.988281,1.37109 -2.707848,0.68473 -5.746268,1.13953 -8.164063,1.88672 -3.948397,1.22021 -6.810513,0.20027 -8.851563,2.48633 -3.863675,4.32746 -2.170203,11.41109 -2.785156,17.17969 -0.900708,8.44915 -3.161487,19.016 -1.316406,25.45703 l 12.185547,-0.0684 c 0.318987,-3.02701 0.705553,-6.6273 1,-9.10742 0.295529,-2.48924 0.794787,-4.95622 0.966797,-7.45703 0.259787,-3.77699 0.0957,-11.35743 0.0957,-11.35743 l 3.494141,3.76172 c 0,0 1.401302,4.7862 2.763671,12.42969 1.08616,6.26243 -4.558593,11.18555 -4.558593,11.18555 l -0.408204,0.52539 51.041018,-0.28711 c -0.63836,-3.21969 -1.60547,-8.17402 -1.60547,-9.07617 0,-1.24296 5.52539,-16.43555 5.52539,-16.43555 l 5.52344,0.55273 c 0,0 -0.74376,7.17184 -0.68946,10.22071 0.0272,1.52444 0.16978,2.78488 0.33789,4.03515 0.16812,1.25028 0.36121,2.48997 0.49024,3.97461 0.15138,1.74176 0.33546,4.42927 0.48437,6.67188 l 13.08204,-0.0742 c 1.49517,-4.43487 -0.78609,-15.82027 -1.7793,-23.66992 -0.75495,-5.9666 0.79826,-13.24418 -3.17188,-17.76172 -2.38355,-2.71218 -6.84817,-2.30199 -10.33007,-3.25781 -5.11233,-1.40339 -10.97606,-0.8415 -15.48438,-3.63086 -1.90487,-1.17857 -3.18933,-3.2207 -4.29297,-5.16992 -1.27714,-2.25564 -2.57322,-4.34016 -2.57422,-7.3379 -10e-4,-2.99775 2.34075,-6.482 -1.90234,-7.92968 -2.1217,-0.72384 -2.96085,-0.8641 -6.1582,-0.87696 z"
       id="path12518"
       inkscape:connector-curvature="0"
       sodipodi:nodetypes="csscscccsccssccccccscccccccscsscscc" />
  </g>
</svg>
