<?xml version="1.0" encoding="UTF-8" standalone="no"?>
<!-- Created with Inkscape (http://www.inkscape.org/) -->

<svg
   xmlns:dc="http://purl.org/dc/elements/1.1/"
   xmlns:cc="http://creativecommons.org/ns#"
   xmlns:rdf="http://www.w3.org/1999/02/22-rdf-syntax-ns#"
   xmlns:svg="http://www.w3.org/2000/svg"
   xmlns="http://www.w3.org/2000/svg"
   xmlns:sodipodi="http://sodipodi.sourceforge.net/DTD/sodipodi-0.dtd"
   xmlns:inkscape="http://www.inkscape.org/namespaces/inkscape"
   width="200px"
   height="200px"
   viewBox="0 0 200 200"
   version="1.1"
   id="SVGRoot"
   sodipodi:docname="body-1.svg"
   inkscape:version="0.92.4 (5da689c313, 2019-01-14)">
  <defs
     id="defs909">
    <inkscape:path-effect
       effect="bspline"
       id="path-effect12527"
       is_visible="true"
       weight="33.333333"
       steps="2"
       helper_size="0"
       apply_no_weight="true"
       apply_with_weight="true"
       only_selected="false" />
    <inkscape:path-effect
       effect="bspline"
       id="path-effect12520"
       is_visible="true"
       weight="33.333333"
       steps="2"
       helper_size="0"
       apply_no_weight="true"
       apply_with_weight="true"
       only_selected="false" />
    <inkscape:path-effect
       effect="bspline"
       id="path-effect1868"
       is_visible="true"
       weight="33.333333"
       steps="2"
       helper_size="0"
       apply_no_weight="true"
       apply_with_weight="true"
       only_selected="false" />
    <inkscape:path-effect
       effect="bspline"
       id="path-effect1853"
       is_visible="true"
       weight="33.333333"
       steps="2"
       helper_size="0"
       apply_no_weight="true"
       apply_with_weight="true"
       only_selected="false" />
  </defs>
  <sodipodi:namedview
     id="base"
     pagecolor="#ffffff"
     bordercolor="#666666"
     borderopacity="1.0"
     inkscape:pageopacity="0.0"
     inkscape:pageshadow="2"
     inkscape:zoom="5.12"
     inkscape:cx="129.1101"
     inkscape:cy="1.1577816"
     inkscape:document-units="px"
     inkscape:current-layer="layer1"
     showgrid="false"
     inkscape:window-width="1920"
     inkscape:window-height="1001"
     inkscape:window-x="-9"
     inkscape:window-y="-9"
     inkscape:window-maximized="1"
     showguides="false" />
  <metadata
     id="metadata912">
    <rdf:RDF>
      <cc:Work
         rdf:about="">
        <dc:format>image/svg+xml</dc:format>
        <dc:type
           rdf:resource="http://purl.org/dc/dcmitype/StillImage" />
        <dc:title></dc:title>
      </cc:Work>
    </rdf:RDF>
  </metadata>
  <g
     inkscape:label="Layer 1"
     inkscape:groupmode="layer"
     id="layer1">
    <path
       style="fill:#dec2a8;fill-opacity:1;stroke:#000000;stroke-width:0;stroke-linecap:butt;stroke-linejoin:miter;stroke-miterlimit:4;stroke-dasharray:none;stroke-opacity:1"
       d="m 102.94141,131.71484 c -3.197358,-0.0129 -6.410163,0.29641 -8.593754,0.86719 -4.367181,1.14156 -3.059164,3.32533 -3.177734,6.20899 -0.11857,2.88365 0.289327,7.25437 -0.380859,10.01367 -0.670186,2.7593 -4.326943,3.70349 -5.776908,4.66979 -0.548768,0.36572 -1.592694,0.73121 -2.163062,0.87249 -1.293058,0.19608 -1.608358,0.19149 -2.825655,0.49873 -3.365498,0.49627 -5.746268,1.13953 -8.164063,1.88672 -3.948397,1.22021 -8.019442,2.7125 -12.009766,5.90039 -3.990323,3.18789 -1.449028,10.80168 -3.240234,18.45313 -1.628222,6.95526 -7.946644,13.44959 -6.101563,19.89062 l 104.669918,-0.11523 c 1.49517,-4.43487 -4.44931,-11.45474 -6.75976,-18.5918 -1.83646,-5.67291 0.40787,-14.5145 -3.90235,-18.63476 -3.17145,-3.03169 -6.65403,-5.29878 -11.1621,-6.97461 -3.7639,-1.3992 -7.01895,-2.10365 -12.74414,-2.49805 -1.06799,-0.27795 -2.03491,-0.62009 -2.74024,-1.13281 -1.26579,-0.92014 -3.08846,-3.14437 -3.31641,-5.36524 -0.22779,-2.22087 -0.62009,-5.80499 -0.62109,-8.80273 -0.001,-2.99775 1.75481,-4.62654 -2.48828,-6.07422 -2.1217,-0.72384 -5.3046,-1.05941 -8.50195,-1.07227 z"
       id="path12518"
       inkscape:connector-curvature="0"
       sodipodi:nodetypes="csssccccsscccccccccsc" />
  </g>
</svg>
