<?xml version="1.0" encoding="UTF-8" standalone="no"?>
<!-- Created with Inkscape (http://www.inkscape.org/) -->

<svg
   xmlns:dc="http://purl.org/dc/elements/1.1/"
   xmlns:cc="http://creativecommons.org/ns#"
   xmlns:rdf="http://www.w3.org/1999/02/22-rdf-syntax-ns#"
   xmlns:svg="http://www.w3.org/2000/svg"
   xmlns="http://www.w3.org/2000/svg"
   xmlns:sodipodi="http://sodipodi.sourceforge.net/DTD/sodipodi-0.dtd"
   xmlns:inkscape="http://www.inkscape.org/namespaces/inkscape"
   width="200px"
   height="200px"
   viewBox="0 0 200 200"
   version="1.1"
   id="SVGRoot"
   sodipodi:docname="facialhair-1-2.svg"
   inkscape:version="0.92.4 (5da689c313, 2019-01-14)">
  <defs
     id="defs909">
    <inkscape:path-effect
       only_selected="false"
       apply_with_weight="true"
       apply_no_weight="true"
       helper_size="0"
       steps="2"
       weight="33.333333"
       is_visible="true"
       id="path-effect31548"
       effect="bspline" />
    <inkscape:path-effect
       effect="bspline"
       id="path-effect31544"
       is_visible="true"
       weight="33.333333"
       steps="2"
       helper_size="0"
       apply_no_weight="true"
       apply_with_weight="true"
       only_selected="false" />
    <inkscape:path-effect
       only_selected="false"
       apply_with_weight="true"
       apply_no_weight="true"
       helper_size="0"
       steps="2"
       weight="33.333333"
       is_visible="true"
       id="path-effect31531"
       effect="bspline" />
    <inkscape:path-effect
       effect="bspline"
       id="path-effect30441"
       is_visible="true"
       weight="33.333333"
       steps="2"
       helper_size="0"
       apply_no_weight="true"
       apply_with_weight="true"
       only_selected="false" />
    <inkscape:path-effect
       effect="bspline"
       id="path-effect12527"
       is_visible="true"
       weight="33.333333"
       steps="2"
       helper_size="0"
       apply_no_weight="true"
       apply_with_weight="true"
       only_selected="false" />
    <inkscape:path-effect
       effect="bspline"
       id="path-effect12520"
       is_visible="true"
       weight="33.333333"
       steps="2"
       helper_size="0"
       apply_no_weight="true"
       apply_with_weight="true"
       only_selected="false" />
    <inkscape:path-effect
       effect="bspline"
       id="path-effect1868"
       is_visible="true"
       weight="33.333333"
       steps="2"
       helper_size="0"
       apply_no_weight="true"
       apply_with_weight="true"
       only_selected="false" />
    <inkscape:path-effect
       effect="bspline"
       id="path-effect1853"
       is_visible="true"
       weight="33.333333"
       steps="2"
       helper_size="0"
       apply_no_weight="true"
       apply_with_weight="true"
       only_selected="false" />
  </defs>
  <sodipodi:namedview
     id="base"
     pagecolor="#ffffff"
     bordercolor="#666666"
     borderopacity="1.0"
     inkscape:pageopacity="0.0"
     inkscape:pageshadow="2"
     inkscape:zoom="5.12"
     inkscape:cx="58.998177"
     inkscape:cy="72.645111"
     inkscape:document-units="px"
     inkscape:current-layer="layer1"
     showgrid="false"
     inkscape:window-width="1920"
     inkscape:window-height="1001"
     inkscape:window-x="-9"
     inkscape:window-y="-9"
     inkscape:window-maximized="1"
     showguides="false" />
  <metadata
     id="metadata912">
    <rdf:RDF>
      <cc:Work
         rdf:about="">
        <dc:format>image/svg+xml</dc:format>
        <dc:type
           rdf:resource="http://purl.org/dc/dcmitype/StillImage" />
        <dc:title></dc:title>
      </cc:Work>
    </rdf:RDF>
  </metadata>
  <g
     inkscape:label="Layer 1"
     inkscape:groupmode="layer"
     id="layer1">
    <path
       style="fill:#dd925d;stroke:#000000;stroke-width:0;stroke-linecap:butt;stroke-linejoin:miter;stroke-opacity:1;fill-opacity:1;stroke-miterlimit:4;stroke-dasharray:none"
       d="m 81.006764,95.11641 c 1.090783,-0.78083 2.718387,-1.269111 4.085065,-2.082824 1.366679,-0.813713 2.47426,-1.953871 3.613107,-2.571855 1.138847,-0.617984 2.311765,-0.715727 3.303881,-0.553018 0.992116,0.162709 1.806665,0.586275 2.571876,0.699993 0.765212,0.113718 1.48169,-0.08168 2.262106,-0.146647 0.780417,-0.06496 1.628171,2.51e-4 2.278435,0.357835 0.650265,0.357584 1.106486,1.009331 1.334426,1.676355 0.22793,0.667025 0.22793,1.350407 0.11404,2.018099 -0.11388,0.667691 -0.34142,1.317783 -0.781206,1.627622 -0.43979,0.309839 -1.089629,0.277346 -2.067276,0.08184 -0.977648,-0.195505 -2.277836,-0.553057 -3.352036,-0.650874 -1.074199,-0.09782 -1.920115,0.06486 -2.653254,0.03236 -0.733139,-0.03249 -1.350789,-0.26005 -1.952944,-0.227768 -0.602155,0.03228 -1.187565,0.324987 -1.839395,0.764894 -0.651831,0.439908 -1.36651,1.024646 -2.31143,1.350632 -0.94492,0.325987 -2.115013,0.390992 -3.287426,0.439851 -1.172414,0.04886 -2.343237,0.08138 -2.652444,-0.440506 -0.309208,-0.521887 0.243693,-1.595165 1.334475,-2.375995 z"
       id="path31542"
       inkscape:connector-curvature="0"
       inkscape:path-effect="#path-effect31544"
       inkscape:original-d="m 80.46875,94.824219 c 1.628604,-0.489282 3.256208,-0.977563 4.882813,-1.464844 1.106959,-1.139488 2.214541,-2.279646 3.320312,-3.417969 1.171832,-0.09857 2.34475,-0.196312 3.515625,-0.292969 0.814055,0.421789 1.628604,0.845355 2.441406,1.269532 0.716814,-0.196222 1.433292,-0.391625 2.148438,-0.585938 0.845954,0.064 1.693708,0.129209 2.539062,0.195313 0.456235,0.649335 0.912454,1.301083 1.367184,1.953125 0.001,0.682805 0.001,1.366187 0,2.050781 -0.22719,0.650994 -0.45473,1.301083 -0.68359,1.953125 -0.651244,-0.03361 -1.301083,-0.0661 -1.953125,-0.09766 -1.302979,-0.359594 -2.603167,-0.717146 -3.90625,-1.074219 -0.845792,0.161845 -1.691708,0.324521 -2.539062,0.488281 -0.61833,-0.229174 -1.23598,-0.456729 -1.855469,-0.683594 -0.585465,0.292233 -1.170875,0.584938 -1.757813,0.878907 -0.716612,0.586137 -1.431291,1.170875 -2.148437,1.757812 -1.172657,0.0642 -2.34275,0.129209 -3.515625,0.195313 -1.171927,0.03158 -2.34275,0.0641 -3.515625,0.09766 0.55487,-1.07616 1.107771,-2.149438 1.660156,-3.222656 z" />
    <path
       inkscape:original-d="m 80.46875,94.824219 c 1.628604,-0.489282 3.256208,-0.977563 4.882813,-1.464844 1.106959,-1.139488 2.214541,-2.279646 3.320312,-3.417969 1.171832,-0.09857 2.34475,-0.196312 3.515625,-0.292969 0.814055,0.421789 1.628604,0.845355 2.441406,1.269532 0.716814,-0.196222 1.433292,-0.391625 2.148438,-0.585938 0.845954,0.064 1.693708,0.129209 2.539062,0.195313 0.456235,0.649335 0.912454,1.301083 1.367184,1.953125 0.001,0.682805 0.001,1.366187 0,2.050781 -0.22719,0.650994 -0.45473,1.301083 -0.68359,1.953125 -0.651244,-0.03361 -1.301083,-0.0661 -1.953125,-0.09766 -1.302979,-0.359594 -2.603167,-0.717146 -3.90625,-1.074219 -0.845792,0.161845 -1.691708,0.324521 -2.539062,0.488281 -0.61833,-0.229174 -1.23598,-0.456729 -1.855469,-0.683594 -0.585465,0.292233 -1.170875,0.584938 -1.757813,0.878907 -0.716612,0.586137 -1.431291,1.170875 -2.148437,1.757812 -1.172657,0.0642 -2.34275,0.129209 -3.515625,0.195313 -1.171927,0.03158 -2.34275,0.0641 -3.515625,0.09766 0.55487,-1.07616 1.107771,-2.149438 1.660156,-3.222656 z"
       inkscape:path-effect="#path-effect31548"
       inkscape:connector-curvature="0"
       id="path31546"
       d="m 81.006764,95.11641 c 1.090783,-0.78083 2.718387,-1.269111 4.085065,-2.082824 1.366679,-0.813713 2.47426,-1.953871 3.613107,-2.571855 1.138847,-0.617984 2.311765,-0.715727 3.303881,-0.553018 0.992116,0.162709 1.806665,0.586275 2.571876,0.699993 0.765212,0.113718 1.48169,-0.08168 2.262106,-0.146647 0.780417,-0.06496 1.628171,2.51e-4 2.278435,0.357835 0.650265,0.357584 1.106486,1.009331 1.334426,1.676355 0.22793,0.667025 0.22793,1.350407 0.11404,2.018099 -0.11388,0.667691 -0.34142,1.317783 -0.781206,1.627622 -0.43979,0.309839 -1.089629,0.277346 -2.067276,0.08184 -0.977648,-0.195505 -2.277836,-0.553057 -3.352036,-0.650874 -1.074199,-0.09782 -1.920115,0.06486 -2.653254,0.03236 -0.733139,-0.03249 -1.350789,-0.26005 -1.952944,-0.227768 -0.602155,0.03228 -1.187565,0.324987 -1.839395,0.764894 -0.651831,0.439908 -1.36651,1.024646 -2.31143,1.350632 -0.94492,0.325987 -2.115013,0.390992 -3.287426,0.439851 -1.172414,0.04886 -2.343237,0.08138 -2.652444,-0.440506 -0.309208,-0.521887 0.243693,-1.595165 1.334475,-2.375995 z"
       style="fill:#dd925d;fill-opacity:1;stroke:#000000;stroke-width:0;stroke-linecap:butt;stroke-linejoin:miter;stroke-miterlimit:4;stroke-dasharray:none;stroke-opacity:1"
       transform="matrix(-0.97662567,0,0,0.97662567,204.11229,2.0999255)" />
  </g>
</svg>
