<?xml version="1.0" encoding="UTF-8" standalone="no"?>
<!-- Created with Inkscape (http://www.inkscape.org/) -->

<svg
   xmlns:dc="http://purl.org/dc/elements/1.1/"
   xmlns:cc="http://creativecommons.org/ns#"
   xmlns:rdf="http://www.w3.org/1999/02/22-rdf-syntax-ns#"
   xmlns:svg="http://www.w3.org/2000/svg"
   xmlns="http://www.w3.org/2000/svg"
   xmlns:sodipodi="http://sodipodi.sourceforge.net/DTD/sodipodi-0.dtd"
   xmlns:inkscape="http://www.inkscape.org/namespaces/inkscape"
   width="200px"
   height="200px"
   viewBox="0 0 200 200"
   version="1.1"
   id="SVGRoot"
   sodipodi:docname="facialhair-1-4.svg"
   inkscape:version="0.92.4 (5da689c313, 2019-01-14)">
  <defs
     id="defs909">
    <inkscape:path-effect
       only_selected="false"
       apply_with_weight="true"
       apply_no_weight="true"
       helper_size="0"
       steps="2"
       weight="33.333333"
       is_visible="true"
       id="path-effect31564"
       effect="bspline" />
    <inkscape:path-effect
       effect="bspline"
       id="path-effect31560"
       is_visible="true"
       weight="33.333333"
       steps="2"
       helper_size="0"
       apply_no_weight="true"
       apply_with_weight="true"
       only_selected="false" />
    <inkscape:path-effect
       only_selected="false"
       apply_with_weight="true"
       apply_no_weight="true"
       helper_size="0"
       steps="2"
       weight="33.333333"
       is_visible="true"
       id="path-effect31556"
       effect="bspline" />
    <inkscape:path-effect
       effect="bspline"
       id="path-effect31552"
       is_visible="true"
       weight="33.333333"
       steps="2"
       helper_size="0"
       apply_no_weight="true"
       apply_with_weight="true"
       only_selected="false" />
    <inkscape:path-effect
       only_selected="false"
       apply_with_weight="true"
       apply_no_weight="true"
       helper_size="0"
       steps="2"
       weight="33.333333"
       is_visible="true"
       id="path-effect31548"
       effect="bspline" />
    <inkscape:path-effect
       effect="bspline"
       id="path-effect31544"
       is_visible="true"
       weight="33.333333"
       steps="2"
       helper_size="0"
       apply_no_weight="true"
       apply_with_weight="true"
       only_selected="false" />
    <inkscape:path-effect
       only_selected="false"
       apply_with_weight="true"
       apply_no_weight="true"
       helper_size="0"
       steps="2"
       weight="33.333333"
       is_visible="true"
       id="path-effect31531"
       effect="bspline" />
    <inkscape:path-effect
       effect="bspline"
       id="path-effect30441"
       is_visible="true"
       weight="33.333333"
       steps="2"
       helper_size="0"
       apply_no_weight="true"
       apply_with_weight="true"
       only_selected="false" />
    <inkscape:path-effect
       effect="bspline"
       id="path-effect12527"
       is_visible="true"
       weight="33.333333"
       steps="2"
       helper_size="0"
       apply_no_weight="true"
       apply_with_weight="true"
       only_selected="false" />
    <inkscape:path-effect
       effect="bspline"
       id="path-effect12520"
       is_visible="true"
       weight="33.333333"
       steps="2"
       helper_size="0"
       apply_no_weight="true"
       apply_with_weight="true"
       only_selected="false" />
    <inkscape:path-effect
       effect="bspline"
       id="path-effect1868"
       is_visible="true"
       weight="33.333333"
       steps="2"
       helper_size="0"
       apply_no_weight="true"
       apply_with_weight="true"
       only_selected="false" />
    <inkscape:path-effect
       effect="bspline"
       id="path-effect1853"
       is_visible="true"
       weight="33.333333"
       steps="2"
       helper_size="0"
       apply_no_weight="true"
       apply_with_weight="true"
       only_selected="false" />
  </defs>
  <sodipodi:namedview
     id="base"
     pagecolor="#ffffff"
     bordercolor="#666666"
     borderopacity="1.0"
     inkscape:pageopacity="0.0"
     inkscape:pageshadow="2"
     inkscape:zoom="3.6203867"
     inkscape:cx="-17.263815"
     inkscape:cy="75.743631"
     inkscape:document-units="px"
     inkscape:current-layer="layer1"
     showgrid="false"
     inkscape:window-width="1920"
     inkscape:window-height="1001"
     inkscape:window-x="-9"
     inkscape:window-y="-9"
     inkscape:window-maximized="1"
     showguides="false" />
  <metadata
     id="metadata912">
    <rdf:RDF>
      <cc:Work
         rdf:about="">
        <dc:format>image/svg+xml</dc:format>
        <dc:type
           rdf:resource="http://purl.org/dc/dcmitype/StillImage" />
        <dc:title></dc:title>
      </cc:Work>
    </rdf:RDF>
  </metadata>
  <g
     inkscape:label="Layer 1"
     inkscape:groupmode="layer"
     id="layer1">
    <path
       style="fill:#dd925d;stroke:#000000;stroke-width:0;stroke-linecap:butt;stroke-linejoin:miter;stroke-opacity:1;fill-opacity:1;stroke-miterlimit:4;stroke-dasharray:none"
       d="m 82.081995,94.348277 c 1.358574,-0.06908 4.074674,-0.207187 6.146078,-0.621639 2.071403,-0.414451 3.499058,-1.105252 5.051914,-1.3927 1.552856,-0.287448 3.234571,-0.172262 4.385058,0.02338 1.150487,0.195647 1.77231,0.472013 2.186767,0.482967 0.414458,0.01095 0.621768,-0.242428 0.770658,-0.174031 0.14889,0.0684 0.24136,0.461376 0.49559,0.50709 0.25422,0.04572 0.66778,-0.252966 0.88584,-0.150145 0.21806,0.102822 0.24115,0.610592 0.48336,1.048803 0.24221,0.438211 0.7017,0.805802 0.81702,1.253928 0.11533,0.448126 -0.11492,0.977675 -0.21876,1.415546 -0.10384,0.437871 -0.0809,0.782345 -0.41516,0.863218 -0.33431,0.08087 -1.02298,-0.102775 -1.57591,-0.367702 -0.55293,-0.264928 -0.96683,-0.609847 -1.415203,-0.633234 -0.448371,-0.02339 -0.93163,0.275774 -1.57734,0.322011 -0.64571,0.04624 -1.449382,-0.160422 -2.209218,-0.32162 -0.759836,-0.161198 -1.472771,-0.276187 -2.163509,-0.253284 -0.690739,0.0229 -1.35749,0.183842 -2.221709,0.229989 -0.864219,0.04615 -1.921177,-0.02279 -2.934416,-0.114886 -1.013239,-0.0921 -1.979137,-0.207089 -2.969193,-0.103606 -0.990056,0.103483 -2.001929,0.425443 -3.061726,0.379456 -1.059796,-0.04599 -2.163344,-0.459818 -2.473739,-0.909388 -0.310394,-0.44957 0.17274,-0.932704 0.413927,-1.17389 0.241187,-0.241187 0.241097,-0.241187 1.599671,-0.310267 z"
       id="path31558"
       inkscape:connector-curvature="0"
       inkscape:path-effect="#path-effect31560"
       inkscape:original-d="m 80.723421,94.417357 c 2.7171,-0.139107 5.4332,-0.277214 8.1483,-0.414321 1.427553,-0.691267 2.855208,-1.382068 4.281311,-2.071602 1.679884,0.113992 3.361599,0.229178 5.040898,0.345267 0.622138,0.275061 1.243961,0.551427 1.86444,0.828641 0.20801,-0.254007 0.41532,-0.507392 0.62148,-0.759587 0.0927,0.388619 0.18514,0.781605 0.27622,1.173907 0.41608,-0.300785 0.82964,-0.599462 1.24296,-0.897694 0.024,0.504008 0.047,1.011783 0.0691,1.519175 0.46222,0.367978 0.92171,0.735569 1.38107,1.104854 -0.22912,0.528269 -0.45936,1.057819 -0.69054,1.588228 0.0241,0.345054 0.047,0.689534 0.0691,1.035801 -0.69139,-0.185638 -1.38007,-0.369284 -2.0716,-0.552427 -0.41374,-0.346609 -0.82764,-0.691534 -1.242965,-1.035801 -0.482489,0.298303 -0.965748,0.597463 -1.450122,0.897694 -0.806573,-0.208661 -1.610245,-0.41532 -2.416868,-0.62148 -0.713169,-0.116189 -1.426104,-0.231178 -2.140656,-0.345267 -0.667281,0.160309 -1.334032,0.321249 -2.002548,0.483374 -1.05968,-0.07017 -2.116638,-0.139107 -3.176456,-0.207161 -0.966598,-0.11619 -1.932496,-0.231178 -2.900243,-0.345267 -1.012693,0.321539 -2.024566,0.643499 -3.03835,0.966748 -1.10516,-0.41581 -2.208708,-0.829641 -3.314563,-1.242961 0.484614,-0.484614 0.967748,-0.967748 1.450122,-1.450121 z" />
    <path
       inkscape:original-d="m 80.723421,94.417357 c 2.7171,-0.139107 5.4332,-0.277214 8.1483,-0.414321 1.427553,-0.691267 2.855208,-1.382068 4.281311,-2.071602 1.679884,0.113992 3.361599,0.229178 5.040898,0.345267 0.622138,0.275061 1.243961,0.551427 1.86444,0.828641 0.20801,-0.254007 0.41532,-0.507392 0.62148,-0.759587 0.0927,0.388619 0.18514,0.781605 0.27622,1.173907 0.41608,-0.300785 0.82964,-0.599462 1.24296,-0.897694 0.024,0.504008 0.047,1.011783 0.0691,1.519175 0.46222,0.367978 0.92171,0.735569 1.38107,1.104854 -0.22912,0.528269 -0.45936,1.057819 -0.69054,1.588228 0.0241,0.345054 0.047,0.689534 0.0691,1.035801 -0.69139,-0.185638 -1.38007,-0.369284 -2.0716,-0.552427 -0.41374,-0.346609 -0.82764,-0.691534 -1.242965,-1.035801 -0.482489,0.298303 -0.965748,0.597463 -1.450122,0.897694 -0.806573,-0.208661 -1.610245,-0.41532 -2.416868,-0.62148 -0.713169,-0.116189 -1.426104,-0.231178 -2.140656,-0.345267 -0.667281,0.160309 -1.334032,0.321249 -2.002548,0.483374 -1.05968,-0.07017 -2.116638,-0.139107 -3.176456,-0.207161 -0.966598,-0.11619 -1.932496,-0.231178 -2.900243,-0.345267 -1.012693,0.321539 -2.024566,0.643499 -3.03835,0.966748 -1.10516,-0.41581 -2.208708,-0.829641 -3.314563,-1.242961 0.484614,-0.484614 0.967748,-0.967748 1.450122,-1.450121 z"
       inkscape:path-effect="#path-effect31564"
       inkscape:connector-curvature="0"
       id="path31562"
       d="m 82.081995,94.348277 c 1.358574,-0.06908 4.074674,-0.207187 6.146078,-0.621639 2.071403,-0.414451 3.499058,-1.105252 5.051914,-1.3927 1.552856,-0.287448 3.234571,-0.172262 4.385058,0.02338 1.150487,0.195647 1.77231,0.472013 2.186767,0.482967 0.414458,0.01095 0.621768,-0.242428 0.770658,-0.174031 0.14889,0.0684 0.24136,0.461376 0.49559,0.50709 0.25422,0.04572 0.66778,-0.252966 0.88584,-0.150145 0.21806,0.102822 0.24115,0.610592 0.48336,1.048803 0.24221,0.438211 0.7017,0.805802 0.81702,1.253928 0.11533,0.448126 -0.11492,0.977675 -0.21876,1.415546 -0.10384,0.437871 -0.0809,0.782345 -0.41516,0.863218 -0.33431,0.08087 -1.02298,-0.102775 -1.57591,-0.367702 -0.55293,-0.264928 -0.96683,-0.609847 -1.415203,-0.633234 -0.448371,-0.02339 -0.93163,0.275774 -1.57734,0.322011 -0.64571,0.04624 -1.449382,-0.160422 -2.209218,-0.32162 -0.759836,-0.161198 -1.472771,-0.276187 -2.163509,-0.253284 -0.690739,0.0229 -1.35749,0.183842 -2.221709,0.229989 -0.864219,0.04615 -1.921177,-0.02279 -2.934416,-0.114886 -1.013239,-0.0921 -1.979137,-0.207089 -2.969193,-0.103606 -0.990056,0.103483 -2.001929,0.425443 -3.061726,0.379456 -1.059796,-0.04599 -2.163344,-0.459818 -2.473739,-0.909388 -0.310394,-0.44957 0.17274,-0.932704 0.413927,-1.17389 0.241187,-0.241187 0.241097,-0.241187 1.599671,-0.310267 z"
       style="fill:#dd925d;fill-opacity:1;stroke:#000000;stroke-width:0;stroke-linecap:butt;stroke-linejoin:miter;stroke-miterlimit:4;stroke-dasharray:none;stroke-opacity:1"
       transform="matrix(-0.98080695,0,0,0.98080695,204.13592,1.7688455)" />
  </g>
</svg>
