<?xml version="1.0" encoding="UTF-8" standalone="no"?>
<!-- Created with Inkscape (http://www.inkscape.org/) -->

<svg
   xmlns:dc="http://purl.org/dc/elements/1.1/"
   xmlns:cc="http://creativecommons.org/ns#"
   xmlns:rdf="http://www.w3.org/1999/02/22-rdf-syntax-ns#"
   xmlns:svg="http://www.w3.org/2000/svg"
   xmlns="http://www.w3.org/2000/svg"
   xmlns:sodipodi="http://sodipodi.sourceforge.net/DTD/sodipodi-0.dtd"
   xmlns:inkscape="http://www.inkscape.org/namespaces/inkscape"
   width="200px"
   height="200px"
   viewBox="0 0 200 200"
   version="1.1"
   id="SVGRoot"
   sodipodi:docname="facialhair-5-3.svg"
   inkscape:version="0.92.4 (5da689c313, 2019-01-14)">
  <defs
     id="defs909">
    <inkscape:path-effect
       effect="bspline"
       id="path-effect12527"
       is_visible="true"
       weight="33.333333"
       steps="2"
       helper_size="0"
       apply_no_weight="true"
       apply_with_weight="true"
       only_selected="false" />
    <inkscape:path-effect
       effect="bspline"
       id="path-effect12520"
       is_visible="true"
       weight="33.333333"
       steps="2"
       helper_size="0"
       apply_no_weight="true"
       apply_with_weight="true"
       only_selected="false" />
    <inkscape:path-effect
       effect="bspline"
       id="path-effect1868"
       is_visible="true"
       weight="33.333333"
       steps="2"
       helper_size="0"
       apply_no_weight="true"
       apply_with_weight="true"
       only_selected="false" />
    <inkscape:path-effect
       effect="bspline"
       id="path-effect1853"
       is_visible="true"
       weight="33.333333"
       steps="2"
       helper_size="0"
       apply_no_weight="true"
       apply_with_weight="true"
       only_selected="false" />
    <inkscape:path-effect
       effect="bspline"
       id="path-effect13204-9"
       is_visible="true"
       weight="33.333333"
       steps="2"
       helper_size="0"
       apply_no_weight="true"
       apply_with_weight="true"
       only_selected="false" />
    <inkscape:path-effect
       effect="bspline"
       id="path-effect13200-0"
       is_visible="true"
       weight="33.333333"
       steps="2"
       helper_size="0"
       apply_no_weight="true"
       apply_with_weight="true"
       only_selected="false" />
    <inkscape:path-effect
       effect="bspline"
       id="path-effect13267-1"
       is_visible="true"
       weight="33.333333"
       steps="2"
       helper_size="0"
       apply_no_weight="true"
       apply_with_weight="true"
       only_selected="false" />
    <inkscape:path-effect
       only_selected="false"
       apply_with_weight="true"
       apply_no_weight="true"
       helper_size="0"
       steps="2"
       weight="33.333333"
       is_visible="true"
       id="path-effect12527-9"
       effect="bspline" />
    <inkscape:path-effect
       only_selected="false"
       apply_with_weight="true"
       apply_no_weight="true"
       helper_size="0"
       steps="2"
       weight="33.333333"
       is_visible="true"
       id="path-effect12520-6"
       effect="bspline" />
    <inkscape:path-effect
       only_selected="false"
       apply_with_weight="true"
       apply_no_weight="true"
       helper_size="0"
       steps="2"
       weight="33.333333"
       is_visible="true"
       id="path-effect1868-8"
       effect="bspline" />
    <inkscape:path-effect
       only_selected="false"
       apply_with_weight="true"
       apply_no_weight="true"
       helper_size="0"
       steps="2"
       weight="33.333333"
       is_visible="true"
       id="path-effect1853-2"
       effect="bspline" />
    <inkscape:path-effect
       only_selected="false"
       apply_with_weight="true"
       apply_no_weight="true"
       helper_size="0"
       steps="2"
       weight="33.333333"
       is_visible="true"
       id="path-effect13238"
       effect="bspline" />
    <inkscape:path-effect
       only_selected="false"
       apply_with_weight="true"
       apply_no_weight="true"
       helper_size="0"
       steps="2"
       weight="33.333333"
       is_visible="true"
       id="path-effect13267"
       effect="bspline" />
    <inkscape:path-effect
       only_selected="false"
       apply_with_weight="true"
       apply_no_weight="true"
       helper_size="0"
       steps="2"
       weight="33.333333"
       is_visible="true"
       id="path-effect56117"
       effect="bspline" />
    <inkscape:path-effect
       only_selected="false"
       apply_with_weight="true"
       apply_no_weight="true"
       helper_size="0"
       steps="2"
       weight="33.333333"
       is_visible="true"
       id="path-effect13204"
       effect="bspline" />
    <inkscape:path-effect
       only_selected="false"
       apply_with_weight="true"
       apply_no_weight="true"
       helper_size="0"
       steps="2"
       weight="33.333333"
       is_visible="true"
       id="path-effect13200"
       effect="bspline" />
    <inkscape:path-effect
       only_selected="false"
       apply_with_weight="true"
       apply_no_weight="true"
       helper_size="0"
       steps="2"
       weight="33.333333"
       is_visible="true"
       id="path-effect12527-2"
       effect="bspline" />
    <inkscape:path-effect
       only_selected="false"
       apply_with_weight="true"
       apply_no_weight="true"
       helper_size="0"
       steps="2"
       weight="33.333333"
       is_visible="true"
       id="path-effect12520-3"
       effect="bspline" />
    <inkscape:path-effect
       only_selected="false"
       apply_with_weight="true"
       apply_no_weight="true"
       helper_size="0"
       steps="2"
       weight="33.333333"
       is_visible="true"
       id="path-effect1868-6"
       effect="bspline" />
    <inkscape:path-effect
       only_selected="false"
       apply_with_weight="true"
       apply_no_weight="true"
       helper_size="0"
       steps="2"
       weight="33.333333"
       is_visible="true"
       id="path-effect1853-1"
       effect="bspline" />
    <inkscape:path-effect
       only_selected="false"
       apply_with_weight="true"
       apply_no_weight="true"
       helper_size="0"
       steps="2"
       weight="33.333333"
       is_visible="true"
       id="path-effect13238-5"
       effect="bspline" />
    <inkscape:path-effect
       only_selected="false"
       apply_with_weight="true"
       apply_no_weight="true"
       helper_size="0"
       steps="2"
       weight="33.333333"
       is_visible="true"
       id="path-effect13267-3"
       effect="bspline" />
    <inkscape:path-effect
       only_selected="false"
       apply_with_weight="true"
       apply_no_weight="true"
       helper_size="0"
       steps="2"
       weight="33.333333"
       is_visible="true"
       id="path-effect56117-9"
       effect="bspline" />
    <inkscape:path-effect
       only_selected="false"
       apply_with_weight="true"
       apply_no_weight="true"
       helper_size="0"
       steps="2"
       weight="33.333333"
       is_visible="true"
       id="path-effect13204-96"
       effect="bspline" />
    <inkscape:path-effect
       only_selected="false"
       apply_with_weight="true"
       apply_no_weight="true"
       helper_size="0"
       steps="2"
       weight="33.333333"
       is_visible="true"
       id="path-effect13200-9"
       effect="bspline" />
    <inkscape:path-effect
       effect="bspline"
       id="path-effect31582"
       is_visible="true"
       weight="33.333333"
       steps="2"
       helper_size="0"
       apply_no_weight="true"
       apply_with_weight="true"
       only_selected="false" />
    <inkscape:path-effect
       effect="bspline"
       id="path-effect31578"
       is_visible="true"
       weight="33.333333"
       steps="2"
       helper_size="0"
       apply_no_weight="true"
       apply_with_weight="true"
       only_selected="false" />
    <inkscape:path-effect
       effect="bspline"
       id="path-effect31572"
       is_visible="true"
       weight="33.333333"
       steps="2"
       helper_size="0"
       apply_no_weight="true"
       apply_with_weight="true"
       only_selected="false" />
    <inkscape:path-effect
       effect="bspline"
       id="path-effect31568"
       is_visible="true"
       weight="33.333333"
       steps="2"
       helper_size="0"
       apply_no_weight="true"
       apply_with_weight="true"
       only_selected="false" />
    <inkscape:path-effect
       only_selected="false"
       apply_with_weight="true"
       apply_no_weight="true"
       helper_size="0"
       steps="2"
       weight="33.333333"
       is_visible="true"
       id="path-effect31564"
       effect="bspline" />
    <inkscape:path-effect
       effect="bspline"
       id="path-effect31560"
       is_visible="true"
       weight="33.333333"
       steps="2"
       helper_size="0"
       apply_no_weight="true"
       apply_with_weight="true"
       only_selected="false" />
    <inkscape:path-effect
       only_selected="false"
       apply_with_weight="true"
       apply_no_weight="true"
       helper_size="0"
       steps="2"
       weight="33.333333"
       is_visible="true"
       id="path-effect31556"
       effect="bspline" />
    <inkscape:path-effect
       effect="bspline"
       id="path-effect31552"
       is_visible="true"
       weight="33.333333"
       steps="2"
       helper_size="0"
       apply_no_weight="true"
       apply_with_weight="true"
       only_selected="false" />
    <inkscape:path-effect
       only_selected="false"
       apply_with_weight="true"
       apply_no_weight="true"
       helper_size="0"
       steps="2"
       weight="33.333333"
       is_visible="true"
       id="path-effect31548"
       effect="bspline" />
    <inkscape:path-effect
       effect="bspline"
       id="path-effect31544"
       is_visible="true"
       weight="33.333333"
       steps="2"
       helper_size="0"
       apply_no_weight="true"
       apply_with_weight="true"
       only_selected="false" />
    <inkscape:path-effect
       only_selected="false"
       apply_with_weight="true"
       apply_no_weight="true"
       helper_size="0"
       steps="2"
       weight="33.333333"
       is_visible="true"
       id="path-effect31531"
       effect="bspline" />
    <inkscape:path-effect
       effect="bspline"
       id="path-effect30441"
       is_visible="true"
       weight="33.333333"
       steps="2"
       helper_size="0"
       apply_no_weight="true"
       apply_with_weight="true"
       only_selected="false" />
    <inkscape:path-effect
       effect="bspline"
       id="path-effect12527-8"
       is_visible="true"
       weight="33.333333"
       steps="2"
       helper_size="0"
       apply_no_weight="true"
       apply_with_weight="true"
       only_selected="false" />
    <inkscape:path-effect
       effect="bspline"
       id="path-effect12520-8"
       is_visible="true"
       weight="33.333333"
       steps="2"
       helper_size="0"
       apply_no_weight="true"
       apply_with_weight="true"
       only_selected="false" />
    <inkscape:path-effect
       effect="bspline"
       id="path-effect1868-0"
       is_visible="true"
       weight="33.333333"
       steps="2"
       helper_size="0"
       apply_no_weight="true"
       apply_with_weight="true"
       only_selected="false" />
    <inkscape:path-effect
       effect="bspline"
       id="path-effect1853-4"
       is_visible="true"
       weight="33.333333"
       steps="2"
       helper_size="0"
       apply_no_weight="true"
       apply_with_weight="true"
       only_selected="false" />
  </defs>
  <sodipodi:namedview
     id="base"
     pagecolor="#ffffff"
     bordercolor="#666666"
     borderopacity="1.0"
     inkscape:pageopacity="0.0"
     inkscape:pageshadow="2"
     inkscape:zoom="5.12"
     inkscape:cx="93.707207"
     inkscape:cy="128.69033"
     inkscape:document-units="px"
     inkscape:current-layer="layer1"
     showgrid="false"
     inkscape:window-width="1920"
     inkscape:window-height="1001"
     inkscape:window-x="-9"
     inkscape:window-y="-9"
     inkscape:window-maximized="1"
     showguides="false" />
  <metadata
     id="metadata912">
    <rdf:RDF>
      <cc:Work
         rdf:about="">
        <dc:format>image/svg+xml</dc:format>
        <dc:type
           rdf:resource="http://purl.org/dc/dcmitype/StillImage" />
        <dc:title></dc:title>
      </cc:Work>
    </rdf:RDF>
  </metadata>
  <g
     inkscape:label="Layer 1"
     inkscape:groupmode="layer"
     id="layer1">
    <g
       id="layer1-0"
       inkscape:label="Layer 1"
       transform="translate(0.4846729,0.53758822)">
      <g
         transform="translate(0.22595166,4.7695585)"
         inkscape:label="Layer 1"
         id="layer1-1" />
      <g
         id="g1240">
        <path
           transform="translate(0.22595166,4.7695585)"
           sodipodi:nodetypes="ccccccccccccccccccccccccccccc"
           inkscape:original-d="m 83.14029,116.30728 c 1.336032,-0.1391 2.671064,-0.27721 4.005097,-0.41432 1.150948,-0.73696 2.302779,-1.47414 3.452669,-2.20971 1.150727,-0.50688 2.30278,-1.01378 3.45267,-1.51917 1.012722,-0.27692 2.026566,-0.55343 3.03835,-0.82864 1.33447,0.41283 2.671064,0.82764 4.005094,1.24296 0.3231,0.27508 0.6455,0.55143 0.96675,0.82864 0.50726,0.0911 1.01378,0.18314 1.51917,0.27621 0.82835,-0.78238 1.65829,-1.56621 2.48593,-2.34781 0.001,-0.001 0.001,-0.001 0,0 1.65828,0.045 3.31556,0.0911 4.97184,0.1381 1.33604,0.41333 2.67106,0.82765 4.0051,1.24297 1.15163,0.68938 2.30278,1.38006 3.45267,2.0716 1.65786,0.27514 3.31556,0.55143 4.97184,0.82864 1.51943,0.41312 3.03935,0.82764 4.55753,1.24296 -1.60953,0.73524 -3.22149,1.47214 -4.83374,2.20971 -1.33503,-0.13921 -2.66907,-0.27721 -4.0051,-0.41432 -1.15065,-0.73806 -2.30078,-1.47414 -3.45267,-2.20971 -1.38037,-0.55355 -2.76113,-1.10585 -4.1432,-1.65728 -0.59769,0.45953 -1.19593,0.91971 -1.79539,1.38107 -1.19815,0.0912 -2.39285,0.18314 -3.59078,0.27621 -0.55192,-0.27746 -1.28799,-0.55343 -1.93349,-0.82864 -1.01254,0.36756 -2.02457,0.73557 -3.03835,1.10485 -0.9669,0.0451 -1.932496,0.0911 -2.900243,0.13811 -1.381561,-0.23143 -2.761136,-0.46136 -4.143204,-0.69053 -0.643877,-0.23132 -1.287997,-0.46136 -1.933495,-0.69054 -0.736221,0.96661 -1.472139,2.02457 -2.209709,3.03835 -1.796391,0.55205 -3.589776,1.10386 -5.386165,1.65728 -0.505728,-1.29085 -1.011783,-2.57899 -1.519174,-3.86699 z"
           inkscape:path-effect="#path-effect31582"
           inkscape:connector-curvature="0"
           id="path31580"
           d="m 84.061444,116.88241 c 0.414969,-0.71335 1.750001,-0.85146 2.992526,-1.28881 1.242525,-0.43735 2.39436,-1.17452 3.54469,-1.79564 1.15033,-0.62112 2.302382,-1.12802 3.383677,-1.51907 1.081295,-0.39106 2.095141,-0.66756 3.267989,-0.59849 1.172848,0.0691 2.509443,0.48388 3.337734,0.82901 0.82829,0.34514 1.15069,0.62149 1.56531,0.80566 0.41461,0.18416 0.92112,0.27625 1.58811,-0.069 0.66699,-0.34521 1.49693,-1.12904 1.91073,-1.51986 0.41381,-0.39081 0.41381,-0.39081 1.24294,-0.36778 0.82912,0.023 2.4864,0.0691 3.98239,0.29933 1.49599,0.23026 2.83101,0.64458 4.07368,1.19692 1.24267,0.55234 2.39381,1.24303 3.79795,1.72635 1.40413,0.48332 3.06183,0.7596 4.64962,1.10479 1.58779,0.34519 3.10771,0.75971 3.0623,1.33463 -0.0454,0.57491 -1.65738,1.31181 -3.13117,1.61131 -1.4738,0.2995 -2.80784,0.1615 -4.0515,-0.27605 -1.24366,-0.43754 -2.39378,-1.17363 -3.65978,-1.81816 -1.266,-0.64454 -2.64676,-1.19684 -3.63635,-1.24332 -0.98958,-0.0465 -1.58782,0.4137 -2.48664,0.69038 -0.89883,0.27669 -2.09353,0.36859 -2.9759,0.29322 -0.88237,-0.0754 -1.60414,-0.3847 -2.4328,-0.33885 -0.82866,0.0459 -1.84069,0.41386 -2.83111,0.62124 -0.99042,0.20738 -1.956012,0.25336 -3.130783,0.16126 -1.174771,-0.0921 -2.554346,-0.32203 -3.567439,-0.55224 -1.013093,-0.23021 -1.657212,-0.46026 -2.336989,-0.0842 -0.679777,0.37602 -1.43761,1.41804 -2.704404,2.20133 -1.266794,0.7833 -3.060179,1.33511 -4.211937,0.96631 -1.151757,-0.36879 -1.657812,-1.65693 -1.242844,-2.37027 z"
           style="fill:#dd925d;fill-opacity:1;stroke:#000000;stroke-width:0;stroke-linecap:butt;stroke-linejoin:miter;stroke-miterlimit:4;stroke-dasharray:none;stroke-opacity:1" />
        <path
           style="fill:#dd925d;fill-opacity:1;stroke:#000000;stroke-width:0;stroke-linecap:butt;stroke-linejoin:miter;stroke-miterlimit:4;stroke-dasharray:none;stroke-opacity:1"
           d="m 74.661674,94.7946 c -1.546988,2.642221 -0.03531,5.47518 0.228823,8.19517 0.326599,3.3633 1.392378,6.63098 1.672004,9.99851 0.150849,1.81666 0.110539,3.64918 0,5.46875 -0.08153,1.34205 -0.593684,2.66352 -0.488282,4.00391 0.05573,0.70876 0.395862,1.36571 0.585938,2.05078 0.234334,0.84458 0.568669,1.67013 0.683594,2.53906 0.14085,1.06494 -0.516925,2.28099 0,3.22266 0.612714,1.11616 2.699126,0.8901 3.222656,2.05078 0.257452,0.57077 -0.144633,1.24714 -0.292969,1.85547 -0.09755,0.40003 -0.343731,0.7628 -0.390625,1.17188 -0.119155,1.03942 0.0282,2.11282 0.292969,3.125 0.243401,0.93049 1.011485,1.68838 1.171875,2.63671 0.196097,1.15947 -0.499727,2.35801 -0.292969,3.51562 0.189479,1.06088 1.11435,1.8821 1.367188,2.92969 0.412693,1.70992 0.206691,3.51446 0.195312,5.27344 -0.0084,1.30368 -1.05144,2.92304 -0.195312,3.90625 0.729623,0.83793 2.442407,-0.38803 3.320312,0.29297 0.463686,0.35969 0.420835,1.09702 0.585938,1.66015 0.479827,1.63661 -0.278481,4.08315 1.171873,4.98048 0.869911,0.53821 2.911578,-2.42557 2.986894,-0.70441 0.214787,4.90842 2.40455,0.3244 4.044357,1.61969 1.845557,1.45782 3.214331,0.0389 4.821541,0.0335 1.713279,-0.006 3.431909,-0.21078 5.139399,-0.0699 2.40444,0.1984 4.79824,1.92794 7.12315,1.28337 0.76726,-0.21272 1.11158,-1.16849 1.79707,-1.5735 1.15254,-0.68096 2.9532,-0.3134 3.7751,-1.37006 0.59281,-0.76213 -0.0791,-1.98914 0.28771,-2.8823 0.30599,-0.74509 1.16603,-1.15523 1.51917,-1.87917 0.97656,-2.00189 0.31772,-4.62764 1.50935,-6.50946 0.53309,-0.84184 1.86962,-0.97907 2.34375,-1.85547 0.68434,-1.26494 0.1755,-2.87485 0.39063,-4.29687 0.23399,-1.54659 0.32185,-3.16926 0.97656,-4.58985 0.51506,-1.11755 1.92268,-1.7424 2.24609,-2.92968 0.49132,-1.80369 -1.02439,-3.72832 -0.68359,-5.56641 0.31592,-1.70388 2.17139,-2.87808 2.44141,-4.58984 0.23183,-1.46964 -0.67609,-2.91044 -0.78125,-4.39453 -0.13351,-1.88442 -0.0341,-3.7889 0.19531,-5.66407 0.13337,-1.08999 0.5014,-2.13975 0.68359,-3.22265 0.52253,-3.10567 0.64655,-6.2698 1.17188,-9.375 0.35677,-2.10886 1.16805,-4.14273 1.34278,-6.274413 0.0985,-1.201744 1.00271,-3.336685 -0.17091,-3.613282 -1.75183,-0.412869 -1.91939,3.061213 -2.63672,4.711918 -0.68109,1.567317 -0.94889,3.287867 -1.5625,4.882807 -0.5388,1.40051 -1.02886,2.84918 -1.85546,4.10156 -0.5838,0.88453 -1.71427,1.37694 -2.14844,2.34375 -0.5228,1.16419 -0.35987,2.53277 -0.39063,3.80859 -0.0291,1.20584 0.42218,2.42863 0.19532,3.61329 -0.17531,0.91552 -0.72947,1.71859 -1.17188,2.53906 -0.61873,1.14749 -1.42456,2.18582 -2.06627,3.32062 -0.94321,1.66798 -1.31676,3.71088 -2.61716,5.11827 -1.34882,1.45979 -3.11698,2.80209 -5.07812,3.125 -1.58171,0.26043 -3.47394,-0.0269 -4.6875,-1.07422 -1.0846,-0.93603 -0.30568,-3.31622 -1.5625,-4.00391 -0.58245,-0.3187 -1.45753,-0.0512 -1.95313,0.39063 -0.79148,0.70557 -0.36077,2.16417 -0.97656,3.02734 -0.56715,0.79499 -1.45723,1.34824 -2.343752,1.75782 -0.939137,0.43389 -2.001009,0.81348 -3.027344,0.68359 -1.415443,-0.17913 -2.739952,-1.00784 -3.808594,-1.95313 -0.825032,-0.7298 -1.333774,-1.76426 -1.855469,-2.73437 -0.566895,-1.05416 -0.620757,-2.38464 -1.367187,-3.32031 -0.422421,-0.52951 -1.19581,-0.67872 -1.660156,-1.17188 -0.71614,-0.76058 -1.250932,-1.69903 -1.650104,-2.66443 -1.043812,-2.52447 -0.660902,-5.5283 -1.865521,-7.9801 -0.99988,-2.0351 -2.943563,-3.45412 -4.296875,-5.27343 -0.727467,-0.97797 -1.59613,-1.89647 -2.050781,-3.02735 -0.505041,-1.25623 -0.420969,-2.67567 -0.683594,-4.0039 -0.258881,-1.30929 -0.438981,-2.646207 -0.878906,-3.906256 -0.295206,-0.845541 -0.170982,-2.002584 -1.169842,-2.418727 z"
           id="path430"
           inkscape:connector-curvature="0"
           sodipodi:nodetypes="caaaaaaaaaaaaaaaaaaassaaaaaaaaaaaaaaaaaaaaaaaaaaaaaaaaaaaaaaaaaaaaaasc" />
      </g>
    </g>
  </g>
</svg>
