<?xml version="1.0" encoding="UTF-8" standalone="no"?>
<!-- Created with Inkscape (http://www.inkscape.org/) -->

<svg
   xmlns:dc="http://purl.org/dc/elements/1.1/"
   xmlns:cc="http://creativecommons.org/ns#"
   xmlns:rdf="http://www.w3.org/1999/02/22-rdf-syntax-ns#"
   xmlns:svg="http://www.w3.org/2000/svg"
   xmlns="http://www.w3.org/2000/svg"
   xmlns:sodipodi="http://sodipodi.sourceforge.net/DTD/sodipodi-0.dtd"
   xmlns:inkscape="http://www.inkscape.org/namespaces/inkscape"
   width="200px"
   height="200px"
   viewBox="0 0 200 200"
   version="1.1"
   id="SVGRoot"
   sodipodi:docname="facialhair-2-12.svg"
   inkscape:version="0.92.4 (5da689c313, 2019-01-14)">
  <defs
     id="defs909">
    <inkscape:path-effect
       effect="bspline"
       id="path-effect12527"
       is_visible="true"
       weight="33.333333"
       steps="2"
       helper_size="0"
       apply_no_weight="true"
       apply_with_weight="true"
       only_selected="false" />
    <inkscape:path-effect
       effect="bspline"
       id="path-effect12520"
       is_visible="true"
       weight="33.333333"
       steps="2"
       helper_size="0"
       apply_no_weight="true"
       apply_with_weight="true"
       only_selected="false" />
    <inkscape:path-effect
       effect="bspline"
       id="path-effect1868"
       is_visible="true"
       weight="33.333333"
       steps="2"
       helper_size="0"
       apply_no_weight="true"
       apply_with_weight="true"
       only_selected="false" />
    <inkscape:path-effect
       effect="bspline"
       id="path-effect1853"
       is_visible="true"
       weight="33.333333"
       steps="2"
       helper_size="0"
       apply_no_weight="true"
       apply_with_weight="true"
       only_selected="false" />
  </defs>
  <sodipodi:namedview
     id="base"
     pagecolor="#ffffff"
     bordercolor="#666666"
     borderopacity="1.0"
     inkscape:pageopacity="0.0"
     inkscape:pageshadow="2"
     inkscape:zoom="7.2407734"
     inkscape:cx="115.50439"
     inkscape:cy="94.971205"
     inkscape:document-units="px"
     inkscape:current-layer="layer1"
     showgrid="false"
     inkscape:window-width="1920"
     inkscape:window-height="1001"
     inkscape:window-x="-9"
     inkscape:window-y="-9"
     inkscape:window-maximized="1"
     showguides="false" />
  <metadata
     id="metadata912">
    <rdf:RDF>
      <cc:Work
         rdf:about="">
        <dc:format>image/svg+xml</dc:format>
        <dc:type
           rdf:resource="http://purl.org/dc/dcmitype/StillImage" />
        <dc:title></dc:title>
      </cc:Work>
    </rdf:RDF>
  </metadata>
  <g
     inkscape:label="Layer 1"
     inkscape:groupmode="layer"
     id="layer1">
    <path
       style="fill:#dd925d;fill-opacity:0.19607843;stroke-width:0;stroke-miterlimit:4;stroke-dasharray:none"
       d="M 135.50391 95.472656 C 135.40921 96.117076 135.36607 96.411724 135.22656 97.365234 C 135.19796 97.560854 135.13606 97.966634 135.10547 98.175781 C 135.26627 97.543254 135.38959 96.956597 135.49414 96.404297 C 135.49814 96.097347 135.49791 95.782886 135.50391 95.472656 z M 135.10547 98.175781 C 134.97685 98.681751 134.85336 99.184108 134.67773 99.736328 C 133.70429 102.79699 131.94677 106.5168 129.85547 109.85938 C 127.76415 113.20194 125.34167 116.16414 122.26758 118.05273 C 120.8246 118.93923 119.24808 119.58137 117.79688 120.17773 C 115.84185 119.93252 114.02474 119.52593 112.46484 119.04492 C 110.72335 118.5079 109.28935 117.88994 107.66797 117.66211 C 106.04659 117.43429 104.23478 117.59771 102.68164 117.69531 C 101.12851 117.79291 99.796016 117.82478 98.191406 118.06836 C 96.586786 118.31194 94.638523 118.7682 92.658203 118.99609 C 91.154443 119.16914 89.771194 119.20092 88.683594 119.21094 C 88.470924 119.12864 88.285173 119.04899 88.064453 118.96484 C 86.441963 118.34622 84.599223 117.66189 82.908203 116.4082 C 81.217183 115.1545 79.680404 113.33202 78.246094 111.52539 C 76.811784 109.71877 75.480914 107.92908 74.302734 105.65039 C 73.124564 103.37171 72.277088 101.66418 71.314453 99.646484 C 70.732989 98.42773 69.840039 96.661561 69.630859 95.962891 C 69.827485 97.792608 69.668536 98.902965 69.660156 100.98047 C 69.707113 103.43457 69.781679 106.48547 69.927734 109.7832 C 69.946436 110.20546 69.976915 110.65425 69.998047 111.08398 C 70.003816 111.1674 70.005784 111.24858 70.011719 111.33203 C 70.562922 119.08288 71.836057 126.99189 74.695312 131.91602 C 78.091924 137.76557 88.378152 142.25128 102.58594 142.26758 C 114.85977 142.28167 122.52989 140.29706 128.55273 133.41602 C 134.27579 126.87747 135.33731 116.70514 135.49609 107.68555 C 135.50158 107.26729 135.50862 106.84726 135.51172 106.44141 C 135.53011 104.45315 135.52072 102.57221 135.50781 100.77539 C 135.17065 99.803338 134.99638 98.921131 135.10547 98.175781 z M 104.12305 120.88477 C 104.57765 120.88277 105.03411 120.89377 105.48242 120.91797 C 107.27563 121.01567 108.94847 121.34074 110.0918 121.95898 C 111.23513 122.57722 111.85122 123.49009 112.29492 124.28711 C 112.37742 124.43519 112.45186 124.5704 112.52734 124.70508 C 112.36421 125.75487 112.4779 126.86983 112.5332 127.89844 C 112.6357 129.80292 112.4982 131.39862 111.71289 132.50586 C 110.92753 133.61311 109.49613 134.23019 108.48828 134.52344 C 107.48043 134.81669 106.89886 134.78478 106.48828 134.09961 C 106.0777 133.41445 105.8397 132.08107 105.77148 130.68164 C 105.70328 129.28222 105.80638 127.81783 105.10742 127.08594 C 104.40837 126.35405 102.90374 126.35363 102.20312 126.8418 C 101.50249 127.32997 101.6049 128.30534 101.51953 129.64062 C 101.43413 130.97591 101.1619 132.66678 100.56445 133.5625 C 99.966986 134.45822 99.044802 134.55714 98.138672 134.16602 C 97.232542 133.7749 96.345815 132.89697 95.953125 131.57812 C 95.560435 130.25926 95.663654 128.50158 95.714844 127.03711 C 95.752244 125.96693 95.757194 125.05428 95.546875 124.24609 C 96.040065 123.64733 96.428771 122.89161 96.994141 122.36523 C 97.746101 121.66514 98.805212 121.37365 100.29102 121.16211 C 101.40537 121.00346 102.75928 120.89005 104.12305 120.88477 z "
       id="path31657" />
  </g>
</svg>
