<?xml version="1.0" encoding="UTF-8" standalone="no"?>
<!-- Created with Inkscape (http://www.inkscape.org/) -->

<svg
   xmlns:dc="http://purl.org/dc/elements/1.1/"
   xmlns:cc="http://creativecommons.org/ns#"
   xmlns:rdf="http://www.w3.org/1999/02/22-rdf-syntax-ns#"
   xmlns:svg="http://www.w3.org/2000/svg"
   xmlns="http://www.w3.org/2000/svg"
   xmlns:sodipodi="http://sodipodi.sourceforge.net/DTD/sodipodi-0.dtd"
   xmlns:inkscape="http://www.inkscape.org/namespaces/inkscape"
   width="200px"
   height="200px"
   viewBox="0 0 200 200"
   version="1.1"
   id="SVGRoot"
   sodipodi:docname="facialhair-6-2.svg"
   inkscape:version="0.92.4 (5da689c313, 2019-01-14)">
  <defs
     id="defs909">
    <inkscape:path-effect
       effect="bspline"
       id="path-effect12527"
       is_visible="true"
       weight="33.333333"
       steps="2"
       helper_size="0"
       apply_no_weight="true"
       apply_with_weight="true"
       only_selected="false" />
    <inkscape:path-effect
       effect="bspline"
       id="path-effect12520"
       is_visible="true"
       weight="33.333333"
       steps="2"
       helper_size="0"
       apply_no_weight="true"
       apply_with_weight="true"
       only_selected="false" />
    <inkscape:path-effect
       effect="bspline"
       id="path-effect1868"
       is_visible="true"
       weight="33.333333"
       steps="2"
       helper_size="0"
       apply_no_weight="true"
       apply_with_weight="true"
       only_selected="false" />
    <inkscape:path-effect
       effect="bspline"
       id="path-effect1853"
       is_visible="true"
       weight="33.333333"
       steps="2"
       helper_size="0"
       apply_no_weight="true"
       apply_with_weight="true"
       only_selected="false" />
    <inkscape:path-effect
       effect="bspline"
       id="path-effect13204-9"
       is_visible="true"
       weight="33.333333"
       steps="2"
       helper_size="0"
       apply_no_weight="true"
       apply_with_weight="true"
       only_selected="false" />
    <inkscape:path-effect
       effect="bspline"
       id="path-effect13200-0"
       is_visible="true"
       weight="33.333333"
       steps="2"
       helper_size="0"
       apply_no_weight="true"
       apply_with_weight="true"
       only_selected="false" />
    <inkscape:path-effect
       effect="bspline"
       id="path-effect13267-1"
       is_visible="true"
       weight="33.333333"
       steps="2"
       helper_size="0"
       apply_no_weight="true"
       apply_with_weight="true"
       only_selected="false" />
    <inkscape:path-effect
       only_selected="false"
       apply_with_weight="true"
       apply_no_weight="true"
       helper_size="0"
       steps="2"
       weight="33.333333"
       is_visible="true"
       id="path-effect12527-5"
       effect="bspline" />
    <inkscape:path-effect
       only_selected="false"
       apply_with_weight="true"
       apply_no_weight="true"
       helper_size="0"
       steps="2"
       weight="33.333333"
       is_visible="true"
       id="path-effect12520-9"
       effect="bspline" />
    <inkscape:path-effect
       only_selected="false"
       apply_with_weight="true"
       apply_no_weight="true"
       helper_size="0"
       steps="2"
       weight="33.333333"
       is_visible="true"
       id="path-effect1868-4"
       effect="bspline" />
    <inkscape:path-effect
       only_selected="false"
       apply_with_weight="true"
       apply_no_weight="true"
       helper_size="0"
       steps="2"
       weight="33.333333"
       is_visible="true"
       id="path-effect1853-4"
       effect="bspline" />
    <inkscape:path-effect
       only_selected="false"
       apply_with_weight="true"
       apply_no_weight="true"
       helper_size="0"
       steps="2"
       weight="33.333333"
       is_visible="true"
       id="path-effect13238"
       effect="bspline" />
    <inkscape:path-effect
       only_selected="false"
       apply_with_weight="true"
       apply_no_weight="true"
       helper_size="0"
       steps="2"
       weight="33.333333"
       is_visible="true"
       id="path-effect13267"
       effect="bspline" />
    <inkscape:path-effect
       only_selected="false"
       apply_with_weight="true"
       apply_no_weight="true"
       helper_size="0"
       steps="2"
       weight="33.333333"
       is_visible="true"
       id="path-effect56117"
       effect="bspline" />
    <inkscape:path-effect
       only_selected="false"
       apply_with_weight="true"
       apply_no_weight="true"
       helper_size="0"
       steps="2"
       weight="33.333333"
       is_visible="true"
       id="path-effect13204"
       effect="bspline" />
    <inkscape:path-effect
       only_selected="false"
       apply_with_weight="true"
       apply_no_weight="true"
       helper_size="0"
       steps="2"
       weight="33.333333"
       is_visible="true"
       id="path-effect13200"
       effect="bspline" />
  </defs>
  <sodipodi:namedview
     id="base"
     pagecolor="#ffffff"
     bordercolor="#666666"
     borderopacity="1.0"
     inkscape:pageopacity="0.0"
     inkscape:pageshadow="2"
     inkscape:zoom="2.56"
     inkscape:cx="279.18362"
     inkscape:cy="118.51883"
     inkscape:document-units="px"
     inkscape:current-layer="layer1"
     showgrid="false"
     inkscape:window-width="1920"
     inkscape:window-height="1001"
     inkscape:window-x="-9"
     inkscape:window-y="-9"
     inkscape:window-maximized="1"
     showguides="false" />
  <metadata
     id="metadata912">
    <rdf:RDF>
      <cc:Work
         rdf:about="">
        <dc:format>image/svg+xml</dc:format>
        <dc:type
           rdf:resource="http://purl.org/dc/dcmitype/StillImage" />
        <dc:title></dc:title>
      </cc:Work>
    </rdf:RDF>
  </metadata>
  <g
     inkscape:label="Layer 1"
     inkscape:groupmode="layer"
     id="layer1">
    <g
       id="layer1-6"
       inkscape:label="Layer 1"
       transform="translate(0.13463962,0.08339252)">
      <path
         id="path31566"
         d="m 133.87117,96.414169 c -0.10613,-0.0172 -1.07435,4.094931 -1.24219,4.529291 -0.53708,1.38998 -1.56238,5.02426 -2.09179,7.32617 -0.52942,2.3019 -0.3687,2.49188 -1.01368,3.71289 -0.14934,0.28271 -1.09073,1.88779 -1.27344,2.19922 -0.86169,0.0734 -1.13769,0.38147 -2.35156,0.85547 -1.4642,0.57176 -2.75433,1.03301 -4.04297,1.24023 -1.28863,0.20722 -2.57746,0.16106 -4.02734,0 -1.44987,-0.16106 -3.06367,-0.43807 -4.8125,-0.57617 -1.74883,-0.1381 -3.63953,-0.13688 -4.85742,0.0469 -1.21789,0.18375 -1.771,0.55289 -2.23047,0.85156 -0.45947,0.29867 -0.82912,0.52925 -1.28906,0.73633 -0.45994,0.20707 -1.01259,0.39034 -1.42774,0.27539 -0.41515,-0.11496 -0.69219,-0.52879 -1.45117,-0.80469 -0.75897,-0.2759 -2.002944,-0.41532 -3.314448,-0.48438 -1.311504,-0.069 -2.692125,-0.0675 -3.980469,-0.0215 -1.288343,0.046 -2.487173,0.13818 -4.121093,0.32227 -1.633921,0.18408 -3.705956,0.46005 -6.123047,-0.11524 -2.301787,-0.54785 -4.508447,-1.22924 -6.326172,-2.59374 -0.547583,-0.41106 -0.862678,-1.23536 -1.183594,-1.9131 -0.583953,-1.23323 -0.936935,-2.14636 -1.328125,-3.87207 -0.39119,-1.7257 -0.369384,-3.84482 -0.829691,-5.13362 -0.460306,-1.28881 -2.371025,-7.412339 -2.555026,-7.274839 -0.184,0.13749 0.73693,6.814699 0.874948,8.426039 0.138022,1.61135 0.460999,3.82132 0.898438,6.69922 0.437439,2.8779 1.525375,5.10231 2.169921,7.8418 0.644547,2.73948 2.016148,3.9882 2.476563,5.48438 0.460415,1.49617 0.986926,2.31138 1.355469,3.14062 0.368544,0.82925 0.920294,1.42772 1.472657,2.48633 0.552362,1.05862 2.129801,1.74754 2.613281,2.80665 0.48348,1.05911 0.898437,1.65588 1.451172,2.18555 0.552735,0.52967 1.241708,0.99025 1.955078,1.51953 0.713371,0.52928 0.568244,0.16427 1.350641,1.15373 0.782397,0.98947 1.300302,1.12788 2.382618,2.09494 1.082317,0.96705 1.831283,2.31347 3.442343,2.7277 1.611061,0.41423 1.63374,1.62298 3.293762,1.66855 1.66002,0.0456 4.627784,0.73223 5.962274,0.64023 1.33449,-0.092 2.13791,-0.92118 3.35742,-0.99024 1.21952,-0.0691 1.68459,-1.28103 3.0879,-1.37304 1.4033,-0.092 2.13761,-0.48122 3.44921,-1.17187 1.3116,-0.69066 2.32462,-1.48786 3.49805,-2.82227 1.17342,-1.33441 1.87583,-1.93956 3.08399,-3.08008 1.20816,-1.14052 2.72663,-2.27413 3.55468,-3.56249 0.82805,-1.28837 1.28372,-2.0224 1.95117,-3.33401 0.66745,-1.31159 1.30334,-1.83661 1.74024,-3.00976 0.43689,-1.17316 1.97958,-2.86421 2.77734,-4.40625 0.80099,-1.54827 1.32461,-1.14026 2,-4.83203 0.67539,-3.69177 1.3379,-9.01051 1.54492,-12.14062 0.14233,-2.15195 0.36237,-7.421071 0.12891,-7.458981 z m -36.3457,21.912101 c 1.312434,0 2.73793,-3.4e-4 4.02734,0.0918 1.28941,0.0921 2.4411,0.27545 3.8457,0.27539 1.40461,-7e-5 3.06039,-0.18427 4.44141,0 1.38102,0.18427 2.48594,0.73847 3.40625,1.58984 0.92031,0.85137 1.65693,2.00131 2.43945,3.24414 0.78253,1.24284 1.61272,2.5789 1.88867,3.72852 0.27596,1.14961 10e-5,2.1193 -0.50585,3.0625 -0.46209,0.86142 -1.10322,1.68951 -0.54688,1.54883 -1.2284,0.77635 -2.1599,0.97502 -2.95312,1.2129 -1.15121,0.34522 -2.02392,0.80597 -2.62305,1.6582 -0.59913,0.85223 -0.92187,2.09252 -1.56641,2.80664 -0.64453,0.71412 -1.60935,0.89725 -2.18554,0.34375 -0.5762,-0.5535 -0.76125,-1.84031 -0.94532,-3.33594 -0.18407,-1.49562 -0.36775,-3.19898 -0.89648,-4.11915 -0.52873,-0.92017 -1.40405,-1.05914 -1.8418,-0.66797 -0.43774,0.39118 -0.43771,1.31137 -0.66797,2.57813 -0.23026,1.26677 -0.68896,2.87539 -0.98828,3.98048 -0.29932,1.10508 -0.43824,1.7037 -0.94531,1.86523 -0.50707,0.16154 -1.379911,-0.11323 -1.886716,-0.80469 -0.506805,-0.69145 -0.644746,-1.79586 -0.966797,-2.66992 -0.32205,-0.87406 -0.829229,-1.51941 -1.818359,-1.93359 -0.989131,-0.41419 -2.462823,-0.59852 -3.638672,-0.94142 -0.158333,-0.0462 -0.308845,-0.1087 -0.462891,-0.16406 -0.319725,-0.18805 -0.627005,-0.37899 -0.892578,-0.59766 -0.783212,-0.64487 -1.242917,-1.52039 -1.611328,-2.55664 -0.368411,-1.03624 -0.644989,-2.23103 -0.552734,-3.38281 0.09225,-1.15178 0.551964,-2.25518 0.966797,-3.13086 0.414832,-0.87568 0.782312,-1.51812 1.404296,-2.09375 0.621985,-0.57563 1.495174,-1.08287 2.53125,-1.33594 1.036076,-0.25306 2.232489,-0.25195 3.544922,-0.25195 z"
         style="fill:#dd925d;fill-opacity:1;stroke:#000000;stroke-width:0;stroke-linecap:butt;stroke-linejoin:miter;stroke-miterlimit:4;stroke-dasharray:none;stroke-opacity:1"
         inkscape:connector-curvature="0"
         sodipodi:nodetypes="cccccccsscsccccscccaccccsccccsssccscsccccscccasccsccsscccccsccssccccccccccccsscs" />
    </g>
  </g>
</svg>
