<?xml version="1.0" encoding="UTF-8" standalone="no"?>
<!-- Created with Inkscape (http://www.inkscape.org/) -->

<svg
   xmlns:dc="http://purl.org/dc/elements/1.1/"
   xmlns:cc="http://creativecommons.org/ns#"
   xmlns:rdf="http://www.w3.org/1999/02/22-rdf-syntax-ns#"
   xmlns:svg="http://www.w3.org/2000/svg"
   xmlns="http://www.w3.org/2000/svg"
   xmlns:sodipodi="http://sodipodi.sourceforge.net/DTD/sodipodi-0.dtd"
   xmlns:inkscape="http://www.inkscape.org/namespaces/inkscape"
   width="200px"
   height="200px"
   viewBox="0 0 200 200"
   version="1.1"
   id="SVGRoot"
   sodipodi:docname="facialhair-1-5.svg"
   inkscape:version="0.92.4 (5da689c313, 2019-01-14)">
  <defs
     id="defs909">
    <inkscape:path-effect
       only_selected="false"
       apply_with_weight="true"
       apply_no_weight="true"
       helper_size="0"
       steps="2"
       weight="33.333333"
       is_visible="true"
       id="path-effect31598"
       effect="bspline" />
    <inkscape:path-effect
       effect="bspline"
       id="path-effect31594"
       is_visible="true"
       weight="33.333333"
       steps="2"
       helper_size="0"
       apply_no_weight="true"
       apply_with_weight="true"
       only_selected="false" />
    <inkscape:path-effect
       only_selected="false"
       apply_with_weight="true"
       apply_no_weight="true"
       helper_size="0"
       steps="2"
       weight="33.333333"
       is_visible="true"
       id="path-effect31590"
       effect="bspline" />
    <inkscape:path-effect
       effect="bspline"
       id="path-effect31586"
       is_visible="true"
       weight="33.333333"
       steps="2"
       helper_size="0"
       apply_no_weight="true"
       apply_with_weight="true"
       only_selected="false" />
    <inkscape:path-effect
       effect="bspline"
       id="path-effect31582"
       is_visible="true"
       weight="33.333333"
       steps="2"
       helper_size="0"
       apply_no_weight="true"
       apply_with_weight="true"
       only_selected="false" />
    <inkscape:path-effect
       effect="bspline"
       id="path-effect31578"
       is_visible="true"
       weight="33.333333"
       steps="2"
       helper_size="0"
       apply_no_weight="true"
       apply_with_weight="true"
       only_selected="false" />
    <inkscape:path-effect
       effect="bspline"
       id="path-effect31572"
       is_visible="true"
       weight="33.333333"
       steps="2"
       helper_size="0"
       apply_no_weight="true"
       apply_with_weight="true"
       only_selected="false" />
    <inkscape:path-effect
       effect="bspline"
       id="path-effect31568"
       is_visible="true"
       weight="33.333333"
       steps="2"
       helper_size="0"
       apply_no_weight="true"
       apply_with_weight="true"
       only_selected="false" />
    <inkscape:path-effect
       only_selected="false"
       apply_with_weight="true"
       apply_no_weight="true"
       helper_size="0"
       steps="2"
       weight="33.333333"
       is_visible="true"
       id="path-effect31564"
       effect="bspline" />
    <inkscape:path-effect
       effect="bspline"
       id="path-effect31560"
       is_visible="true"
       weight="33.333333"
       steps="2"
       helper_size="0"
       apply_no_weight="true"
       apply_with_weight="true"
       only_selected="false" />
    <inkscape:path-effect
       only_selected="false"
       apply_with_weight="true"
       apply_no_weight="true"
       helper_size="0"
       steps="2"
       weight="33.333333"
       is_visible="true"
       id="path-effect31556"
       effect="bspline" />
    <inkscape:path-effect
       effect="bspline"
       id="path-effect31552"
       is_visible="true"
       weight="33.333333"
       steps="2"
       helper_size="0"
       apply_no_weight="true"
       apply_with_weight="true"
       only_selected="false" />
    <inkscape:path-effect
       only_selected="false"
       apply_with_weight="true"
       apply_no_weight="true"
       helper_size="0"
       steps="2"
       weight="33.333333"
       is_visible="true"
       id="path-effect31548"
       effect="bspline" />
    <inkscape:path-effect
       effect="bspline"
       id="path-effect31544"
       is_visible="true"
       weight="33.333333"
       steps="2"
       helper_size="0"
       apply_no_weight="true"
       apply_with_weight="true"
       only_selected="false" />
    <inkscape:path-effect
       only_selected="false"
       apply_with_weight="true"
       apply_no_weight="true"
       helper_size="0"
       steps="2"
       weight="33.333333"
       is_visible="true"
       id="path-effect31531"
       effect="bspline" />
    <inkscape:path-effect
       effect="bspline"
       id="path-effect30441"
       is_visible="true"
       weight="33.333333"
       steps="2"
       helper_size="0"
       apply_no_weight="true"
       apply_with_weight="true"
       only_selected="false" />
    <inkscape:path-effect
       effect="bspline"
       id="path-effect12527"
       is_visible="true"
       weight="33.333333"
       steps="2"
       helper_size="0"
       apply_no_weight="true"
       apply_with_weight="true"
       only_selected="false" />
    <inkscape:path-effect
       effect="bspline"
       id="path-effect12520"
       is_visible="true"
       weight="33.333333"
       steps="2"
       helper_size="0"
       apply_no_weight="true"
       apply_with_weight="true"
       only_selected="false" />
    <inkscape:path-effect
       effect="bspline"
       id="path-effect1868"
       is_visible="true"
       weight="33.333333"
       steps="2"
       helper_size="0"
       apply_no_weight="true"
       apply_with_weight="true"
       only_selected="false" />
    <inkscape:path-effect
       effect="bspline"
       id="path-effect1853"
       is_visible="true"
       weight="33.333333"
       steps="2"
       helper_size="0"
       apply_no_weight="true"
       apply_with_weight="true"
       only_selected="false" />
  </defs>
  <sodipodi:namedview
     id="base"
     pagecolor="#ffffff"
     bordercolor="#666666"
     borderopacity="1.0"
     inkscape:pageopacity="0.0"
     inkscape:pageshadow="2"
     inkscape:zoom="1.28"
     inkscape:cx="-254.01303"
     inkscape:cy="47.141562"
     inkscape:document-units="px"
     inkscape:current-layer="layer1"
     showgrid="false"
     inkscape:window-width="1920"
     inkscape:window-height="1001"
     inkscape:window-x="-9"
     inkscape:window-y="-9"
     inkscape:window-maximized="1"
     showguides="false" />
  <metadata
     id="metadata912">
    <rdf:RDF>
      <cc:Work
         rdf:about="">
        <dc:format>image/svg+xml</dc:format>
        <dc:type
           rdf:resource="http://purl.org/dc/dcmitype/StillImage" />
        <dc:title></dc:title>
      </cc:Work>
    </rdf:RDF>
  </metadata>
  <g
     inkscape:label="Layer 1"
     inkscape:groupmode="layer"
     id="layer1">
    <path
       style="fill:#dd925d;stroke:#000000;stroke-width:0;stroke-linecap:butt;stroke-linejoin:miter;stroke-opacity:1;fill-opacity:1;stroke-miterlimit:4;stroke-dasharray:none"
       d="m 101.07477,113.65506 c -0.55294,-0.66678 -1.789916,-0.66678 -3.076315,-0.73189 -1.2864,-0.0651 -2.619958,-0.19522 -3.938646,-0.179 -1.318688,0.0162 -2.619899,0.17887 -3.645559,0.43922 -1.02566,0.26035 -1.773721,0.61812 -2.702344,1.04171 -0.928622,0.42359 -2.033617,0.91109 -3.059534,1.43214 -1.025918,0.52106 -1.968898,1.07384 -2.701826,1.70883 -0.732928,0.635 -1.253111,1.35025 -1.53022,2.11591 -0.277108,0.76566 -0.30961,1.57818 -0.309629,2.40884 -1.8e-5,0.83065 0.03249,1.67593 0.09763,2.66944 0.06514,0.99351 0.162685,2.13154 0.341792,3.41798 0.179106,1.28643 0.439315,2.71758 0.830064,3.88994 0.390749,1.17237 0.911294,2.08332 1.513619,3.27167 0.602325,1.18835 1.285678,2.65268 2.002062,3.72724 0.716383,1.07456 1.464858,1.75795 1.888047,1.43192 0.423188,-0.32604 0.520851,-1.66076 0.781283,-2.89735 0.260431,-1.23659 0.683949,-2.37682 0.83021,-3.3365 0.146262,-0.95967 0.01591,-1.74175 -0.04912,-2.7178 -0.06504,-0.97605 -0.06504,-2.14914 0.179491,-2.865 0.244529,-0.71585 0.733227,-0.97649 0.944275,-1.74006 0.211048,-0.76358 0.145784,-2.03622 0.03188,-3.2239 -0.11391,-1.18768 -0.27679,-2.29527 -0.09733,-2.88084 0.179458,-0.58557 0.700679,-0.65072 1.3422,-0.79452 0.64152,-0.1438 1.441894,-0.37724 2.417567,-0.80009 0.975673,-0.42285 2.149333,-1.04228 2.88091,-1.07498 0.731577,-0.0327 1.024845,0.52124 1.644339,0.66766 0.619494,0.14642 1.562876,-0.11382 2.229837,-0.45571 0.666962,-0.34189 1.058072,-0.76559 1.317902,-1.64289 0.25983,-0.87729 0.39036,-2.2152 -0.16258,-2.88197 z"
       id="path31592"
       inkscape:connector-curvature="0"
       inkscape:path-effect="#path-effect31594"
       inkscape:original-d="m 101.75781,112.98828 c -1.23598,-0.001 -2.472956,-0.001 -3.710935,0 -1.334714,-0.13131 -2.668271,-0.26142 -4.003906,-0.39062 -1.301956,0.16187 -2.603167,0.32452 -3.90625,0.48828 -0.748335,0.35737 -1.496396,0.71514 -2.246094,1.07422 -1.107549,0.48806 -2.212542,0.97556 -3.320312,1.46484 -0.94404,0.55299 -1.887021,1.10577 -2.832032,1.66016 -0.520484,0.71604 -1.040666,1.43129 -1.5625,2.14843 -0.0316,0.81409 -0.0641,1.62661 -0.09766,2.44141 0.03359,0.84643 0.0661,1.69171 0.09766,2.53906 0.09877,1.13962 0.196313,2.27765 0.292969,3.41797 0.261624,1.43243 0.521833,2.86358 0.78125,4.29688 0.522121,0.91096 1.042667,1.82191 1.5625,2.73437 0.684836,1.46436 1.368188,2.92869 2.050781,4.39453 0.749922,0.6828 1.498396,1.36619 2.246094,2.05078 0.09865,-1.33555 0.196313,-2.67027 0.292969,-4.0039 0.423838,-1.13941 0.847354,-2.27965 1.269531,-3.41797 -0.129071,-0.78142 -0.259417,-1.5635 -0.390625,-2.34375 0.001,-1.17166 0.001,-2.34475 0,-3.51563 0.488865,-0.26119 0.977563,-0.52183 1.464844,-0.78125 -0.06395,-1.26742 -0.129209,-2.54006 -0.195313,-3.80859 -0.161639,-1.10695 -0.324521,-2.21454 -0.488281,-3.32031 0.52144,-0.0661 1.042667,-0.13121 1.5625,-0.19532 0.780588,-0.16341 1.5635,-0.45672 2.34375,-0.68359 1.171089,-0.61855 2.34475,-1.23798 3.515625,-1.85547 0.29367,0.55182 0.586938,1.10577 0.878906,1.66016 0.945638,-0.26159 1.889021,-0.52183 2.832029,-0.78125 0.39114,-0.42365 0.78225,-0.84736 1.17188,-1.26953 0.13089,-1.33236 0.26141,-2.67027 0.39062,-4.00391 z" />
    <path
       inkscape:original-d="m 101.75781,112.98828 c -1.23598,-0.001 -2.472956,-0.001 -3.710935,0 -1.334714,-0.13131 -2.668271,-0.26142 -4.003906,-0.39062 -1.301956,0.16187 -2.603167,0.32452 -3.90625,0.48828 -0.748335,0.35737 -1.496396,0.71514 -2.246094,1.07422 -1.107549,0.48806 -2.212542,0.97556 -3.320312,1.46484 -0.94404,0.55299 -1.887021,1.10577 -2.832032,1.66016 -0.520484,0.71604 -1.040666,1.43129 -1.5625,2.14843 -0.0316,0.81409 -0.0641,1.62661 -0.09766,2.44141 0.03359,0.84643 0.0661,1.69171 0.09766,2.53906 0.09877,1.13962 0.196313,2.27765 0.292969,3.41797 0.261624,1.43243 0.521833,2.86358 0.78125,4.29688 0.522121,0.91096 1.042667,1.82191 1.5625,2.73437 0.684836,1.46436 1.368188,2.92869 2.050781,4.39453 0.749922,0.6828 1.498396,1.36619 2.246094,2.05078 0.09865,-1.33555 0.196313,-2.67027 0.292969,-4.0039 0.423838,-1.13941 0.847354,-2.27965 1.269531,-3.41797 -0.129071,-0.78142 -0.259417,-1.5635 -0.390625,-2.34375 0.001,-1.17166 0.001,-2.34475 0,-3.51563 0.488865,-0.26119 0.977563,-0.52183 1.464844,-0.78125 -0.06395,-1.26742 -0.129209,-2.54006 -0.195313,-3.80859 -0.161639,-1.10695 -0.324521,-2.21454 -0.488281,-3.32031 0.52144,-0.0661 1.042667,-0.13121 1.5625,-0.19532 0.780588,-0.16341 1.5635,-0.45672 2.34375,-0.68359 1.171089,-0.61855 2.34475,-1.23798 3.515625,-1.85547 0.29367,0.55182 0.586938,1.10577 0.878906,1.66016 0.945638,-0.26159 1.889021,-0.52183 2.832029,-0.78125 0.39114,-0.42365 0.78225,-0.84736 1.17188,-1.26953 0.13089,-1.33236 0.26141,-2.67027 0.39062,-4.00391 z"
       inkscape:path-effect="#path-effect31598"
       inkscape:connector-curvature="0"
       id="path31596"
       d="m 101.07477,113.65506 c -0.55294,-0.66678 -1.789916,-0.66678 -3.076315,-0.73189 -1.2864,-0.0651 -2.619958,-0.19522 -3.938646,-0.179 -1.318688,0.0162 -2.619899,0.17887 -3.645559,0.43922 -1.02566,0.26035 -1.773721,0.61812 -2.702344,1.04171 -0.928622,0.42359 -2.033617,0.91109 -3.059534,1.43214 -1.025918,0.52106 -1.968898,1.07384 -2.701826,1.70883 -0.732928,0.635 -1.253111,1.35025 -1.53022,2.11591 -0.277108,0.76566 -0.30961,1.57818 -0.309629,2.40884 -1.8e-5,0.83065 0.03249,1.67593 0.09763,2.66944 0.06514,0.99351 0.162685,2.13154 0.341792,3.41798 0.179106,1.28643 0.439315,2.71758 0.830064,3.88994 0.390749,1.17237 0.911294,2.08332 1.513619,3.27167 0.602325,1.18835 1.285678,2.65268 2.002062,3.72724 0.716383,1.07456 1.464858,1.75795 1.888047,1.43192 0.423188,-0.32604 0.520851,-1.66076 0.781283,-2.89735 0.260431,-1.23659 0.683949,-2.37682 0.83021,-3.3365 0.146262,-0.95967 0.01591,-1.74175 -0.04912,-2.7178 -0.06504,-0.97605 -0.06504,-2.14914 0.179491,-2.865 0.244529,-0.71585 0.733227,-0.97649 0.944275,-1.74006 0.211048,-0.76358 0.145784,-2.03622 0.03188,-3.2239 -0.11391,-1.18768 -0.27679,-2.29527 -0.09733,-2.88084 0.179458,-0.58557 0.700679,-0.65072 1.3422,-0.79452 0.64152,-0.1438 1.441894,-0.37724 2.417567,-0.80009 0.975673,-0.42285 2.149333,-1.04228 2.88091,-1.07498 0.731577,-0.0327 1.024845,0.52124 1.644339,0.66766 0.619494,0.14642 1.562876,-0.11382 2.229837,-0.45571 0.666962,-0.34189 1.058072,-0.76559 1.317902,-1.64289 0.25983,-0.87729 0.39036,-2.2152 -0.16258,-2.88197 z"
       style="fill:#dd925d;fill-opacity:1;stroke:#000000;stroke-width:0;stroke-linecap:butt;stroke-linejoin:miter;stroke-miterlimit:4;stroke-dasharray:none;stroke-opacity:1"
       transform="matrix(-1,0,0,1,204.92194,0)" />
  </g>
</svg>
