<?xml version="1.0" encoding="UTF-8" standalone="no"?>
<!-- Created with Inkscape (http://www.inkscape.org/) -->

<svg
   xmlns:dc="http://purl.org/dc/elements/1.1/"
   xmlns:cc="http://creativecommons.org/ns#"
   xmlns:rdf="http://www.w3.org/1999/02/22-rdf-syntax-ns#"
   xmlns:svg="http://www.w3.org/2000/svg"
   xmlns="http://www.w3.org/2000/svg"
   xmlns:sodipodi="http://sodipodi.sourceforge.net/DTD/sodipodi-0.dtd"
   xmlns:inkscape="http://www.inkscape.org/namespaces/inkscape"
   width="200px"
   height="200px"
   viewBox="0 0 200 200"
   version="1.1"
   id="SVGRoot"
   sodipodi:docname="facialhair-4-2.svg"
   inkscape:version="0.92.4 (5da689c313, 2019-01-14)">
  <defs
     id="defs909">
    <inkscape:path-effect
       effect="bspline"
       id="path-effect12527"
       is_visible="true"
       weight="33.333333"
       steps="2"
       helper_size="0"
       apply_no_weight="true"
       apply_with_weight="true"
       only_selected="false" />
    <inkscape:path-effect
       effect="bspline"
       id="path-effect12520"
       is_visible="true"
       weight="33.333333"
       steps="2"
       helper_size="0"
       apply_no_weight="true"
       apply_with_weight="true"
       only_selected="false" />
    <inkscape:path-effect
       effect="bspline"
       id="path-effect1868"
       is_visible="true"
       weight="33.333333"
       steps="2"
       helper_size="0"
       apply_no_weight="true"
       apply_with_weight="true"
       only_selected="false" />
    <inkscape:path-effect
       effect="bspline"
       id="path-effect1853"
       is_visible="true"
       weight="33.333333"
       steps="2"
       helper_size="0"
       apply_no_weight="true"
       apply_with_weight="true"
       only_selected="false" />
    <inkscape:path-effect
       only_selected="false"
       apply_with_weight="true"
       apply_no_weight="true"
       helper_size="0"
       steps="2"
       weight="33.333333"
       is_visible="true"
       id="path-effect31572"
       effect="bspline" />
    <inkscape:path-effect
       only_selected="false"
       apply_with_weight="true"
       apply_no_weight="true"
       helper_size="0"
       steps="2"
       weight="33.333333"
       is_visible="true"
       id="path-effect31568"
       effect="bspline" />
    <inkscape:path-effect
       effect="bspline"
       id="path-effect31564"
       is_visible="true"
       weight="33.333333"
       steps="2"
       helper_size="0"
       apply_no_weight="true"
       apply_with_weight="true"
       only_selected="false" />
    <inkscape:path-effect
       only_selected="false"
       apply_with_weight="true"
       apply_no_weight="true"
       helper_size="0"
       steps="2"
       weight="33.333333"
       is_visible="true"
       id="path-effect31560"
       effect="bspline" />
    <inkscape:path-effect
       effect="bspline"
       id="path-effect31556"
       is_visible="true"
       weight="33.333333"
       steps="2"
       helper_size="0"
       apply_no_weight="true"
       apply_with_weight="true"
       only_selected="false" />
    <inkscape:path-effect
       only_selected="false"
       apply_with_weight="true"
       apply_no_weight="true"
       helper_size="0"
       steps="2"
       weight="33.333333"
       is_visible="true"
       id="path-effect31552"
       effect="bspline" />
    <inkscape:path-effect
       effect="bspline"
       id="path-effect31548"
       is_visible="true"
       weight="33.333333"
       steps="2"
       helper_size="0"
       apply_no_weight="true"
       apply_with_weight="true"
       only_selected="false" />
    <inkscape:path-effect
       only_selected="false"
       apply_with_weight="true"
       apply_no_weight="true"
       helper_size="0"
       steps="2"
       weight="33.333333"
       is_visible="true"
       id="path-effect31544"
       effect="bspline" />
    <inkscape:path-effect
       effect="bspline"
       id="path-effect31531"
       is_visible="true"
       weight="33.333333"
       steps="2"
       helper_size="0"
       apply_no_weight="true"
       apply_with_weight="true"
       only_selected="false" />
    <inkscape:path-effect
       only_selected="false"
       apply_with_weight="true"
       apply_no_weight="true"
       helper_size="0"
       steps="2"
       weight="33.333333"
       is_visible="true"
       id="path-effect30441"
       effect="bspline" />
    <inkscape:path-effect
       only_selected="false"
       apply_with_weight="true"
       apply_no_weight="true"
       helper_size="0"
       steps="2"
       weight="33.333333"
       is_visible="true"
       id="path-effect12527-2"
       effect="bspline" />
    <inkscape:path-effect
       only_selected="false"
       apply_with_weight="true"
       apply_no_weight="true"
       helper_size="0"
       steps="2"
       weight="33.333333"
       is_visible="true"
       id="path-effect12520-1"
       effect="bspline" />
    <inkscape:path-effect
       only_selected="false"
       apply_with_weight="true"
       apply_no_weight="true"
       helper_size="0"
       steps="2"
       weight="33.333333"
       is_visible="true"
       id="path-effect1868-6"
       effect="bspline" />
    <inkscape:path-effect
       only_selected="false"
       apply_with_weight="true"
       apply_no_weight="true"
       helper_size="0"
       steps="2"
       weight="33.333333"
       is_visible="true"
       id="path-effect1853-7"
       effect="bspline" />
  </defs>
  <sodipodi:namedview
     id="base"
     pagecolor="#ffffff"
     bordercolor="#666666"
     borderopacity="1.0"
     inkscape:pageopacity="0.0"
     inkscape:pageshadow="2"
     inkscape:zoom="5.1200001"
     inkscape:cx="-9.5525794"
     inkscape:cy="116.30095"
     inkscape:document-units="px"
     inkscape:current-layer="layer1"
     showgrid="false"
     inkscape:window-width="1920"
     inkscape:window-height="1001"
     inkscape:window-x="-9"
     inkscape:window-y="-9"
     inkscape:window-maximized="1"
     showguides="false" />
  <metadata
     id="metadata912">
    <rdf:RDF>
      <cc:Work
         rdf:about="">
        <dc:format>image/svg+xml</dc:format>
        <dc:type
           rdf:resource="http://purl.org/dc/dcmitype/StillImage" />
        <dc:title></dc:title>
      </cc:Work>
    </rdf:RDF>
  </metadata>
  <g
     inkscape:label="Layer 1"
     inkscape:groupmode="layer"
     id="layer1">
    <path
       inkscape:connector-curvature="0"
       style="fill:#dd925d;fill-opacity:1;stroke:#000000;stroke-width:0;stroke-linecap:butt;stroke-linejoin:miter;stroke-miterlimit:4;stroke-dasharray:none;stroke-opacity:1"
       d="m 133.85148,96.228535 c -0.10725,-0.01881 -0.24685,0.205944 -0.41646,0.680062 -0.54273,1.517177 -1.38147,5.590623 -1.91647,8.103183 -0.535,2.51255 -0.76732,3.46606 -1.4191,4.7988 -0.15091,0.30858 -0.36208,0.67484 -0.54671,1.01477 -0.87077,0.0801 -2.23523,0.68285 -3.46189,1.20023 -1.47964,0.62408 -2.78337,1.12754 -4.08558,1.35372 -1.30221,0.22619 -2.60463,0.1758 -4.06979,0 -1.46515,-0.1758 -3.09596,-0.47815 -4.86322,-0.62889 -1.76727,-0.15074 -3.67789,-0.14941 -4.90862,0.0512 -1.23072,0.20056 -1.78966,0.60348 -2.25397,0.92949 -0.46431,0.326 -0.83787,0.57768 -1.30265,0.80371 -0.46478,0.22602 -1.02326,0.42606 -1.44278,0.30059 -0.41953,-0.12548 -0.6995,-0.57718 -1.46647,-0.87833 -0.76697,-0.30115 -2.024059,-0.45332 -3.349382,-0.5287 -1.325332,-0.0753 -2.720504,-0.0737 -4.022422,-0.0235 -1.301918,0.0502 -2.513383,0.15082 -4.164524,0.35176 -1.651151,0.20092 -3.745018,0.50215 -6.187584,-0.12579 -2.32605,-0.59798 -4.969045,-2.04256 -7.62642,-3.52395 -0.08943,-0.2031 -0.182544,-0.40079 -0.258557,-0.62251 -0.465202,-1.35703 -0.650747,-3.11557 -1.04606,-4.9992 -0.395313,-1.88362 -1.001313,-3.89517 -1.466465,-5.301916 -0.465161,-1.40674 -0.79105,-2.21158 -0.976989,-2.061502 -0.185939,0.150082 -0.232242,1.257772 -0.09277,3.016568 0.139475,1.7588 0.465859,4.17101 0.90791,7.31227 0.44205,3.14125 0.998675,7.00822 1.650018,9.9984 0.651344,2.99017 1.39594,5.0993 1.861212,6.7324 0.465263,1.63308 2.711674,3.99966 3.084108,4.90479 0.372424,0.90513 2.37317,1.48932 2.931352,2.6448 0.558192,1.15548 0.720528,0.5674 1.209093,1.72342 0.488576,1.15603 1.32223,2.42888 1.880795,3.00702 0.558556,0.57814 1.116681,2.60005 1.83757,3.17777 0.720899,0.57771 0.843831,0.81659 1.634478,1.8966 0.790635,1.08001 1.075591,2.65684 2.169319,3.7124 1.093717,1.05554 1.338862,0.7607 2.966902,1.21284 1.62804,0.45214 2.430195,0.96113 4.107721,1.01087 1.677505,0.0498 3.115975,-0.15114 4.464535,-0.25156 1.34855,-0.10042 2.60452,-0.0994 3.83689,-0.17482 1.23237,-0.0754 2.44248,-0.22574 3.86058,-0.32617 1.41809,-0.10042 1.25292,0.19309 2.57835,-0.56076 1.32542,-0.75386 2.14195,-2.83175 3.32775,-4.28828 1.18579,-1.45652 3.02044,-2.64028 4.24132,-3.88517 1.2209,-1.24489 1.11767,-4.11774 1.95444,-5.52399 0.83678,-1.40627 0.56731,-2.06194 1.24178,-3.49357 0.67449,-1.43161 3.53671,-2.88291 3.97822,-4.16341 0.4415,-1.28052 2.05544,-1.70212 2.45076,-3.56048 0.39531,-1.85836 1.09185,-4.12261 1.77436,-8.15222 0.68252,-4.0296 1.35201,-9.83505 1.56121,-13.251596 0.14383,-2.34889 0.0701,-3.56999 -0.16579,-3.611369 z M 97.418773,115.61562 c 1.326262,0 2.766787,-3.7e-4 4.069787,0.1002 1.30299,0.10053 2.46682,0.30066 3.88623,0.30059 1.41941,-7e-5 3.09264,-0.20113 4.48821,0 1.39558,0.20113 2.51215,0.80605 3.44215,1.73533 0.93002,0.92928 1.6744,2.18445 2.46517,3.54101 0.79077,1.35657 1.62971,2.81489 1.90858,4.06971 0.27886,1.25481 1e-4,2.31324 -0.51119,3.34275 -0.46696,0.94025 -1.11485,1.84412 -0.55264,1.69057 -1.24135,0.84738 -2.18267,1.06423 -2.98424,1.32388 -1.16335,0.37681 -2.04525,0.87972 -2.6507,1.80994 -0.60544,0.93022 -0.93159,2.284 -1.58292,3.06347 -0.65132,0.77947 -1.62631,0.97936 -2.20858,0.37521 -0.58226,-0.60415 -0.76926,-2.00872 -0.95528,-3.64121 -0.18601,-1.63249 -0.37162,-3.49171 -0.90593,-4.49608 -0.5343,-1.00438 -1.41884,-1.15606 -1.86121,-0.7291 -0.44235,0.42698 -0.44232,1.43137 -0.67501,2.81406 -0.23269,1.38268 -0.69622,3.1385 -0.99869,4.34472 -0.30247,1.2062 -0.44286,1.8596 -0.95528,2.03591 -0.51241,0.17633 -1.394448,-0.12359 -1.906599,-0.87832 -0.512142,-0.75473 -0.651545,-1.9602 -0.976989,-2.91425 -0.325445,-0.95404 -0.83797,-1.65845 -1.837525,-2.11053 -0.999555,-0.45208 -2.488777,-0.65328 -3.67702,-1.02756 -0.159999,-0.0504 -0.312095,-0.11864 -0.467768,-0.17907 -0.32309,-0.20526 -0.633608,-0.41367 -0.901988,-0.65235 -0.791465,-0.70388 -1.256009,-1.65952 -1.628302,-2.7906 -0.372304,-1.13107 -0.651789,-2.43519 -0.558566,-3.69237 0.09327,-1.25718 0.557787,-2.46155 0.976989,-3.41736 0.419203,-0.95582 0.790556,-1.65705 1.419091,-2.28535 0.628545,-0.62831 1.510938,-1.18196 2.557928,-1.45819 1.047,-0.27622 2.25602,-0.27501 3.582292,-0.27501 z"
       id="path31566"
       sodipodi:nodetypes="ccsccccssccccscsccccccccscccccccccscscccscscccccccscsccccscccccccccccccsccccccscs" />
  </g>
</svg>
