<?xml version="1.0" encoding="UTF-8" standalone="no"?>
<!-- Created with Inkscape (http://www.inkscape.org/) -->

<svg
   xmlns:dc="http://purl.org/dc/elements/1.1/"
   xmlns:cc="http://creativecommons.org/ns#"
   xmlns:rdf="http://www.w3.org/1999/02/22-rdf-syntax-ns#"
   xmlns:svg="http://www.w3.org/2000/svg"
   xmlns="http://www.w3.org/2000/svg"
   xmlns:sodipodi="http://sodipodi.sourceforge.net/DTD/sodipodi-0.dtd"
   xmlns:inkscape="http://www.inkscape.org/namespaces/inkscape"
   width="200px"
   height="200px"
   viewBox="0 0 200 200"
   version="1.1"
   id="SVGRoot"
   sodipodi:docname="facialhair-3-2.svg"
   inkscape:version="0.92.4 (5da689c313, 2019-01-14)">
  <defs
     id="defs909">
    <inkscape:path-effect
       effect="bspline"
       id="path-effect12527"
       is_visible="true"
       weight="33.333333"
       steps="2"
       helper_size="0"
       apply_no_weight="true"
       apply_with_weight="true"
       only_selected="false" />
    <inkscape:path-effect
       effect="bspline"
       id="path-effect12520"
       is_visible="true"
       weight="33.333333"
       steps="2"
       helper_size="0"
       apply_no_weight="true"
       apply_with_weight="true"
       only_selected="false" />
    <inkscape:path-effect
       effect="bspline"
       id="path-effect1868"
       is_visible="true"
       weight="33.333333"
       steps="2"
       helper_size="0"
       apply_no_weight="true"
       apply_with_weight="true"
       only_selected="false" />
    <inkscape:path-effect
       effect="bspline"
       id="path-effect1853"
       is_visible="true"
       weight="33.333333"
       steps="2"
       helper_size="0"
       apply_no_weight="true"
       apply_with_weight="true"
       only_selected="false" />
    <inkscape:path-effect
       only_selected="false"
       apply_with_weight="true"
       apply_no_weight="true"
       helper_size="0"
       steps="2"
       weight="33.333333"
       is_visible="true"
       id="path-effect31572"
       effect="bspline" />
    <inkscape:path-effect
       only_selected="false"
       apply_with_weight="true"
       apply_no_weight="true"
       helper_size="0"
       steps="2"
       weight="33.333333"
       is_visible="true"
       id="path-effect31568"
       effect="bspline" />
    <inkscape:path-effect
       effect="bspline"
       id="path-effect31564"
       is_visible="true"
       weight="33.333333"
       steps="2"
       helper_size="0"
       apply_no_weight="true"
       apply_with_weight="true"
       only_selected="false" />
    <inkscape:path-effect
       only_selected="false"
       apply_with_weight="true"
       apply_no_weight="true"
       helper_size="0"
       steps="2"
       weight="33.333333"
       is_visible="true"
       id="path-effect31560"
       effect="bspline" />
    <inkscape:path-effect
       effect="bspline"
       id="path-effect31556"
       is_visible="true"
       weight="33.333333"
       steps="2"
       helper_size="0"
       apply_no_weight="true"
       apply_with_weight="true"
       only_selected="false" />
    <inkscape:path-effect
       only_selected="false"
       apply_with_weight="true"
       apply_no_weight="true"
       helper_size="0"
       steps="2"
       weight="33.333333"
       is_visible="true"
       id="path-effect31552"
       effect="bspline" />
    <inkscape:path-effect
       effect="bspline"
       id="path-effect31548"
       is_visible="true"
       weight="33.333333"
       steps="2"
       helper_size="0"
       apply_no_weight="true"
       apply_with_weight="true"
       only_selected="false" />
    <inkscape:path-effect
       only_selected="false"
       apply_with_weight="true"
       apply_no_weight="true"
       helper_size="0"
       steps="2"
       weight="33.333333"
       is_visible="true"
       id="path-effect31544"
       effect="bspline" />
    <inkscape:path-effect
       effect="bspline"
       id="path-effect31531"
       is_visible="true"
       weight="33.333333"
       steps="2"
       helper_size="0"
       apply_no_weight="true"
       apply_with_weight="true"
       only_selected="false" />
    <inkscape:path-effect
       only_selected="false"
       apply_with_weight="true"
       apply_no_weight="true"
       helper_size="0"
       steps="2"
       weight="33.333333"
       is_visible="true"
       id="path-effect30441"
       effect="bspline" />
    <inkscape:path-effect
       only_selected="false"
       apply_with_weight="true"
       apply_no_weight="true"
       helper_size="0"
       steps="2"
       weight="33.333333"
       is_visible="true"
       id="path-effect12527-7"
       effect="bspline" />
    <inkscape:path-effect
       only_selected="false"
       apply_with_weight="true"
       apply_no_weight="true"
       helper_size="0"
       steps="2"
       weight="33.333333"
       is_visible="true"
       id="path-effect12520-2"
       effect="bspline" />
    <inkscape:path-effect
       only_selected="false"
       apply_with_weight="true"
       apply_no_weight="true"
       helper_size="0"
       steps="2"
       weight="33.333333"
       is_visible="true"
       id="path-effect1868-0"
       effect="bspline" />
    <inkscape:path-effect
       only_selected="false"
       apply_with_weight="true"
       apply_no_weight="true"
       helper_size="0"
       steps="2"
       weight="33.333333"
       is_visible="true"
       id="path-effect1853-3"
       effect="bspline" />
  </defs>
  <sodipodi:namedview
     id="base"
     pagecolor="#ffffff"
     bordercolor="#666666"
     borderopacity="1.0"
     inkscape:pageopacity="0.0"
     inkscape:pageshadow="2"
     inkscape:zoom="3.6203867"
     inkscape:cx="125.37636"
     inkscape:cy="114.21871"
     inkscape:document-units="px"
     inkscape:current-layer="layer1-7"
     showgrid="false"
     inkscape:window-width="1920"
     inkscape:window-height="1001"
     inkscape:window-x="-9"
     inkscape:window-y="-9"
     inkscape:window-maximized="1"
     showguides="false" />
  <metadata
     id="metadata912">
    <rdf:RDF>
      <cc:Work
         rdf:about="">
        <dc:format>image/svg+xml</dc:format>
        <dc:type
           rdf:resource="http://purl.org/dc/dcmitype/StillImage" />
        <dc:title></dc:title>
      </cc:Work>
    </rdf:RDF>
  </metadata>
  <g
     inkscape:label="Layer 1"
     inkscape:groupmode="layer"
     id="layer1">
    <g
       id="layer1-7"
       inkscape:label="Layer 1"
       transform="translate(-36.396897,-16.241994)">
      <path
         id="path31566"
         d="m 168.8315,111.52748 c -0.10253,-0.0172 -0.236,0.18868 -0.39814,0.62305 -0.51887,1.38998 -1.3207,5.12192 -1.83214,7.42383 -0.51147,2.3019 -0.73356,3.17547 -1.35667,4.39648 -0.14427,0.28271 -0.34614,0.61826 -0.52267,0.92969 -0.83246,0.0734 -2.13686,0.62561 -3.30956,1.09961 -1.41453,0.57176 -2.66091,1.03301 -3.90582,1.24023 -1.24492,0.20722 -2.49002,0.16106 -3.89072,0 -1.40069,-0.16106 -2.95974,-0.43807 -4.64924,-0.57617 -1.68952,-0.1381 -3.51608,-0.13688 -4.69266,0.0469 -1.17656,0.18375 -1.71092,0.55289 -2.15479,0.85156 -0.44389,0.29867 -0.80099,0.52925 -1.24534,0.73633 -0.44434,0.20707 -0.97823,0.39034 -1.37931,0.27539 -0.40105,-0.11496 -0.66871,-0.52879 -1.40194,-0.80469 -0.73323,-0.2759 -1.935,-0.41532 -3.20202,-0.48438 -1.267,-0.069 -2.60079,-0.0675 -3.84543,-0.0215 -1.24464,0.046 -2.40281,0.13818 -3.9813,0.32227 -1.57849,0.18408 -3.58024,0.46005 -5.91533,-0.11524 -2.22371,-0.54785 -4.75041,-1.87132 -7.29086,-3.22851 -0.0855,-0.18608 -0.17452,-0.36719 -0.24719,-0.57032 -0.44473,-1.24326 -0.62213,-2.85437 -1.00004,-4.58008 -0.37793,-1.7257 -0.95724,-3.56861 -1.40194,-4.85742 -0.44468,-1.2888 -0.75624,-2.02617 -0.93399,-1.88867 -0.17776,0.1375 -0.22202,1.15232 -0.0887,2.76367 0.13334,1.61135 0.44534,3.82132 0.86795,6.69922 0.42259,2.8779 0.95474,6.42067 1.57743,9.16016 0.62268,2.73948 1.33453,4.67179 1.77931,6.16797 0.44481,1.49617 0.62325,2.55552 0.97929,3.38476 0.35604,0.82925 0.88908,1.42772 1.42269,2.48633 0.53363,1.05861 1.06696,2.57761 1.53402,3.63672 0.46709,1.05911 0.86798,1.65588 1.40195,2.18555 0.53399,0.52967 1.19959,0.99025 1.88877,1.51953 0.68917,0.52928 1.40084,1.12772 2.15669,2.11718 0.75586,0.98947 1.5564,2.37084 2.60198,3.3379 1.0456,0.96705 2.33621,1.51936 3.89262,1.93359 1.5564,0.41423 3.17236,1.45035 4.77606,1.49592 1.60372,0.0456 3.80753,1.10449 5.09674,1.01249 1.28923,-0.092 2.55899,-0.91974 3.73712,-0.9888 1.17816,-0.0691 2.9565,0.48371 4.31221,0.3917 1.3557,-0.092 1.60218,-2.00386 2.86928,-2.69451 1.26711,-0.69066 2.86724,-1.74876 4.00087,-3.08317 1.13361,-1.33441 1.80394,-2.94819 2.97113,-4.08871 1.16716,-1.14052 2.25676,-2.12765 3.05672,-3.41601 0.79996,-1.28837 1.33451,-2.9013 1.97932,-4.2129 0.64481,-1.31159 1.40064,-2.32489 1.82273,-3.49804 0.42206,-1.17316 0.51266,-2.50838 0.89059,-4.21094 0.37791,-1.70256 1.04381,-3.77698 1.69629,-7.46875 0.65248,-3.69177 1.29252,-9.01051 1.49252,-12.14062 0.13749,-2.15196 0.067,-3.27069 -0.15849,-3.3086 z m -34.82973,17.76172 c 1.26792,0 2.64504,-3.4e-4 3.89073,0.0918 1.24567,0.0921 2.35828,0.27545 3.71524,0.27539 1.35697,-7e-5 2.95657,-0.18427 4.29075,0 1.33416,0.18427 2.40161,0.73847 3.29069,1.58984 0.88909,0.85137 1.60072,2.00131 2.3567,3.24414 0.75598,1.24284 1.55801,2.5789 1.82459,3.72852 0.26661,1.14961 10e-5,2.1193 -0.48868,3.0625 -0.44642,0.86142 -1.0658,1.68951 -0.52833,1.54883 -1.18672,0.77634 -2.08663,0.97501 -2.85295,1.21289 -1.11214,0.34522 -1.95525,0.80597 -2.53406,1.6582 -0.57881,0.85223 -0.89059,2.09252 -1.51327,2.80664 -0.62267,0.71412 -1.55476,0.89725 -2.1114,0.34375 -0.55664,-0.5535 -0.73543,-1.84031 -0.91325,-3.33594 -0.17782,-1.49562 -0.35527,-3.19897 -0.86607,-4.11914 -0.5108,-0.92017 -1.35642,-1.05914 -1.77931,-0.66797 -0.4229,0.39118 -0.42287,1.31137 -0.64532,2.57813 -0.22246,1.26676 -0.66559,2.87538 -0.95475,3.98047 -0.28917,1.10508 -0.42338,1.7037 -0.91325,1.86523 -0.48986,0.16154 -1.3331,-0.11323 -1.82271,-0.80469 -0.48963,-0.69145 -0.62288,-1.79586 -0.934,-2.66992 -0.31114,-0.87406 -0.8011,-1.51941 -1.75669,-1.93359 -0.95557,-0.41418 -2.37927,-0.59851 -3.51522,-0.94141 -0.15296,-0.0462 -0.29839,-0.1087 -0.4472,-0.16406 -0.30888,-0.18805 -0.60574,-0.37899 -0.8623,-0.59766 -0.75664,-0.64487 -1.20076,-1.52039 -1.55667,-2.55664 -0.3559,-1.03624 -0.62311,-2.23103 -0.53398,-3.38281 0.0891,-1.15178 0.53324,-2.25518 0.93401,-3.13086 0.40075,-0.87568 0.75578,-1.51812 1.35664,-2.09375 0.6009,-0.57563 1.44446,-1.08287 2.4454,-1.33594 1.00093,-0.25306 2.15674,-0.25195 3.42466,-0.25195 z"
         style="fill:#dd925d;fill-opacity:1;stroke:#000000;stroke-width:0;stroke-linecap:butt;stroke-linejoin:miter;stroke-miterlimit:4;stroke-dasharray:none;stroke-opacity:1"
         inkscape:connector-curvature="0"
         sodipodi:nodetypes="cccccccssccccscscsccccccccccccccccccccccccccccscccscccccccccscssssccccccccccccccs" />
    </g>
  </g>
</svg>
