<?xml version="1.0" encoding="UTF-8" standalone="no"?>
<!-- Created with Inkscape (http://www.inkscape.org/) -->

<svg
   xmlns:dc="http://purl.org/dc/elements/1.1/"
   xmlns:cc="http://creativecommons.org/ns#"
   xmlns:rdf="http://www.w3.org/1999/02/22-rdf-syntax-ns#"
   xmlns:svg="http://www.w3.org/2000/svg"
   xmlns="http://www.w3.org/2000/svg"
   xmlns:sodipodi="http://sodipodi.sourceforge.net/DTD/sodipodi-0.dtd"
   xmlns:inkscape="http://www.inkscape.org/namespaces/inkscape"
   width="200px"
   height="200px"
   viewBox="0 0 200 200"
   version="1.1"
   id="SVGRoot"
   sodipodi:docname="facialhair-1-2.svg"
   inkscape:version="0.92.4 (5da689c313, 2019-01-14)">
  <defs
     id="defs909">
    <inkscape:path-effect
       effect="bspline"
       id="path-effect31572"
       is_visible="true"
       weight="33.333333"
       steps="2"
       helper_size="0"
       apply_no_weight="true"
       apply_with_weight="true"
       only_selected="false" />
    <inkscape:path-effect
       effect="bspline"
       id="path-effect31568"
       is_visible="true"
       weight="33.333333"
       steps="2"
       helper_size="0"
       apply_no_weight="true"
       apply_with_weight="true"
       only_selected="false" />
    <inkscape:path-effect
       only_selected="false"
       apply_with_weight="true"
       apply_no_weight="true"
       helper_size="0"
       steps="2"
       weight="33.333333"
       is_visible="true"
       id="path-effect31564"
       effect="bspline" />
    <inkscape:path-effect
       effect="bspline"
       id="path-effect31560"
       is_visible="true"
       weight="33.333333"
       steps="2"
       helper_size="0"
       apply_no_weight="true"
       apply_with_weight="true"
       only_selected="false" />
    <inkscape:path-effect
       only_selected="false"
       apply_with_weight="true"
       apply_no_weight="true"
       helper_size="0"
       steps="2"
       weight="33.333333"
       is_visible="true"
       id="path-effect31556"
       effect="bspline" />
    <inkscape:path-effect
       effect="bspline"
       id="path-effect31552"
       is_visible="true"
       weight="33.333333"
       steps="2"
       helper_size="0"
       apply_no_weight="true"
       apply_with_weight="true"
       only_selected="false" />
    <inkscape:path-effect
       only_selected="false"
       apply_with_weight="true"
       apply_no_weight="true"
       helper_size="0"
       steps="2"
       weight="33.333333"
       is_visible="true"
       id="path-effect31548"
       effect="bspline" />
    <inkscape:path-effect
       effect="bspline"
       id="path-effect31544"
       is_visible="true"
       weight="33.333333"
       steps="2"
       helper_size="0"
       apply_no_weight="true"
       apply_with_weight="true"
       only_selected="false" />
    <inkscape:path-effect
       only_selected="false"
       apply_with_weight="true"
       apply_no_weight="true"
       helper_size="0"
       steps="2"
       weight="33.333333"
       is_visible="true"
       id="path-effect31531"
       effect="bspline" />
    <inkscape:path-effect
       effect="bspline"
       id="path-effect30441"
       is_visible="true"
       weight="33.333333"
       steps="2"
       helper_size="0"
       apply_no_weight="true"
       apply_with_weight="true"
       only_selected="false" />
    <inkscape:path-effect
       effect="bspline"
       id="path-effect12527"
       is_visible="true"
       weight="33.333333"
       steps="2"
       helper_size="0"
       apply_no_weight="true"
       apply_with_weight="true"
       only_selected="false" />
    <inkscape:path-effect
       effect="bspline"
       id="path-effect12520"
       is_visible="true"
       weight="33.333333"
       steps="2"
       helper_size="0"
       apply_no_weight="true"
       apply_with_weight="true"
       only_selected="false" />
    <inkscape:path-effect
       effect="bspline"
       id="path-effect1868"
       is_visible="true"
       weight="33.333333"
       steps="2"
       helper_size="0"
       apply_no_weight="true"
       apply_with_weight="true"
       only_selected="false" />
    <inkscape:path-effect
       effect="bspline"
       id="path-effect1853"
       is_visible="true"
       weight="33.333333"
       steps="2"
       helper_size="0"
       apply_no_weight="true"
       apply_with_weight="true"
       only_selected="false" />
  </defs>
  <sodipodi:namedview
     id="base"
     pagecolor="#ffffff"
     bordercolor="#666666"
     borderopacity="1.0"
     inkscape:pageopacity="0.0"
     inkscape:pageshadow="2"
     inkscape:zoom="7.2407734"
     inkscape:cx="118.44518"
     inkscape:cy="70.794381"
     inkscape:document-units="px"
     inkscape:current-layer="layer1"
     showgrid="false"
     inkscape:window-width="1920"
     inkscape:window-height="1001"
     inkscape:window-x="-9"
     inkscape:window-y="-9"
     inkscape:window-maximized="1"
     showguides="false" />
  <metadata
     id="metadata912">
    <rdf:RDF>
      <cc:Work
         rdf:about="">
        <dc:format>image/svg+xml</dc:format>
        <dc:type
           rdf:resource="http://purl.org/dc/dcmitype/StillImage" />
        <dc:title />
      </cc:Work>
    </rdf:RDF>
  </metadata>
  <g
     inkscape:label="Layer 1"
     inkscape:groupmode="layer"
     id="layer1">
    <path
       style="fill:#dd925d;stroke:#000000;stroke-width:0;stroke-linecap:butt;stroke-linejoin:miter;stroke-opacity:1;fill-opacity:1;stroke-miterlimit:4;stroke-dasharray:none"
       d="M 133.11914 96.888672 C 133.01301 96.87144 132.87487 97.07735 132.70703 97.511719 C 132.16995 98.901698 131.33996 102.63364 130.81055 104.93555 C 130.28113 107.23745 130.05123 108.11102 129.40625 109.33203 C 129.25691 109.61474 129.04794 109.95029 128.86523 110.26172 C 128.00354 110.33508 126.65332 110.88733 125.43945 111.36133 C 123.97525 111.93309 122.68512 112.39434 121.39648 112.60156 C 120.10785 112.80878 118.81902 112.76262 117.36914 112.60156 C 115.91927 112.4405 114.30547 112.16349 112.55664 112.02539 C 110.80781 111.88729 108.91711 111.88851 107.69922 112.07227 C 106.48133 112.25602 105.92822 112.62516 105.46875 112.92383 C 105.00928 113.2225 104.63963 113.45308 104.17969 113.66016 C 103.71975 113.86723 103.1671 114.0505 102.75195 113.93555 C 102.3368 113.82059 102.05976 113.40676 101.30078 113.13086 C 100.54181 112.85496 99.297832 112.71554 97.986328 112.64648 C 96.674824 112.57743 95.294203 112.57901 94.005859 112.625 C 92.717516 112.67099 91.518686 112.76318 89.884766 112.94727 C 88.250845 113.13135 86.17881 113.40732 83.761719 112.83203 C 81.459932 112.28418 78.844501 110.96071 76.214844 109.60352 C 76.126377 109.41744 76.0342 109.23633 75.958984 109.0332 C 75.498627 107.78994 75.315018 106.17883 74.923828 104.45312 C 74.532638 102.72742 73.932963 100.88451 73.472656 99.595703 C 73.01235 98.306897 72.68986 97.569535 72.505859 97.707031 C 72.321859 97.844528 72.276041 98.859356 72.414062 100.4707 C 72.552084 102.08205 72.875061 104.29202 73.3125 107.16992 C 73.749939 110.04782 74.300766 113.59059 74.945312 116.33008 C 75.589859 119.06956 76.326694 121.00187 76.787109 122.49805 C 77.247524 123.99422 77.432238 125.05357 77.800781 125.88281 C 78.169325 126.71206 78.721075 127.31053 79.273438 128.36914 C 79.8258 129.42775 80.377848 130.94675 80.861328 132.00586 C 81.344808 133.06497 81.759765 133.66174 82.3125 134.19141 C 82.865235 134.72108 83.554208 135.18166 84.267578 135.71094 C 84.980949 136.24022 85.717603 136.83866 86.5 137.82812 C 87.282397 138.81759 88.111043 140.19896 89.193359 141.16602 C 90.275676 142.13307 91.611596 142.68538 93.222656 143.09961 C 94.833717 143.51384 96.720837 143.79037 98.380859 143.83594 C 100.04088 143.8815 101.46434 143.69747 102.79883 143.60547 C 104.13332 143.51347 105.37619 143.51437 106.5957 143.44531 C 107.81522 143.37625 109.01271 143.23849 110.41602 143.14648 C 111.81932 143.05448 113.43254 143.00706 114.74414 142.31641 C 116.05574 141.62575 117.06876 140.29144 118.24219 138.95703 C 119.41561 137.62262 120.75278 136.28505 121.96094 135.14453 C 123.1691 134.00401 124.29695 133.01688 125.125 131.72852 C 125.95305 130.44015 126.50638 128.82722 127.17383 127.51562 C 127.84128 126.20403 128.62365 125.19073 129.06055 124.01758 C 129.49744 122.84442 129.59123 121.5092 129.98242 119.80664 C 130.37361 118.10408 131.06289 116.02966 131.73828 112.33789 C 132.41367 108.64612 133.07618 103.32738 133.2832 100.19727 C 133.42553 98.045312 133.35262 96.926582 133.11914 96.888672 z M 97.066406 114.65039 C 98.37884 114.65039 99.804336 114.65005 101.09375 114.74219 C 102.38316 114.83432 103.53485 115.01764 104.93945 115.01758 C 106.34406 115.01751 107.99984 114.83331 109.38086 115.01758 C 110.76188 115.20185 111.8668 115.75605 112.78711 116.60742 C 113.70742 117.45879 114.44404 118.60873 115.22656 119.85156 C 116.00909 121.0944 116.83928 122.43046 117.11523 123.58008 C 117.39119 124.72969 117.11533 125.69938 116.60938 126.64258 C 116.14729 127.504 115.50616 128.33209 116.0625 128.19141 C 114.8341 128.96775 113.9026 129.16642 113.10938 129.4043 C 111.95817 129.74952 111.08546 130.21027 110.48633 131.0625 C 109.8872 131.91473 109.56446 133.15502 108.91992 133.86914 C 108.27539 134.58326 107.31057 134.76639 106.73438 134.21289 C 106.15818 133.65939 105.97313 132.37258 105.78906 130.87695 C 105.60499 129.38133 105.42131 127.67798 104.89258 126.75781 C 104.36385 125.83764 103.48853 125.69867 103.05078 126.08984 C 102.61304 126.48102 102.61307 127.40121 102.38281 128.66797 C 102.15255 129.93473 101.69385 131.54335 101.39453 132.64844 C 101.09521 133.75352 100.95629 134.35214 100.44922 134.51367 C 99.94215 134.67521 99.069305 134.40044 98.5625 133.70898 C 98.055695 133.01753 97.917754 131.91312 97.595703 131.03906 C 97.273653 130.165 96.766474 129.51965 95.777344 129.10547 C 94.788213 128.69129 93.314521 128.50696 92.138672 128.16406 C 91.980339 128.11789 91.829827 128.05536 91.675781 128 C 91.356056 127.81195 91.048776 127.62101 90.783203 127.40234 C 89.999991 126.75747 89.540286 125.88195 89.171875 124.8457 C 88.803464 123.80946 88.526886 122.61467 88.619141 121.46289 C 88.711395 120.31111 89.171105 119.20771 89.585938 118.33203 C 90.00077 117.45635 90.36825 116.81391 90.990234 116.23828 C 91.612219 115.66265 92.485408 115.15541 93.521484 114.90234 C 94.55756 114.64928 95.753973 114.65039 97.066406 114.65039 z "
       id="path31566" />
  </g>
</svg>
