<?xml version="1.0" encoding="UTF-8" standalone="no"?>
<!-- Created with Inkscape (http://www.inkscape.org/) -->

<svg
   xmlns:dc="http://purl.org/dc/elements/1.1/"
   xmlns:cc="http://creativecommons.org/ns#"
   xmlns:rdf="http://www.w3.org/1999/02/22-rdf-syntax-ns#"
   xmlns:svg="http://www.w3.org/2000/svg"
   xmlns="http://www.w3.org/2000/svg"
   xmlns:sodipodi="http://sodipodi.sourceforge.net/DTD/sodipodi-0.dtd"
   xmlns:inkscape="http://www.inkscape.org/namespaces/inkscape"
   width="200px"
   height="200px"
   viewBox="0 0 200 200"
   version="1.1"
   id="SVGRoot"
   sodipodi:docname="facialhair-4-2.svg"
   inkscape:version="0.92.4 (5da689c313, 2019-01-14)">
  <defs
     id="defs909">
    <inkscape:path-effect
       effect="bspline"
       id="path-effect12527"
       is_visible="true"
       weight="33.333333"
       steps="2"
       helper_size="0"
       apply_no_weight="true"
       apply_with_weight="true"
       only_selected="false" />
    <inkscape:path-effect
       effect="bspline"
       id="path-effect12520"
       is_visible="true"
       weight="33.333333"
       steps="2"
       helper_size="0"
       apply_no_weight="true"
       apply_with_weight="true"
       only_selected="false" />
    <inkscape:path-effect
       effect="bspline"
       id="path-effect1868"
       is_visible="true"
       weight="33.333333"
       steps="2"
       helper_size="0"
       apply_no_weight="true"
       apply_with_weight="true"
       only_selected="false" />
    <inkscape:path-effect
       effect="bspline"
       id="path-effect1853"
       is_visible="true"
       weight="33.333333"
       steps="2"
       helper_size="0"
       apply_no_weight="true"
       apply_with_weight="true"
       only_selected="false" />
    <inkscape:path-effect
       only_selected="false"
       apply_with_weight="true"
       apply_no_weight="true"
       helper_size="0"
       steps="2"
       weight="33.333333"
       is_visible="true"
       id="path-effect12527-8"
       effect="bspline" />
    <inkscape:path-effect
       only_selected="false"
       apply_with_weight="true"
       apply_no_weight="true"
       helper_size="0"
       steps="2"
       weight="33.333333"
       is_visible="true"
       id="path-effect12520-8"
       effect="bspline" />
    <inkscape:path-effect
       only_selected="false"
       apply_with_weight="true"
       apply_no_weight="true"
       helper_size="0"
       steps="2"
       weight="33.333333"
       is_visible="true"
       id="path-effect1868-0"
       effect="bspline" />
    <inkscape:path-effect
       only_selected="false"
       apply_with_weight="true"
       apply_no_weight="true"
       helper_size="0"
       steps="2"
       weight="33.333333"
       is_visible="true"
       id="path-effect1853-0"
       effect="bspline" />
    <inkscape:path-effect
       only_selected="false"
       apply_with_weight="true"
       apply_no_weight="true"
       helper_size="0"
       steps="2"
       weight="33.333333"
       is_visible="true"
       id="path-effect13238"
       effect="bspline" />
    <inkscape:path-effect
       only_selected="false"
       apply_with_weight="true"
       apply_no_weight="true"
       helper_size="0"
       steps="2"
       weight="33.333333"
       is_visible="true"
       id="path-effect13267"
       effect="bspline" />
    <inkscape:path-effect
       only_selected="false"
       apply_with_weight="true"
       apply_no_weight="true"
       helper_size="0"
       steps="2"
       weight="33.333333"
       is_visible="true"
       id="path-effect56117"
       effect="bspline" />
    <inkscape:path-effect
       only_selected="false"
       apply_with_weight="true"
       apply_no_weight="true"
       helper_size="0"
       steps="2"
       weight="33.333333"
       is_visible="true"
       id="path-effect13204"
       effect="bspline" />
    <inkscape:path-effect
       only_selected="false"
       apply_with_weight="true"
       apply_no_weight="true"
       helper_size="0"
       steps="2"
       weight="33.333333"
       is_visible="true"
       id="path-effect13200"
       effect="bspline" />
    <inkscape:path-effect
       effect="bspline"
       id="path-effect13204-9"
       is_visible="true"
       weight="33.333333"
       steps="2"
       helper_size="0"
       apply_no_weight="true"
       apply_with_weight="true"
       only_selected="false" />
    <inkscape:path-effect
       effect="bspline"
       id="path-effect13267-1"
       is_visible="true"
       weight="33.333333"
       steps="2"
       helper_size="0"
       apply_no_weight="true"
       apply_with_weight="true"
       only_selected="false" />
    <inkscape:path-effect
       effect="bspline"
       id="path-effect13200-0"
       is_visible="true"
       weight="33.333333"
       steps="2"
       helper_size="0"
       apply_no_weight="true"
       apply_with_weight="true"
       only_selected="false" />
  </defs>
  <sodipodi:namedview
     id="base"
     pagecolor="#ffffff"
     bordercolor="#666666"
     borderopacity="1.0"
     inkscape:pageopacity="0.0"
     inkscape:pageshadow="2"
     inkscape:zoom="2.5600001"
     inkscape:cx="-99.776135"
     inkscape:cy="116.34855"
     inkscape:document-units="px"
     inkscape:current-layer="layer1"
     showgrid="false"
     inkscape:window-width="1920"
     inkscape:window-height="1001"
     inkscape:window-x="-9"
     inkscape:window-y="-9"
     inkscape:window-maximized="1"
     showguides="false" />
  <metadata
     id="metadata912">
    <rdf:RDF>
      <cc:Work
         rdf:about="">
        <dc:format>image/svg+xml</dc:format>
        <dc:type
           rdf:resource="http://purl.org/dc/dcmitype/StillImage" />
        <dc:title></dc:title>
      </cc:Work>
    </rdf:RDF>
  </metadata>
  <g
     inkscape:label="Layer 1"
     inkscape:groupmode="layer"
     id="layer1">
    <g
       id="layer1-8"
       inkscape:label="Layer 1"
       transform="translate(-0.14157395,-1.573889)">
      <path
         id="path31566"
         d="m 134.11531,98.074326 c 0.33332,-2.751575 -1.34583,3.178924 -1.51367,3.613284 -0.53708,1.38998 -1.2909,4.67074 -1.82031,6.97265 -0.52942,2.3019 -0.41752,2.73602 -1.0625,3.95703 -0.14934,0.28271 -0.99308,0.8624 -1.17579,1.17383 -0.86169,0.0734 -1.43066,0.77209 -2.64453,1.24609 -1.4642,0.57176 -2.75433,1.03301 -4.04297,1.24023 -1.28863,0.20722 -2.57746,0.16106 -4.02734,0 -1.44987,-0.16106 -3.06367,-0.43807 -4.8125,-0.57617 -1.74883,-0.1381 -3.63953,-0.13688 -4.85742,0.0469 -1.21789,0.18375 -1.771,0.55289 -2.23047,0.85156 -0.45947,0.29867 -0.82912,0.52925 -1.28906,0.73633 -0.45994,0.20707 -1.01259,0.39034 -1.42774,0.27539 -0.41515,-0.11496 -0.69219,-0.52879 -1.45117,-0.80469 -0.75897,-0.2759 -2.002944,-0.41532 -3.314448,-0.48438 -1.311504,-0.069 -2.692125,-0.0675 -3.980469,-0.0215 -1.288343,0.046 -2.487173,0.13818 -4.121093,0.32227 -1.633921,0.18408 -3.705956,0.46005 -6.123047,-0.11524 -2.301787,-0.54785 -4.917218,-1.87132 -7.546875,-3.22851 -0.08847,-0.18608 -0.180644,-0.36719 -0.25586,-0.57032 -0.460357,-1.24326 -0.643966,-2.85437 -1.035156,-4.58008 -0.39119,-1.7257 -0.990865,-3.56861 -1.451172,-4.85741 -0.460306,-1.28881 -0.782796,-2.02617 -0.966797,-1.88867 -0.184,0.13749 -0.229818,1.15232 -0.0918,2.76366 0.138022,1.61135 0.460999,3.82132 0.898438,6.69922 0.437439,2.8779 1.446081,4.40092 2.365234,6.52344 0.553522,1.27821 1.193825,2.52047 1.890625,3.72657 0.547594,0.94783 1.223714,1.8162 1.794922,2.74999 0.840737,1.37441 1.815733,2.69398 2.400391,4.19531 0.547971,1.40713 0.720183,2.93445 1.001953,4.41798 0.134459,0.70794 0.158896,1.43629 0.328125,2.13673 0.278496,1.15268 0.576532,2.3236 1.125,3.37499 0.500752,0.95993 1.276956,1.74913 1.939453,2.60547 0.924586,1.1951 1.757528,2.56615 2.839844,3.53321 1.082317,0.96705 2.32058,1.81233 3.93164,2.22656 1.611061,0.41423 4.035291,-0.23698 5.695313,-0.19141 1.660019,0.0456 2.546369,0.39864 3.880859,0.30664 1.33449,-0.092 2.8215,0.007 4.04101,-0.0625 1.21952,-0.0691 1.73342,0.1838 3.13673,0.0918 1.4033,-0.092 3.40714,-0.72535 4.71874,-1.416 1.3116,-0.69066 2.48404,-1.36617 3.49805,-2.33399 1.27352,-1.21551 2.21029,-2.75254 3.13282,-4.25196 0.54438,-0.88479 1.04816,-1.80606 1.40624,-2.78124 0.50358,-1.37144 0.55931,-2.87645 1.02344,-4.26174 0.62966,-1.87935 1.48794,-3.67872 2.375,-5.45116 0.82329,-1.64501 1.84412,-3.18389 2.72851,-4.79688 0.93767,-1.71016 2.05704,-1.48206 2.73243,-5.17383 0.67539,-3.69177 1.48438,-9.01051 1.6914,-12.14062 0.14233,-2.15195 0.89948,-5.760914 0.66602,-5.798824 z M 97.52547,118.32627 c 1.312434,0 2.73793,-3.4e-4 4.02734,0.0918 1.28941,0.0921 2.4411,0.27545 3.8457,0.27539 1.40461,-7e-5 3.06039,-0.18427 4.44141,0 1.38102,0.18427 2.48594,0.73847 3.40625,1.58984 0.92031,0.85137 1.65693,2.00131 2.43945,3.24414 0.78253,1.24284 1.61272,2.5789 1.88867,3.72852 0.27596,1.14961 10e-5,2.1193 -0.50585,3.0625 -0.46209,0.86142 -1.10322,1.68951 -0.54688,1.54883 -1.2284,0.77635 -2.1599,0.97502 -2.95312,1.2129 -1.15121,0.34522 -2.02392,0.80597 -2.62305,1.6582 -0.59913,0.85223 -0.92187,2.09252 -1.56641,2.80664 -0.64453,0.71412 -1.60935,0.89725 -2.18554,0.34375 -0.5762,-0.5535 -0.76125,-1.84031 -0.94532,-3.33594 -0.18407,-1.49562 -0.36775,-3.19898 -0.89648,-4.11915 -0.52873,-0.92017 -1.40405,-1.05914 -1.8418,-0.66797 -0.43774,0.39118 -0.43771,1.31137 -0.66797,2.57813 -0.23026,1.26677 -0.68896,2.87539 -0.98828,3.98048 -0.29932,1.10508 -0.43824,1.7037 -0.94531,1.86523 -0.50707,0.16154 -1.379911,-0.11323 -1.886716,-0.80469 -0.506805,-0.69145 -0.644746,-1.79586 -0.966797,-2.66992 -0.32205,-0.87406 -0.829229,-1.51941 -1.818359,-1.93359 -0.989131,-0.41419 -2.462823,-0.59852 -3.638672,-0.94142 -0.158333,-0.0462 -0.308845,-0.1087 -0.462891,-0.16406 -0.319725,-0.18805 -0.627005,-0.37899 -0.892578,-0.59766 -0.783212,-0.64487 -1.242917,-1.52039 -1.611328,-2.55664 -0.368411,-1.03624 -0.644989,-2.23103 -0.552734,-3.38281 0.09225,-1.15178 0.551964,-2.25518 0.966797,-3.13086 0.414832,-0.87568 0.782312,-1.51812 1.404296,-2.09375 0.621985,-0.57563 1.495174,-1.08287 2.53125,-1.33594 1.036076,-0.25306 2.232489,-0.25195 3.544922,-0.25195 z"
         style="fill:#dd925d;fill-opacity:1;stroke:#000000;stroke-width:0;stroke-linecap:butt;stroke-linejoin:miter;stroke-miterlimit:4;stroke-dasharray:none;stroke-opacity:1"
         inkscape:connector-curvature="0"
         sodipodi:nodetypes="sccccccsscsccccsccccccccsaaaaaaaacscscccaaaaaasccsscsscccccsccssccccccccccccsscss" />
    </g>
  </g>
</svg>
