<?xml version="1.0" encoding="UTF-8" standalone="no"?>
<!-- Created with Inkscape (http://www.inkscape.org/) -->

<svg
   xmlns:dc="http://purl.org/dc/elements/1.1/"
   xmlns:cc="http://creativecommons.org/ns#"
   xmlns:rdf="http://www.w3.org/1999/02/22-rdf-syntax-ns#"
   xmlns:svg="http://www.w3.org/2000/svg"
   xmlns="http://www.w3.org/2000/svg"
   xmlns:sodipodi="http://sodipodi.sourceforge.net/DTD/sodipodi-0.dtd"
   xmlns:inkscape="http://www.inkscape.org/namespaces/inkscape"
   width="200px"
   height="200px"
   viewBox="0 0 200 200"
   version="1.1"
   id="SVGRoot"
   sodipodi:docname="head-5-2.svg"
   inkscape:version="0.92.4 (5da689c313, 2019-01-14)">
  <defs
     id="defs909">
    <inkscape:path-effect
       effect="bspline"
       id="path-effect12527"
       is_visible="true"
       weight="33.333333"
       steps="2"
       helper_size="0"
       apply_no_weight="true"
       apply_with_weight="true"
       only_selected="false" />
    <inkscape:path-effect
       effect="bspline"
       id="path-effect12520"
       is_visible="true"
       weight="33.333333"
       steps="2"
       helper_size="0"
       apply_no_weight="true"
       apply_with_weight="true"
       only_selected="false" />
    <inkscape:path-effect
       effect="bspline"
       id="path-effect1868"
       is_visible="true"
       weight="33.333333"
       steps="2"
       helper_size="0"
       apply_no_weight="true"
       apply_with_weight="true"
       only_selected="false" />
    <inkscape:path-effect
       effect="bspline"
       id="path-effect1853"
       is_visible="true"
       weight="33.333333"
       steps="2"
       helper_size="0"
       apply_no_weight="true"
       apply_with_weight="true"
       only_selected="false" />
    <inkscape:path-effect
       only_selected="false"
       apply_with_weight="true"
       apply_no_weight="true"
       helper_size="0"
       steps="2"
       weight="33.333333"
       is_visible="true"
       id="path-effect31572"
       effect="bspline" />
    <inkscape:path-effect
       only_selected="false"
       apply_with_weight="true"
       apply_no_weight="true"
       helper_size="0"
       steps="2"
       weight="33.333333"
       is_visible="true"
       id="path-effect31568"
       effect="bspline" />
    <inkscape:path-effect
       effect="bspline"
       id="path-effect31564"
       is_visible="true"
       weight="33.333333"
       steps="2"
       helper_size="0"
       apply_no_weight="true"
       apply_with_weight="true"
       only_selected="false" />
    <inkscape:path-effect
       only_selected="false"
       apply_with_weight="true"
       apply_no_weight="true"
       helper_size="0"
       steps="2"
       weight="33.333333"
       is_visible="true"
       id="path-effect31560"
       effect="bspline" />
    <inkscape:path-effect
       effect="bspline"
       id="path-effect31556"
       is_visible="true"
       weight="33.333333"
       steps="2"
       helper_size="0"
       apply_no_weight="true"
       apply_with_weight="true"
       only_selected="false" />
    <inkscape:path-effect
       only_selected="false"
       apply_with_weight="true"
       apply_no_weight="true"
       helper_size="0"
       steps="2"
       weight="33.333333"
       is_visible="true"
       id="path-effect31552"
       effect="bspline" />
    <inkscape:path-effect
       effect="bspline"
       id="path-effect31548"
       is_visible="true"
       weight="33.333333"
       steps="2"
       helper_size="0"
       apply_no_weight="true"
       apply_with_weight="true"
       only_selected="false" />
    <inkscape:path-effect
       only_selected="false"
       apply_with_weight="true"
       apply_no_weight="true"
       helper_size="0"
       steps="2"
       weight="33.333333"
       is_visible="true"
       id="path-effect31544"
       effect="bspline" />
    <inkscape:path-effect
       effect="bspline"
       id="path-effect31531"
       is_visible="true"
       weight="33.333333"
       steps="2"
       helper_size="0"
       apply_no_weight="true"
       apply_with_weight="true"
       only_selected="false" />
    <inkscape:path-effect
       only_selected="false"
       apply_with_weight="true"
       apply_no_weight="true"
       helper_size="0"
       steps="2"
       weight="33.333333"
       is_visible="true"
       id="path-effect30441"
       effect="bspline" />
    <inkscape:path-effect
       only_selected="false"
       apply_with_weight="true"
       apply_no_weight="true"
       helper_size="0"
       steps="2"
       weight="33.333333"
       is_visible="true"
       id="path-effect12527-8"
       effect="bspline" />
    <inkscape:path-effect
       only_selected="false"
       apply_with_weight="true"
       apply_no_weight="true"
       helper_size="0"
       steps="2"
       weight="33.333333"
       is_visible="true"
       id="path-effect12520-6"
       effect="bspline" />
    <inkscape:path-effect
       only_selected="false"
       apply_with_weight="true"
       apply_no_weight="true"
       helper_size="0"
       steps="2"
       weight="33.333333"
       is_visible="true"
       id="path-effect1868-6"
       effect="bspline" />
    <inkscape:path-effect
       only_selected="false"
       apply_with_weight="true"
       apply_no_weight="true"
       helper_size="0"
       steps="2"
       weight="33.333333"
       is_visible="true"
       id="path-effect1853-4"
       effect="bspline" />
  </defs>
  <sodipodi:namedview
     id="base"
     pagecolor="#ffffff"
     bordercolor="#666666"
     borderopacity="1.0"
     inkscape:pageopacity="0.0"
     inkscape:pageshadow="2"
     inkscape:zoom="3.6203867"
     inkscape:cx="-1.8292309"
     inkscape:cy="90.907071"
     inkscape:document-units="px"
     inkscape:current-layer="layer1"
     showgrid="false"
     inkscape:window-width="1920"
     inkscape:window-height="1001"
     inkscape:window-x="-9"
     inkscape:window-y="-9"
     inkscape:window-maximized="1"
     showguides="false" />
  <metadata
     id="metadata912">
    <rdf:RDF>
      <cc:Work
         rdf:about="">
        <dc:format>image/svg+xml</dc:format>
        <dc:type
           rdf:resource="http://purl.org/dc/dcmitype/StillImage" />
        <dc:title></dc:title>
      </cc:Work>
    </rdf:RDF>
  </metadata>
  <g
     inkscape:label="Layer 1"
     inkscape:groupmode="layer"
     id="layer1">
    <g
       id="layer1-6"
       inkscape:label="Layer 1"
       transform="matrix(0.92078716,0,0,1,8.9189251,0.711116)">
      <path
         id="path31566"
         d="m 133.11914,96.888672 c -0.10613,-0.01723 -0.24427,0.188678 -0.41211,0.623047 -0.53708,1.389979 -1.36707,5.121921 -1.89648,7.423831 -0.52942,2.3019 -0.75932,3.17547 -1.4043,4.39648 -0.14934,0.28271 -0.35831,0.61826 -0.54102,0.92969 -0.86169,0.0734 -2.21191,0.62561 -3.42578,1.09961 -1.4642,0.57176 -2.75433,1.03301 -4.04297,1.24023 -1.28863,0.20722 -2.57746,0.16106 -4.02734,0 -1.44987,-0.16106 -3.06367,-0.43807 -4.8125,-0.57617 -1.74883,-0.1381 -3.63953,-0.13688 -4.85742,0.0469 -1.21789,0.18375 -1.771,0.55289 -2.23047,0.85156 -0.45947,0.29867 -0.82912,0.52925 -1.28906,0.73633 -0.45994,0.20707 -1.01259,0.39034 -1.42774,0.27539 -0.41515,-0.11496 -0.69219,-0.52879 -1.45117,-0.80469 -0.75897,-0.2759 -2.002948,-0.41532 -3.314452,-0.48438 -1.311504,-0.069 -2.692125,-0.0675 -3.980469,-0.0215 -1.288343,0.046 -2.487173,0.13818 -4.121093,0.32227 -1.633921,0.18408 -3.705956,0.46005 -6.123047,-0.11524 -2.301787,-0.54785 -4.917218,-1.87132 -7.546875,-3.22851 -0.08847,-0.18608 -0.180644,-0.36719 -0.25586,-0.57032 -0.460357,-1.24326 -0.643966,-2.85437 -1.035156,-4.58008 -0.39119,-1.7257 -0.990865,-3.56861 -1.451172,-4.857417 -0.460306,-1.288806 -0.782796,-2.026168 -0.966797,-1.888672 -0.184,0.137497 -0.229818,1.152325 -0.0918,2.763669 0.138022,1.61135 0.460999,3.82132 0.898438,6.69922 0.437439,2.8779 0.988266,6.42067 1.632812,9.16016 0.644547,2.73948 1.606364,3.84315 2.066779,5.33933 0.460415,1.49617 1.845031,2.55552 2.213574,3.38476 0.368544,0.82925 1.220269,2.11825 1.772632,3.17686 0.552362,1.05861 0.804435,1.88708 1.287915,2.94619 0.48348,1.05911 1.648375,0.96535 2.20111,1.49502 0.552735,0.52967 0.191794,0.99025 0.905164,1.51953 0.713371,0.52928 1.525019,0.64434 2.307416,1.6338 0.782397,0.98947 2.061006,1.61125 3.143322,2.57831 1.082317,0.96705 1.743292,2.00274 3.354352,2.41697 1.611061,0.41423 1.998304,1.86467 3.658326,1.91024 1.660024,0.0456 3.608441,0.96638 4.942931,0.87438 1.33449,-0.092 2.57736,-0.0911 3.79687,-0.16016 1.21952,-0.0691 2.19203,-1.65694 3.59534,-1.74895 1.4033,-0.092 2.34157,-1.17522 3.65317,-1.86587 1.3116,-0.69066 1.27471,-1.26538 2.44814,-2.59979 1.17342,-1.33441 2.88556,-2.81009 4.09372,-3.95061 1.20816,-1.14052 1.2111,-1.98954 2.03915,-3.2779 0.82805,-1.28837 2.13132,-2.00361 2.79877,-3.31521 0.66745,-1.31159 0.24992,-1.97962 0.68682,-3.15277 0.43689,-1.17316 2.40552,-2.64649 2.79671,-4.34905 0.39119,-1.70256 1.53044,-2.60307 2.20583,-6.29484 0.67539,-3.69177 2.16283,-9.56294 2.36985,-12.69305 0.14233,-2.151958 0.0694,-3.270688 -0.16406,-3.308598 z M 97.066406,114.65039 c 1.312434,0 2.73793,-3.4e-4 4.027344,0.0918 1.28941,0.0921 2.4411,0.27545 3.8457,0.27539 1.40461,-7e-5 3.06039,-0.18427 4.44141,0 1.38102,0.18427 2.48594,0.73847 3.40625,1.58984 0.92031,0.85137 1.65693,2.00131 2.43945,3.24414 0.78253,1.24284 1.61272,2.5789 1.88867,3.72852 0.27596,1.14961 1e-4,2.1193 -0.50585,3.0625 -0.46209,0.86142 -1.10322,1.68951 -0.54688,1.54883 -1.2284,0.77634 -2.1599,0.97501 -2.95312,1.21289 -1.15121,0.34522 -2.02392,0.80597 -2.62305,1.6582 -0.59913,0.85223 -0.92187,2.09252 -1.56641,2.80664 -0.64453,0.71412 -1.60935,0.89725 -2.18554,0.34375 -0.5762,-0.5535 -0.76125,-1.84031 -0.94532,-3.33594 -0.18407,-1.49562 -0.36775,-3.19897 -0.89648,-4.11914 -0.52873,-0.92017 -1.40405,-1.05914 -1.8418,-0.66797 -0.43774,0.39118 -0.43771,1.31137 -0.66797,2.57813 -0.23026,1.26676 -0.68896,2.87538 -0.98828,3.98047 -0.29932,1.10508 -0.43824,1.7037 -0.94531,1.86523 -0.50707,0.16154 -1.379915,-0.11323 -1.88672,-0.80469 -0.506805,-0.69145 -0.644746,-1.79586 -0.966797,-2.66992 -0.32205,-0.87406 -0.829229,-1.51941 -1.818359,-1.93359 -0.989131,-0.41418 -2.462823,-0.59851 -3.638672,-0.94141 -0.158333,-0.0462 -0.308845,-0.1087 -0.462891,-0.16406 -0.319725,-0.18805 -0.627005,-0.37899 -0.892578,-0.59766 -0.783212,-0.64487 -1.242917,-1.52039 -1.611328,-2.55664 -0.368411,-1.03624 -0.644989,-2.23103 -0.552734,-3.38281 0.09225,-1.15178 0.551964,-2.25518 0.966797,-3.13086 0.414832,-0.87568 0.782312,-1.51812 1.404296,-2.09375 0.621985,-0.57563 1.495174,-1.08287 2.53125,-1.33594 1.036076,-0.25306 2.232489,-0.25195 3.544922,-0.25195 z"
         style="fill:#dd925d;fill-opacity:1;stroke:#000000;stroke-width:0;stroke-linecap:butt;stroke-linejoin:miter;stroke-miterlimit:4;stroke-dasharray:none;stroke-opacity:1"
         inkscape:connector-curvature="0"
         sodipodi:nodetypes="cccccccsscsccccscccccsccscccssssccscsccccscccssccsccsscccccsccsscscccsscccccsscs" />
    </g>
  </g>
</svg>
