<?xml version="1.0" encoding="UTF-8" standalone="no"?>
<!-- Created with Inkscape (http://www.inkscape.org/) -->

<svg
   xmlns:dc="http://purl.org/dc/elements/1.1/"
   xmlns:cc="http://creativecommons.org/ns#"
   xmlns:rdf="http://www.w3.org/1999/02/22-rdf-syntax-ns#"
   xmlns:svg="http://www.w3.org/2000/svg"
   xmlns="http://www.w3.org/2000/svg"
   xmlns:sodipodi="http://sodipodi.sourceforge.net/DTD/sodipodi-0.dtd"
   xmlns:inkscape="http://www.inkscape.org/namespaces/inkscape"
   width="200px"
   height="200px"
   viewBox="0 0 200 200"
   version="1.1"
   id="SVGRoot"
   sodipodi:docname="facialhair-4-3.svg"
   inkscape:version="0.92.4 (5da689c313, 2019-01-14)">
  <defs
     id="defs909">
    <inkscape:path-effect
       effect="bspline"
       id="path-effect12527"
       is_visible="true"
       weight="33.333333"
       steps="2"
       helper_size="0"
       apply_no_weight="true"
       apply_with_weight="true"
       only_selected="false" />
    <inkscape:path-effect
       effect="bspline"
       id="path-effect12520"
       is_visible="true"
       weight="33.333333"
       steps="2"
       helper_size="0"
       apply_no_weight="true"
       apply_with_weight="true"
       only_selected="false" />
    <inkscape:path-effect
       effect="bspline"
       id="path-effect1868"
       is_visible="true"
       weight="33.333333"
       steps="2"
       helper_size="0"
       apply_no_weight="true"
       apply_with_weight="true"
       only_selected="false" />
    <inkscape:path-effect
       effect="bspline"
       id="path-effect1853"
       is_visible="true"
       weight="33.333333"
       steps="2"
       helper_size="0"
       apply_no_weight="true"
       apply_with_weight="true"
       only_selected="false" />
    <inkscape:path-effect
       only_selected="false"
       apply_with_weight="true"
       apply_no_weight="true"
       helper_size="0"
       steps="2"
       weight="33.333333"
       is_visible="true"
       id="path-effect12527-8"
       effect="bspline" />
    <inkscape:path-effect
       only_selected="false"
       apply_with_weight="true"
       apply_no_weight="true"
       helper_size="0"
       steps="2"
       weight="33.333333"
       is_visible="true"
       id="path-effect12520-8"
       effect="bspline" />
    <inkscape:path-effect
       only_selected="false"
       apply_with_weight="true"
       apply_no_weight="true"
       helper_size="0"
       steps="2"
       weight="33.333333"
       is_visible="true"
       id="path-effect1868-0"
       effect="bspline" />
    <inkscape:path-effect
       only_selected="false"
       apply_with_weight="true"
       apply_no_weight="true"
       helper_size="0"
       steps="2"
       weight="33.333333"
       is_visible="true"
       id="path-effect1853-0"
       effect="bspline" />
    <inkscape:path-effect
       only_selected="false"
       apply_with_weight="true"
       apply_no_weight="true"
       helper_size="0"
       steps="2"
       weight="33.333333"
       is_visible="true"
       id="path-effect13238"
       effect="bspline" />
    <inkscape:path-effect
       only_selected="false"
       apply_with_weight="true"
       apply_no_weight="true"
       helper_size="0"
       steps="2"
       weight="33.333333"
       is_visible="true"
       id="path-effect13267"
       effect="bspline" />
    <inkscape:path-effect
       only_selected="false"
       apply_with_weight="true"
       apply_no_weight="true"
       helper_size="0"
       steps="2"
       weight="33.333333"
       is_visible="true"
       id="path-effect56117"
       effect="bspline" />
    <inkscape:path-effect
       only_selected="false"
       apply_with_weight="true"
       apply_no_weight="true"
       helper_size="0"
       steps="2"
       weight="33.333333"
       is_visible="true"
       id="path-effect13204"
       effect="bspline" />
    <inkscape:path-effect
       only_selected="false"
       apply_with_weight="true"
       apply_no_weight="true"
       helper_size="0"
       steps="2"
       weight="33.333333"
       is_visible="true"
       id="path-effect13200"
       effect="bspline" />
    <inkscape:path-effect
       effect="bspline"
       id="path-effect13204-9"
       is_visible="true"
       weight="33.333333"
       steps="2"
       helper_size="0"
       apply_no_weight="true"
       apply_with_weight="true"
       only_selected="false" />
    <inkscape:path-effect
       effect="bspline"
       id="path-effect13267-1"
       is_visible="true"
       weight="33.333333"
       steps="2"
       helper_size="0"
       apply_no_weight="true"
       apply_with_weight="true"
       only_selected="false" />
    <inkscape:path-effect
       effect="bspline"
       id="path-effect13200-0"
       is_visible="true"
       weight="33.333333"
       steps="2"
       helper_size="0"
       apply_no_weight="true"
       apply_with_weight="true"
       only_selected="false" />
    <inkscape:path-effect
       only_selected="false"
       apply_with_weight="true"
       apply_no_weight="true"
       helper_size="0"
       steps="2"
       weight="33.333333"
       is_visible="true"
       id="path-effect12527-6"
       effect="bspline" />
    <inkscape:path-effect
       only_selected="false"
       apply_with_weight="true"
       apply_no_weight="true"
       helper_size="0"
       steps="2"
       weight="33.333333"
       is_visible="true"
       id="path-effect12520-9"
       effect="bspline" />
    <inkscape:path-effect
       only_selected="false"
       apply_with_weight="true"
       apply_no_weight="true"
       helper_size="0"
       steps="2"
       weight="33.333333"
       is_visible="true"
       id="path-effect1868-8"
       effect="bspline" />
    <inkscape:path-effect
       only_selected="false"
       apply_with_weight="true"
       apply_no_weight="true"
       helper_size="0"
       steps="2"
       weight="33.333333"
       is_visible="true"
       id="path-effect1853-7"
       effect="bspline" />
    <inkscape:path-effect
       only_selected="false"
       apply_with_weight="true"
       apply_no_weight="true"
       helper_size="0"
       steps="2"
       weight="33.333333"
       is_visible="true"
       id="path-effect13238-1"
       effect="bspline" />
    <inkscape:path-effect
       only_selected="false"
       apply_with_weight="true"
       apply_no_weight="true"
       helper_size="0"
       steps="2"
       weight="33.333333"
       is_visible="true"
       id="path-effect13267-2"
       effect="bspline" />
    <inkscape:path-effect
       only_selected="false"
       apply_with_weight="true"
       apply_no_weight="true"
       helper_size="0"
       steps="2"
       weight="33.333333"
       is_visible="true"
       id="path-effect56117-1"
       effect="bspline" />
    <inkscape:path-effect
       only_selected="false"
       apply_with_weight="true"
       apply_no_weight="true"
       helper_size="0"
       steps="2"
       weight="33.333333"
       is_visible="true"
       id="path-effect13204-90"
       effect="bspline" />
    <inkscape:path-effect
       only_selected="false"
       apply_with_weight="true"
       apply_no_weight="true"
       helper_size="0"
       steps="2"
       weight="33.333333"
       is_visible="true"
       id="path-effect13200-8"
       effect="bspline" />
    <inkscape:path-effect
       effect="bspline"
       id="path-effect31582"
       is_visible="true"
       weight="33.333333"
       steps="2"
       helper_size="0"
       apply_no_weight="true"
       apply_with_weight="true"
       only_selected="false" />
    <inkscape:path-effect
       effect="bspline"
       id="path-effect31578"
       is_visible="true"
       weight="33.333333"
       steps="2"
       helper_size="0"
       apply_no_weight="true"
       apply_with_weight="true"
       only_selected="false" />
    <inkscape:path-effect
       effect="bspline"
       id="path-effect31572"
       is_visible="true"
       weight="33.333333"
       steps="2"
       helper_size="0"
       apply_no_weight="true"
       apply_with_weight="true"
       only_selected="false" />
    <inkscape:path-effect
       effect="bspline"
       id="path-effect31568"
       is_visible="true"
       weight="33.333333"
       steps="2"
       helper_size="0"
       apply_no_weight="true"
       apply_with_weight="true"
       only_selected="false" />
    <inkscape:path-effect
       only_selected="false"
       apply_with_weight="true"
       apply_no_weight="true"
       helper_size="0"
       steps="2"
       weight="33.333333"
       is_visible="true"
       id="path-effect31564"
       effect="bspline" />
    <inkscape:path-effect
       effect="bspline"
       id="path-effect31560"
       is_visible="true"
       weight="33.333333"
       steps="2"
       helper_size="0"
       apply_no_weight="true"
       apply_with_weight="true"
       only_selected="false" />
    <inkscape:path-effect
       only_selected="false"
       apply_with_weight="true"
       apply_no_weight="true"
       helper_size="0"
       steps="2"
       weight="33.333333"
       is_visible="true"
       id="path-effect31556"
       effect="bspline" />
    <inkscape:path-effect
       effect="bspline"
       id="path-effect31552"
       is_visible="true"
       weight="33.333333"
       steps="2"
       helper_size="0"
       apply_no_weight="true"
       apply_with_weight="true"
       only_selected="false" />
    <inkscape:path-effect
       only_selected="false"
       apply_with_weight="true"
       apply_no_weight="true"
       helper_size="0"
       steps="2"
       weight="33.333333"
       is_visible="true"
       id="path-effect31548"
       effect="bspline" />
    <inkscape:path-effect
       effect="bspline"
       id="path-effect31544"
       is_visible="true"
       weight="33.333333"
       steps="2"
       helper_size="0"
       apply_no_weight="true"
       apply_with_weight="true"
       only_selected="false" />
    <inkscape:path-effect
       only_selected="false"
       apply_with_weight="true"
       apply_no_weight="true"
       helper_size="0"
       steps="2"
       weight="33.333333"
       is_visible="true"
       id="path-effect31531"
       effect="bspline" />
    <inkscape:path-effect
       effect="bspline"
       id="path-effect30441"
       is_visible="true"
       weight="33.333333"
       steps="2"
       helper_size="0"
       apply_no_weight="true"
       apply_with_weight="true"
       only_selected="false" />
    <inkscape:path-effect
       effect="bspline"
       id="path-effect12527-8-1"
       is_visible="true"
       weight="33.333333"
       steps="2"
       helper_size="0"
       apply_no_weight="true"
       apply_with_weight="true"
       only_selected="false" />
    <inkscape:path-effect
       effect="bspline"
       id="path-effect12520-8-3"
       is_visible="true"
       weight="33.333333"
       steps="2"
       helper_size="0"
       apply_no_weight="true"
       apply_with_weight="true"
       only_selected="false" />
    <inkscape:path-effect
       effect="bspline"
       id="path-effect1868-0-2"
       is_visible="true"
       weight="33.333333"
       steps="2"
       helper_size="0"
       apply_no_weight="true"
       apply_with_weight="true"
       only_selected="false" />
    <inkscape:path-effect
       effect="bspline"
       id="path-effect1853-4"
       is_visible="true"
       weight="33.333333"
       steps="2"
       helper_size="0"
       apply_no_weight="true"
       apply_with_weight="true"
       only_selected="false" />
  </defs>
  <sodipodi:namedview
     id="base"
     pagecolor="#ffffff"
     bordercolor="#666666"
     borderopacity="1.0"
     inkscape:pageopacity="0.0"
     inkscape:pageshadow="2"
     inkscape:zoom="5.1200001"
     inkscape:cx="3.7657981"
     inkscape:cy="105.96154"
     inkscape:document-units="px"
     inkscape:current-layer="layer1"
     showgrid="false"
     inkscape:window-width="1920"
     inkscape:window-height="1001"
     inkscape:window-x="-9"
     inkscape:window-y="-9"
     inkscape:window-maximized="1"
     showguides="false" />
  <metadata
     id="metadata912">
    <rdf:RDF>
      <cc:Work
         rdf:about="">
        <dc:format>image/svg+xml</dc:format>
        <dc:type
           rdf:resource="http://purl.org/dc/dcmitype/StillImage" />
        <dc:title></dc:title>
      </cc:Work>
    </rdf:RDF>
  </metadata>
  <g
     inkscape:label="Layer 1"
     inkscape:groupmode="layer"
     id="layer1">
    <g
       id="layer1-0"
       inkscape:label="Layer 1"
       transform="translate(0.38669254,0.51738321)">
      <g
         transform="translate(0.22595166,4.7695585)"
         inkscape:label="Layer 1"
         id="layer1-1" />
      <g
         id="g1240">
        <path
           transform="translate(0.22595166,4.7695585)"
           sodipodi:nodetypes="ccccccccccccccccccccccccccccc"
           inkscape:original-d="m 83.14029,116.30728 c 1.336032,-0.1391 2.671064,-0.27721 4.005097,-0.41432 1.150948,-0.73696 2.302779,-1.47414 3.452669,-2.20971 1.150727,-0.50688 2.30278,-1.01378 3.45267,-1.51917 1.012722,-0.27692 2.026566,-0.55343 3.03835,-0.82864 1.33447,0.41283 2.671064,0.82764 4.005094,1.24296 0.3231,0.27508 0.6455,0.55143 0.96675,0.82864 0.50726,0.0911 1.01378,0.18314 1.51917,0.27621 0.82835,-0.78238 1.65829,-1.56621 2.48593,-2.34781 0.001,-0.001 0.001,-0.001 0,0 1.65828,0.045 3.31556,0.0911 4.97184,0.1381 1.33604,0.41333 2.67106,0.82765 4.0051,1.24297 1.15163,0.68938 2.30278,1.38006 3.45267,2.0716 1.65786,0.27514 3.31556,0.55143 4.97184,0.82864 1.51943,0.41312 3.03935,0.82764 4.55753,1.24296 -1.60953,0.73524 -3.22149,1.47214 -4.83374,2.20971 -1.33503,-0.13921 -2.66907,-0.27721 -4.0051,-0.41432 -1.15065,-0.73806 -2.30078,-1.47414 -3.45267,-2.20971 -1.38037,-0.55355 -2.76113,-1.10585 -4.1432,-1.65728 -0.59769,0.45953 -1.19593,0.91971 -1.79539,1.38107 -1.19815,0.0912 -2.39285,0.18314 -3.59078,0.27621 -0.55192,-0.27746 -1.28799,-0.55343 -1.93349,-0.82864 -1.01254,0.36756 -2.02457,0.73557 -3.03835,1.10485 -0.9669,0.0451 -1.932496,0.0911 -2.900243,0.13811 -1.381561,-0.23143 -2.761136,-0.46136 -4.143204,-0.69053 -0.643877,-0.23132 -1.287997,-0.46136 -1.933495,-0.69054 -0.736221,0.96661 -1.472139,2.02457 -2.209709,3.03835 -1.796391,0.55205 -3.589776,1.10386 -5.386165,1.65728 -0.505728,-1.29085 -1.011783,-2.57899 -1.519174,-3.86699 z"
           inkscape:path-effect="#path-effect31582"
           inkscape:connector-curvature="0"
           id="path31580"
           d="m 84.061444,116.88241 c 0.414969,-0.71335 1.750001,-0.85146 2.992526,-1.28881 1.242525,-0.43735 2.39436,-1.17452 3.54469,-1.79564 1.15033,-0.62112 2.302382,-1.12802 3.383677,-1.51907 1.081295,-0.39106 2.095141,-0.66756 3.267989,-0.59849 1.172848,0.0691 2.509443,0.48388 3.337734,0.82901 0.82829,0.34514 1.15069,0.62149 1.56531,0.80566 0.41461,0.18416 0.92112,0.27625 1.58811,-0.069 0.66699,-0.34521 1.49693,-1.12904 1.91073,-1.51986 0.41381,-0.39081 0.41381,-0.39081 1.24294,-0.36778 0.82912,0.023 2.4864,0.0691 3.98239,0.29933 1.49599,0.23026 2.83101,0.64458 4.07368,1.19692 1.24267,0.55234 2.39381,1.24303 3.79795,1.72635 1.40413,0.48332 3.06183,0.7596 4.64962,1.10479 1.58779,0.34519 3.10771,0.75971 3.0623,1.33463 -0.0454,0.57491 -1.65738,1.31181 -3.13117,1.61131 -1.4738,0.2995 -2.80784,0.1615 -4.0515,-0.27605 -1.24366,-0.43754 -2.39378,-1.17363 -3.65978,-1.81816 -1.266,-0.64454 -2.64676,-1.19684 -3.63635,-1.24332 -0.98958,-0.0465 -1.58782,0.4137 -2.48664,0.69038 -0.89883,0.27669 -2.09353,0.36859 -2.9759,0.29322 -0.88237,-0.0754 -1.60414,-0.3847 -2.4328,-0.33885 -0.82866,0.0459 -1.84069,0.41386 -2.83111,0.62124 -0.99042,0.20738 -1.956012,0.25336 -3.130783,0.16126 -1.174771,-0.0921 -2.554346,-0.32203 -3.567439,-0.55224 -1.013093,-0.23021 -1.657212,-0.46026 -2.336989,-0.0842 -0.679777,0.37602 -1.43761,1.41804 -2.704404,2.20133 -1.266794,0.7833 -3.060179,1.33511 -4.211937,0.96631 -1.151757,-0.36879 -1.657812,-1.65693 -1.242844,-2.37027 z"
           style="fill:#dd925d;fill-opacity:1;stroke:#000000;stroke-width:0;stroke-linecap:butt;stroke-linejoin:miter;stroke-miterlimit:4;stroke-dasharray:none;stroke-opacity:1" />
        <path
           style="fill:#dd925d;fill-opacity:1;stroke:#000000;stroke-width:0;stroke-linecap:butt;stroke-linejoin:miter;stroke-miterlimit:4;stroke-dasharray:none;stroke-opacity:1"
           d="m 72.78945,94.31711 c -2.548262,1.882634 -0.702872,1.818168 -0.737925,2.774517 -0.196306,5.355843 2.353341,10.476793 2.984019,15.798993 0.220197,1.85822 0.551239,3.75596 0.276213,5.60686 -0.201199,1.35405 -1.340846,2.49763 -1.385976,3.8658 -0.02344,0.71056 0.395862,1.36571 0.585938,2.05078 0.234335,0.84458 0.568669,1.67014 0.683594,2.53906 0.140851,1.06495 -0.516925,2.28099 0,3.22266 0.612715,1.11617 2.699126,0.89011 3.222656,2.05078 0.257452,0.57078 -0.144632,1.24714 -0.292969,1.85547 -0.09755,0.40004 -0.447295,0.76404 -0.390625,1.17188 0.108296,0.77938 0.882686,1.30289 1.32877,1.95109 0.601437,0.87395 1.59325,1.576 1.817051,2.61302 0.300764,1.39365 -1.18024,2.83883 -0.776343,4.20616 0.263965,0.8936 1.67443,1.13305 1.919615,2.03199 0.548994,2.01282 -2.099591,4.13906 -1.392916,6.10208 0.36551,1.01533 2.089049,1.00518 2.566824,1.97276 0.471264,0.95439 -0.174904,2.14425 0.0057,3.19321 0.0996,0.57833 0.266294,1.168 0.585938,1.66015 1.191508,1.83453 2.606211,4.16174 4.765525,4.51182 1.378589,0.22351 2.400384,-1.79684 3.796747,-1.77168 1.539701,0.0277 2.473603,0.80777 4.11341,2.10306 1.845557,1.45782 3.300414,0.45099 4.959644,0.58594 1.02026,0.083 2.05587,0.29157 3.0678,0.13727 1.43153,-0.21828 2.63734,-1.52103 4.0848,-1.47877 1.52811,0.0446 2.68526,1.8251 4.21394,1.81012 1.60879,-0.0158 2.98211,-1.2249 4.39658,-1.99154 1.15631,-0.62672 2.43449,-1.15578 3.32606,-2.12271 0.83358,-0.90405 1.5342,-2.04565 1.72633,-3.26024 0.33688,-2.12956 -1.81604,-4.33257 -1.11467,-6.37135 0.32238,-0.93713 2.00713,-1.02263 2.20564,-1.99358 0.30075,-1.47108 -2.08686,-2.60141 -1.88813,-4.08971 0.18079,-1.35404 2.1725,-1.85393 2.63384,-3.13973 0.40755,-1.13588 -0.2416,-2.43165 -0.0327,-3.62021 0.27479,-1.56331 1.26715,-2.92474 1.66422,-4.46156 0.36371,-1.40768 0.16847,-2.94038 0.64602,-4.31362 0.75511,-2.17137 2.80104,-3.77184 3.43101,-5.98276 0.51768,-1.81683 0.0239,-3.78271 0.19531,-5.66407 0.0985,-1.08148 0.31127,-2.14954 0.47787,-3.22265 0.82972,-5.34432 2.01444,-10.63889 2.5983,-16.015625 0.15839,-1.458529 1.5628,-3.751466 0.24415,-4.394533 -0.62205,-0.303351 -1.18689,0.785922 -1.56251,1.367187 -0.84951,1.314615 -0.90079,2.998082 -1.36719,4.492191 -0.50921,1.63128 -0.94889,3.28787 -1.5625,4.88281 -0.53881,1.4005 -1.02886,2.84918 -1.85546,4.10156 -0.58381,0.88453 -1.71428,1.37694 -2.14844,2.34375 -0.5228,1.16419 -0.35987,2.53277 -0.39063,3.80859 -0.0291,1.20584 0.42218,2.42863 0.19532,3.61329 -0.17532,0.91551 -0.57906,1.81971 -1.17188,2.53906 -1.1536,1.39982 -3.23255,1.8062 -4.41409,3.18251 -1.24817,1.45392 -1.31676,3.71088 -2.61716,5.11827 -1.34882,1.45979 -3.11698,2.80209 -5.07812,3.125 -1.58171,0.26043 -3.47394,-0.0269 -4.6875,-1.07422 -1.0846,-0.93603 -0.30568,-3.31622 -1.5625,-4.00391 -0.58245,-0.3187 -1.45753,-0.0512 -1.95313,0.39063 -0.79148,0.70557 -0.36077,2.16417 -0.97656,3.02734 -0.56715,0.79499 -1.45723,1.34824 -2.343751,1.75782 -0.939137,0.43389 -2.001009,0.81348 -3.027344,0.68359 -1.415443,-0.17913 -2.739952,-1.00784 -3.808594,-1.95313 -0.825032,-0.7298 -1.333774,-1.76426 -1.855469,-2.73437 -0.566895,-1.05416 -0.620757,-2.38464 -1.367187,-3.32031 -0.422421,-0.52951 -1.109528,-0.77738 -1.660156,-1.17188 -1.272616,-0.91178 -2.932926,-1.45763 -3.798542,-2.76209 -1.510442,-2.27619 -0.660902,-5.52829 -1.865521,-7.9801 -0.999879,-2.03509 -2.943562,-3.45412 -4.296875,-5.27343 -0.727466,-0.97796 -1.59613,-1.89646 -2.050781,-3.02735 -0.50504,-1.25623 -0.530825,-2.6586 -0.683594,-4.0039 -0.199739,-1.758922 0.528483,-3.739129 -0.302783,-5.302043 C 74.635857,95.215304 72.78945,94.31711 72.78945,94.31711 Z"
           id="path430"
           inkscape:connector-curvature="0"
           sodipodi:nodetypes="caaaaaaaaaaaaaaaaaaaasaaaaaaaaaaaaaaaaaaaaaaaaaaaaaaaaaaaaaaaaaaaaaac" />
      </g>
    </g>
  </g>
</svg>
