<?xml version="1.0" encoding="UTF-8" standalone="no"?>
<!-- Created with Inkscape (http://www.inkscape.org/) -->

<svg
   xmlns:dc="http://purl.org/dc/elements/1.1/"
   xmlns:cc="http://creativecommons.org/ns#"
   xmlns:rdf="http://www.w3.org/1999/02/22-rdf-syntax-ns#"
   xmlns:svg="http://www.w3.org/2000/svg"
   xmlns="http://www.w3.org/2000/svg"
   xmlns:sodipodi="http://sodipodi.sourceforge.net/DTD/sodipodi-0.dtd"
   xmlns:inkscape="http://www.inkscape.org/namespaces/inkscape"
   width="200px"
   height="200px"
   viewBox="0 0 200 200"
   version="1.1"
   id="SVGRoot"
   sodipodi:docname="facialhair-5-3.svg"
   inkscape:version="0.92.4 (5da689c313, 2019-01-14)">
  <defs
     id="defs909">
    <inkscape:path-effect
       effect="bspline"
       id="path-effect12527"
       is_visible="true"
       weight="33.333333"
       steps="2"
       helper_size="0"
       apply_no_weight="true"
       apply_with_weight="true"
       only_selected="false" />
    <inkscape:path-effect
       effect="bspline"
       id="path-effect12520"
       is_visible="true"
       weight="33.333333"
       steps="2"
       helper_size="0"
       apply_no_weight="true"
       apply_with_weight="true"
       only_selected="false" />
    <inkscape:path-effect
       effect="bspline"
       id="path-effect1868"
       is_visible="true"
       weight="33.333333"
       steps="2"
       helper_size="0"
       apply_no_weight="true"
       apply_with_weight="true"
       only_selected="false" />
    <inkscape:path-effect
       effect="bspline"
       id="path-effect1853"
       is_visible="true"
       weight="33.333333"
       steps="2"
       helper_size="0"
       apply_no_weight="true"
       apply_with_weight="true"
       only_selected="false" />
    <inkscape:path-effect
       only_selected="false"
       apply_with_weight="true"
       apply_no_weight="true"
       helper_size="0"
       steps="2"
       weight="33.333333"
       is_visible="true"
       id="path-effect31572"
       effect="bspline" />
    <inkscape:path-effect
       only_selected="false"
       apply_with_weight="true"
       apply_no_weight="true"
       helper_size="0"
       steps="2"
       weight="33.333333"
       is_visible="true"
       id="path-effect31568"
       effect="bspline" />
    <inkscape:path-effect
       effect="bspline"
       id="path-effect31564"
       is_visible="true"
       weight="33.333333"
       steps="2"
       helper_size="0"
       apply_no_weight="true"
       apply_with_weight="true"
       only_selected="false" />
    <inkscape:path-effect
       only_selected="false"
       apply_with_weight="true"
       apply_no_weight="true"
       helper_size="0"
       steps="2"
       weight="33.333333"
       is_visible="true"
       id="path-effect31560"
       effect="bspline" />
    <inkscape:path-effect
       effect="bspline"
       id="path-effect31556"
       is_visible="true"
       weight="33.333333"
       steps="2"
       helper_size="0"
       apply_no_weight="true"
       apply_with_weight="true"
       only_selected="false" />
    <inkscape:path-effect
       only_selected="false"
       apply_with_weight="true"
       apply_no_weight="true"
       helper_size="0"
       steps="2"
       weight="33.333333"
       is_visible="true"
       id="path-effect31552"
       effect="bspline" />
    <inkscape:path-effect
       effect="bspline"
       id="path-effect31548"
       is_visible="true"
       weight="33.333333"
       steps="2"
       helper_size="0"
       apply_no_weight="true"
       apply_with_weight="true"
       only_selected="false" />
    <inkscape:path-effect
       only_selected="false"
       apply_with_weight="true"
       apply_no_weight="true"
       helper_size="0"
       steps="2"
       weight="33.333333"
       is_visible="true"
       id="path-effect31544"
       effect="bspline" />
    <inkscape:path-effect
       effect="bspline"
       id="path-effect31531"
       is_visible="true"
       weight="33.333333"
       steps="2"
       helper_size="0"
       apply_no_weight="true"
       apply_with_weight="true"
       only_selected="false" />
    <inkscape:path-effect
       only_selected="false"
       apply_with_weight="true"
       apply_no_weight="true"
       helper_size="0"
       steps="2"
       weight="33.333333"
       is_visible="true"
       id="path-effect30441"
       effect="bspline" />
    <inkscape:path-effect
       only_selected="false"
       apply_with_weight="true"
       apply_no_weight="true"
       helper_size="0"
       steps="2"
       weight="33.333333"
       is_visible="true"
       id="path-effect12527-8"
       effect="bspline" />
    <inkscape:path-effect
       only_selected="false"
       apply_with_weight="true"
       apply_no_weight="true"
       helper_size="0"
       steps="2"
       weight="33.333333"
       is_visible="true"
       id="path-effect12520-6"
       effect="bspline" />
    <inkscape:path-effect
       only_selected="false"
       apply_with_weight="true"
       apply_no_weight="true"
       helper_size="0"
       steps="2"
       weight="33.333333"
       is_visible="true"
       id="path-effect1868-6"
       effect="bspline" />
    <inkscape:path-effect
       only_selected="false"
       apply_with_weight="true"
       apply_no_weight="true"
       helper_size="0"
       steps="2"
       weight="33.333333"
       is_visible="true"
       id="path-effect1853-4"
       effect="bspline" />
    <inkscape:path-effect
       effect="bspline"
       id="path-effect31578"
       is_visible="true"
       weight="33.333333"
       steps="2"
       helper_size="0"
       apply_no_weight="true"
       apply_with_weight="true"
       only_selected="false" />
  </defs>
  <sodipodi:namedview
     id="base"
     pagecolor="#ffffff"
     bordercolor="#666666"
     borderopacity="1.0"
     inkscape:pageopacity="0.0"
     inkscape:pageshadow="2"
     inkscape:zoom="7.2407734"
     inkscape:cx="59.322994"
     inkscape:cy="80.806663"
     inkscape:document-units="px"
     inkscape:current-layer="layer1"
     showgrid="false"
     inkscape:window-width="1920"
     inkscape:window-height="1001"
     inkscape:window-x="-9"
     inkscape:window-y="-9"
     inkscape:window-maximized="1"
     showguides="false" />
  <metadata
     id="metadata912">
    <rdf:RDF>
      <cc:Work
         rdf:about="">
        <dc:format>image/svg+xml</dc:format>
        <dc:type
           rdf:resource="http://purl.org/dc/dcmitype/StillImage" />
        <dc:title></dc:title>
      </cc:Work>
    </rdf:RDF>
  </metadata>
  <g
     inkscape:label="Layer 1"
     inkscape:groupmode="layer"
     id="layer1">
    <path
       transform="matrix(0.91100984,0,0,1,9.0047973,-1.5739368)"
       style="fill:#dd925d;fill-opacity:1;stroke:#000000;stroke-width:0;stroke-linecap:butt;stroke-linejoin:miter;stroke-miterlimit:4;stroke-dasharray:none;stroke-opacity:1"
       d="m 72.874217,99.135428 c -0.184107,1.380762 0.276249,5.477932 0.483472,8.171072 0.207224,2.69315 0.161198,3.98187 0.322349,5.04131 0.161152,1.05944 0.529139,1.88741 0.75941,2.87727 0.23027,0.98987 0.32229,2.14011 0.552576,3.68313 0.230286,1.54303 0.598278,3.47499 1.242965,5.10981 0.644686,1.63482 1.565026,2.96931 2.163526,4.67247 0.598501,1.70316 0.874671,3.77444 0.989822,5.63913 0.11515,1.86469 0.06913,3.52129 0.184215,5.018 0.115081,1.4967 0.391125,2.83091 0.437249,4.30434 0.04612,1.47343 -0.137913,3.08375 -0.09194,4.35027 0.04597,1.26653 0.321993,2.18661 0.598316,3.2458 0.276323,1.0592 0.552345,2.25529 1.312584,3.17666 0.76024,0.92137 2.002444,1.56548 2.853741,2.55465 0.851298,0.98916 1.311795,2.3246 2.094943,3.26885 0.783147,0.94424 1.887518,1.49643 2.807859,2.20968 0.92034,0.71325 1.657177,1.58824 2.301644,2.57791 0.644466,0.98967 1.196831,2.0944 2.371719,2.53183 1.174889,0.43742 2.969627,0.20733 4.718409,0.0693 1.748786,-0.13803 3.453156,-0.18409 4.994786,-0.046 1.54163,0.13811 2.92353,0.46055 4.67251,0.48349 1.74899,0.0229 3.86774,-0.25343 5.36372,-0.55273 1.49598,-0.29929 2.3711,-0.62171 3.47484,-0.66761 1.10373,-0.0459 2.4406,0.18459 3.476,-0.71317 1.0354,-0.89776 1.77241,-2.92453 2.30163,-4.69643 0.52921,-1.7719 0.85166,-3.29198 1.65717,-4.67248 0.80552,-1.38051 2.0955,-2.62442 2.67045,-4.00484 0.57495,-1.38043 0.43673,-2.90081 0.25265,-4.58054 -0.18409,-1.67973 -0.4144,-3.52225 -0.25312,-5.15635 0.16129,-1.63411 0.71397,-3.06187 0.9209,-4.30421 0.20693,-1.24234 0.0687,-2.30206 0.0918,-3.42958 0.0231,-1.12753 0.20737,-2.32542 0.1153,-3.63655 -0.0921,-1.31112 -0.4607,-2.73956 -0.34531,-3.93649 0.11539,-1.19693 0.71415,-2.16415 1.17406,-3.47515 0.45991,-1.311 0.78255,-2.97029 0.9896,-4.60395 0.20705,-1.63365 0.29918,-3.24602 0.69033,-5.91491 0.39115,-2.6689 1.08214,-6.40022 1.55062,-9.19558 0.46848,-2.79536 0.71512,-4.658384 0.50828,-4.589972 -0.20684,0.06841 -0.86812,2.070162 -1.54402,4.037762 -0.6759,1.96761 -1.36602,3.89995 -2.21284,5.08527 -0.84682,1.18532 -1.96058,1.66956 -2.65173,2.47551 -0.69115,0.80594 -1.01303,1.95552 -1.63458,2.62361 -0.62155,0.66809 -1.54131,0.85205 -2.34762,1.58894 -0.80631,0.7369 -1.49598,2.02428 -1.91062,3.29088 -0.41464,1.2666 -0.55262,2.50841 -1.10496,3.45259 -0.55234,0.94418 -1.51824,1.58811 -2.30118,2.07174 -0.78294,0.48363 -1.38069,0.8055 -2.11831,1.56603 -0.73763,0.76054 -1.61056,1.95508 -2.80812,2.55411 -1.19755,0.59902 -2.71529,0.59902 -3.79764,0.43789 -1.08235,-0.16113 -1.72642,-0.48317 -2.30232,-1.1513 -0.57591,-0.66813 -1.08198,-1.68028 -1.77184,-2.25544 -0.68985,-0.57515 -1.56487,-0.71331 -2.1406,-0.46048 -0.57573,0.25283 -0.85168,0.89672 -1.42765,1.56505 -0.57597,0.66834 -1.449009,1.35758 -2.347605,1.49596 -0.898595,0.13838 -1.818148,-0.27541 -2.462365,-0.39086 -0.644218,-0.11545 -1.012322,0.0686 -1.958982,-0.30079 -0.946659,-0.3694 -2.460887,-1.28711 -3.312781,-2.23141 -0.851893,-0.9443 -1.036001,-1.91086 -1.60055,-2.68638 -0.564549,-0.77551 -1.552666,-1.38721 -2.174396,-2.4237 -0.621731,-1.03649 -0.897865,-2.5092 -1.541681,-3.38332 -0.643816,-0.87412 -1.657138,-1.15048 -2.348237,-1.79569 -0.691098,-0.64521 -1.059135,-1.65731 -1.565334,-2.69268 -0.506199,-1.03538 -1.151053,-2.09478 -1.795003,-2.693 -0.64395,-0.59822 -1.288623,-0.73636 -2.118258,-1.38165 -0.829635,-0.64528 -1.841239,-1.79483 -2.416688,-3.19929 -0.575449,-1.40446 -0.713564,-3.06184 -1.196757,-4.55731 -0.483193,-1.495471 -1.312289,-2.831237 -1.496396,-1.450472 z"
       id="path31576"
       inkscape:connector-curvature="0"
       inkscape:path-effect="#path-effect31578"
       inkscape:original-d="m 72.229853,96.419905 c 0.461356,4.096165 0.921712,8.193335 1.381068,12.291505 -0.04505,1.28827 -0.09107,2.57699 -0.138107,3.86699 0.36958,0.82831 0.73757,1.65628 1.104854,2.48592 0.09312,1.15054 0.185143,2.30078 0.276214,3.45267 0.369577,1.93403 0.737569,3.86599 1.104854,5.80049 0.922084,1.33457 1.842424,2.66906 2.762136,4.00509 0.277257,2.07093 0.553427,4.14221 0.828641,6.21481 -0.04506,1.65696 -0.09107,3.31356 -0.138107,4.97184 0.277385,1.33486 0.553427,2.66907 0.828641,4.0051 -0.183247,1.61117 -0.367285,3.22149 -0.552427,4.83374 0.277402,0.92034 0.553427,1.84042 0.82864,2.76214 0.277407,1.19676 0.553428,2.39285 0.828641,3.59077 1.24472,0.64389 2.486922,1.288 3.728884,1.9335 0.461215,1.33362 0.921712,2.66906 1.381068,4.00509 1.106338,0.55167 2.210708,1.10386 3.314563,1.65729 0.737302,0.87336 1.474139,1.74835 2.209708,2.62402 0.553486,1.10398 1.105855,2.20871 1.657282,3.31457 1.797038,-0.23126 3.591776,-0.46136 5.386165,-0.69054 1.703259,-0.047 3.407629,-0.0931 5.109949,-0.1381 1.38124,0.32105 2.76314,0.6435 4.14321,0.96674 2.11752,-0.27706 4.23627,-0.55342 6.35291,-0.82864 0.87522,-0.32308 1.75035,-0.64549 2.62403,-0.96674 1.33419,0.22886 2.67106,0.45935 4.00509,0.69053 0.73713,-2.02535 1.47414,-4.05213 2.20971,-6.0767 0.32306,-1.51927 0.6455,-3.03935 0.96675,-4.55752 1.28901,-1.24302 2.57899,-2.48693 3.86699,-3.72889 -0.137,-1.51897 -0.27521,-3.03935 -0.41432,-4.55752 -0.22904,-1.84133 -0.45936,-3.68385 -0.69053,-5.52427 0.55317,-1.42744 1.10585,-2.85521 1.65728,-4.28131 -0.13699,-1.05893 -0.27522,-2.11864 -0.41432,-3.17646 0.18499,-1.19696 0.36928,-2.39485 0.55242,-3.59078 -0.36693,-1.42676 -0.73556,-2.8552 -1.10485,-4.28131 0.59917,-0.96727 1.19793,-1.93449 1.79539,-2.90024 0.32286,-1.65627 0.6455,-3.31556 0.96675,-4.97184 0.093,-1.61113 0.18514,-3.2235 0.27621,-4.83374 0.69108,-3.72745 1.38207,-7.45877 2.0716,-11.18665 0.24749,-1.86288 0.49413,-3.725902 0.7397,-5.587352 -0.65949,1.998362 -1.32077,4.000112 -1.98266,6.001672 -0.68995,1.93365 -1.38007,3.86599 -2.0716,5.80048 -1.01241,0.41358 -2.11664,0.91972 -3.17646,1.38107 -0.32161,1.1512 -0.6435,2.30078 -0.96674,3.45267 -0.92067,0.18333 -1.84043,0.36729 -2.76214,0.55243 -0.6904,1.28961 -1.38007,2.57699 -2.0716,3.86699 -0.13724,1.24311 -0.27522,2.48492 -0.41432,3.72888 -0.9666,0.64407 -1.9325,1.288 -2.90025,1.9335 -0.59817,0.32163 -1.19592,0.6435 -1.79538,0.96675 -0.87542,1.19831 -1.74836,2.39285 -2.62403,3.59077 -1.51961,-0.001 -3.03735,-0.001 -4.55753,0 -0.64392,-0.32346 -1.28799,-0.6455 -1.93349,-0.96675 -0.50571,-1.01441 -1.01179,-2.02656 -1.51918,-3.03835 -0.87333,-0.13905 -1.74835,-0.27721 -2.62403,-0.41432 -0.27547,0.64411 -0.55142,1.288 -0.82864,1.9335 -0.87531,0.69083 -1.74835,1.38007 -2.624026,2.0716 -0.920872,-0.41584 -1.840424,-0.82964 -2.762136,-1.24296 -0.367468,0.18323 -0.735569,0.36729 -1.104854,0.55243 -1.523125,-0.92471 -3.03735,-1.84243 -4.557524,-2.76214 -0.183178,-0.96793 -0.367285,-1.93449 -0.552428,-2.90024 -0.964966,-0.55298 -1.932495,-1.19793 -2.900242,-1.79539 -0.275293,-1.47456 -0.551427,-2.94728 -0.828641,-4.41942 -1.011244,-0.27706 -2.024566,-0.55342 -3.038349,-0.82864 -0.367531,-1.01446 -0.73557,-2.02656 -1.104855,-3.03835 -0.643141,-1.05923 -1.287997,-2.11863 -1.933495,-3.17645 -0.643325,-0.13907 -1.287997,-0.27722 -1.933495,-0.41432 -1.012964,-1.15323 -2.024566,-2.30278 -3.038349,-3.45267 -0.137099,-1.65819 -0.275214,-3.31557 -0.414321,-4.97185 -0.827185,-1.335297 -1.656281,-2.671063 -2.485922,-4.005095 z" />
  </g>
</svg>
