<?xml version="1.0" encoding="UTF-8" standalone="no"?>
<!-- Created with Inkscape (http://www.inkscape.org/) -->

<svg
   xmlns:dc="http://purl.org/dc/elements/1.1/"
   xmlns:cc="http://creativecommons.org/ns#"
   xmlns:rdf="http://www.w3.org/1999/02/22-rdf-syntax-ns#"
   xmlns:svg="http://www.w3.org/2000/svg"
   xmlns="http://www.w3.org/2000/svg"
   xmlns:sodipodi="http://sodipodi.sourceforge.net/DTD/sodipodi-0.dtd"
   xmlns:inkscape="http://www.inkscape.org/namespaces/inkscape"
   width="200px"
   height="200px"
   viewBox="0 0 200 200"
   version="1.1"
   id="SVGRoot"
   sodipodi:docname="facialhair-6-3.svg"
   inkscape:version="0.92.4 (5da689c313, 2019-01-14)">
  <defs
     id="defs909">
    <inkscape:path-effect
       effect="bspline"
       id="path-effect12527"
       is_visible="true"
       weight="33.333333"
       steps="2"
       helper_size="0"
       apply_no_weight="true"
       apply_with_weight="true"
       only_selected="false" />
    <inkscape:path-effect
       effect="bspline"
       id="path-effect12520"
       is_visible="true"
       weight="33.333333"
       steps="2"
       helper_size="0"
       apply_no_weight="true"
       apply_with_weight="true"
       only_selected="false" />
    <inkscape:path-effect
       effect="bspline"
       id="path-effect1868"
       is_visible="true"
       weight="33.333333"
       steps="2"
       helper_size="0"
       apply_no_weight="true"
       apply_with_weight="true"
       only_selected="false" />
    <inkscape:path-effect
       effect="bspline"
       id="path-effect1853"
       is_visible="true"
       weight="33.333333"
       steps="2"
       helper_size="0"
       apply_no_weight="true"
       apply_with_weight="true"
       only_selected="false" />
    <inkscape:path-effect
       effect="bspline"
       id="path-effect13204-9"
       is_visible="true"
       weight="33.333333"
       steps="2"
       helper_size="0"
       apply_no_weight="true"
       apply_with_weight="true"
       only_selected="false" />
    <inkscape:path-effect
       effect="bspline"
       id="path-effect13200-0"
       is_visible="true"
       weight="33.333333"
       steps="2"
       helper_size="0"
       apply_no_weight="true"
       apply_with_weight="true"
       only_selected="false" />
    <inkscape:path-effect
       effect="bspline"
       id="path-effect13267-1"
       is_visible="true"
       weight="33.333333"
       steps="2"
       helper_size="0"
       apply_no_weight="true"
       apply_with_weight="true"
       only_selected="false" />
    <inkscape:path-effect
       only_selected="false"
       apply_with_weight="true"
       apply_no_weight="true"
       helper_size="0"
       steps="2"
       weight="33.333333"
       is_visible="true"
       id="path-effect12527-5"
       effect="bspline" />
    <inkscape:path-effect
       only_selected="false"
       apply_with_weight="true"
       apply_no_weight="true"
       helper_size="0"
       steps="2"
       weight="33.333333"
       is_visible="true"
       id="path-effect12520-9"
       effect="bspline" />
    <inkscape:path-effect
       only_selected="false"
       apply_with_weight="true"
       apply_no_weight="true"
       helper_size="0"
       steps="2"
       weight="33.333333"
       is_visible="true"
       id="path-effect1868-4"
       effect="bspline" />
    <inkscape:path-effect
       only_selected="false"
       apply_with_weight="true"
       apply_no_weight="true"
       helper_size="0"
       steps="2"
       weight="33.333333"
       is_visible="true"
       id="path-effect1853-4"
       effect="bspline" />
    <inkscape:path-effect
       only_selected="false"
       apply_with_weight="true"
       apply_no_weight="true"
       helper_size="0"
       steps="2"
       weight="33.333333"
       is_visible="true"
       id="path-effect13238"
       effect="bspline" />
    <inkscape:path-effect
       only_selected="false"
       apply_with_weight="true"
       apply_no_weight="true"
       helper_size="0"
       steps="2"
       weight="33.333333"
       is_visible="true"
       id="path-effect13267"
       effect="bspline" />
    <inkscape:path-effect
       only_selected="false"
       apply_with_weight="true"
       apply_no_weight="true"
       helper_size="0"
       steps="2"
       weight="33.333333"
       is_visible="true"
       id="path-effect56117"
       effect="bspline" />
    <inkscape:path-effect
       only_selected="false"
       apply_with_weight="true"
       apply_no_weight="true"
       helper_size="0"
       steps="2"
       weight="33.333333"
       is_visible="true"
       id="path-effect13204"
       effect="bspline" />
    <inkscape:path-effect
       only_selected="false"
       apply_with_weight="true"
       apply_no_weight="true"
       helper_size="0"
       steps="2"
       weight="33.333333"
       is_visible="true"
       id="path-effect13200"
       effect="bspline" />
    <inkscape:path-effect
       only_selected="false"
       apply_with_weight="true"
       apply_no_weight="true"
       helper_size="0"
       steps="2"
       weight="33.333333"
       is_visible="true"
       id="path-effect12527-1"
       effect="bspline" />
    <inkscape:path-effect
       only_selected="false"
       apply_with_weight="true"
       apply_no_weight="true"
       helper_size="0"
       steps="2"
       weight="33.333333"
       is_visible="true"
       id="path-effect12520-95"
       effect="bspline" />
    <inkscape:path-effect
       only_selected="false"
       apply_with_weight="true"
       apply_no_weight="true"
       helper_size="0"
       steps="2"
       weight="33.333333"
       is_visible="true"
       id="path-effect1868-8"
       effect="bspline" />
    <inkscape:path-effect
       only_selected="false"
       apply_with_weight="true"
       apply_no_weight="true"
       helper_size="0"
       steps="2"
       weight="33.333333"
       is_visible="true"
       id="path-effect1853-49"
       effect="bspline" />
    <inkscape:path-effect
       only_selected="false"
       apply_with_weight="true"
       apply_no_weight="true"
       helper_size="0"
       steps="2"
       weight="33.333333"
       is_visible="true"
       id="path-effect13238-1"
       effect="bspline" />
    <inkscape:path-effect
       only_selected="false"
       apply_with_weight="true"
       apply_no_weight="true"
       helper_size="0"
       steps="2"
       weight="33.333333"
       is_visible="true"
       id="path-effect13267-9"
       effect="bspline" />
    <inkscape:path-effect
       only_selected="false"
       apply_with_weight="true"
       apply_no_weight="true"
       helper_size="0"
       steps="2"
       weight="33.333333"
       is_visible="true"
       id="path-effect56117-5"
       effect="bspline" />
    <inkscape:path-effect
       only_selected="false"
       apply_with_weight="true"
       apply_no_weight="true"
       helper_size="0"
       steps="2"
       weight="33.333333"
       is_visible="true"
       id="path-effect13204-96"
       effect="bspline" />
    <inkscape:path-effect
       only_selected="false"
       apply_with_weight="true"
       apply_no_weight="true"
       helper_size="0"
       steps="2"
       weight="33.333333"
       is_visible="true"
       id="path-effect13200-3"
       effect="bspline" />
    <inkscape:path-effect
       effect="bspline"
       id="path-effect31582"
       is_visible="true"
       weight="33.333333"
       steps="2"
       helper_size="0"
       apply_no_weight="true"
       apply_with_weight="true"
       only_selected="false" />
    <inkscape:path-effect
       effect="bspline"
       id="path-effect31578"
       is_visible="true"
       weight="33.333333"
       steps="2"
       helper_size="0"
       apply_no_weight="true"
       apply_with_weight="true"
       only_selected="false" />
    <inkscape:path-effect
       effect="bspline"
       id="path-effect31572"
       is_visible="true"
       weight="33.333333"
       steps="2"
       helper_size="0"
       apply_no_weight="true"
       apply_with_weight="true"
       only_selected="false" />
    <inkscape:path-effect
       effect="bspline"
       id="path-effect31568"
       is_visible="true"
       weight="33.333333"
       steps="2"
       helper_size="0"
       apply_no_weight="true"
       apply_with_weight="true"
       only_selected="false" />
    <inkscape:path-effect
       only_selected="false"
       apply_with_weight="true"
       apply_no_weight="true"
       helper_size="0"
       steps="2"
       weight="33.333333"
       is_visible="true"
       id="path-effect31564"
       effect="bspline" />
    <inkscape:path-effect
       effect="bspline"
       id="path-effect31560"
       is_visible="true"
       weight="33.333333"
       steps="2"
       helper_size="0"
       apply_no_weight="true"
       apply_with_weight="true"
       only_selected="false" />
    <inkscape:path-effect
       only_selected="false"
       apply_with_weight="true"
       apply_no_weight="true"
       helper_size="0"
       steps="2"
       weight="33.333333"
       is_visible="true"
       id="path-effect31556"
       effect="bspline" />
    <inkscape:path-effect
       effect="bspline"
       id="path-effect31552"
       is_visible="true"
       weight="33.333333"
       steps="2"
       helper_size="0"
       apply_no_weight="true"
       apply_with_weight="true"
       only_selected="false" />
    <inkscape:path-effect
       only_selected="false"
       apply_with_weight="true"
       apply_no_weight="true"
       helper_size="0"
       steps="2"
       weight="33.333333"
       is_visible="true"
       id="path-effect31548"
       effect="bspline" />
    <inkscape:path-effect
       effect="bspline"
       id="path-effect31544"
       is_visible="true"
       weight="33.333333"
       steps="2"
       helper_size="0"
       apply_no_weight="true"
       apply_with_weight="true"
       only_selected="false" />
    <inkscape:path-effect
       only_selected="false"
       apply_with_weight="true"
       apply_no_weight="true"
       helper_size="0"
       steps="2"
       weight="33.333333"
       is_visible="true"
       id="path-effect31531"
       effect="bspline" />
    <inkscape:path-effect
       effect="bspline"
       id="path-effect30441"
       is_visible="true"
       weight="33.333333"
       steps="2"
       helper_size="0"
       apply_no_weight="true"
       apply_with_weight="true"
       only_selected="false" />
    <inkscape:path-effect
       effect="bspline"
       id="path-effect12527-8"
       is_visible="true"
       weight="33.333333"
       steps="2"
       helper_size="0"
       apply_no_weight="true"
       apply_with_weight="true"
       only_selected="false" />
    <inkscape:path-effect
       effect="bspline"
       id="path-effect12520-8"
       is_visible="true"
       weight="33.333333"
       steps="2"
       helper_size="0"
       apply_no_weight="true"
       apply_with_weight="true"
       only_selected="false" />
    <inkscape:path-effect
       effect="bspline"
       id="path-effect1868-0"
       is_visible="true"
       weight="33.333333"
       steps="2"
       helper_size="0"
       apply_no_weight="true"
       apply_with_weight="true"
       only_selected="false" />
    <inkscape:path-effect
       effect="bspline"
       id="path-effect1853-4-5"
       is_visible="true"
       weight="33.333333"
       steps="2"
       helper_size="0"
       apply_no_weight="true"
       apply_with_weight="true"
       only_selected="false" />
  </defs>
  <sodipodi:namedview
     id="base"
     pagecolor="#ffffff"
     bordercolor="#666666"
     borderopacity="1.0"
     inkscape:pageopacity="0.0"
     inkscape:pageshadow="2"
     inkscape:zoom="1.8101934"
     inkscape:cx="146.71835"
     inkscape:cy="13.735637"
     inkscape:document-units="px"
     inkscape:current-layer="layer1"
     showgrid="false"
     inkscape:window-width="1920"
     inkscape:window-height="1001"
     inkscape:window-x="-9"
     inkscape:window-y="-9"
     inkscape:window-maximized="1"
     showguides="false" />
  <metadata
     id="metadata912">
    <rdf:RDF>
      <cc:Work
         rdf:about="">
        <dc:format>image/svg+xml</dc:format>
        <dc:type
           rdf:resource="http://purl.org/dc/dcmitype/StillImage" />
        <dc:title></dc:title>
      </cc:Work>
    </rdf:RDF>
  </metadata>
  <g
     inkscape:label="Layer 1"
     inkscape:groupmode="layer"
     id="layer1">
    <g
       id="layer1-2"
       inkscape:label="Layer 1"
       transform="translate(0.38570906,0.23303744)">
      <g
         transform="translate(0.22595166,4.7695585)"
         inkscape:label="Layer 1"
         id="layer1-1" />
      <g
         id="g1240">
        <path
           transform="translate(0.22595166,4.7695585)"
           sodipodi:nodetypes="ccccccccccccccccccccccccccccc"
           inkscape:original-d="m 83.14029,116.30728 c 1.336032,-0.1391 2.671064,-0.27721 4.005097,-0.41432 1.150948,-0.73696 2.302779,-1.47414 3.452669,-2.20971 1.150727,-0.50688 2.30278,-1.01378 3.45267,-1.51917 1.012722,-0.27692 2.026566,-0.55343 3.03835,-0.82864 1.33447,0.41283 2.671064,0.82764 4.005094,1.24296 0.3231,0.27508 0.6455,0.55143 0.96675,0.82864 0.50726,0.0911 1.01378,0.18314 1.51917,0.27621 0.82835,-0.78238 1.65829,-1.56621 2.48593,-2.34781 0.001,-0.001 0.001,-0.001 0,0 1.65828,0.045 3.31556,0.0911 4.97184,0.1381 1.33604,0.41333 2.67106,0.82765 4.0051,1.24297 1.15163,0.68938 2.30278,1.38006 3.45267,2.0716 1.65786,0.27514 3.31556,0.55143 4.97184,0.82864 1.51943,0.41312 3.03935,0.82764 4.55753,1.24296 -1.60953,0.73524 -3.22149,1.47214 -4.83374,2.20971 -1.33503,-0.13921 -2.66907,-0.27721 -4.0051,-0.41432 -1.15065,-0.73806 -2.30078,-1.47414 -3.45267,-2.20971 -1.38037,-0.55355 -2.76113,-1.10585 -4.1432,-1.65728 -0.59769,0.45953 -1.19593,0.91971 -1.79539,1.38107 -1.19815,0.0912 -2.39285,0.18314 -3.59078,0.27621 -0.55192,-0.27746 -1.28799,-0.55343 -1.93349,-0.82864 -1.01254,0.36756 -2.02457,0.73557 -3.03835,1.10485 -0.9669,0.0451 -1.932496,0.0911 -2.900243,0.13811 -1.381561,-0.23143 -2.761136,-0.46136 -4.143204,-0.69053 -0.643877,-0.23132 -1.287997,-0.46136 -1.933495,-0.69054 -0.736221,0.96661 -1.472139,2.02457 -2.209709,3.03835 -1.796391,0.55205 -3.589776,1.10386 -5.386165,1.65728 -0.505728,-1.29085 -1.011783,-2.57899 -1.519174,-3.86699 z"
           inkscape:path-effect="#path-effect31582"
           inkscape:connector-curvature="0"
           id="path31580"
           d="m 84.061444,116.88241 c 0.414969,-0.71335 1.750001,-0.85146 2.992526,-1.28881 1.242525,-0.43735 2.39436,-1.17452 3.54469,-1.79564 1.15033,-0.62112 2.302382,-1.12802 3.383677,-1.51907 1.081295,-0.39106 2.095141,-0.66756 3.267989,-0.59849 1.172848,0.0691 2.509443,0.48388 3.337734,0.82901 0.82829,0.34514 1.15069,0.62149 1.56531,0.80566 0.41461,0.18416 0.92112,0.27625 1.58811,-0.069 0.66699,-0.34521 1.49693,-1.12904 1.91073,-1.51986 0.41381,-0.39081 0.41381,-0.39081 1.24294,-0.36778 0.82912,0.023 2.4864,0.0691 3.98239,0.29933 1.49599,0.23026 2.83101,0.64458 4.07368,1.19692 1.24267,0.55234 2.39381,1.24303 3.79795,1.72635 1.40413,0.48332 3.06183,0.7596 4.64962,1.10479 1.58779,0.34519 3.10771,0.75971 3.0623,1.33463 -0.0454,0.57491 -1.65738,1.31181 -3.13117,1.61131 -1.4738,0.2995 -2.80784,0.1615 -4.0515,-0.27605 -1.24366,-0.43754 -2.39378,-1.17363 -3.65978,-1.81816 -1.266,-0.64454 -2.64676,-1.19684 -3.63635,-1.24332 -0.98958,-0.0465 -1.58782,0.4137 -2.48664,0.69038 -0.89883,0.27669 -2.09353,0.36859 -2.9759,0.29322 -0.88237,-0.0754 -1.60414,-0.3847 -2.4328,-0.33885 -0.82866,0.0459 -1.84069,0.41386 -2.83111,0.62124 -0.99042,0.20738 -1.956012,0.25336 -3.130783,0.16126 -1.174771,-0.0921 -2.554346,-0.32203 -3.567439,-0.55224 -1.013093,-0.23021 -1.657212,-0.46026 -2.336989,-0.0842 -0.679777,0.37602 -1.43761,1.41804 -2.704404,2.20133 -1.266794,0.7833 -3.060179,1.33511 -4.211937,0.96631 -1.151757,-0.36879 -1.657812,-1.65693 -1.242844,-2.37027 z"
           style="fill:#dd925d;fill-opacity:1;stroke:#000000;stroke-width:0;stroke-linecap:butt;stroke-linejoin:miter;stroke-miterlimit:4;stroke-dasharray:none;stroke-opacity:1" />
        <path
           style="fill:#dd925d;fill-opacity:1;stroke:#000000;stroke-width:0;stroke-linecap:butt;stroke-linejoin:miter;stroke-miterlimit:4;stroke-dasharray:none;stroke-opacity:1"
           d="m 72.167969,95.214844 c -2.548262,1.882634 0.372109,6.330916 0.78125,9.472656 0.358694,2.75437 1.219747,5.43633 1.464844,8.20312 0.160853,1.81581 0.11054,3.64919 0,5.46875 -0.08153,1.34205 -0.593684,2.66352 -0.488282,4.00391 0.05573,0.70876 0.395862,1.36571 0.585938,2.05078 0.234335,0.84458 0.459936,1.69159 0.683594,2.53906 0.234596,0.88892 0.239873,1.86891 0.690534,2.67023 0.593388,1.05511 2.16575,1.44946 2.532122,2.60321 0.189508,0.59679 -0.144632,1.24714 -0.292969,1.85547 -0.09755,0.40004 -0.418413,0.76106 -0.390625,1.17188 0.07833,1.15804 1.132826,2.03656 1.53593,3.125 0.361945,0.9773 0.511987,2.02055 0.78125,3.02734 0.351189,1.31311 0.617713,2.65466 1.088099,3.92994 0.372936,1.01108 1.142549,1.8757 1.367188,2.92969 0.337674,1.58435 -0.519343,3.29965 -0.0809,4.85912 0.269703,0.95929 1.207147,1.60944 1.600077,2.52518 0.226855,0.5287 0.254138,1.12318 0.420069,1.67404 0.169255,0.5619 0.352587,1.1217 0.585938,1.66015 0.735596,1.69736 0.930144,4.04336 2.555817,4.92615 1.178433,0.63992 3.928591,-2.11178 4.003907,-0.39062 0.214787,4.90842 2.266443,0.46251 3.90625,1.7578 1.845557,1.45782 3.857922,0.77176 5.788292,0.58594 1.35031,-0.12999 2.55704,-0.95965 3.89643,-1.17475 1.25389,-0.20137 2.74799,0.60079 3.80859,-0.0977 0.73626,-0.48489 0.30179,-2.0422 1.10654,-2.40214 1.72918,-0.77342 3.62734,2.24277 5.43238,1.66829 1.15583,-0.36786 1.21629,-2.20302 2.2212,-2.8823 1.06985,-0.72319 3.0191,0.0283 3.72888,-1.05053 1.35631,-2.06143 -1.90198,-5.0506 -0.97657,-7.3381 0.37369,-0.92371 1.86962,-0.97907 2.34375,-1.85547 0.68434,-1.26495 0.1755,-2.87485 0.39063,-4.29687 0.23399,-1.5466 0.80408,-3.03519 0.97656,-4.58985 0.11785,-1.06218 -0.26704,-2.18117 0.0364,-3.20589 0.68539,-2.31468 3.24791,-3.7874 3.87393,-6.11884 0.39707,-1.47878 -0.4547,-3.08305 -0.18262,-4.58984 0.28226,-1.56314 1.50271,-2.84294 1.84278,-4.39453 0.40446,-1.84534 -0.0341,-3.78891 0.19531,-5.66407 0.13336,-1.08999 0.50139,-2.13975 0.68359,-3.22265 0.52253,-3.10567 0.75607,-6.25325 1.17188,-9.375 0.42973,-3.22623 4.2234,-8.107427 1.36719,-9.667971 -0.61893,-0.338163 -1.24184,0.775248 -1.60296,1.381068 -0.76071,1.276186 -0.45515,2.954223 -0.95287,4.354083 -0.45537,1.28076 -1.25199,2.41369 -1.83871,3.63985 -0.64769,1.35359 -1.02886,2.84918 -1.85546,4.10156 -0.58381,0.88453 -1.71428,1.37694 -2.14844,2.34375 -0.5228,1.16419 -0.35987,2.53277 -0.39063,3.80859 -0.0291,1.20584 0.42218,2.42863 0.19532,3.61329 -0.17532,0.91551 -0.57906,1.81971 -1.17188,2.53906 -1.1536,1.39982 -3.23255,1.8062 -4.41409,3.18251 -1.24817,1.45392 -1.31676,3.71088 -2.61716,5.11827 -1.34882,1.45979 -3.11698,2.80209 -5.07812,3.125 -1.58171,0.26043 -3.47394,-0.0269 -4.6875,-1.07422 -1.0846,-0.93603 -0.30568,-3.31622 -1.5625,-4.00391 -0.58245,-0.3187 -1.45753,-0.0512 -1.95313,0.39063 -0.79148,0.70557 -0.36077,2.16417 -0.97656,3.02734 -0.56715,0.79499 -1.45723,1.34824 -2.343752,1.75782 -0.939137,0.43389 -2.001009,0.81348 -3.027344,0.68359 -1.415443,-0.17913 -2.739952,-1.00784 -3.808594,-1.95313 -0.825032,-0.7298 -1.333774,-1.76426 -1.855469,-2.73437 -0.566895,-1.05416 -0.620757,-2.38464 -1.367187,-3.32031 -0.422421,-0.52951 -1.109528,-0.77738 -1.660156,-1.17188 -1.272616,-0.91178 -2.932926,-1.45763 -3.798542,-2.76209 -1.510442,-2.27619 -0.660902,-5.52829 -1.865521,-7.9801 -0.999879,-2.03509 -2.943562,-3.45412 -4.296875,-5.27343 -0.727466,-0.97796 -1.59613,-1.89646 -2.050781,-3.02735 -0.50504,-1.25623 -0.323302,-2.69877 -0.683594,-4.0039 -0.379553,-1.374898 -0.843707,-2.748437 -1.545745,-3.990028 -0.448945,-0.793983 -0.813953,-2.457725 -1.676911,-2.162318 -1.3e-5,4e-6 0,4e-5 0,4e-5 z"
           id="path430"
           inkscape:connector-curvature="0"
           sodipodi:nodetypes="caaaaaaaaaaaaaaaaaaassaaaaaaaaaaaaaaaaaaaaaaaaaaaaaaaaaaaaaaaaaaaaaaac" />
      </g>
    </g>
  </g>
</svg>
