<?xml version="1.0" encoding="UTF-8" standalone="no"?>
<!-- Created with Inkscape (http://www.inkscape.org/) -->

<svg
   xmlns:dc="http://purl.org/dc/elements/1.1/"
   xmlns:cc="http://creativecommons.org/ns#"
   xmlns:rdf="http://www.w3.org/1999/02/22-rdf-syntax-ns#"
   xmlns:svg="http://www.w3.org/2000/svg"
   xmlns="http://www.w3.org/2000/svg"
   xmlns:sodipodi="http://sodipodi.sourceforge.net/DTD/sodipodi-0.dtd"
   xmlns:inkscape="http://www.inkscape.org/namespaces/inkscape"
   width="200px"
   height="200px"
   viewBox="0 0 200 200"
   version="1.1"
   id="SVGRoot"
   sodipodi:docname="facialhair-5-2.svg"
   inkscape:version="0.92.4 (5da689c313, 2019-01-14)">
  <defs
     id="defs909">
    <inkscape:path-effect
       effect="bspline"
       id="path-effect12527"
       is_visible="true"
       weight="33.333333"
       steps="2"
       helper_size="0"
       apply_no_weight="true"
       apply_with_weight="true"
       only_selected="false" />
    <inkscape:path-effect
       effect="bspline"
       id="path-effect12520"
       is_visible="true"
       weight="33.333333"
       steps="2"
       helper_size="0"
       apply_no_weight="true"
       apply_with_weight="true"
       only_selected="false" />
    <inkscape:path-effect
       effect="bspline"
       id="path-effect1868"
       is_visible="true"
       weight="33.333333"
       steps="2"
       helper_size="0"
       apply_no_weight="true"
       apply_with_weight="true"
       only_selected="false" />
    <inkscape:path-effect
       effect="bspline"
       id="path-effect1853"
       is_visible="true"
       weight="33.333333"
       steps="2"
       helper_size="0"
       apply_no_weight="true"
       apply_with_weight="true"
       only_selected="false" />
    <inkscape:path-effect
       effect="bspline"
       id="path-effect13204-9"
       is_visible="true"
       weight="33.333333"
       steps="2"
       helper_size="0"
       apply_no_weight="true"
       apply_with_weight="true"
       only_selected="false" />
    <inkscape:path-effect
       effect="bspline"
       id="path-effect13200-0"
       is_visible="true"
       weight="33.333333"
       steps="2"
       helper_size="0"
       apply_no_weight="true"
       apply_with_weight="true"
       only_selected="false" />
    <inkscape:path-effect
       effect="bspline"
       id="path-effect13267-1"
       is_visible="true"
       weight="33.333333"
       steps="2"
       helper_size="0"
       apply_no_weight="true"
       apply_with_weight="true"
       only_selected="false" />
    <inkscape:path-effect
       only_selected="false"
       apply_with_weight="true"
       apply_no_weight="true"
       helper_size="0"
       steps="2"
       weight="33.333333"
       is_visible="true"
       id="path-effect12527-9"
       effect="bspline" />
    <inkscape:path-effect
       only_selected="false"
       apply_with_weight="true"
       apply_no_weight="true"
       helper_size="0"
       steps="2"
       weight="33.333333"
       is_visible="true"
       id="path-effect12520-6"
       effect="bspline" />
    <inkscape:path-effect
       only_selected="false"
       apply_with_weight="true"
       apply_no_weight="true"
       helper_size="0"
       steps="2"
       weight="33.333333"
       is_visible="true"
       id="path-effect1868-8"
       effect="bspline" />
    <inkscape:path-effect
       only_selected="false"
       apply_with_weight="true"
       apply_no_weight="true"
       helper_size="0"
       steps="2"
       weight="33.333333"
       is_visible="true"
       id="path-effect1853-2"
       effect="bspline" />
    <inkscape:path-effect
       only_selected="false"
       apply_with_weight="true"
       apply_no_weight="true"
       helper_size="0"
       steps="2"
       weight="33.333333"
       is_visible="true"
       id="path-effect13238"
       effect="bspline" />
    <inkscape:path-effect
       only_selected="false"
       apply_with_weight="true"
       apply_no_weight="true"
       helper_size="0"
       steps="2"
       weight="33.333333"
       is_visible="true"
       id="path-effect13267"
       effect="bspline" />
    <inkscape:path-effect
       only_selected="false"
       apply_with_weight="true"
       apply_no_weight="true"
       helper_size="0"
       steps="2"
       weight="33.333333"
       is_visible="true"
       id="path-effect56117"
       effect="bspline" />
    <inkscape:path-effect
       only_selected="false"
       apply_with_weight="true"
       apply_no_weight="true"
       helper_size="0"
       steps="2"
       weight="33.333333"
       is_visible="true"
       id="path-effect13204"
       effect="bspline" />
    <inkscape:path-effect
       only_selected="false"
       apply_with_weight="true"
       apply_no_weight="true"
       helper_size="0"
       steps="2"
       weight="33.333333"
       is_visible="true"
       id="path-effect13200"
       effect="bspline" />
  </defs>
  <sodipodi:namedview
     id="base"
     pagecolor="#ffffff"
     bordercolor="#666666"
     borderopacity="1.0"
     inkscape:pageopacity="0.0"
     inkscape:pageshadow="2"
     inkscape:zoom="3.6203867"
     inkscape:cx="70.67277"
     inkscape:cy="131.43433"
     inkscape:document-units="px"
     inkscape:current-layer="layer1"
     showgrid="false"
     inkscape:window-width="1920"
     inkscape:window-height="1001"
     inkscape:window-x="-9"
     inkscape:window-y="-9"
     inkscape:window-maximized="1"
     showguides="false" />
  <metadata
     id="metadata912">
    <rdf:RDF>
      <cc:Work
         rdf:about="">
        <dc:format>image/svg+xml</dc:format>
        <dc:type
           rdf:resource="http://purl.org/dc/dcmitype/StillImage" />
        <dc:title></dc:title>
      </cc:Work>
    </rdf:RDF>
  </metadata>
  <g
     inkscape:label="Layer 1"
     inkscape:groupmode="layer"
     id="layer1">
    <g
       id="layer1-0"
       inkscape:label="Layer 1"
       transform="translate(0.55242786,-6.4845807e-6)">
      <path
         id="path31566"
         d="m 130.81606,96.007036 c -0.10613,-0.0172 -1.69439,4.746204 -1.86223,5.180564 -0.53708,1.38998 -0.40032,2.29073 -0.92973,4.59264 -0.52942,2.3019 0.55269,4.28033 -0.0923,5.50134 -0.14934,0.28271 -0.49641,2.06838 -0.67912,2.37981 -0.86169,0.0734 -0.14031,0.90182 -1.35418,1.37582 -1.4642,0.57176 -2.75433,1.03301 -4.04297,1.24023 -1.28863,0.20722 -2.57746,0.16106 -4.02734,0 -1.44987,-0.16106 -3.06367,-0.43807 -4.8125,-0.57617 -1.74883,-0.1381 -3.63953,-0.13688 -4.85742,0.0469 -1.21789,0.18375 -1.771,0.55289 -2.23047,0.85156 -0.45947,0.29867 -0.82912,0.52925 -1.28906,0.73633 -0.45994,0.20707 -1.01259,0.39034 -1.42774,0.27539 -0.41515,-0.11496 -0.69219,-0.52879 -1.45117,-0.80469 -0.75897,-0.2759 -2.002944,-0.41532 -3.314448,-0.48438 -1.311504,-0.069 -2.692125,-0.0675 -3.980469,-0.0215 -1.288343,0.046 -2.487173,0.13818 -4.121093,0.32227 -1.633921,0.18408 -3.705956,0.46005 -6.123047,-0.11524 -2.301787,-0.54785 -2.776563,-1.87132 -5.40622,-3.22851 -0.08847,-0.18608 -1.009284,-2.30069 -1.0845,-2.50382 -0.460357,-1.24326 -0.367753,-3.33774 -0.758943,-5.06345 -0.39119,-1.7257 0.252096,-3.49956 -0.208211,-4.78836 -0.460306,-1.288805 -2.025757,-5.133568 -2.209758,-4.996068 -0.184,0.13749 -0.644138,7.021858 -0.50612,8.633198 0.138022,1.61135 0.737212,4.16659 1.174651,7.04449 0.437439,2.8779 1.126373,5.93729 1.770919,8.67678 0.644547,2.73948 1.795703,4.11937 2.256118,5.61555 0.460415,1.49617 0.783235,1.93404 1.151778,2.76328 0.368544,0.82925 1.541775,2.32541 2.094138,3.38402 0.552362,1.05862 1.449677,1.47277 1.933157,2.53188 0.48348,1.05911 1.105597,1.0344 1.658332,1.56407 0.552735,0.52967 0.620227,1.81889 1.333597,2.34817 0.713371,0.52928 1.588132,-0.0462 2.370529,0.94327 0.782397,0.98947 2.577791,1.88746 3.660107,2.85452 1.082317,0.96705 2.211077,0.69072 3.822137,1.10495 1.611061,0.41423 2.600486,0.0693 4.260506,0.11485 1.66002,0.0456 2.80727,0.0687 4.14176,-0.0233 1.33449,-0.092 3.61316,-0.36731 4.83267,-0.43637 1.21952,-0.0691 1.17405,-0.27587 2.57736,-0.36788 1.4033,-0.092 1.22113,-0.34658 2.53273,-1.03723 1.3116,-0.69066 0.52923,-1.33444 1.70266,-2.66885 1.17342,-1.33441 3.06302,-2.60293 4.27118,-3.74345 1.20816,-1.14052 2.12885,-3.02534 2.9569,-4.3137 0.82805,-1.28837 0.27652,-2.00361 0.94397,-3.31522 0.66745,-1.31159 0.82834,-1.63435 1.26524,-2.8075 0.43689,-1.17316 1.91175,-1.54164 2.30294,-3.2442 0.39119,-1.70256 0.38994,-0.60052 1.06533,-4.29229 0.67539,-3.69177 0.64736,-9.83915 0.85438,-12.96926 0.14233,-2.15195 0.0694,-8.242524 -0.16406,-8.280434 z M 97.52547,118.32627 c 1.312434,0 2.73793,-3.4e-4 4.02734,0.0918 1.28941,0.0921 2.4411,0.27545 3.8457,0.27539 1.40461,-7e-5 3.06039,-0.18427 4.44141,0 1.38102,0.18427 2.48594,0.73847 3.40625,1.58984 0.92031,0.85137 1.65693,2.00131 2.43945,3.24414 0.78253,1.24284 1.61272,2.5789 1.88867,3.72852 0.27596,1.14961 10e-5,2.1193 -0.50585,3.0625 -0.46209,0.86142 -1.10322,1.68951 -0.54688,1.54883 -1.2284,0.77635 -2.1599,0.97502 -2.95312,1.2129 -1.15121,0.34522 -2.02392,0.80597 -2.62305,1.6582 -0.59913,0.85223 -0.92187,2.09252 -1.56641,2.80664 -0.64453,0.71412 -1.60935,0.89725 -2.18554,0.34375 -0.5762,-0.5535 -0.76125,-1.84031 -0.94532,-3.33594 -0.18407,-1.49562 -0.36775,-3.19898 -0.89648,-4.11915 -0.52873,-0.92017 -1.40405,-1.05914 -1.8418,-0.66797 -0.43774,0.39118 -0.43771,1.31137 -0.66797,2.57813 -0.23026,1.26677 -0.68896,2.87539 -0.98828,3.98048 -0.29932,1.10508 -0.43824,1.7037 -0.94531,1.86523 -0.50707,0.16154 -1.379911,-0.11323 -1.886716,-0.80469 -0.506805,-0.69145 -0.644746,-1.79586 -0.966797,-2.66992 -0.32205,-0.87406 -0.829229,-1.51941 -1.818359,-1.93359 -0.989131,-0.41419 -2.462823,-0.59852 -3.638672,-0.94142 -0.158333,-0.0462 -0.308845,-0.1087 -0.462891,-0.16406 -0.319725,-0.18805 -0.627005,-0.37899 -0.892578,-0.59766 -0.783212,-0.64487 -1.242917,-1.52039 -1.611328,-2.55664 -0.368411,-1.03624 -0.644989,-2.23103 -0.552734,-3.38281 0.09225,-1.15178 0.551964,-2.25518 0.966797,-3.13086 0.414832,-0.87568 0.782312,-1.51812 1.404296,-2.09375 0.621985,-0.57563 1.495174,-1.08287 2.53125,-1.33594 1.036076,-0.25306 2.232489,-0.25195 3.544922,-0.25195 z"
         style="fill:#dd925d;fill-opacity:1;stroke:#000000;stroke-width:0;stroke-linecap:butt;stroke-linejoin:miter;stroke-miterlimit:4;stroke-dasharray:none;stroke-opacity:1"
         inkscape:connector-curvature="0"
         sodipodi:nodetypes="cccccccsscsccccsccccccccsccccsssccscsccccscccssccsccsscccccsccssccccccccccccsscs" />
    </g>
  </g>
</svg>
