<?xml version="1.0" encoding="UTF-8" standalone="no"?>
<!-- Created with Inkscape (http://www.inkscape.org/) -->

<svg
   xmlns:dc="http://purl.org/dc/elements/1.1/"
   xmlns:cc="http://creativecommons.org/ns#"
   xmlns:rdf="http://www.w3.org/1999/02/22-rdf-syntax-ns#"
   xmlns:svg="http://www.w3.org/2000/svg"
   xmlns="http://www.w3.org/2000/svg"
   xmlns:sodipodi="http://sodipodi.sourceforge.net/DTD/sodipodi-0.dtd"
   xmlns:inkscape="http://www.inkscape.org/namespaces/inkscape"
   width="200px"
   height="200px"
   viewBox="0 0 200 200"
   version="1.1"
   id="SVGRoot"
   sodipodi:docname="facialhair-3-3.svg"
   inkscape:version="0.92.4 (5da689c313, 2019-01-14)">
  <defs
     id="defs909">
    <inkscape:path-effect
       effect="bspline"
       id="path-effect12527"
       is_visible="true"
       weight="33.333333"
       steps="2"
       helper_size="0"
       apply_no_weight="true"
       apply_with_weight="true"
       only_selected="false" />
    <inkscape:path-effect
       effect="bspline"
       id="path-effect12520"
       is_visible="true"
       weight="33.333333"
       steps="2"
       helper_size="0"
       apply_no_weight="true"
       apply_with_weight="true"
       only_selected="false" />
    <inkscape:path-effect
       effect="bspline"
       id="path-effect1868"
       is_visible="true"
       weight="33.333333"
       steps="2"
       helper_size="0"
       apply_no_weight="true"
       apply_with_weight="true"
       only_selected="false" />
    <inkscape:path-effect
       effect="bspline"
       id="path-effect1853"
       is_visible="true"
       weight="33.333333"
       steps="2"
       helper_size="0"
       apply_no_weight="true"
       apply_with_weight="true"
       only_selected="false" />
    <inkscape:path-effect
       effect="bspline"
       id="path-effect13267"
       is_visible="true"
       weight="33.333333"
       steps="2"
       helper_size="0"
       apply_no_weight="true"
       apply_with_weight="true"
       only_selected="false" />
    <inkscape:path-effect
       effect="bspline"
       id="path-effect56117"
       is_visible="true"
       weight="33.333333"
       steps="2"
       helper_size="0"
       apply_no_weight="true"
       apply_with_weight="true"
       only_selected="false" />
    <inkscape:path-effect
       effect="bspline"
       id="path-effect13200"
       is_visible="true"
       weight="33.333333"
       steps="2"
       helper_size="0"
       apply_no_weight="true"
       apply_with_weight="true"
       only_selected="false" />
    <inkscape:path-effect
       only_selected="false"
       apply_with_weight="true"
       apply_no_weight="true"
       helper_size="0"
       steps="2"
       weight="33.333333"
       is_visible="true"
       id="path-effect12527-0"
       effect="bspline" />
    <inkscape:path-effect
       only_selected="false"
       apply_with_weight="true"
       apply_no_weight="true"
       helper_size="0"
       steps="2"
       weight="33.333333"
       is_visible="true"
       id="path-effect12520-5"
       effect="bspline" />
    <inkscape:path-effect
       only_selected="false"
       apply_with_weight="true"
       apply_no_weight="true"
       helper_size="0"
       steps="2"
       weight="33.333333"
       is_visible="true"
       id="path-effect1868-0"
       effect="bspline" />
    <inkscape:path-effect
       only_selected="false"
       apply_with_weight="true"
       apply_no_weight="true"
       helper_size="0"
       steps="2"
       weight="33.333333"
       is_visible="true"
       id="path-effect1853-1"
       effect="bspline" />
    <inkscape:path-effect
       only_selected="false"
       apply_with_weight="true"
       apply_no_weight="true"
       helper_size="0"
       steps="2"
       weight="33.333333"
       is_visible="true"
       id="path-effect13238"
       effect="bspline" />
    <inkscape:path-effect
       only_selected="false"
       apply_with_weight="true"
       apply_no_weight="true"
       helper_size="0"
       steps="2"
       weight="33.333333"
       is_visible="true"
       id="path-effect13267-8"
       effect="bspline" />
    <inkscape:path-effect
       only_selected="false"
       apply_with_weight="true"
       apply_no_weight="true"
       helper_size="0"
       steps="2"
       weight="33.333333"
       is_visible="true"
       id="path-effect56117-4"
       effect="bspline" />
    <inkscape:path-effect
       only_selected="false"
       apply_with_weight="true"
       apply_no_weight="true"
       helper_size="0"
       steps="2"
       weight="33.333333"
       is_visible="true"
       id="path-effect13204"
       effect="bspline" />
    <inkscape:path-effect
       only_selected="false"
       apply_with_weight="true"
       apply_no_weight="true"
       helper_size="0"
       steps="2"
       weight="33.333333"
       is_visible="true"
       id="path-effect13200-2"
       effect="bspline" />
    <inkscape:path-effect
       only_selected="false"
       apply_with_weight="true"
       apply_no_weight="true"
       helper_size="0"
       steps="2"
       weight="33.333333"
       is_visible="true"
       id="path-effect12527-84"
       effect="bspline" />
    <inkscape:path-effect
       only_selected="false"
       apply_with_weight="true"
       apply_no_weight="true"
       helper_size="0"
       steps="2"
       weight="33.333333"
       is_visible="true"
       id="path-effect12520-3"
       effect="bspline" />
    <inkscape:path-effect
       only_selected="false"
       apply_with_weight="true"
       apply_no_weight="true"
       helper_size="0"
       steps="2"
       weight="33.333333"
       is_visible="true"
       id="path-effect1868-4"
       effect="bspline" />
    <inkscape:path-effect
       only_selected="false"
       apply_with_weight="true"
       apply_no_weight="true"
       helper_size="0"
       steps="2"
       weight="33.333333"
       is_visible="true"
       id="path-effect1853-5"
       effect="bspline" />
    <inkscape:path-effect
       only_selected="false"
       apply_with_weight="true"
       apply_no_weight="true"
       helper_size="0"
       steps="2"
       weight="33.333333"
       is_visible="true"
       id="path-effect13238-9"
       effect="bspline" />
    <inkscape:path-effect
       only_selected="false"
       apply_with_weight="true"
       apply_no_weight="true"
       helper_size="0"
       steps="2"
       weight="33.333333"
       is_visible="true"
       id="path-effect13267-5"
       effect="bspline" />
    <inkscape:path-effect
       only_selected="false"
       apply_with_weight="true"
       apply_no_weight="true"
       helper_size="0"
       steps="2"
       weight="33.333333"
       is_visible="true"
       id="path-effect56117-9"
       effect="bspline" />
    <inkscape:path-effect
       only_selected="false"
       apply_with_weight="true"
       apply_no_weight="true"
       helper_size="0"
       steps="2"
       weight="33.333333"
       is_visible="true"
       id="path-effect13204-4"
       effect="bspline" />
    <inkscape:path-effect
       only_selected="false"
       apply_with_weight="true"
       apply_no_weight="true"
       helper_size="0"
       steps="2"
       weight="33.333333"
       is_visible="true"
       id="path-effect13200-0"
       effect="bspline" />
    <inkscape:path-effect
       effect="bspline"
       id="path-effect31582"
       is_visible="true"
       weight="33.333333"
       steps="2"
       helper_size="0"
       apply_no_weight="true"
       apply_with_weight="true"
       only_selected="false" />
    <inkscape:path-effect
       effect="bspline"
       id="path-effect31578"
       is_visible="true"
       weight="33.333333"
       steps="2"
       helper_size="0"
       apply_no_weight="true"
       apply_with_weight="true"
       only_selected="false" />
    <inkscape:path-effect
       effect="bspline"
       id="path-effect31572"
       is_visible="true"
       weight="33.333333"
       steps="2"
       helper_size="0"
       apply_no_weight="true"
       apply_with_weight="true"
       only_selected="false" />
    <inkscape:path-effect
       effect="bspline"
       id="path-effect31568"
       is_visible="true"
       weight="33.333333"
       steps="2"
       helper_size="0"
       apply_no_weight="true"
       apply_with_weight="true"
       only_selected="false" />
    <inkscape:path-effect
       only_selected="false"
       apply_with_weight="true"
       apply_no_weight="true"
       helper_size="0"
       steps="2"
       weight="33.333333"
       is_visible="true"
       id="path-effect31564"
       effect="bspline" />
    <inkscape:path-effect
       effect="bspline"
       id="path-effect31560"
       is_visible="true"
       weight="33.333333"
       steps="2"
       helper_size="0"
       apply_no_weight="true"
       apply_with_weight="true"
       only_selected="false" />
    <inkscape:path-effect
       only_selected="false"
       apply_with_weight="true"
       apply_no_weight="true"
       helper_size="0"
       steps="2"
       weight="33.333333"
       is_visible="true"
       id="path-effect31556"
       effect="bspline" />
    <inkscape:path-effect
       effect="bspline"
       id="path-effect31552"
       is_visible="true"
       weight="33.333333"
       steps="2"
       helper_size="0"
       apply_no_weight="true"
       apply_with_weight="true"
       only_selected="false" />
    <inkscape:path-effect
       only_selected="false"
       apply_with_weight="true"
       apply_no_weight="true"
       helper_size="0"
       steps="2"
       weight="33.333333"
       is_visible="true"
       id="path-effect31548"
       effect="bspline" />
    <inkscape:path-effect
       effect="bspline"
       id="path-effect31544"
       is_visible="true"
       weight="33.333333"
       steps="2"
       helper_size="0"
       apply_no_weight="true"
       apply_with_weight="true"
       only_selected="false" />
    <inkscape:path-effect
       only_selected="false"
       apply_with_weight="true"
       apply_no_weight="true"
       helper_size="0"
       steps="2"
       weight="33.333333"
       is_visible="true"
       id="path-effect31531"
       effect="bspline" />
    <inkscape:path-effect
       effect="bspline"
       id="path-effect30441"
       is_visible="true"
       weight="33.333333"
       steps="2"
       helper_size="0"
       apply_no_weight="true"
       apply_with_weight="true"
       only_selected="false" />
    <inkscape:path-effect
       effect="bspline"
       id="path-effect12527-8"
       is_visible="true"
       weight="33.333333"
       steps="2"
       helper_size="0"
       apply_no_weight="true"
       apply_with_weight="true"
       only_selected="false" />
    <inkscape:path-effect
       effect="bspline"
       id="path-effect12520-8"
       is_visible="true"
       weight="33.333333"
       steps="2"
       helper_size="0"
       apply_no_weight="true"
       apply_with_weight="true"
       only_selected="false" />
    <inkscape:path-effect
       effect="bspline"
       id="path-effect1868-0-3"
       is_visible="true"
       weight="33.333333"
       steps="2"
       helper_size="0"
       apply_no_weight="true"
       apply_with_weight="true"
       only_selected="false" />
    <inkscape:path-effect
       effect="bspline"
       id="path-effect1853-4"
       is_visible="true"
       weight="33.333333"
       steps="2"
       helper_size="0"
       apply_no_weight="true"
       apply_with_weight="true"
       only_selected="false" />
  </defs>
  <sodipodi:namedview
     id="base"
     pagecolor="#ffffff"
     bordercolor="#666666"
     borderopacity="1.0"
     inkscape:pageopacity="0.0"
     inkscape:pageshadow="2"
     inkscape:zoom="3.6203867"
     inkscape:cx="56.922396"
     inkscape:cy="61.187572"
     inkscape:document-units="px"
     inkscape:current-layer="layer1"
     showgrid="false"
     inkscape:window-width="1920"
     inkscape:window-height="1001"
     inkscape:window-x="-9"
     inkscape:window-y="-9"
     inkscape:window-maximized="1"
     showguides="false" />
  <metadata
     id="metadata912">
    <rdf:RDF>
      <cc:Work
         rdf:about="">
        <dc:format>image/svg+xml</dc:format>
        <dc:type
           rdf:resource="http://purl.org/dc/dcmitype/StillImage" />
        <dc:title></dc:title>
      </cc:Work>
    </rdf:RDF>
  </metadata>
  <g
     inkscape:label="Layer 1"
     inkscape:groupmode="layer"
     id="layer1">
    <g
       id="layer1-7"
       inkscape:label="Layer 1"
       transform="translate(0.68814903,0.26771495)">
      <g
         transform="translate(0.22595166,4.7695585)"
         inkscape:label="Layer 1"
         id="layer1-1" />
      <g
         id="g1240">
        <path
           transform="translate(0.22595166,4.7695585)"
           sodipodi:nodetypes="ccccccccccccccccccccccccccccc"
           inkscape:original-d="m 83.14029,116.30728 c 1.336032,-0.1391 2.671064,-0.27721 4.005097,-0.41432 1.150948,-0.73696 2.302779,-1.47414 3.452669,-2.20971 1.150727,-0.50688 2.30278,-1.01378 3.45267,-1.51917 1.012722,-0.27692 2.026566,-0.55343 3.03835,-0.82864 1.33447,0.41283 2.671064,0.82764 4.005094,1.24296 0.3231,0.27508 0.6455,0.55143 0.96675,0.82864 0.50726,0.0911 1.01378,0.18314 1.51917,0.27621 0.82835,-0.78238 1.65829,-1.56621 2.48593,-2.34781 0.001,-0.001 0.001,-0.001 0,0 1.65828,0.045 3.31556,0.0911 4.97184,0.1381 1.33604,0.41333 2.67106,0.82765 4.0051,1.24297 1.15163,0.68938 2.30278,1.38006 3.45267,2.0716 1.65786,0.27514 3.31556,0.55143 4.97184,0.82864 1.51943,0.41312 3.03935,0.82764 4.55753,1.24296 -1.60953,0.73524 -3.22149,1.47214 -4.83374,2.20971 -1.33503,-0.13921 -2.66907,-0.27721 -4.0051,-0.41432 -1.15065,-0.73806 -2.30078,-1.47414 -3.45267,-2.20971 -1.38037,-0.55355 -2.76113,-1.10585 -4.1432,-1.65728 -0.59769,0.45953 -1.19593,0.91971 -1.79539,1.38107 -1.19815,0.0912 -2.39285,0.18314 -3.59078,0.27621 -0.55192,-0.27746 -1.28799,-0.55343 -1.93349,-0.82864 -1.01254,0.36756 -2.02457,0.73557 -3.03835,1.10485 -0.9669,0.0451 -1.932496,0.0911 -2.900243,0.13811 -1.381561,-0.23143 -2.761136,-0.46136 -4.143204,-0.69053 -0.643877,-0.23132 -1.287997,-0.46136 -1.933495,-0.69054 -0.736221,0.96661 -1.472139,2.02457 -2.209709,3.03835 -1.796391,0.55205 -3.589776,1.10386 -5.386165,1.65728 -0.505728,-1.29085 -1.011783,-2.57899 -1.519174,-3.86699 z"
           inkscape:path-effect="#path-effect31582"
           inkscape:connector-curvature="0"
           id="path31580"
           d="m 84.061444,116.88241 c 0.414969,-0.71335 1.750001,-0.85146 2.992526,-1.28881 1.242525,-0.43735 2.39436,-1.17452 3.54469,-1.79564 1.15033,-0.62112 2.302382,-1.12802 3.383677,-1.51907 1.081295,-0.39106 2.095141,-0.66756 3.267989,-0.59849 1.172848,0.0691 2.509443,0.48388 3.337734,0.82901 0.82829,0.34514 1.15069,0.62149 1.56531,0.80566 0.41461,0.18416 0.92112,0.27625 1.58811,-0.069 0.66699,-0.34521 1.49693,-1.12904 1.91073,-1.51986 0.41381,-0.39081 0.41381,-0.39081 1.24294,-0.36778 0.82912,0.023 2.4864,0.0691 3.98239,0.29933 1.49599,0.23026 2.83101,0.64458 4.07368,1.19692 1.24267,0.55234 2.39381,1.24303 3.79795,1.72635 1.40413,0.48332 3.06183,0.7596 4.64962,1.10479 1.58779,0.34519 3.10771,0.75971 3.0623,1.33463 -0.0454,0.57491 -1.65738,1.31181 -3.13117,1.61131 -1.4738,0.2995 -2.80784,0.1615 -4.0515,-0.27605 -1.24366,-0.43754 -2.39378,-1.17363 -3.65978,-1.81816 -1.266,-0.64454 -2.64676,-1.19684 -3.63635,-1.24332 -0.98958,-0.0465 -1.58782,0.4137 -2.48664,0.69038 -0.89883,0.27669 -2.09353,0.36859 -2.9759,0.29322 -0.88237,-0.0754 -1.60414,-0.3847 -2.4328,-0.33885 -0.82866,0.0459 -1.84069,0.41386 -2.83111,0.62124 -0.99042,0.20738 -1.956012,0.25336 -3.130783,0.16126 -1.174771,-0.0921 -2.554346,-0.32203 -3.567439,-0.55224 -1.013093,-0.23021 -1.657212,-0.46026 -2.336989,-0.0842 -0.679777,0.37602 -1.43761,1.41804 -2.704404,2.20133 -1.266794,0.7833 -3.060179,1.33511 -4.211937,0.96631 -1.151757,-0.36879 -1.657812,-1.65693 -1.242844,-2.37027 z"
           style="fill:#dd925d;fill-opacity:1;stroke:#000000;stroke-width:0;stroke-linecap:butt;stroke-linejoin:miter;stroke-miterlimit:4;stroke-dasharray:none;stroke-opacity:1" />
        <path
           style="fill:#dd925d;fill-opacity:1;stroke:#000000;stroke-width:0;stroke-linecap:butt;stroke-linejoin:miter;stroke-miterlimit:4;stroke-dasharray:none;stroke-opacity:1"
           d="m 73.388672,98.486328 c 0.187523,2.607842 1.255065,5.105232 1.416016,7.714842 0.137499,2.22938 -0.325493,4.45679 -0.390625,6.68945 -0.05316,1.82214 0.11054,3.64919 0,5.46875 -0.08153,1.34205 -0.593684,2.66352 -0.488282,4.00391 0.05573,0.70876 0.395862,1.36571 0.585938,2.05078 0.234335,0.84458 0.568669,1.67014 0.683594,2.53906 0.140851,1.06495 -0.516925,2.28099 0,3.22266 0.612715,1.11617 2.699126,0.89011 3.222656,2.05078 0.257452,0.57078 -0.144632,1.24714 -0.292969,1.85547 -0.09755,0.40004 -0.343731,0.7628 -0.390625,1.17188 -0.119154,1.03943 0.112856,2.09439 0.292969,3.125 0.179414,1.02661 0.693077,1.9889 0.78125,3.02734 0.09949,1.17172 -0.499727,2.358 -0.292969,3.51562 0.18948,1.06088 0.938335,1.94103 1.367188,2.92969 0.487311,1.12343 0.619286,2.44093 1.36922,3.409 0.703128,0.90765 2.255065,1.01763 2.773984,2.04181 0.522688,1.03161 0.06794,2.31462 0.0057,3.46942 -0.0399,0.74088 -0.56478,1.54418 -0.242703,2.21258 0.792023,1.64367 3.304905,1.66666 4.627418,2.9236 0.925783,0.87988 2.133203,1.40994 2.208519,3.1311 0.214787,4.90842 3.02603,-0.8495 4.665837,0.44579 1.845557,1.45782 3.490798,0.22703 5.166813,-0.17365 1.22055,-0.2918 2.16971,-1.41879 3.41306,-1.58907 1.48281,-0.20308 2.96577,0.42144 4.43007,0.73094 1.90798,0.40328 3.77481,1.94834 5.66406,1.46485 1.42784,-0.36541 2.0983,-2.07442 3.22267,-3.02734 1.43954,-1.22004 3.89365,-1.64778 4.49996,-3.43473 0.25451,-0.75006 -0.54784,-1.50485 -0.62148,-2.29349 -0.18731,-2.00616 -0.37082,-4.19665 0.47356,-6.02608 0.47616,-1.03166 1.73955,-1.49258 2.4128,-2.4079 0.69609,-0.94637 1.2354,-2.0177 1.63359,-3.12296 0.53017,-1.47161 0.85721,-3.03021 0.97656,-4.58985 0.0764,-0.99828 -0.40444,-2.02518 -0.17078,-2.99873 0.32096,-1.33726 1.82612,-2.21199 2.07855,-3.56386 0.2844,-1.52312 -0.85461,-3.04502 -0.73505,-4.58984 0.17109,-2.21065 1.89571,-4.11614 2.04994,-6.32803 0.10461,-1.5002 -0.91905,-2.94585 -0.78125,-4.44337 0.14488,-1.57447 1.28284,-2.90791 1.66015,-4.44335 0.75154,-3.05833 1.01799,-6.22944 1.17188,-9.375 0.14957,-3.05732 0.53315,-6.219047 -0.24414,-9.17969 -0.0795,-0.302814 -0.12733,-0.854487 -0.43946,-0.830078 -1.69852,0.132832 -1.04298,3.245998 -1.66016,4.833988 -0.54658,1.40637 -1.38899,2.70049 -1.80664,4.15039 -0.4511,1.56604 -0.0292,3.36379 -0.73241,4.83398 -0.45732,0.95608 -1.71428,1.37694 -2.14844,2.34375 -0.5228,1.16419 -0.10462,2.56486 -0.39063,3.80859 -0.28733,1.24948 -1.18013,2.33867 -1.31835,3.61329 -0.0921,0.84901 0.67918,1.75455 0.34179,2.53906 -0.71664,1.66635 -3.23255,1.8062 -4.41409,3.18251 -1.24817,1.45392 -1.31676,3.71088 -2.61716,5.11827 -1.34882,1.45979 -3.11698,2.80209 -5.07812,3.125 -1.58171,0.26043 -3.47394,-0.0269 -4.6875,-1.07422 -1.0846,-0.93603 -0.30568,-3.31622 -1.5625,-4.00391 -0.58245,-0.3187 -1.45753,-0.0512 -1.95313,0.39063 -0.79148,0.70557 -0.36077,2.16417 -0.97656,3.02734 -0.56715,0.79499 -1.45723,1.34824 -2.343752,1.75782 -0.939137,0.43389 -2.001009,0.81348 -3.027344,0.68359 -1.415443,-0.17913 -2.739952,-1.00784 -3.808594,-1.95313 -0.825032,-0.7298 -1.333774,-1.76426 -1.855469,-2.73437 -0.566895,-1.05416 -0.620757,-2.38464 -1.367187,-3.32031 -0.422421,-0.52951 -1.109528,-0.77738 -1.660156,-1.17188 -1.272616,-0.91178 -2.932926,-1.45763 -3.798542,-2.76209 -1.510442,-2.27619 -0.810138,-5.46045 -1.865521,-7.9801 -0.78852,-1.88253 -2.356991,-3.35111 -3.271484,-5.17577 -0.632489,-1.26199 -1.152024,-2.59059 -1.513672,-3.95509 -0.383919,-1.44853 -0.154646,-3.04126 -0.683594,-4.44335 -0.41595,-1.102563 -1.280831,-1.978545 -1.904297,-2.978519 -0.513938,-0.824303 -0.57347,-2.734423 -1.513671,-2.490235 -1.245429,0.323462 -0.238773,2.574029 -0.146485,3.857462 z"
           id="path430"
           inkscape:connector-curvature="0"
           sodipodi:nodetypes="aaaaaaaaaaaaaaaaaaaassaaaaaaaaaaaaaaaaaaaaaaaaaaaaaaaaaaaaaaaaaaaaaaaa" />
      </g>
    </g>
  </g>
</svg>
