<?xml version="1.0" encoding="UTF-8" standalone="no"?>
<!-- Created with Inkscape (http://www.inkscape.org/) -->

<svg
   xmlns:dc="http://purl.org/dc/elements/1.1/"
   xmlns:cc="http://creativecommons.org/ns#"
   xmlns:rdf="http://www.w3.org/1999/02/22-rdf-syntax-ns#"
   xmlns:svg="http://www.w3.org/2000/svg"
   xmlns="http://www.w3.org/2000/svg"
   xmlns:sodipodi="http://sodipodi.sourceforge.net/DTD/sodipodi-0.dtd"
   xmlns:inkscape="http://www.inkscape.org/namespaces/inkscape"
   width="200px"
   height="200px"
   viewBox="0 0 200 200"
   version="1.1"
   id="SVGRoot"
   sodipodi:docname="facialhair-2-2.svg"
   inkscape:version="0.92.4 (5da689c313, 2019-01-14)">
  <defs
     id="defs909">
    <inkscape:path-effect
       effect="bspline"
       id="path-effect12527"
       is_visible="true"
       weight="33.333333"
       steps="2"
       helper_size="0"
       apply_no_weight="true"
       apply_with_weight="true"
       only_selected="false" />
    <inkscape:path-effect
       effect="bspline"
       id="path-effect12520"
       is_visible="true"
       weight="33.333333"
       steps="2"
       helper_size="0"
       apply_no_weight="true"
       apply_with_weight="true"
       only_selected="false" />
    <inkscape:path-effect
       effect="bspline"
       id="path-effect1868"
       is_visible="true"
       weight="33.333333"
       steps="2"
       helper_size="0"
       apply_no_weight="true"
       apply_with_weight="true"
       only_selected="false" />
    <inkscape:path-effect
       effect="bspline"
       id="path-effect1853"
       is_visible="true"
       weight="33.333333"
       steps="2"
       helper_size="0"
       apply_no_weight="true"
       apply_with_weight="true"
       only_selected="false" />
    <inkscape:path-effect
       only_selected="false"
       apply_with_weight="true"
       apply_no_weight="true"
       helper_size="0"
       steps="2"
       weight="33.333333"
       is_visible="true"
       id="path-effect31572"
       effect="bspline" />
    <inkscape:path-effect
       only_selected="false"
       apply_with_weight="true"
       apply_no_weight="true"
       helper_size="0"
       steps="2"
       weight="33.333333"
       is_visible="true"
       id="path-effect31568"
       effect="bspline" />
    <inkscape:path-effect
       effect="bspline"
       id="path-effect31564"
       is_visible="true"
       weight="33.333333"
       steps="2"
       helper_size="0"
       apply_no_weight="true"
       apply_with_weight="true"
       only_selected="false" />
    <inkscape:path-effect
       only_selected="false"
       apply_with_weight="true"
       apply_no_weight="true"
       helper_size="0"
       steps="2"
       weight="33.333333"
       is_visible="true"
       id="path-effect31560"
       effect="bspline" />
    <inkscape:path-effect
       effect="bspline"
       id="path-effect31556"
       is_visible="true"
       weight="33.333333"
       steps="2"
       helper_size="0"
       apply_no_weight="true"
       apply_with_weight="true"
       only_selected="false" />
    <inkscape:path-effect
       only_selected="false"
       apply_with_weight="true"
       apply_no_weight="true"
       helper_size="0"
       steps="2"
       weight="33.333333"
       is_visible="true"
       id="path-effect31552"
       effect="bspline" />
    <inkscape:path-effect
       effect="bspline"
       id="path-effect31548"
       is_visible="true"
       weight="33.333333"
       steps="2"
       helper_size="0"
       apply_no_weight="true"
       apply_with_weight="true"
       only_selected="false" />
    <inkscape:path-effect
       only_selected="false"
       apply_with_weight="true"
       apply_no_weight="true"
       helper_size="0"
       steps="2"
       weight="33.333333"
       is_visible="true"
       id="path-effect31544"
       effect="bspline" />
    <inkscape:path-effect
       effect="bspline"
       id="path-effect31531"
       is_visible="true"
       weight="33.333333"
       steps="2"
       helper_size="0"
       apply_no_weight="true"
       apply_with_weight="true"
       only_selected="false" />
    <inkscape:path-effect
       only_selected="false"
       apply_with_weight="true"
       apply_no_weight="true"
       helper_size="0"
       steps="2"
       weight="33.333333"
       is_visible="true"
       id="path-effect30441"
       effect="bspline" />
    <inkscape:path-effect
       only_selected="false"
       apply_with_weight="true"
       apply_no_weight="true"
       helper_size="0"
       steps="2"
       weight="33.333333"
       is_visible="true"
       id="path-effect12527-8"
       effect="bspline" />
    <inkscape:path-effect
       only_selected="false"
       apply_with_weight="true"
       apply_no_weight="true"
       helper_size="0"
       steps="2"
       weight="33.333333"
       is_visible="true"
       id="path-effect12520-4"
       effect="bspline" />
    <inkscape:path-effect
       only_selected="false"
       apply_with_weight="true"
       apply_no_weight="true"
       helper_size="0"
       steps="2"
       weight="33.333333"
       is_visible="true"
       id="path-effect1868-1"
       effect="bspline" />
    <inkscape:path-effect
       only_selected="false"
       apply_with_weight="true"
       apply_no_weight="true"
       helper_size="0"
       steps="2"
       weight="33.333333"
       is_visible="true"
       id="path-effect1853-1"
       effect="bspline" />
  </defs>
  <sodipodi:namedview
     id="base"
     pagecolor="#ffffff"
     bordercolor="#666666"
     borderopacity="1.0"
     inkscape:pageopacity="0.0"
     inkscape:pageshadow="2"
     inkscape:zoom="2.56"
     inkscape:cx="-46.960641"
     inkscape:cy="155.81665"
     inkscape:document-units="px"
     inkscape:current-layer="layer1"
     showgrid="false"
     inkscape:window-width="1920"
     inkscape:window-height="1001"
     inkscape:window-x="-9"
     inkscape:window-y="-9"
     inkscape:window-maximized="1"
     showguides="false" />
  <metadata
     id="metadata912">
    <rdf:RDF>
      <cc:Work
         rdf:about="">
        <dc:format>image/svg+xml</dc:format>
        <dc:type
           rdf:resource="http://purl.org/dc/dcmitype/StillImage" />
        <dc:title></dc:title>
      </cc:Work>
    </rdf:RDF>
  </metadata>
  <g
     inkscape:label="Layer 1"
     inkscape:groupmode="layer"
     id="layer1">
    <g
       id="layer1-5"
       inkscape:label="Layer 1"
       transform="translate(-103.74562,-15.180635)">
      <path
         id="path31566"
         d="m 238.73557,113.58537 c -0.11669,-0.0172 -0.12212,0.82345 -0.30666,1.25781 -0.59058,1.38998 -1.64969,4.48716 -2.23183,6.78907 -0.58213,2.3019 -0.83493,3.17547 -1.54413,4.39648 -0.16422,0.28271 -0.394,0.61826 -0.5949,0.92969 -0.94751,0.0734 -2.43218,0.62561 -3.76693,1.09961 -1.61,0.57176 -3.02861,1.03301 -4.44557,1.24023 -1.41696,0.20722 -2.83413,0.16106 -4.4284,0 -1.59424,-0.16106 -3.36875,-0.43807 -5.29173,-0.57617 -1.92298,-0.1381 -4.00196,-0.13688 -5.34113,0.0469 -1.33918,0.18375 -1.94736,0.55289 -2.45259,0.85156 -0.50522,0.29867 -0.91168,0.52925 -1.41742,0.73633 -0.50575,0.20707 -1.11343,0.39034 -1.56993,0.27539 -0.45649,-0.11496 -0.76111,-0.52879 -1.59567,-0.80469 -0.83455,-0.2759 -2.2024,-0.41532 -3.64451,-0.48438 -1.44211,-0.069 -2.96022,-0.0675 -4.37685,-0.0215 -1.41664,0.046 -2.73485,0.13818 -4.53148,0.32227 -1.79664,0.18408 -4.07501,0.46005 -6.7328,-0.11524 -2.531,-0.54785 -5.40688,-1.87132 -8.2984,-3.22851 -0.0973,-0.18608 -0.19863,-0.36719 -0.28135,-0.57032 -0.50618,-1.24326 0.0515,-3.33774 -0.37864,-5.06345 -0.43014,-1.7257 -0.32996,-3.49956 -0.8361,-4.78837 -0.50614,-1.28881 -1.06791,-4.58115 -1.27023,-4.44365 -0.20233,0.13749 -0.25271,4.88121 -0.10095,6.49256 0.15176,1.61135 -0.0455,3.407 0.43548,6.2849 0.481,2.8779 -0.4325,7.38741 0.27623,10.1269 0.70874,2.73948 1.17368,5.98381 1.67995,7.47999 0.50626,1.49617 0.84746,2.34836 1.25271,3.1776 0.40524,0.82925 0.0452,1.49677 0.65255,2.55538 0.60738,1.05861 1.62872,2.37045 2.16035,3.42956 0.53162,1.05911 2.0237,0.62008 2.63149,1.14975 0.60777,0.52967 1.15819,2.57848 1.9426,3.10776 0.78442,0.52928 2.28495,-0.3224 3.14527,0.66706 0,0 1.77147,0.98977 2.96157,1.95683 1.19009,0.96705 2.65904,1.51936 4.43054,1.93359 1.77149,0.41423 3.84653,0.69076 5.67187,0.73633 1.82533,0.0456 3.39053,-0.13847 4.85792,-0.23047 1.46738,-0.092 2.83402,-0.0911 4.17497,-0.16016 1.34096,-0.0691 2.65769,-0.20682 4.20075,-0.29883 1.54304,-0.092 3.31692,-0.13942 4.75912,-0.83007 1.44221,-0.69066 2.55612,-2.02497 3.84639,-3.35938 1.29028,-1.33441 3.58924,-0.32416 4.91772,-1.46468 1.32847,-1.14052 4.08781,-3.37062 4.99832,-4.65898 0.91051,-1.28837 3.03811,-2.48698 3.77203,-3.79858 0.73391,-1.31159 1.31798,-4.25838 1.79839,-5.43153 0.48039,-1.17316 0.85973,-2.78459 1.28988,-4.48715 0.43014,-1.70256 -0.0549,-2.67213 0.68776,-6.3639 0.74264,-3.69177 -1.15291,-9.42483 -0.92527,-12.55494 0.1565,-2.15196 0.0763,-3.27069 -0.18039,-3.3086 z m -39.64293,17.76172 c 1.44313,0 3.01058,-3.4e-4 4.4284,0.0918 1.4178,0.0921 2.68418,0.27545 4.22865,0.27539 1.54449,-7e-5 3.36516,-0.18427 4.8837,0 1.51854,0.18427 2.73349,0.73847 3.74545,1.58984 1.01196,0.85137 1.82193,2.00131 2.68237,3.24414 0.86046,1.24284 1.77332,2.5789 2.07675,3.72852 0.30344,1.14961 1.2e-4,2.1193 -0.55623,3.0625 -0.5081,0.86142 -1.21307,1.68951 -0.60133,1.54883 -1.35073,0.77634 -2.37499,0.97501 -3.2472,1.21289 -1.26585,0.34522 -2.22546,0.80597 -2.88425,1.6582 -0.6588,0.85223 -1.01368,2.09252 -1.72241,2.80664 -0.70871,0.71412 -1.7696,0.89725 -2.40317,0.34375 -0.63358,-0.5535 -0.83706,-1.84031 -1.03946,-3.33594 -0.2024,-1.49562 -0.40437,-3.19897 -0.98575,-4.11914 -0.58138,-0.92017 -1.54387,-1.05914 -2.02521,-0.66797 -0.48133,0.39118 -0.4813,1.31137 -0.73449,2.57813 -0.25319,1.26676 -0.75757,2.87538 -1.0867,3.98047 -0.32913,1.10508 -0.48188,1.7037 -1.03944,1.86523 -0.55757,0.16154 -1.51734,-0.11323 -2.07461,-0.80469 -0.55727,-0.69145 -0.70895,-1.79586 -1.06307,-2.66992 -0.35412,-0.87406 -0.91181,-1.51941 -1.99944,-1.93359 -1.08763,-0.41418 -2.70807,-0.59851 -4.00101,-0.94141 -0.1741,-0.0462 -0.3396,-0.1087 -0.50898,-0.16406 -0.35156,-0.18805 -0.68944,-0.37899 -0.98147,-0.59766 -0.86121,-0.64487 -1.36668,-1.52039 -1.77179,-2.55664 -0.4051,-1.03624 -0.70921,-2.23103 -0.60777,-3.38281 0.10148,-1.15178 0.60692,-2.25518 1.06307,-3.13086 0.45614,-0.87568 0.86021,-1.51812 1.54414,-2.09375 0.68392,-0.57563 1.64406,-1.08287 2.78331,-1.33594 1.13926,-0.25306 2.4548,-0.25195 3.89794,-0.25195 z"
         style="fill:#dd925d;fill-opacity:1;stroke:#000000;stroke-width:0;stroke-linecap:butt;stroke-linejoin:miter;stroke-miterlimit:4;stroke-dasharray:none;stroke-opacity:1"
         inkscape:connector-curvature="0"
         sodipodi:nodetypes="ccccccscsccccccscccccscssccccccccsccscccccccccccccsccssccccccccsscscccssccccccccs" />
    </g>
  </g>
</svg>
