<?xml version="1.0" encoding="UTF-8" standalone="no"?>
<!-- Created with Inkscape (http://www.inkscape.org/) -->

<svg
   xmlns:dc="http://purl.org/dc/elements/1.1/"
   xmlns:cc="http://creativecommons.org/ns#"
   xmlns:rdf="http://www.w3.org/1999/02/22-rdf-syntax-ns#"
   xmlns:svg="http://www.w3.org/2000/svg"
   xmlns="http://www.w3.org/2000/svg"
   xmlns:sodipodi="http://sodipodi.sourceforge.net/DTD/sodipodi-0.dtd"
   xmlns:inkscape="http://www.inkscape.org/namespaces/inkscape"
   width="200px"
   height="200px"
   viewBox="0 0 200 200"
   version="1.1"
   id="SVGRoot"
   sodipodi:docname="hair-3-1.svg"
   inkscape:version="0.92.4 (5da689c313, 2019-01-14)">
  <defs
     id="defs909">
    <inkscape:path-effect
       effect="bspline"
       id="path-effect12527"
       is_visible="true"
       weight="33.333333"
       steps="2"
       helper_size="0"
       apply_no_weight="true"
       apply_with_weight="true"
       only_selected="false" />
    <inkscape:path-effect
       effect="bspline"
       id="path-effect12520"
       is_visible="true"
       weight="33.333333"
       steps="2"
       helper_size="0"
       apply_no_weight="true"
       apply_with_weight="true"
       only_selected="false" />
    <inkscape:path-effect
       effect="bspline"
       id="path-effect1868"
       is_visible="true"
       weight="33.333333"
       steps="2"
       helper_size="0"
       apply_no_weight="true"
       apply_with_weight="true"
       only_selected="false" />
    <inkscape:path-effect
       effect="bspline"
       id="path-effect1853"
       is_visible="true"
       weight="33.333333"
       steps="2"
       helper_size="0"
       apply_no_weight="true"
       apply_with_weight="true"
       only_selected="false" />
    <inkscape:path-effect
       effect="bspline"
       id="path-effect13467"
       is_visible="true"
       weight="33.333333"
       steps="2"
       helper_size="0"
       apply_no_weight="true"
       apply_with_weight="true"
       only_selected="false" />
    <inkscape:path-effect
       effect="bspline"
       id="path-effect13451"
       is_visible="true"
       weight="33.333333"
       steps="2"
       helper_size="0"
       apply_no_weight="true"
       apply_with_weight="true"
       only_selected="false" />
    <inkscape:path-effect
       effect="bspline"
       id="path-effect13443"
       is_visible="true"
       weight="33.333333"
       steps="2"
       helper_size="0"
       apply_no_weight="true"
       apply_with_weight="true"
       only_selected="false" />
  </defs>
  <sodipodi:namedview
     id="base"
     pagecolor="#ffffff"
     bordercolor="#666666"
     borderopacity="1.0"
     inkscape:pageopacity="0.0"
     inkscape:pageshadow="2"
     inkscape:zoom="5.12"
     inkscape:cx="121.44281"
     inkscape:cy="106.35844"
     inkscape:document-units="px"
     inkscape:current-layer="layer1"
     showgrid="false"
     inkscape:window-width="1920"
     inkscape:window-height="1001"
     inkscape:window-x="-9"
     inkscape:window-y="-9"
     inkscape:window-maximized="1"
     showguides="false" />
  <metadata
     id="metadata912">
    <rdf:RDF>
      <cc:Work
         rdf:about="">
        <dc:format>image/svg+xml</dc:format>
        <dc:type
           rdf:resource="http://purl.org/dc/dcmitype/StillImage" />
        <dc:title></dc:title>
      </cc:Work>
    </rdf:RDF>
  </metadata>
  <g
     inkscape:label="Layer 1"
     inkscape:groupmode="layer"
     id="layer1">
    <path
       transform="matrix(0.9581619,0,0,1,4.5097636,0.34452564)"
       style="fill:#dd925d;fill-opacity:1;stroke:#000000;stroke-width:0;stroke-linecap:butt;stroke-linejoin:miter;stroke-miterlimit:4;stroke-dasharray:none;stroke-opacity:1"
       d="m 114.16848,56.092854 c -2.2096,-1.427057 -5.5702,-3.406585 -9.39108,-4.718657 -3.82089,-1.312072 -8.101814,-1.956513 -13.004959,-1.427185 -4.903145,0.529328 -10.426345,2.232315 -14.731224,5.431902 -4.30488,3.199588 -7.388598,7.894204 -10.173842,10.610797 -2.785244,2.716593 -5.270553,3.452981 -7.204696,3.568227 -1.934143,0.115247 -3.315107,-0.391107 -4.696175,-0.897498 1.033801,1.487206 1.962818,2.823673 3.560073,4.015217 1.597255,1.191545 3.221627,1.780276 4.710949,2.081969 1.489323,0.301692 2.547343,0.20969 3.606162,0.117619 -1.749353,0.920712 -3.497511,1.840795 -5.132391,2.301466 -1.63488,0.46067 -3.153017,0.46067 -4.189,0.46067 -1.035982,0 -1.589046,0 -2.141473,0 1.15089,1.058819 2.301824,2.117678 3.591238,2.693131 1.289414,0.575453 2.716571,0.667528 4.304248,0.736549 1.587678,0.06902 3.338173,0.115087 5.616267,-0.322204 2.278094,-0.437292 5.087828,-1.358516 8.60861,-3.383633 3.520782,-2.025118 7.757865,-5.156875 11.60142,-7.458301 3.843555,-2.301426 7.297142,-3.774956 10.680084,-4.534285 3.382939,-0.759329 6.698659,-0.80538 9.437479,-0.92048 2.73882,-0.1151 4.90316,-0.299299 6.35284,-1.174141 1.44968,-0.874842 2.18662,-2.440833 2.02567,-3.659796 -0.16096,-1.218964 -1.22059,-2.09431 -3.4302,-3.521367 z"
       id="path13441"
       inkscape:connector-curvature="0"
       inkscape:path-effect="#path-effect13443"
       inkscape:original-d="m 115.31917,56.645149 c -3.3596,-1.980531 -6.72019,-3.960062 -10.08179,-5.938592 -4.2807,-0.645557 -8.561625,-1.289997 -12.843935,-1.933496 -5.524344,1.702648 -11.047544,3.405635 -16.572816,5.109952 -3.084052,4.695646 -6.16777,9.390262 -9.253155,14.086893 -2.485535,0.735751 -4.970844,1.472139 -7.457766,2.209708 -1.38073,-0.507634 -4.143204,-1.519174 -4.143204,-1.519174 0,0 1.963961,2.822878 3.101402,4.461619 2.056363,0.743938 3.680734,1.33267 5.599326,2.0294 1.059538,-0.09305 3.176456,-0.276214 3.176456,-0.276214 0,0 -3.497706,1.840424 -5.248058,2.762136 -1.519213,-0.001 -3.03735,-0.001 -4.557524,0 -0.551791,-0.001 -1.657282,0 -1.657282,0 0,0 2.30278,2.116638 3.45267,3.176456 1.42805,0.09107 2.855207,0.183143 4.281311,0.276214 1.74921,0.04501 3.499705,0.09107 5.248058,0.138107 2.807609,-0.9212 5.617343,-1.842424 8.424514,-2.762136 4.234467,-3.130084 8.47155,-6.261841 12.705825,-9.391262 3.452753,-1.473748 6.90634,-2.947278 10.35801,-4.419417 3.314408,-0.04702 6.630128,-0.09307 9.943688,-0.138107 2.16401,-0.185086 4.32835,-0.369285 6.49102,-0.552427 0.7372,-1.565431 1.47414,-3.131421 2.20971,-4.695631 -1.05701,-0.875004 -2.11664,-1.750353 -3.17646,-2.624029 z"
       sodipodi:nodetypes="ccccccccccccccccccccccc" />
    <path
       transform="matrix(0.9581619,0,0,1,4.5097636,0.34452564)"
       style="fill:#dd925d;fill-opacity:1;stroke:#000000;stroke-width:0;stroke-linecap:butt;stroke-linejoin:miter;stroke-miterlimit:4;stroke-dasharray:none;stroke-opacity:1"
       d="m 71.953639,94.762624 c 0.789743,0.171138 1.580237,0.342438 2.224372,0.687637 0.644136,0.345199 1.143356,0.86456 1.392987,1.929774 0.249631,1.065214 0.249631,2.676675 0.249631,4.287925 0,0 2.900243,3.59078 2.900243,3.59078 0.138107,-3.17646 0.276259,-6.353955 0.828642,-10.013169 0.552382,-3.659215 1.519447,-7.803777 2.877269,-13.189012 1.357823,-5.385236 3.107669,-12.016233 2.532775,-15.468245 -0.574893,-3.452012 -3.475653,-3.728274 -5.639434,-3.337268 -2.16378,0.391007 -3.590442,1.449499 -4.810016,3.724548 -1.219574,2.27505 -2.22899,5.760303 -2.620583,10.595389 -0.391593,4.835086 -0.163751,11.013056 0.06411,17.191641 z"
       id="path13449"
       inkscape:connector-curvature="0"
       inkscape:path-effect="#path-effect13451"
       inkscape:original-d="m 71.953639,94.762624 c 0,0 1.580491,0.341267 2.369228,0.513413 0.500322,0.518421 0.999542,1.037782 1.497762,1.558188 0.001,1.611024 0,4.833735 0,4.833735 l 2.900243,3.59078 c 0,0 0.277214,-6.353913 0.414321,-9.529369 0.96743,-4.142845 1.934495,-8.287407 2.900242,-12.429611 1.749859,-6.628255 3.499706,-13.259252 5.248058,-19.887379 -2.898725,-0.277164 -5.799485,-0.553427 -8.700728,-0.82864 -1.426544,1.058146 -2.853207,2.116637 -4.28131,3.176456 -1.010265,3.490637 -2.019682,6.97589 -3.03141,10.466671 0.228923,6.179163 0.683594,18.535756 0.683594,18.535756 z"
       sodipodi:nodetypes="cccccccccccc" />
    <path
       inkscape:connector-curvature="0"
       style="fill:#dd925d;fill-opacity:1;stroke:#000000;stroke-width:0;stroke-linecap:butt;stroke-linejoin:miter;stroke-miterlimit:4;stroke-dasharray:none;stroke-opacity:1"
       d="m 118.31957,56.830853 c -1.36079,-0.06007 -2.63062,0.199567 -3.57066,1.00586 -1.50406,1.290067 -2.16234,3.977468 -1.25197,5.794921 0.91038,1.817454 3.38408,2.75982 4.80391,4.306641 1.41983,1.546821 1.78067,3.693982 2.52266,6.460938 0.0146,0.05418 0.0338,0.115275 0.0487,0.169921 0.51324,2.77835 1.26124,5.804119 1.91632,8.515629 1.30101,5.385231 2.22732,9.530231 2.75658,13.18945 0.52928,3.65921 0.66302,6.835257 0.79536,10.011717 l 2.77717,-3.58985 c 0,-1.61125 -0.23027,-3.02461 0.20024,-4.443347 0.22671,-0.747119 0.6145,-1.502147 1.21268,-2.003915 0.60105,-0.504178 2.19481,-0.84965 2.19481,-0.84965 0,0 0.51885,-11.612365 0.18566,-16.384765 0.002,-0.0373 0.008,-0.0695 0.01,-0.10742 0.12433,-2.294757 -0.37508,-5.712208 -1.43538,-9.064451 -1.0603,-3.352243 -2.68174,-6.640005 -4.53068,-8.808594 -1.84894,-2.168589 -3.92719,-3.219172 -6.1401,-3.798828 -0.82984,-0.217371 -1.67812,-0.368253 -2.49458,-0.404297 z"
       id="path13457"
       sodipodi:nodetypes="cscsccccccaacccssscc" />
    <path
       style="fill:#dd925d;fill-opacity:1;stroke:#000000;stroke-width:0;stroke-linecap:butt;stroke-linejoin:miter;stroke-miterlimit:4;stroke-dasharray:none;stroke-opacity:1"
       d="m 116.21102,57.307414 c -0.35804,-0.993405 -0.22783,-2.197832 0.42321,-3.157604 0.65103,-0.959771 1.82397,-1.676567 2.82666,-2.034283 1.00269,-0.357715 1.83703,-0.357715 2.67154,-0.357715 -1.16003,0.390625 -2.31886,0.780846 -3.1598,1.464468 -0.84094,0.683623 -1.36132,1.659336 -1.62205,2.457338 -0.26074,0.798003 -0.26074,1.415736 -0.0652,2.083958 0.19554,0.668222 0.58553,1.383207 0.35758,1.350659 -0.22796,-0.03255 -1.0739,-0.813417 -1.43193,-1.806821 z"
       id="path13465"
       inkscape:connector-curvature="0"
       inkscape:path-effect="#path-effect13467"
       inkscape:original-d="m 115.72266,57.519531 c 0.1312,-1.205427 0.26141,-2.409854 0.39062,-3.613281 1.17181,-0.716495 2.34475,-1.433292 3.51563,-2.148438 0.83467,-0.001 2.50352,0 2.50352,0 0,0 -2.31906,0.78025 -3.48009,1.171875 -0.52028,0.976412 -1.04066,1.952125 -1.5625,2.929688 0.001,0.618246 0.001,1.235979 0,1.855469 0.39226,0.716303 0.78225,1.431291 1.17188,2.148437 -0.84577,-0.782632 -1.69171,-1.5635 -2.53906,-2.34375 z"
       transform="matrix(0.9581619,0,0,1,3.7513181,1.9302046)"
       sodipodi:nodetypes="ccccccccc" />
  </g>
</svg>
