<?xml version="1.0" encoding="UTF-8" standalone="no"?>
<!-- Created with Inkscape (http://www.inkscape.org/) -->

<svg
   xmlns:dc="http://purl.org/dc/elements/1.1/"
   xmlns:cc="http://creativecommons.org/ns#"
   xmlns:rdf="http://www.w3.org/1999/02/22-rdf-syntax-ns#"
   xmlns:svg="http://www.w3.org/2000/svg"
   xmlns="http://www.w3.org/2000/svg"
   xmlns:sodipodi="http://sodipodi.sourceforge.net/DTD/sodipodi-0.dtd"
   xmlns:inkscape="http://www.inkscape.org/namespaces/inkscape"
   width="200px"
   height="200px"
   viewBox="0 0 200 200"
   version="1.1"
   id="SVGRoot"
   sodipodi:docname="hair-2-14.svg"
   inkscape:version="0.92.4 (5da689c313, 2019-01-14)">
  <defs
     id="defs909">
    <inkscape:path-effect
       effect="bspline"
       id="path-effect12527"
       is_visible="true"
       weight="33.333333"
       steps="2"
       helper_size="0"
       apply_no_weight="true"
       apply_with_weight="true"
       only_selected="false" />
    <inkscape:path-effect
       effect="bspline"
       id="path-effect12520"
       is_visible="true"
       weight="33.333333"
       steps="2"
       helper_size="0"
       apply_no_weight="true"
       apply_with_weight="true"
       only_selected="false" />
    <inkscape:path-effect
       effect="bspline"
       id="path-effect1868"
       is_visible="true"
       weight="33.333333"
       steps="2"
       helper_size="0"
       apply_no_weight="true"
       apply_with_weight="true"
       only_selected="false" />
    <inkscape:path-effect
       effect="bspline"
       id="path-effect1853"
       is_visible="true"
       weight="33.333333"
       steps="2"
       helper_size="0"
       apply_no_weight="true"
       apply_with_weight="true"
       only_selected="false" />
    <inkscape:path-effect
       effect="bspline"
       id="path-effect5622"
       is_visible="true"
       weight="33.333333"
       steps="2"
       helper_size="0"
       apply_no_weight="true"
       apply_with_weight="true"
       only_selected="false" />
  </defs>
  <sodipodi:namedview
     id="base"
     pagecolor="#ffffff"
     bordercolor="#666666"
     borderopacity="1.0"
     inkscape:pageopacity="0.0"
     inkscape:pageshadow="2"
     inkscape:zoom="1.28"
     inkscape:cx="-14.959074"
     inkscape:cy="91.965309"
     inkscape:document-units="px"
     inkscape:current-layer="layer1"
     showgrid="false"
     inkscape:window-width="1920"
     inkscape:window-height="1001"
     inkscape:window-x="-9"
     inkscape:window-y="-9"
     inkscape:window-maximized="1"
     showguides="false" />
  <metadata
     id="metadata912">
    <rdf:RDF>
      <cc:Work
         rdf:about="">
        <dc:format>image/svg+xml</dc:format>
        <dc:type
           rdf:resource="http://purl.org/dc/dcmitype/StillImage" />
        <dc:title></dc:title>
      </cc:Work>
    </rdf:RDF>
  </metadata>
  <g
     inkscape:label="Layer 1"
     inkscape:groupmode="layer"
     id="layer1">
    <path
       transform="translate(-7.4410385,-2.464581)"
       style="fill:#dd925d;fill-opacity:1;stroke:#000000;stroke-width:0;stroke-linecap:butt;stroke-linejoin:miter;stroke-miterlimit:4;stroke-dasharray:none;stroke-opacity:1"
       d="m 54.368325,28.931778 c -1.058468,0.184277 -4.373031,-0.828506 -6.306707,-0.460749 -1.933677,0.367758 -2.485998,2.116775 -3.637102,3.590529 -1.151104,1.473755 -2.89926,2.669861 -3.221804,4.143835 -0.322543,1.473974 0.781586,3.222179 -0.09264,4.971435 -0.874222,1.749257 -3.727999,3.498347 -6.12223,4.787614 -2.394231,1.289268 -4.326932,2.117568 -5.708727,4.328072 -1.381795,2.210503 -2.209919,5.79904 -2.486311,7.825118 -0.276391,2.026078 -2.68e-4,2.486284 -1.289533,3.82174 -1.289266,1.335456 -4.14165,3.543752 -4.786482,5.892348 -0.644832,2.348596 0.91977,4.833552 1.288341,7.088933 0.368571,2.255381 -0.459982,4.280732 -1.28888,6.352965 -0.828898,2.072233 -1.657045,4.188609 -1.01219,6.353503 0.644855,2.164895 2.761286,4.373345 3.498016,6.720594 0.736729,2.347248 0.09224,4.833146 -0.230165,6.951295 -0.322402,2.11814 -0.322402,3.86666 -3.9e-5,5.20235 0.322363,1.3357 0.966494,2.25589 1.564986,3.26869 0.598492,1.0128 1.150802,2.11742 1.289047,3.54447 0.138245,1.42706 -0.137868,3.17578 0.276743,4.55776 0.414612,1.38198 1.518748,2.39411 2.20921,4.28104 0.690463,1.88694 0.966688,4.64919 1.611313,6.81344 0.644625,2.16424 1.657083,3.72895 2.808656,4.51168 1.151573,0.78273 2.440365,0.78273 4.418368,2.07073 1.978003,1.28801 4.650137,3.868 6.583799,5.47933 1.933663,1.61133 3.130595,2.25584 4.373778,2.20947 1.243183,-0.0464 2.532565,-0.78315 3.63632,-0.41533 1.103756,0.36781 2.025312,1.8423 3.72938,2.71719 1.704068,0.87488 4.189536,1.15104 6.260999,1.05884 2.071462,-0.0922 3.729329,-0.55272 5.109565,-0.46063 1.380235,0.0921 2.48588,0.73706 3.590991,0.96708 1.105111,0.23002 2.210277,0.0458 3.54445,-0.78245 1.334174,-0.82827 2.900996,-2.30293 4.097552,-3.59164 1.196557,-1.2887 2.025743,-2.39428 3.060474,-3.32926 1.034731,-0.93498 2.773856,-2.00817 2.890793,-2.45697 0.116938,-0.4488 -1.064683,-1.46292 -2.023759,-3.2935 -0.959076,-1.83058 -2.017895,-4.75384 -2.627799,-7.32051 -0.609903,-2.56667 -0.771027,-4.77637 -1.044112,-7.38675 -0.273086,-2.61037 -0.658162,-5.62203 -0.896704,-7.63413 -0.238542,-2.01211 -0.330613,-3.02489 -0.100275,-4.86644 0.230338,-1.84155 0.782767,-4.51162 1.012798,-6.629147 0.230031,-2.117529 0.137959,-3.68274 0.322276,-5.386176 0.184317,-1.703436 0.644673,-3.54486 0.920773,-5.202083 0.276099,-1.657222 0.368171,-3.130361 0.79122,-4.432889 0.423049,-1.302528 1.176374,-2.43435 2.059125,-3.137813 0.882752,-0.703462 1.896556,-0.979954 3.55248,-1.85398 1.655925,-0.874026 3.960397,-2.348888 5.387239,-3.407707 1.426841,-1.058819 1.979547,-1.703642 3.956261,-1.933412 1.976714,-0.229771 5.389006,-0.04532 8.588186,-0.344624 3.19917,-0.299302 6.19232,-1.082125 8.24027,-0.782801 2.04794,0.299323 3.1527,1.680272 6.23791,2.370927 3.0852,0.690656 8.14867,0.690656 11.41675,1.312176 3.26807,0.62152 4.74097,1.864281 5.82284,3.84374 1.08188,1.979459 1.77194,4.693719 2.57797,7.204048 0.80602,2.510329 1.72605,4.810398 2.23264,6.813186 0.50658,2.002787 0.59859,3.704951 0.50655,6.030725 -0.092,2.32578 -0.36802,5.26965 -0.50623,7.84863 -0.13821,2.57898 -0.13821,4.78688 0.32225,7.18202 0.46047,2.39515 1.38076,4.97198 0.0923,8.86929 -1.28843,3.89731 -4.78774,9.11566 -8.28628,14.33286 2.30161,1.13571 4.14314,2.04439 6.21448,3.55436 2.07135,1.50996 3.45242,3.16723 5.80063,4.41033 2.34821,1.2431 5.66277,2.07174 8.05655,0.9662 2.39379,-1.10554 3.86693,-4.14388 7.87221,-5.47829 4.00528,-1.33441 10.54233,-0.96612 13.90248,-3.45259 3.36015,-2.48646 3.56662,-8.47405 5.54944,-11.91247 1.98282,-3.43842 7.57004,-6.6481 9.2126,-8.8264 1.64256,-2.17829 1.21122,-5.41338 1.02738,-7.20646 -0.18384,-1.79308 -0.18384,-2.62282 0.32314,-3.31318 0.50699,-0.69035 1.51977,-1.24278 2.11769,-2.48596 0.59792,-1.24319 0.78206,-3.17668 1.50769,-4.7269 0.72563,-1.550225 1.99181,-2.717309 1.32483,-4.701008 -0.66698,-1.983699 -3.26604,-4.784929 -3.20808,-7.608514 0.0579,-2.823584 2.7719,-5.668537 3.34846,-7.965209 0.57657,-2.296672 -0.98322,-4.046025 -1.21313,-6.256307 -0.2299,-2.210281 0.86953,-4.880348 1.05064,-6.767319 0.18111,-1.886971 -0.55546,-2.991825 -1.01577,-4.971707 -0.46031,-1.979881 -0.64446,-4.834087 -1.47307,-6.997295 -0.82861,-2.163209 -2.30174,-3.636343 -3.4067,-5.339933 -1.10496,-1.703589 -1.84153,-3.637083 -2.85414,-5.1099 -1.01262,-1.472818 -2.30148,-2.485495 -3.59076,-4.005008 -1.28927,-1.519512 -2.57814,-3.544871 -3.49887,-5.248317 -0.92073,-1.703446 -1.47316,-3.084515 -3.12997,-4.096953 -1.65681,-1.012439 -4.41822,-1.656768 -6.85888,-2.439562 -2.44066,-0.782795 -4.55726,-1.703056 -6.21525,-3.314957 -1.65799,-1.611901 -2.85465,-3.913161 -4.74172,-5.524116 -1.88708,-1.610954 -4.46451,-2.531465 -7.5035,-3.544475 -3.039,-1.01301 -6.5363,-2.11742 -9.34477,-2.624024 -2.80847,-0.506604 -4.92572,-0.41455 -7.55215,-0.737219 -2.62644,-0.32267 -5.75237,-1.058183 -8.74522,-2.255295 -2.99285,-1.1971121 -5.84639,-2.8540117 -8.88452,-3.4526186 -3.03812,-0.5986069 -6.26026,-0.1383014 -8.28623,-0.046099 -2.02597,0.092203 -2.85432,-0.1839143 -4.78895,-0.9209139 -1.93464,-0.7369996 -4.970785,-1.9330586 -7.91697,-2.025359 -2.946186,-0.092301 -5.7999,0.9203077 -8.240223,1.7030814 -2.440323,0.7827737 -4.465035,1.3349678 -6.307065,1.5653065 -1.84203,0.2303388 -3.498342,0.1383214 -4.879756,0.7826371 -1.381414,0.6443157 -2.48564,2.0245983 -3.729001,3.1299783 -1.243361,1.10538 -2.623332,1.933362 -4.742384,2.071662 -2.119053,0.1383 -4.970829,-0.413657 -6.858397,-0.04584 -1.887568,0.367817 -2.80803,1.656464 -3.821303,3.084254 -1.013273,1.427791 -2.117154,2.991623 -2.209359,4.41967 -0.09221,1.428048 0.827836,2.716107 0.690273,3.452697 -0.137564,0.736591 -1.334314,0.920707 -1.334347,1.704011 -3.3e-5,0.783304 1.195766,2.163071 0.137297,2.347349 z"
       id="path5620"
       inkscape:connector-curvature="0"
       inkscape:path-effect="#path-effect5622"
       inkscape:original-d="m 56.623785,30.128644 c -3.313563,-1.013783 -6.628126,-2.026566 -9.943689,-3.038349 -0.551533,1.748688 -1.103854,3.497705 -1.657281,5.248058 -1.74955,1.196744 -3.497706,2.392851 -5.248059,3.590777 1.106579,1.7495 2.210709,3.497705 3.314563,5.248058 -2.853636,1.748616 -5.707414,3.497705 -8.562621,5.248058 -1.933289,0.827981 -3.86599,1.656282 -5.800485,2.485922 -0.828158,3.592018 -1.656282,7.180554 -2.485922,10.77233 0.277303,0.459506 0.553427,0.919712 0.82864,1.381068 -2.85503,2.210121 -5.707414,4.418417 -8.562621,6.629126 1.566819,2.485889 3.131421,4.970845 4.695631,7.457767 -0.827729,2.024782 -1.656281,4.050133 -2.485922,6.076699 -0.828135,2.117899 -1.656282,4.234275 -2.485922,6.352912 2.119844,2.209968 4.236275,4.418418 6.352912,6.629126 -0.643505,2.484947 -1.287997,4.970845 -1.933495,7.457764 0.001,1.74919 0.001,3.49771 0,5.24806 0.645867,0.92024 1.289997,1.84043 1.933495,2.76214 0.553548,1.10409 1.105855,2.20871 1.657282,3.31456 -0.275314,1.74899 -0.551427,3.49771 -0.828641,5.24806 1.106568,1.01244 2.210709,2.02456 3.314563,3.03835 0.277202,2.76102 0.553427,5.52327 0.828641,8.28641 1.01411,1.56471 2.026566,3.12942 3.038349,4.69563 1.290202,-0.001 2.578994,-0.001 3.86699,0 2.668994,2.57499 5.34113,5.15498 8.010194,7.73398 1.197918,0.64349 2.394851,1.28799 3.590777,1.93349 1.289611,-0.73735 2.578993,-1.47414 3.86699,-2.20971 0.920866,1.47079 1.842424,2.94528 2.762136,4.41942 2.487377,0.27526 4.972845,0.55143 7.457767,0.82864 1.657696,-0.46119 3.315563,-0.92171 4.971844,-1.38107 1.105064,0.64304 2.210709,1.288 3.314564,1.9335 1.105543,-0.18509 2.210708,-0.36929 3.314563,-0.55243 1.564602,-1.47262 3.13142,-2.94728 4.695631,-4.41942 0.829095,-1.10512 1.658281,-2.2107 2.485922,-3.31456 1.241489,-0.76649 2.980613,-1.83969 3.725236,-2.29881 -0.50966,-0.43927 -1.69128,-1.45339 -2.551328,-2.18966 -1.057819,-2.92426 -2.116637,-5.84752 -3.176457,-8.76978 -0.160124,-2.21072 -0.321249,-4.42042 -0.483373,-6.62913 -0.384004,-3.0121 -0.76908,-6.02376 -1.15512,-9.03414 -0.09107,-1.01379 -0.183143,-2.02657 -0.276214,-3.03835 0.553425,-2.67106 1.105854,-5.34113 1.657282,-8.010198 -0.09107,-1.56621 -0.183143,-3.131421 -0.276214,-4.695631 0.461356,-1.842423 0.921712,-3.683848 1.381068,-5.524272 0.09307,-1.474139 0.185142,-2.947278 0.276214,-4.419417 0.754324,-1.132821 1.50765,-2.264643 2.259974,-3.395464 1.012762,-0.276935 2.026566,-0.553427 3.038349,-0.828641 2.300088,-1.472416 4.60456,-2.947278 6.90534,-4.419417 0.553148,-0.645173 1.105854,-1.289997 1.657281,-1.933495 3.401976,0.182836 6.814271,0.367284 10.219901,0.552427 2.99248,-0.783386 5.98563,-1.56621 8.97695,-2.347815 1.10585,1.380068 2.21061,2.761014 3.31456,4.143204 5.06536,-10e-4 10.12883,-10e-4 15.19175,0 1.47414,1.241962 2.94704,2.484723 4.41941,3.728883 0.69165,2.715535 1.38171,5.429796 2.0716,8.148301 0.92219,2.30197 1.84222,4.602039 2.76214,6.90534 0.0931,1.7027 0.1851,3.404864 0.27621,5.109945 -0.27534,2.94661 -0.55133,5.89048 -0.82864,8.83884 0.001,2.20952 0.001,4.41742 0,6.62912 0.92213,2.57816 1.84243,5.15499 2.76214,7.73398 -3.49754,5.21621 -10.49562,15.65161 -10.49562,15.65161 0,0 4.14373,2.04319 6.90484,3.40713 1.38207,1.65629 2.76314,3.31356 4.14321,4.97184 3.31556,0.82765 6.63012,1.65629 9.94368,2.48593 1.47414,-3.03935 2.94728,-6.07769 4.41942,-9.11505 6.53806,0.36729 13.07511,0.73558 19.61117,1.10486 0.18514,-5.34113 0.39161,-11.32872 0.55243,-16.02039 3.80368,-2.18551 9.3909,-5.3952 12.98203,-7.45777 -0.30471,-2.29385 -0.73606,-5.52894 -1.10485,-8.28641 0.001,-0.82854 0.001,-1.65828 0,-2.48592 1.01378,-0.55342 2.02656,-1.10585 3.03835,-1.65728 0.18514,-1.9345 0.36928,-3.86799 0.55242,-5.80048 1.26718,-1.16809 2.53336,-2.335172 3.79854,-3.501257 -2.59806,-2.802232 -5.19712,-5.603461 -7.79718,-8.403693 2.71495,-2.845953 5.4289,-5.690906 8.14185,-8.53486 -1.55879,-1.750353 -3.11858,-3.499706 -4.67937,-5.248059 1.10043,-2.671064 2.19987,-5.341129 3.2983,-8.010194 -0.73557,-1.105854 -1.47214,-2.210708 -2.20971,-3.314563 -0.18314,-2.855208 -0.36729,-5.709413 -0.55243,-8.562621 -1.47214,-1.474139 -2.94527,-2.947276 -4.41941,-4.419417 -0.73557,-1.934497 -1.47214,-3.86799 -2.20971,-5.800485 -1.288,-1.013783 -2.57686,-2.026462 -3.86699,-3.03835 -1.28813,-2.026774 -2.57699,-4.052135 -3.86699,-6.076699 -0.55143,-1.382066 -1.10385,-2.763138 -1.65728,-4.143204 -2.76113,-0.645497 -5.52254,-1.289825 -8.28641,-1.933495 -2.1172,-0.921956 -4.2338,-1.842216 -6.35291,-2.762136 -1.1962,-2.303298 -2.39285,-4.604561 -3.59078,-6.905339 -2.57699,-0.921711 -5.15442,-1.84222 -7.73398,-2.762136 -3.49848,-1.106098 -6.99578,-2.210509 -10.49612,-3.314563 -2.11702,0.09109 -4.23427,0.183143 -6.35291,0.276214 -3.13391,-0.738626 -6.25984,-1.474139 -9.39126,-2.209709 -2.85387,-1.6586651 -5.70742,-3.3155629 -8.56262,-4.9718444 -3.22185,0.4594065 -6.44399,0.9197119 -9.66748,1.3810679 -0.82793,-0.2773096 -1.65628,-0.5534272 -2.48592,-0.8286408 -3.03955,-1.1987921 -6.0757,-2.394851 -9.115049,-3.5907766 -2.8537,1.0119581 -5.707414,2.0245663 -8.562621,3.0383495 -2.025421,0.55166 -4.050133,1.1038543 -6.076699,1.6572815 C 79.27333,8.214646 77.617018,8.1226287 75.958736,8.0315575 74.854254,9.41241 73.750028,10.792693 72.644173,12.174761 c -1.381165,0.8283 -2.761136,1.656282 -4.143204,2.485923 -2.855638,-0.553898 -5.707414,-1.105855 -8.562621,-1.657282 -0.919962,1.288348 -1.840424,2.576994 -2.762136,3.86699 -1.104827,1.565589 -2.208708,3.129421 -3.314563,4.695631 0.922382,1.288935 1.842424,2.576994 2.762136,3.86699 -1.196101,0.18317 -2.392851,0.367285 -3.590776,0.552428 1.199052,1.381368 2.394851,2.761135 3.590776,4.143203 z"
       sodipodi:nodetypes="ccccccccccccccccccccccccccccccccccccccccccccccccccccccccccccccccaacccccccccccccccccccccccccccccccccccccc" />
  </g>
</svg>
