<?xml version="1.0" encoding="UTF-8" standalone="no"?>
<!-- Created with Inkscape (http://www.inkscape.org/) -->

<svg
   xmlns:dc="http://purl.org/dc/elements/1.1/"
   xmlns:cc="http://creativecommons.org/ns#"
   xmlns:rdf="http://www.w3.org/1999/02/22-rdf-syntax-ns#"
   xmlns:svg="http://www.w3.org/2000/svg"
   xmlns="http://www.w3.org/2000/svg"
   xmlns:sodipodi="http://sodipodi.sourceforge.net/DTD/sodipodi-0.dtd"
   xmlns:inkscape="http://www.inkscape.org/namespaces/inkscape"
   width="200px"
   height="200px"
   viewBox="0 0 200 200"
   version="1.1"
   id="SVGRoot"
   sodipodi:docname="hair-4-1.svg"
   inkscape:version="0.92.4 (5da689c313, 2019-01-14)">
  <defs
     id="defs909">
    <inkscape:path-effect
       effect="bspline"
       id="path-effect12527"
       is_visible="true"
       weight="33.333333"
       steps="2"
       helper_size="0"
       apply_no_weight="true"
       apply_with_weight="true"
       only_selected="false" />
    <inkscape:path-effect
       effect="bspline"
       id="path-effect12520"
       is_visible="true"
       weight="33.333333"
       steps="2"
       helper_size="0"
       apply_no_weight="true"
       apply_with_weight="true"
       only_selected="false" />
    <inkscape:path-effect
       effect="bspline"
       id="path-effect1868"
       is_visible="true"
       weight="33.333333"
       steps="2"
       helper_size="0"
       apply_no_weight="true"
       apply_with_weight="true"
       only_selected="false" />
    <inkscape:path-effect
       effect="bspline"
       id="path-effect1853"
       is_visible="true"
       weight="33.333333"
       steps="2"
       helper_size="0"
       apply_no_weight="true"
       apply_with_weight="true"
       only_selected="false" />
    <inkscape:path-effect
       effect="bspline"
       id="path-effect13467"
       is_visible="true"
       weight="33.333333"
       steps="2"
       helper_size="0"
       apply_no_weight="true"
       apply_with_weight="true"
       only_selected="false" />
    <inkscape:path-effect
       effect="bspline"
       id="path-effect13451"
       is_visible="true"
       weight="33.333333"
       steps="2"
       helper_size="0"
       apply_no_weight="true"
       apply_with_weight="true"
       only_selected="false" />
    <inkscape:path-effect
       effect="bspline"
       id="path-effect13443"
       is_visible="true"
       weight="33.333333"
       steps="2"
       helper_size="0"
       apply_no_weight="true"
       apply_with_weight="true"
       only_selected="false" />
  </defs>
  <sodipodi:namedview
     id="base"
     pagecolor="#ffffff"
     bordercolor="#666666"
     borderopacity="1.0"
     inkscape:pageopacity="0.0"
     inkscape:pageshadow="2"
     inkscape:zoom="3.6203868"
     inkscape:cx="69.266486"
     inkscape:cy="87.685545"
     inkscape:document-units="px"
     inkscape:current-layer="layer1"
     showgrid="false"
     inkscape:window-width="1920"
     inkscape:window-height="1001"
     inkscape:window-x="-9"
     inkscape:window-y="-9"
     inkscape:window-maximized="1"
     showguides="false" />
  <metadata
     id="metadata912">
    <rdf:RDF>
      <cc:Work
         rdf:about="">
        <dc:format>image/svg+xml</dc:format>
        <dc:type
           rdf:resource="http://purl.org/dc/dcmitype/StillImage" />
        <dc:title></dc:title>
      </cc:Work>
    </rdf:RDF>
  </metadata>
  <g
     inkscape:label="Layer 1"
     inkscape:groupmode="layer"
     id="layer1">
    <path
       transform="translate(-0.0470301,-0.50780793)"
       style="fill:#dd925d;fill-opacity:1;stroke:#000000;stroke-width:0;stroke-linecap:butt;stroke-linejoin:miter;stroke-miterlimit:4;stroke-dasharray:none;stroke-opacity:1"
       d="m 114.16848,56.092854 c -2.2096,-1.427057 -5.5702,-3.406585 -9.39108,-4.718657 -3.82089,-1.312072 -8.101814,-1.956513 -13.004959,-1.427185 -4.903145,0.529328 -10.426345,2.232315 -15.05676,5.44821 -4.630415,3.215894 -8.364113,7.941889 -11.475394,10.675313 -3.111281,2.733425 -5.595398,3.469459 -7.530137,3.584883 -1.934739,0.115423 -3.315703,-0.390931 -4.696771,-0.897322 1.033801,1.487206 1.962817,2.823672 3.560073,4.015217 1.597256,1.191545 3.221627,1.780276 4.726165,2.080646 1.504539,0.300369 2.532127,0.211013 3.590946,0.118942 -1.749353,0.920712 -3.496315,1.840166 -5.131793,2.301151 -1.635478,0.460985 -3.152614,0.460985 -4.189097,0.460985 -1.036483,0 -1.589547,0 -2.141974,0 1.15089,1.058819 2.301824,2.117678 3.591264,2.693132 1.289441,0.575455 2.716545,0.667527 4.304794,0.736563 1.588249,0.06904 3.337601,0.115072 5.941991,-0.338719 2.604389,-0.45379 6.063602,-1.407054 9.909911,-3.44848 3.84631,-2.041427 8.083393,-5.173184 11.926948,-7.47461 3.843555,-2.301426 7.297142,-3.774956 10.680084,-4.534285 3.382939,-0.759329 6.698659,-0.80538 9.437479,-0.92048 2.73882,-0.1151 4.90316,-0.299299 6.35284,-1.174141 1.44968,-0.874842 2.18662,-2.440833 2.02567,-3.659796 -0.16096,-1.218964 -1.22059,-2.09431 -3.4302,-3.521367 z"
       id="path13441"
       inkscape:connector-curvature="0"
       inkscape:path-effect="#path-effect13443"
       inkscape:original-d="m 115.31917,56.645149 c -3.3596,-1.980531 -6.72019,-3.960062 -10.08179,-5.938592 -4.2807,-0.645557 -8.561625,-1.289997 -12.843935,-1.933496 -5.524344,1.702648 -11.047544,3.405635 -16.572816,5.109952 -3.735234,4.728205 -7.468932,9.4542 -11.20628,14.184549 -2.485535,0.735751 -4.969652,1.471786 -7.457766,2.209708 -1.38073,-0.507634 -4.143204,-1.519174 -4.143204,-1.519174 0,0 1.96396,2.822878 3.101402,4.461619 2.056363,0.743939 3.680734,1.33267 5.599326,2.0294 1.08997,-0.09569 3.176456,-0.276214 3.176456,-0.276214 0,0 -3.49651,1.839795 -5.248058,2.762136 -1.519213,-0.001 -3.036349,-0.001 -4.557524,0 -0.551791,-0.001 -1.657282,0 -1.657282,0 0,0 2.30278,2.116638 3.45267,3.176456 1.428103,0.09107 2.855207,0.183143 4.281311,0.276214 1.750353,0.04504 3.499705,0.09107 5.248058,0.138107 3.460214,-0.954264 6.919426,-1.907528 10.377639,-2.859792 4.234467,-3.130084 8.47155,-6.261841 12.705825,-9.391262 3.452753,-1.473748 6.90634,-2.947278 10.35801,-4.419417 3.314408,-0.04702 6.630128,-0.09307 9.943688,-0.138107 2.16401,-0.185086 4.32835,-0.369285 6.49102,-0.552427 0.7372,-1.565431 1.47414,-3.131421 2.20971,-4.695631 -1.05701,-0.875004 -2.11664,-1.750353 -3.17646,-2.624029 z"
       sodipodi:nodetypes="ccccccccccccccccccccccc" />
    <path
       transform="translate(-0.0470301,-0.50780793)"
       style="fill:#dd925d;fill-opacity:1;stroke:#000000;stroke-width:0;stroke-linecap:butt;stroke-linejoin:miter;stroke-miterlimit:4;stroke-dasharray:none;stroke-opacity:1"
       d="m 71.855983,95.495046 c 0.907228,-0.121831 1.815571,-0.243812 2.475724,-0.02063 0.660152,0.223183 1.074473,0.791407 1.281697,1.88112 0.207225,1.089712 0.207225,2.701173 0.207225,4.312423 0,0 2.900243,3.59078 2.900243,3.59078 0.138107,-3.17646 0.276259,-6.353955 0.828642,-10.013169 0.552382,-3.659215 1.519447,-7.803777 2.877269,-13.189012 1.357823,-5.385236 3.107669,-12.016233 2.532775,-15.468245 -0.574893,-3.452012 -3.475653,-3.728274 -5.639434,-3.337268 -2.16378,0.391007 -3.590442,1.449499 -5.200818,3.757121 -1.610377,2.307623 -3.400229,5.857912 -3.808277,10.815172 -0.408049,4.95726 0.568391,11.314085 1.544954,17.671707 z"
       id="path13449"
       inkscape:connector-curvature="0"
       inkscape:path-effect="#path-effect13451"
       inkscape:original-d="m 71.855983,95.495046 c 0,0 1.815457,-0.244662 2.721685,-0.365493 0.41532,0.567224 0.829641,1.135448 1.242961,1.704672 0.001,1.611024 0,4.833735 0,4.833735 l 2.900243,3.59078 c 0,0 0.277214,-6.353913 0.414321,-9.529369 0.96743,-4.142845 1.934495,-8.287407 2.900242,-12.429611 1.749859,-6.628255 3.499706,-13.259252 5.248058,-19.887379 -2.898725,-0.277164 -5.799485,-0.553427 -8.700728,-0.82864 -1.426544,1.058146 -2.853207,2.116637 -4.28131,3.176456 -1.79213,3.555792 -3.581982,7.106082 -5.37516,10.661983 0.977812,6.358246 2.929688,19.072866 2.929688,19.072866 z"
       sodipodi:nodetypes="cccccccccccc" />
    <path
       inkscape:connector-curvature="0"
       style="fill:#dd925d;fill-opacity:1;stroke:#000000;stroke-width:0;stroke-linecap:butt;stroke-linejoin:miter;stroke-miterlimit:4;stroke-dasharray:none;stroke-opacity:1"
       d="m 118.73227,55.97852 c -1.42021,-0.06007 -2.74548,0.199567 -3.72657,1.00586 -1.56973,1.290067 -2.25676,3.977468 -1.30664,5.794921 0.95013,1.817454 3.53185,2.75982 5.01368,4.306641 1.48182,1.546821 2.82969,4.106513 3.71275,6.413486 1.04638,2.73366 1.27707,5.714807 1.7995,8.594891 0.80221,4.422512 1.49593,9.668345 2.04831,13.327561 0.55239,3.659214 0.69197,6.83526 0.83008,10.01172 l 2.89844,-3.58985 c 0,-1.61125 0.002,-3.223323 0.20898,-4.443355 0.20726,-1.220032 0.6048,-1.773696 1.24837,-2.118317 0.64356,-0.344622 1.93222,-0.08562 2.8069,0.05248 0.22154,-6.007202 1.07832,-12.123836 0.97431,-15.711125 -0.10401,-3.587289 -0.90143,-7.280954 -2.00803,-10.633197 -1.1066,-3.352243 -3.55843,-6.640005 -5.4881,-8.808594 -1.92968,-2.168589 -4.09867,-3.219172 -6.40821,-3.798828 -0.86608,-0.217371 -1.75139,-0.368253 -2.60351,-0.404297 z"
       id="path13457"
       sodipodi:nodetypes="ccccaacccccccscscc" />
    <path
       style="fill:#dd925d;fill-opacity:1;stroke:#000000;stroke-width:0;stroke-linecap:butt;stroke-linejoin:miter;stroke-miterlimit:4;stroke-dasharray:none;stroke-opacity:1"
       d="m 116.21102,57.307414 c -0.35804,-0.993405 -0.22783,-2.197832 0.42321,-3.157604 0.65103,-0.959771 1.82397,-1.676567 2.82666,-2.034283 1.00269,-0.357715 1.83703,-0.357715 2.67154,-0.357715 -1.16003,0.390625 -2.31886,0.780846 -3.1598,1.464468 -0.84094,0.683623 -1.36132,1.659336 -1.62205,2.457338 -0.26074,0.798003 -0.26074,1.415736 -0.0652,2.083958 0.19554,0.668222 0.58553,1.383207 0.35758,1.350659 -0.22796,-0.03255 -1.0739,-0.813417 -1.43193,-1.806821 z"
       id="path13465"
       inkscape:connector-curvature="0"
       inkscape:path-effect="#path-effect13467"
       inkscape:original-d="m 115.72266,57.519531 c 0.1312,-1.205427 0.26141,-2.409854 0.39062,-3.613281 1.17181,-0.716495 2.34475,-1.433292 3.51563,-2.148438 0.83467,-0.001 2.50352,0 2.50352,0 0,0 -2.31906,0.78025 -3.48009,1.171875 -0.52028,0.976412 -1.04066,1.952125 -1.5625,2.929688 0.001,0.618246 0.001,1.235979 0,1.855469 0.39226,0.716303 0.78225,1.431291 1.17188,2.148437 -0.84577,-0.782632 -1.69171,-1.5635 -2.53906,-2.34375 z"
       transform="translate(-0.8385951,1.0778711)"
       sodipodi:nodetypes="ccccccccc" />
  </g>
</svg>
