<?xml version="1.0" encoding="UTF-8" standalone="no"?>
<!-- Created with Inkscape (http://www.inkscape.org/) -->

<svg
   xmlns:dc="http://purl.org/dc/elements/1.1/"
   xmlns:cc="http://creativecommons.org/ns#"
   xmlns:rdf="http://www.w3.org/1999/02/22-rdf-syntax-ns#"
   xmlns:svg="http://www.w3.org/2000/svg"
   xmlns="http://www.w3.org/2000/svg"
   xmlns:sodipodi="http://sodipodi.sourceforge.net/DTD/sodipodi-0.dtd"
   xmlns:inkscape="http://www.inkscape.org/namespaces/inkscape"
   width="200px"
   height="200px"
   viewBox="0 0 200 200"
   version="1.1"
   id="SVGRoot"
   sodipodi:docname="hair-5-14.svg"
   inkscape:version="0.92.4 (5da689c313, 2019-01-14)">
  <defs
     id="defs909">
    <inkscape:path-effect
       effect="bspline"
       id="path-effect12527"
       is_visible="true"
       weight="33.333333"
       steps="2"
       helper_size="0"
       apply_no_weight="true"
       apply_with_weight="true"
       only_selected="false" />
    <inkscape:path-effect
       effect="bspline"
       id="path-effect12520"
       is_visible="true"
       weight="33.333333"
       steps="2"
       helper_size="0"
       apply_no_weight="true"
       apply_with_weight="true"
       only_selected="false" />
    <inkscape:path-effect
       effect="bspline"
       id="path-effect1868"
       is_visible="true"
       weight="33.333333"
       steps="2"
       helper_size="0"
       apply_no_weight="true"
       apply_with_weight="true"
       only_selected="false" />
    <inkscape:path-effect
       effect="bspline"
       id="path-effect1853"
       is_visible="true"
       weight="33.333333"
       steps="2"
       helper_size="0"
       apply_no_weight="true"
       apply_with_weight="true"
       only_selected="false" />
    <inkscape:path-effect
       effect="bspline"
       id="path-effect1488"
       is_visible="true"
       weight="33.333333"
       steps="2"
       helper_size="0"
       apply_no_weight="true"
       apply_with_weight="true"
       only_selected="false" />
    <inkscape:path-effect
       effect="bspline"
       id="path-effect1492"
       is_visible="true"
       weight="33.333333"
       steps="2"
       helper_size="0"
       apply_no_weight="true"
       apply_with_weight="true"
       only_selected="false" />
    <inkscape:path-effect
       effect="bspline"
       id="path-effect1496"
       is_visible="true"
       weight="33.333333"
       steps="2"
       helper_size="0"
       apply_no_weight="true"
       apply_with_weight="true"
       only_selected="false" />
    <inkscape:path-effect
       effect="bspline"
       id="path-effect1500"
       is_visible="true"
       weight="33.333333"
       steps="2"
       helper_size="0"
       apply_no_weight="true"
       apply_with_weight="true"
       only_selected="false" />
    <inkscape:path-effect
       effect="bspline"
       id="path-effect5622"
       is_visible="true"
       weight="33.333333"
       steps="2"
       helper_size="0"
       apply_no_weight="true"
       apply_with_weight="true"
       only_selected="false" />
  </defs>
  <sodipodi:namedview
     id="base"
     pagecolor="#ffffff"
     bordercolor="#666666"
     borderopacity="1.0"
     inkscape:pageopacity="0.0"
     inkscape:pageshadow="2"
     inkscape:zoom="1.8101934"
     inkscape:cx="-122.42563"
     inkscape:cy="161.41015"
     inkscape:document-units="px"
     inkscape:current-layer="layer1"
     showgrid="false"
     inkscape:window-width="1920"
     inkscape:window-height="1001"
     inkscape:window-x="-9"
     inkscape:window-y="-9"
     inkscape:window-maximized="1"
     showguides="false" />
  <metadata
     id="metadata912">
    <rdf:RDF>
      <cc:Work
         rdf:about="">
        <dc:format>image/svg+xml</dc:format>
        <dc:type
           rdf:resource="http://purl.org/dc/dcmitype/StillImage" />
        <dc:title></dc:title>
      </cc:Work>
    </rdf:RDF>
  </metadata>
  <g
     inkscape:label="Layer 1"
     inkscape:groupmode="layer"
     id="layer1">
    <path
       transform="matrix(0.89166017,0,0,0.89166017,11.613392,9.0108268)"
       style="fill:#dd925d;fill-opacity:1;stroke:#000000;stroke-width:0;stroke-linecap:butt;stroke-linejoin:miter;stroke-miterlimit:4;stroke-dasharray:none;stroke-opacity:1"
       d="m 54.368325,28.931778 c -1.058468,0.184277 -4.373031,-0.828506 -6.306707,-0.460749 -1.933677,0.367758 -2.485998,2.116775 -3.637102,3.590529 -1.151104,1.473755 -2.89926,2.669861 -3.221804,4.143835 -0.322543,1.473974 0.781586,3.222179 -0.09264,4.971435 -0.874222,1.749257 -3.727999,3.498347 -6.12223,4.787614 -2.394231,1.289268 -4.326932,2.117568 -5.708727,4.328072 -1.381795,2.210503 -2.209919,5.79904 -2.486311,7.825118 -0.276391,2.026078 -2.68e-4,2.486284 -1.289533,3.82174 -1.289266,1.335456 -4.14165,3.543752 -4.786482,5.892348 -0.644832,2.348596 0.91977,4.833552 1.288341,7.088933 0.368571,2.255381 -0.459982,4.280732 -1.28888,6.352965 -0.828898,2.072233 -1.657045,4.188609 -1.01219,6.353503 0.644855,2.164895 2.761286,4.373345 3.498016,6.720594 0.736729,2.347248 0.09224,4.833146 -0.230165,6.951295 -0.322402,2.11814 -0.322402,3.86666 -3.9e-5,5.20235 0.322363,1.3357 0.966494,2.25589 1.564986,3.26869 0.598492,1.0128 1.150802,2.11742 1.289047,3.54447 0.138245,1.42706 -0.137868,3.17578 0.276743,4.55776 0.414612,1.38198 1.518748,2.39411 2.20921,4.28104 0.690463,1.88694 0.966688,4.64919 1.611313,6.81344 0.644625,2.16424 1.657083,3.72895 2.808656,4.51168 1.151573,0.78273 2.440365,0.78273 4.418368,2.07073 1.978003,1.28801 4.650137,3.868 6.583799,5.47933 1.933663,1.61133 3.130595,2.25584 4.373778,2.20947 1.243183,-0.0464 2.532565,-0.78315 3.63632,-0.41533 1.103756,0.36781 2.025312,1.8423 3.72938,2.71719 1.704068,0.87488 4.189536,1.15104 6.260999,1.05884 2.071462,-0.0922 3.729329,-0.55272 5.109565,-0.46063 1.380235,0.0921 2.48588,0.73706 3.590991,0.96708 1.105111,0.23002 2.210277,0.0458 3.54445,-0.78245 1.334174,-0.82827 2.900996,-2.30293 4.097552,-3.59164 1.196557,-1.2887 2.025743,-2.39428 3.221957,-2.94615 1.196214,-0.55187 2.762011,-0.55187 4.327221,-0.55187 -0.460356,-1.65728 -0.920898,-3.31523 -1.243106,-4.51203 -0.322208,-1.1968 -0.506423,-1.93366 -1.209716,-3.60975 -0.703293,-1.6761 -1.928069,-4.29704 -3.138327,-6.38878 -1.210259,-2.09173 -2.40713,-3.65687 -3.051587,-5.9131 -0.644457,-2.25622 -0.736524,-5.20235 -0.828628,-7.18193 -0.0921,-1.97957 -0.184162,-2.9922 0.04622,-4.83396 0.230382,-1.84177 0.782722,-4.51141 1.012747,-6.62903 0.230025,-2.117632 0.137965,-3.682646 0.322317,-5.386221 0.184351,-1.703575 0.644638,-3.544722 1.25666,-5.227962 0.612022,-1.68324 1.375145,-3.207756 1.986711,-4.56817 0.611566,-1.360414 1.072253,-2.5582 1.808672,-3.294189 0.73642,-0.735988 1.750224,-1.01248 3.406148,-1.886506 1.655925,-0.874026 3.960397,-2.348888 5.387239,-3.407707 1.426841,-1.058819 1.979547,-1.703642 3.956261,-1.933412 1.976714,-0.229771 5.389006,-0.04532 7.828646,0.138823 2.43964,0.184145 3.91319,0.368338 5.20139,1.150425 1.28819,0.782088 2.39369,2.163964 4.41967,3.499216 2.02598,1.335253 4.972,2.624136 7.25533,4.189073 2.28332,1.564937 3.90434,3.406217 4.71513,5.293573 0.81078,1.887356 0.81078,3.819368 1.27127,5.93843 0.46049,2.119062 1.38045,4.418944 2.07117,6.122747 0.69073,1.70381 1.15073,2.8078 1.24302,4.83404 0.0923,2.02625 -0.18368,4.96982 -0.3219,7.54895 -0.13822,2.57913 -0.13822,4.78676 -0.6906,6.9975 -0.55237,2.21073 -1.65673,4.41946 -2.78941,6.49093 -1.13269,2.07147 -2.29364,4.00525 -3.02908,5.54222 -0.73543,1.53696 -1.04507,2.6772 -1.35458,3.81696 0.76986,0.0572 1.54073,0.11441 2.0171,0.51074 0.47638,0.39632 0.6606,1.1332 1.25966,1.96266 0.59906,0.82946 1.61087,1.74929 3.54476,2.25567 1.93389,0.50639 4.78823,0.59846 6.90511,1.47279 2.11688,0.87433 3.49842,2.53217 5.84663,3.77527 2.34821,1.2431 5.66277,2.07174 8.05655,0.9662 2.39379,-1.10554 3.86693,-4.14389 7.30427,-5.37502 3.43734,-1.23112 8.83856,-0.65632 11.63081,-3.03965 2.79225,-2.38334 2.97639,-7.72356 5.2327,-11.63625 2.25632,-3.9127 7.30373,-6.81228 8.9532,-8.99986 1.64948,-2.18757 1.21945,-5.4128 1.03561,-7.20596 -0.18384,-1.79315 -0.18384,-2.62274 0.32329,-3.31318 0.50714,-0.69044 1.51963,-1.2427 2.11756,-2.48609 0.59794,-1.24339 0.78204,-3.17647 1.50778,-4.72679 0.72573,-1.55033 1.9917,-2.717218 1.32459,-4.701058 -0.66711,-1.98384 -3.2659,-4.784783 -3.20789,-7.608434 0.058,-2.823651 2.77183,-5.668471 3.34836,-7.965187 0.57653,-2.296715 -0.98318,-4.045981 -1.21305,-6.256343 -0.22987,-2.210362 0.86949,-4.880269 1.05057,-6.767285 0.18108,-1.887016 -0.55543,-2.99178 -1.01575,-4.971755 -0.46032,-1.979975 -0.64445,-4.833994 -1.47309,-6.99723 -0.82863,-2.163236 -2.30171,-3.636316 -3.40668,-5.339939 -1.10497,-1.703622 -1.84152,-3.637048 -2.85414,-5.109876 -1.01263,-1.472828 -2.30147,-2.485489 -3.59075,-4.005 -1.28927,-1.519512 -2.57814,-3.544869 -3.49889,-5.248356 -0.92075,-1.703487 -1.47314,-3.084476 -3.12997,-4.096919 -1.65684,-1.012442 -4.41804,-1.656722 -6.291,-2.542981 -1.87295,-0.886258 -2.85449,-2.013191 -3.94404,-3.728085 -1.08954,-1.714895 -2.2862,-4.016159 -4.17307,-5.627037 -1.88686,-1.610878 -4.46528,-2.531742 -7.50399,-3.544651 -3.03871,-1.012908 -6.53664,-2.117517 -8.7001,-2.440154 -2.16347,-0.322636 -2.99196,0.137637 -4.97397,-5.83e-4 -1.98201,-0.13822 -5.10794,-0.873733 -8.10079,-2.070845 -2.99285,-1.1971121 -5.84639,-2.8540117 -8.88452,-3.4526186 -3.03812,-0.5986069 -6.26026,-0.1383014 -8.28623,-0.046099 -2.02597,0.092203 -2.85432,-0.1839143 -4.78895,-0.9209139 -1.93464,-0.7369996 -4.970785,-1.9330586 -7.91697,-2.025359 -2.946186,-0.092301 -5.7999,0.9203077 -8.240223,1.7030814 -2.440323,0.7827737 -4.465035,1.3349678 -6.307065,1.5653065 -1.84203,0.2303388 -3.498342,0.1383214 -4.879756,0.7826371 -1.381414,0.6443157 -2.48564,2.0245983 -3.729001,3.1299783 -1.243361,1.10538 -2.623332,1.933362 -4.742384,2.071662 -2.119053,0.1383 -4.970829,-0.413657 -6.858397,-0.04584 -1.887568,0.367817 -2.80803,1.656464 -3.821303,3.084254 -1.013273,1.427791 -2.117154,2.991623 -2.209359,4.41967 -0.09221,1.428048 0.827836,2.716107 0.690273,3.452697 -0.137564,0.736591 -1.334314,0.920707 -1.334347,1.704011 -3.3e-5,0.783304 1.195766,2.163071 0.137297,2.347349 z"
       id="path5620"
       inkscape:connector-curvature="0"
       inkscape:path-effect="#path-effect5622"
       inkscape:original-d="m 56.623785,30.128644 c -3.313563,-1.013783 -6.628126,-2.026566 -9.943689,-3.038349 -0.551533,1.748688 -1.103854,3.497705 -1.657281,5.248058 -1.74955,1.196744 -3.497706,2.392851 -5.248059,3.590777 1.106579,1.7495 2.210709,3.497705 3.314563,5.248058 -2.853636,1.748616 -5.707414,3.497705 -8.562621,5.248058 -1.933289,0.827981 -3.86599,1.656282 -5.800485,2.485922 -0.828158,3.592018 -1.656282,7.180554 -2.485922,10.77233 0.277303,0.459506 0.553427,0.919712 0.82864,1.381068 -2.85503,2.210121 -5.707414,4.418417 -8.562621,6.629126 1.566819,2.485889 3.131421,4.970845 4.695631,7.457767 -0.827729,2.024782 -1.656281,4.050133 -2.485922,6.076699 -0.828135,2.117899 -1.656282,4.234275 -2.485922,6.352912 2.119844,2.209968 4.236275,4.418418 6.352912,6.629126 -0.643505,2.484947 -1.287997,4.970845 -1.933495,7.457764 0.001,1.74919 0.001,3.49771 0,5.24806 0.645867,0.92024 1.289997,1.84043 1.933495,2.76214 0.553548,1.10409 1.105855,2.20871 1.657282,3.31456 -0.275314,1.74899 -0.551427,3.49771 -0.828641,5.24806 1.106568,1.01244 2.210709,2.02456 3.314563,3.03835 0.277202,2.76102 0.553427,5.52327 0.828641,8.28641 1.01411,1.56471 2.026566,3.12942 3.038349,4.69563 1.290202,-0.001 2.578994,-0.001 3.86699,0 2.668994,2.57499 5.34113,5.15498 8.010194,7.73398 1.197918,0.64349 2.394851,1.28799 3.590777,1.93349 1.289611,-0.73735 2.578993,-1.47414 3.86699,-2.20971 0.920866,1.47079 1.842424,2.94528 2.762136,4.41942 2.487377,0.27526 4.972845,0.55143 7.457767,0.82864 1.657696,-0.46119 3.315563,-0.92171 4.971844,-1.38107 1.105064,0.64304 2.210709,1.288 3.314564,1.9335 1.105543,-0.18509 2.210708,-0.36929 3.314563,-0.55243 1.564602,-1.47262 3.13142,-2.94728 4.695631,-4.41942 0.829095,-1.10512 1.658281,-2.2107 2.485922,-3.31456 1.564624,-0.001 4.695631,0 4.695631,0 0,0 -0.919712,-3.31556 -1.381068,-4.97184 -0.183068,-0.73728 -0.367285,-1.47414 -0.552427,-2.20971 -1.22127,-2.61696 -2.446046,-5.2379 -3.670816,-7.85531 -1.195847,-1.56639 -2.392716,-3.13153 -3.590776,-4.69563 -0.09095,-2.94743 -0.183018,-5.89356 -0.276214,-8.83883 -0.09095,-1.01395 -0.183012,-2.02658 -0.276214,-3.03835 0.553607,-2.67147 1.105947,-5.34111 1.657282,-8.010198 -0.09095,-1.566414 -0.183015,-3.131428 -0.276214,-4.695631 0.461511,-1.842679 0.921797,-3.683826 1.381068,-5.524272 0.76443,-1.526008 1.527553,-3.050524 2.289748,-4.574304 0.461025,-1.197066 0.921712,-2.394852 1.381068,-3.590777 1.012762,-0.276935 2.026566,-0.553427 3.038349,-0.828641 2.300088,-1.472416 4.60456,-2.947278 6.90534,-4.419417 0.553148,-0.645173 1.105854,-1.289997 1.657281,-1.933495 3.401976,0.182836 6.814271,0.367284 10.219901,0.552427 1.47373,0.183091 2.94728,0.367285 4.41942,0.552427 1.10521,1.37926 2.21071,2.761136 3.31456,4.143204 2.94754,1.28811 5.89356,2.576993 8.83884,3.86699 1.62203,1.84004 3.24305,3.681316 4.86343,5.524272 0.001,1.932804 0.001,3.864816 0,5.800485 0.92234,2.301912 1.84229,4.601796 2.76214,6.90534 0.46161,1.10404 0.9216,2.20804 1.38106,3.31456 -0.27523,2.94662 -0.55119,5.89019 -0.82864,8.83884 0.001,2.20952 0.001,4.41715 0,6.62912 -1.1043,2.20973 -2.20866,4.41845 -3.31456,6.62913 -1.15959,1.93224 -2.32054,3.86602 -3.48236,5.80048 -0.30862,1.13948 -0.92853,3.41927 -0.92853,3.41927 0,0 1.54082,0.11322 2.30959,0.17151 0.18507,0.73525 0.36929,1.47214 0.55243,2.20971 1.01475,0.92059 2.02657,1.84042 3.03835,2.76214 2.85507,0.0911 5.70941,0.18314 8.56262,0.27621 1.3816,1.65572 2.76314,3.31356 4.14321,4.97184 3.31556,0.82765 6.63012,1.65629 9.94368,2.48593 1.47414,-3.03935 2.94728,-6.0777 4.41942,-9.11505 5.40225,0.57367 10.80347,1.14848 16.20365,1.72441 0.18527,-5.34134 0.36941,-10.68156 0.55243,-16.02039 4.32832,-2.48696 9.37573,-5.38654 12.98203,-7.45777 -0.30589,-2.30373 -0.73592,-5.52896 -1.10485,-8.28641 0.001,-0.82869 0.001,-1.65828 0,-2.48592 1.01405,-0.55363 2.02654,-1.1059 3.03835,-1.65728 0.18529,-1.9349 0.36939,-3.86798 0.55242,-5.80049 1.26739,-1.168287 2.53336,-2.335173 3.79854,-3.501252 -2.5982,-2.802633 -5.19699,-5.603579 -7.79718,-8.403693 2.71508,-2.84608 5.4289,-5.690904 8.14185,-8.53486 -1.55874,-1.750551 -3.11845,-3.49982 -4.67937,-5.248059 1.10056,-2.671197 2.19993,-5.341104 3.2983,-8.010194 -0.73549,-1.106037 -1.472,-2.210802 -2.20971,-3.314563 -0.18303,-2.855402 -0.36716,-5.709422 -0.55243,-8.562621 -1.47207,-1.474319 -2.94515,-2.947398 -4.41941,-4.419417 -0.73545,-1.934619 -1.47199,-3.868046 -2.20971,-5.800485 -1.28792,-1.013939 -2.57676,-2.0266 -3.86699,-3.03835 -1.28799,-2.026865 -2.57685,-4.052225 -3.86699,-6.076699 -0.55131,-1.382209 -1.10371,-2.763197 -1.65728,-4.143204 -2.76114,-0.645648 -5.52234,-1.289929 -8.28641,-1.933495 -0.98096,-1.12868 -1.9625,-2.255612 -2.94539,-3.381685 -1.1962,-2.303296 -2.39286,-4.604559 -3.59078,-6.905339 -2.57657,-0.921561 -5.15499,-1.842424 -7.73398,-2.762136 -3.49848,-1.106099 -6.99641,-2.210709 -10.49612,-3.314563 -0.82779,0.459438 -1.65628,0.919712 -2.48592,1.381068 -3.13391,-0.738626 -6.25984,-1.474139 -9.39126,-2.209709 -2.85387,-1.6586651 -5.70742,-3.3155629 -8.56262,-4.9718444 -3.22185,0.4594065 -6.44399,0.9197119 -9.66748,1.3810679 -0.82793,-0.2773096 -1.65628,-0.5534272 -2.48592,-0.8286408 -3.03955,-1.1987921 -6.0757,-2.394851 -9.115049,-3.5907766 -2.8537,1.0119581 -5.707414,2.0245663 -8.562621,3.0383495 -2.025421,0.55166 -4.050133,1.1038543 -6.076699,1.6572815 C 79.27333,8.214646 77.617018,8.1226287 75.958736,8.0315575 74.854254,9.41241 73.750028,10.792693 72.644173,12.174761 c -1.381165,0.8283 -2.761136,1.656282 -4.143204,2.485923 -2.855638,-0.553898 -5.707414,-1.105855 -8.562621,-1.657282 -0.919962,1.288348 -1.840424,2.576994 -2.762136,3.86699 -1.104827,1.565589 -2.208708,3.129421 -3.314563,4.695631 0.922382,1.288935 1.842424,2.576994 2.762136,3.86699 -1.196101,0.18317 -2.392851,0.367285 -3.590776,0.552428 1.199052,1.381368 2.394851,2.761135 3.590776,4.143203 z"
       sodipodi:nodetypes="cccccccccccccccccccccccccccccccccccccccccccccccccccccccccccccccccccccaacccccccccccccccccccccccccccccccccccccc" />
  </g>
</svg>
