<?xml version="1.0" encoding="UTF-8" standalone="no"?>
<!-- Created with Inkscape (http://www.inkscape.org/) -->

<svg
   xmlns:dc="http://purl.org/dc/elements/1.1/"
   xmlns:cc="http://creativecommons.org/ns#"
   xmlns:rdf="http://www.w3.org/1999/02/22-rdf-syntax-ns#"
   xmlns:svg="http://www.w3.org/2000/svg"
   xmlns="http://www.w3.org/2000/svg"
   xmlns:sodipodi="http://sodipodi.sourceforge.net/DTD/sodipodi-0.dtd"
   xmlns:inkscape="http://www.inkscape.org/namespaces/inkscape"
   width="200px"
   height="200px"
   viewBox="0 0 200 200"
   version="1.1"
   id="SVGRoot"
   sodipodi:docname="hair-2-13.svg"
   inkscape:version="0.92.4 (5da689c313, 2019-01-14)">
  <defs
     id="defs909">
    <inkscape:path-effect
       effect="bspline"
       id="path-effect12527"
       is_visible="true"
       weight="33.333333"
       steps="2"
       helper_size="0"
       apply_no_weight="true"
       apply_with_weight="true"
       only_selected="false" />
    <inkscape:path-effect
       effect="bspline"
       id="path-effect12520"
       is_visible="true"
       weight="33.333333"
       steps="2"
       helper_size="0"
       apply_no_weight="true"
       apply_with_weight="true"
       only_selected="false" />
    <inkscape:path-effect
       effect="bspline"
       id="path-effect1868"
       is_visible="true"
       weight="33.333333"
       steps="2"
       helper_size="0"
       apply_no_weight="true"
       apply_with_weight="true"
       only_selected="false" />
    <inkscape:path-effect
       effect="bspline"
       id="path-effect1853"
       is_visible="true"
       weight="33.333333"
       steps="2"
       helper_size="0"
       apply_no_weight="true"
       apply_with_weight="true"
       only_selected="false" />
    <inkscape:path-effect
       effect="bspline"
       id="path-effect1488"
       is_visible="true"
       weight="33.333333"
       steps="2"
       helper_size="0"
       apply_no_weight="true"
       apply_with_weight="true"
       only_selected="false" />
    <inkscape:path-effect
       effect="bspline"
       id="path-effect1492"
       is_visible="true"
       weight="33.333333"
       steps="2"
       helper_size="0"
       apply_no_weight="true"
       apply_with_weight="true"
       only_selected="false" />
    <inkscape:path-effect
       effect="bspline"
       id="path-effect1496"
       is_visible="true"
       weight="33.333333"
       steps="2"
       helper_size="0"
       apply_no_weight="true"
       apply_with_weight="true"
       only_selected="false" />
    <inkscape:path-effect
       effect="bspline"
       id="path-effect1500"
       is_visible="true"
       weight="33.333333"
       steps="2"
       helper_size="0"
       apply_no_weight="true"
       apply_with_weight="true"
       only_selected="false" />
    <inkscape:path-effect
       only_selected="false"
       apply_with_weight="true"
       apply_no_weight="true"
       helper_size="0"
       steps="2"
       weight="33.333333"
       is_visible="true"
       id="path-effect13461"
       effect="bspline" />
    <inkscape:path-effect
       only_selected="false"
       apply_with_weight="true"
       apply_no_weight="true"
       helper_size="0"
       steps="2"
       weight="33.333333"
       is_visible="true"
       id="path-effect13465"
       effect="bspline" />
  </defs>
  <sodipodi:namedview
     id="base"
     pagecolor="#ffffff"
     bordercolor="#666666"
     borderopacity="1.0"
     inkscape:pageopacity="0.0"
     inkscape:pageshadow="2"
     inkscape:zoom="5.12"
     inkscape:cx="21.660647"
     inkscape:cy="74.698409"
     inkscape:document-units="px"
     inkscape:current-layer="layer1"
     showgrid="false"
     inkscape:window-width="1920"
     inkscape:window-height="1001"
     inkscape:window-x="-9"
     inkscape:window-y="-9"
     inkscape:window-maximized="1"
     showguides="false" />
  <metadata
     id="metadata912">
    <rdf:RDF>
      <cc:Work
         rdf:about="">
        <dc:format>image/svg+xml</dc:format>
        <dc:type
           rdf:resource="http://purl.org/dc/dcmitype/StillImage" />
        <dc:title></dc:title>
      </cc:Work>
    </rdf:RDF>
  </metadata>
  <g
     inkscape:label="Layer 1"
     inkscape:groupmode="layer"
     id="layer1">
    <g
       id="layer1-1"
       inkscape:label="Layer 1"
       transform="matrix(1.0699435,0,0,1.0830768,-6.817761,-6.2347395)">
      <path
         inkscape:original-d="m 98.884465,52.916264 c -2.945279,0.183143 -5.891557,0.367285 -8.838835,0.552428 -2.531868,0.505573 -5.062916,1.011783 -7.595874,1.519174 -3.425575,2.035759 -6.847509,4.069722 -10.275227,6.10749 -1.334763,3.821936 -2.66874,7.639871 -4.005097,11.462864 -2.715958,3.452754 -5.43053,6.903481 -8.148301,10.35801 -1.702844,0.597701 -3.404441,1.195559 -5.109951,1.795388 1.981928,-9.24e-4 3.960061,-9.24e-4 5.938592,0 -0.27527,1.05786 -0.551195,2.115575 -0.828641,3.176456 1.033269,1.924377 2.063343,3.845464 3.093674,5.769695 -1.887452,2.486229 -3.773919,4.970844 -5.662379,7.457771 -1.10435,0.27533 -3.314563,0.82864 -3.314563,0.82864 0,0 2.671065,0.91971 4.005097,1.38106 -1.011339,2.02368 -2.024566,4.05014 -3.038349,6.0767 -1.519075,0.96632 -4.557524,2.90025 -4.557524,2.90025 0,0 3.13142,1.01178 4.695631,1.51917 1.303791,0.007 2.607617,0.0155 3.909949,0.0246 -0.388479,1.81017 -0.777676,3.62026 -1.168286,5.4335 1.758493,0.0369 3.513879,0.0747 5.269336,0.11347 0.737214,1.04209 1.473481,2.08508 2.208903,3.12913 -2.303027,1.56574 -6.905339,4.69563 -6.905339,4.69563 0,0 3.591776,0.73557 5.386165,1.10485 -0.321113,1.05737 -0.966748,3.17646 -0.966748,3.17646 0,0 3.591777,-1.10585 5.386165,-1.65728 0.36904,0.59706 0.73757,1.19592 1.104854,1.79539 -0.505627,0.73591 -1.519174,2.20971 -1.519174,2.20971 0,0 5.525271,-0.6455 8.286407,-0.96675 0.875927,-0.4615 1.751023,-0.92213 2.625007,-1.38174 0.610838,0.11641 1.829884,0.35205 1.829884,0.35205 0,0 -3.284916,-3.76046 -4.928748,-5.63927 -0.967144,-2.88027 -1.935304,-5.75986 -2.904268,-8.63814 -0.0028,-2.01976 -0.0066,-4.03762 -0.01135,-6.05689 -0.48078,-1.94979 -0.96192,-3.89634 -1.444265,-5.84305 -0.597305,-1.5658 -1.195926,-3.13142 -1.795389,-4.69563 -0.08207,-1.680707 -0.165135,-3.361584 -0.249099,-5.040899 1.372914,-0.06997 2.745043,-0.139032 4.116089,-0.20716 0.64513,1.471295 1.289997,2.945278 1.933496,4.419419 -0.321353,0.78185 -0.966748,2.34781 -0.966748,2.34781 0,0 2.486922,-2.671061 3.728883,-4.005094 0.277,-2.990995 0.553428,-5.985627 0.828641,-8.976941 1.243511,-2.209909 2.486922,-4.420418 3.728884,-6.629126 0.875206,1.701402 1.750352,3.405634 2.624029,5.109951 -0.137138,2.117116 -0.275214,4.234275 -0.414321,6.352913 -0.920173,2.163756 -2.762136,6.491017 -2.762136,6.491017 0,0 2.486923,-3.591775 3.728884,-5.386163 1.197163,-2.439332 2.394851,-4.880773 3.590777,-7.31966 0.369103,-2.071582 0.737569,-4.144204 1.104854,-6.214806 0.231051,-0.645143 0.461356,-1.289997 0.690534,-1.933495 1.471388,1.147741 2.947278,2.30078 4.419417,3.45267 -0.777799,0.822835 -2.336572,2.471668 -2.336572,2.471668 0,0 3.03196,-0.0835 4.546281,-0.123853 1.287897,-1.609621 2.578996,-3.223492 3.866996,-4.833737 0.73707,-2.577238 1.47414,-5.156987 2.20971,-7.733981 -0.64321,-1.565488 -1.288,-3.131421 -1.9335,-4.695631 1.79581,-1.335603 3.59178,-2.671065 5.38617,-4.005097 0.047,-2.209327 0.0931,-4.420417 0.1381,-6.629126 -2.8979,-1.657516 -5.79948,-3.315563 -8.700728,-4.971845 z"
         inkscape:path-effect="#path-effect13461"
         inkscape:connector-curvature="0"
         id="path13459"
         d="m 97.411855,53.008302 c -1.472611,0.09204 -4.418889,0.276181 -7.158414,0.621457 -2.739525,0.345276 -5.270573,0.851485 -8.249836,2.122811 -2.979262,1.271327 -6.401197,3.30529 -8.782791,6.23491 -2.381594,2.929621 -3.715571,6.747556 -5.74152,10.385475 -2.025949,3.637918 -4.740521,7.088645 -6.950671,9.115075 -2.21015,2.026431 -3.911747,2.624289 -3.773631,2.923939 0.138116,0.299649 2.116249,0.299649 2.967555,0.828494 0.851306,0.528846 0.57538,1.58656 0.953061,3.079572 0.377681,1.493012 1.407756,3.414098 0.979674,5.618973 -0.428081,2.204875 -2.314547,4.68949 -3.810788,6.071032 -1.49624,1.38154 -2.601777,1.65793 -3.706631,1.93414 1.335032,0.46035 2.670652,0.92091 2.832005,2.16272 0.161352,1.24182 -0.851877,3.26828 -2.118021,4.76495 -1.266145,1.49667 -2.785585,2.46359 -4.30476,3.43034 1.56521,0.50639 3.131032,1.01298 4.565223,1.27018 1.434191,0.25719 2.738019,0.2654 3.194597,1.1745 0.456578,0.90911 0.06738,2.7192 0.751664,3.64483 0.684282,0.92563 2.439668,0.96343 3.685485,1.50375 1.245816,0.54032 1.982081,1.58331 1.198883,2.88794 -0.783198,1.30463 -3.083878,2.86909 -5.385658,4.4343 1.795388,0.36828 3.591539,0.73672 4.327978,1.44937 0.736438,0.71266 0.413688,1.77312 0.09144,2.83194 1.795388,-0.55243 3.591971,-1.10522 4.673001,-1.08236 1.08103,0.0229 1.449559,0.62172 1.380869,1.28898 -0.06869,0.66726 -0.575634,1.40463 -1.082025,2.1412 2.762136,-0.32225 5.525373,-0.64463 7.343943,-1.03627 1.81857,-0.39164 2.693666,-0.85227 3.435885,-1.02351 0.742218,-0.17123 1.351509,-0.054 1.96147,0.0633 -1.642916,-1.87976 -3.285904,-3.7596 -4.591457,-6.13938 -1.305553,-2.37978 -2.273713,-5.25937 -2.759528,-7.70858 -0.485816,-2.44921 -0.489597,-4.46707 -0.732427,-6.45146 -0.242829,-1.9844 -0.723971,-3.93095 -1.263851,-5.68711 -0.53988,-1.75616 -1.1385,-3.32178 -1.479154,-4.94444 -0.340654,-1.622669 -0.423715,-3.303546 0.22127,-4.177777 0.644986,-0.874232 2.017115,-0.94329 3.024577,-0.24188 1.007463,0.701411 1.65233,2.175394 1.813756,3.303022 0.161426,1.127625 -0.161219,1.911195 -0.483468,2.693795 1.242961,-1.33503 2.486884,-2.671096 3.245933,-4.833634 0.75905,-2.162538 1.035477,-5.15717 1.795124,-7.757833 0.759646,-2.600664 2.003057,-4.811172 3.061209,-5.064425 1.058151,-0.253252 1.933297,1.45098 2.301699,3.361359 0.368403,1.910378 0.230327,4.027537 -0.299091,6.168661 -0.529418,2.141124 -1.450182,4.30492 -2.370894,6.468592 1.242961,-1.795388 2.486715,-3.591919 3.706176,-5.708808 1.21946,-2.116888 2.417149,-4.558329 3.19947,-6.813534 0.782321,-2.255205 1.150787,-4.327827 1.450069,-5.68573 0.299281,-1.357904 0.529586,-2.002758 1.379722,-1.749981 0.850136,0.252776 2.326026,1.405815 2.673612,2.392609 0.347585,0.986794 -0.432298,1.811769 -1.211155,2.635658 1.515427,-0.04128 3.031985,-0.0826 4.433021,-0.908085 1.401036,-0.825486 2.692136,-2.439357 3.704396,-4.533144 1.01227,-2.093788 1.74934,-4.673537 1.79525,-6.744436 0.0459,-2.0709 -0.59889,-3.63683 -0.0231,-5.086902 0.57582,-1.450072 2.37179,-2.785535 3.29194,-4.557307 0.92015,-1.771772 0.96621,-3.982863 -0.46007,-5.915372 -1.42629,-1.932509 -4.32787,-3.590555 -5.77815,-4.41929 -1.450288,-0.828734 -1.450285,-0.828704 -2.922895,-0.736666 z"
         style="fill:#dd925d;fill-opacity:1;stroke:#000000;stroke-width:0;stroke-linecap:butt;stroke-linejoin:miter;stroke-miterlimit:4;stroke-dasharray:none;stroke-opacity:1"
         sodipodi:nodetypes="cccccccccccccccccccccccccccccccccccccccccccccccccccccccccc" />
      <path
         inkscape:original-d="m 106.20412,58.578643 c 0.92172,-1.15189 1.84243,-2.30278 2.76214,-3.45267 2.43856,-0.09298 4.88077,-0.185142 7.31966,-0.276214 1.47351,0.367129 2.94728,0.73557 4.41942,1.104855 1.7035,1.149338 3.40763,2.30078 5.10995,3.45267 1.79615,2.20842 3.59178,4.418417 5.38616,6.629126 1.43488,0.855144 2.86821,1.710838 4.30178,2.568164 1.27005,2.163629 2.53777,4.325821 3.80578,6.49102 0.30003,0.971813 0.59896,1.943999 0.89704,2.917393 1.21392,0.932699 2.42388,1.863998 3.63892,2.80085 -0.11626,1.372103 -0.23284,2.737963 -0.35071,4.108903 0.55308,1.345918 1.10492,2.692011 1.65598,4.039398 0.34464,-0.605664 1.03113,-1.814221 1.03113,-1.814221 0,0 0.74595,1.977763 1.11801,2.969295 -0.82461,2.085011 -1.64837,4.166468 -2.47451,6.252472 1.40509,1.665466 4.21059,4.996956 4.21059,4.996956 0,0 -4.15433,1.58099 -6.23303,2.37292 1.02165,0.80726 2.04071,1.61413 3.06039,2.42315 1.10673,1.25938 2.21148,2.51848 3.31583,3.77911 0.7125,2.31342 2.13471,6.943 2.13471,6.943 0,0 -2.72668,-0.93835 -4.09152,-1.40618 0.75604,1.82068 1.51006,3.63967 2.26394,5.4615 -1.62875,0.43442 -3.25763,0.86954 -4.88797,1.30573 -1.11366,0.58847 -2.22642,1.1769 -3.34144,1.76695 -0.25556,0.92702 -0.51193,1.85448 -0.76931,2.78316 -0.91854,2.049 -2.75838,6.14968 -2.75838,6.14968 0,0 -1.10558,-2.9236 -1.65977,-4.38404 -1.4245,2.03304 -4.27624,6.10182 -4.27624,6.10182 0,0 -2.11669,-2.11858 -3.17645,-3.17646 -0.96492,1.38013 -2.89756,4.1432 -2.89756,4.1432 0,0 -0.0773,-1.63623 -0.11737,-2.45296 -0.46207,-0.6458 -1.38903,-1.93465 -1.38903,-1.93465 0,0 4.78199,-5.31808 7.17146,-7.97561 -0.41081,-2.55418 -0.82259,-5.1077 -1.23527,-7.66002 0.36184,-1.15203 0.7228,-2.30329 1.08277,-3.45346 0.63548,-0.91805 1.27013,-1.83534 1.90373,-2.75154 0.73686,-1.97861 1.47414,-3.96006 2.20971,-5.93859 0.13902,-1.97932 0.27721,-3.96006 0.41432,-5.938591 -1.33332,-0.139033 -2.84277,0.04902 -4.26566,0.07503 -1.30814,1.951117 -3.92479,5.852491 -3.92479,5.852491 0,0 -0.063,-5.42584 -0.096,-8.137229 0.18506,-1.841609 0.36929,-3.683848 0.55243,-5.524272 -0.78114,-1.335242 -1.56421,-2.671064 -2.34782,-4.005097 -1.2877,-0.599324 -2.57699,-1.197925 -3.86699,-1.795388 0.23126,-1.658848 0.46136,-3.315563 0.69054,-4.971845 -0.50505,0.459046 -1.01179,0.919712 -1.51918,1.381068 -1.18053,0.859684 -2.35613,1.716012 -3.53738,2.576702 0.35178,1.305165 1.05146,3.914318 1.05146,3.914318 0,0 -3.31356,-0.553427 -4.97185,-0.828641 -0.36746,-1.060337 -0.73556,-2.118638 -1.10485,-3.176456 -0.50511,-1.887423 -1.01178,-3.775919 -1.51917,-5.662379 -1.71752,0.747002 -3.43603,1.494952 -5.15753,2.24472 1.20733,1.782942 3.61626,5.347279 3.61626,5.347279 0,0 -3.39101,-1.195281 -5.08786,-1.791514 -0.68935,-1.703857 -1.38007,-3.407634 -2.0716,-5.109951 -0.45922,-2.624242 -0.91971,-5.249058 -1.38107,-7.872087 1.79584,-3.82079 3.59178,-7.642909 5.38616,-11.462864 z"
         inkscape:path-effect="#path-effect13465"
         inkscape:connector-curvature="0"
         id="path13463"
         d="m 106.66492,58.002648 c 0.46079,-0.575996 1.38151,-1.726884 3.06072,-2.347791 1.67922,-0.620907 4.12143,-0.713066 6.07746,-0.57493 1.95604,0.138136 3.42981,0.506578 5.01738,1.265877 1.58758,0.759299 3.29171,1.910739 5.04079,3.590762 1.74908,1.680024 3.5447,3.890025 5.15956,5.423052 1.61485,1.533027 3.04818,2.388724 4.39976,3.898978 1.35159,1.510254 2.61931,3.672444 3.40332,5.240798 0.78402,1.568355 1.08295,2.540541 1.83911,3.493934 0.75615,0.953392 1.96612,1.88469 2.51548,3.038615 0.54936,1.153925 0.43278,2.519785 0.65025,3.87848 0.21747,1.358695 0.76931,2.704788 1.21757,3.075333 0.44825,0.370544 0.79134,-0.233099 1.13505,-0.837839 0.37267,0.989765 0.74483,1.978184 0.51887,3.516148 -0.22596,1.537965 -1.04972,3.619419 -0.7605,5.495675 0.28922,1.876256 1.69219,3.541248 3.09572,5.2069 -2.07768,0.79097 -4.15414,1.58149 -4.68316,2.38134 -0.52903,0.79986 0.49003,1.60673 1.55315,2.64085 1.06312,1.03412 2.16787,2.29322 3.07623,4.07999 0.90836,1.78676 1.62011,4.10167 2.33168,6.416 -1.36384,-0.46873 -2.72706,-0.93724 -3.03183,-0.26114 -0.30478,0.67611 0.44925,2.4951 0.0125,3.6233 -0.43679,1.12821 -2.06567,1.56333 -3.43767,2.07551 -1.37199,0.51219 -2.48475,1.10061 -3.17045,1.85889 -0.68569,0.75828 -0.94206,1.68575 -1.52992,3.17458 -0.58786,1.48883 -1.50781,3.53981 -2.42727,5.5897 -0.55326,-1.46135 -1.1067,-2.92318 -2.09558,-2.63716 -0.98888,0.28603 -2.41502,2.321 -3.84043,4.35494 -1.05882,-1.05882 -2.11763,-2.11764 -3.12959,-1.95705 -1.01197,0.16059 -1.97857,1.54272 -2.94442,2.92379 -0.0391,-0.81765 -0.0783,-1.63618 -0.32939,-2.36709 -0.2511,-0.73091 -0.714,-1.37564 -1.17701,-2.02052 2.39049,-2.65854 4.78193,-5.31814 5.77076,-7.92388 0.98884,-2.60574 0.57705,-5.15926 0.55187,-7.01161 -0.0252,-1.85235 0.33577,-3.00361 0.83369,-4.0377 0.49792,-1.03409 1.13257,-1.95138 1.81762,-3.39882 0.68505,-1.44744 1.42234,-3.42889 1.85945,-5.40774 0.43711,-1.97885 0.5753,-3.959594 -0.0209,-4.937127 -0.59621,-0.977532 -2.1085,-0.950932 -3.47414,0.03707 -1.36563,0.987999 -2.6738,2.938689 -3.98206,4.889519 -0.032,-2.71241 -0.064,-5.425828 0.0121,-7.702377 0.0761,-2.27655 0.26032,-4.118789 -0.0388,-5.706231 -0.29914,-1.587441 -1.08221,-2.923264 -2.11756,-3.889687 -1.03534,-0.966423 -2.32463,-1.565022 -2.85414,-2.693839 -0.52952,-1.128818 -0.29941,-2.785532 -0.43691,-3.384067 -0.13749,-0.598535 -0.64422,-0.137867 -1.48815,0.522706 -0.84393,0.660572 -2.01952,1.516903 -2.43487,2.5999 -0.41535,1.082997 -0.065,2.387079 0.28544,3.691852 -1.65728,-0.276214 -3.31375,-0.552291 -4.32713,-1.220425 -1.01339,-0.668134 -1.38149,-1.726434 -1.81868,-3.199105 -0.43718,-1.472672 -0.94385,-3.361169 -2.05562,-3.930839 -1.11177,-0.56967 -2.83028,0.17828 -3.088,1.44478 -0.25771,1.266499 0.94687,3.047686 2.15229,4.830112 -1.69595,-0.597171 -3.3914,-1.194165 -4.58491,-2.344524 -1.1935,-1.150359 -1.88422,-2.854136 -2.45957,-5.01756 -0.57534,-2.163423 -1.03583,-4.788238 -0.36824,-8.01035 0.6676,-3.222112 2.46353,-7.044234 3.36094,-8.954108 0.89741,-1.909874 0.89745,-1.909875 1.35825,-2.48587 z"
         style="fill:#dd925d;fill-opacity:1;stroke:#000000;stroke-width:0;stroke-linecap:butt;stroke-linejoin:miter;stroke-miterlimit:4;stroke-dasharray:none;stroke-opacity:1"
         sodipodi:nodetypes="cccccccccccccccccccccccccccccccccccccccccccccccccccccccccc" />
    </g>
  </g>
</svg>
