<?xml version="1.0" encoding="UTF-8" standalone="no"?>
<!-- Created with Inkscape (http://www.inkscape.org/) -->

<svg
   xmlns:dc="http://purl.org/dc/elements/1.1/"
   xmlns:cc="http://creativecommons.org/ns#"
   xmlns:rdf="http://www.w3.org/1999/02/22-rdf-syntax-ns#"
   xmlns:svg="http://www.w3.org/2000/svg"
   xmlns="http://www.w3.org/2000/svg"
   xmlns:sodipodi="http://sodipodi.sourceforge.net/DTD/sodipodi-0.dtd"
   xmlns:inkscape="http://www.inkscape.org/namespaces/inkscape"
   width="200px"
   height="200px"
   viewBox="0 0 200 200"
   version="1.1"
   id="SVGRoot"
   sodipodi:docname="hairback-17.svg"
   inkscape:version="0.92.4 (5da689c313, 2019-01-14)">
  <defs
     id="defs909">
    <inkscape:path-effect
       effect="bspline"
       id="path-effect1524"
       is_visible="true"
       weight="33.333333"
       steps="2"
       helper_size="0"
       apply_no_weight="true"
       apply_with_weight="true"
       only_selected="false" />
    <inkscape:path-effect
       effect="bspline"
       id="path-effect1520"
       is_visible="true"
       weight="33.333333"
       steps="2"
       helper_size="0"
       apply_no_weight="true"
       apply_with_weight="true"
       only_selected="false" />
    <inkscape:path-effect
       effect="bspline"
       id="path-effect1500"
       is_visible="true"
       weight="33.333333"
       steps="2"
       helper_size="0"
       apply_no_weight="true"
       apply_with_weight="true"
       only_selected="false" />
    <inkscape:path-effect
       effect="bspline"
       id="path-effect1496"
       is_visible="true"
       weight="33.333333"
       steps="2"
       helper_size="0"
       apply_no_weight="true"
       apply_with_weight="true"
       only_selected="false" />
    <inkscape:path-effect
       effect="bspline"
       id="path-effect1492"
       is_visible="true"
       weight="33.333333"
       steps="2"
       helper_size="0"
       apply_no_weight="true"
       apply_with_weight="true"
       only_selected="false" />
    <inkscape:path-effect
       effect="bspline"
       id="path-effect1488"
       is_visible="true"
       weight="33.333333"
       steps="2"
       helper_size="0"
       apply_no_weight="true"
       apply_with_weight="true"
       only_selected="false" />
    <inkscape:path-effect
       effect="bspline"
       id="path-effect1484"
       is_visible="true"
       weight="33.333333"
       steps="2"
       helper_size="0"
       apply_no_weight="true"
       apply_with_weight="true"
       only_selected="false" />
    <inkscape:path-effect
       effect="bspline"
       id="path-effect1479"
       is_visible="true"
       weight="33.333333"
       steps="2"
       helper_size="0"
       apply_no_weight="true"
       apply_with_weight="true"
       only_selected="false" />
    <inkscape:path-effect
       effect="bspline"
       id="path-effect1475"
       is_visible="true"
       weight="33.333333"
       steps="2"
       helper_size="0"
       apply_no_weight="true"
       apply_with_weight="true"
       only_selected="false" />
    <inkscape:path-effect
       effect="bspline"
       id="path-effect1471"
       is_visible="true"
       weight="33.333333"
       steps="2"
       helper_size="0"
       apply_no_weight="true"
       apply_with_weight="true"
       only_selected="false" />
    <inkscape:path-effect
       effect="bspline"
       id="path-effect1467"
       is_visible="true"
       weight="33.333333"
       steps="2"
       helper_size="0"
       apply_no_weight="true"
       apply_with_weight="true"
       only_selected="false" />
    <inkscape:path-effect
       effect="bspline"
       id="path-effect1463"
       is_visible="true"
       weight="33.333333"
       steps="2"
       helper_size="0"
       apply_no_weight="true"
       apply_with_weight="true"
       only_selected="false" />
    <inkscape:path-effect
       effect="bspline"
       id="path-effect12527"
       is_visible="true"
       weight="33.333333"
       steps="2"
       helper_size="0"
       apply_no_weight="true"
       apply_with_weight="true"
       only_selected="false" />
    <inkscape:path-effect
       effect="bspline"
       id="path-effect12520"
       is_visible="true"
       weight="33.333333"
       steps="2"
       helper_size="0"
       apply_no_weight="true"
       apply_with_weight="true"
       only_selected="false" />
    <inkscape:path-effect
       effect="bspline"
       id="path-effect1868"
       is_visible="true"
       weight="33.333333"
       steps="2"
       helper_size="0"
       apply_no_weight="true"
       apply_with_weight="true"
       only_selected="false" />
    <inkscape:path-effect
       effect="bspline"
       id="path-effect1853"
       is_visible="true"
       weight="33.333333"
       steps="2"
       helper_size="0"
       apply_no_weight="true"
       apply_with_weight="true"
       only_selected="false" />
  </defs>
  <sodipodi:namedview
     id="base"
     pagecolor="#ffffff"
     bordercolor="#666666"
     borderopacity="1.0"
     inkscape:pageopacity="0.0"
     inkscape:pageshadow="2"
     inkscape:zoom="2.56"
     inkscape:cx="60.335504"
     inkscape:cy="3.6093728"
     inkscape:document-units="px"
     inkscape:current-layer="layer1"
     showgrid="false"
     inkscape:window-width="1920"
     inkscape:window-height="1001"
     inkscape:window-x="-9"
     inkscape:window-y="-9"
     inkscape:window-maximized="1"
     showguides="false" />
  <metadata
     id="metadata912">
    <rdf:RDF>
      <cc:Work
         rdf:about="">
        <dc:format>image/svg+xml</dc:format>
        <dc:type
           rdf:resource="http://purl.org/dc/dcmitype/StillImage" />
        <dc:title></dc:title>
      </cc:Work>
    </rdf:RDF>
  </metadata>
  <g
     inkscape:label="Layer 1"
     inkscape:groupmode="layer"
     id="layer1">
    <g
       id="g1528"
       style="fill:#ca7b41;fill-opacity:1">
      <path
         inkscape:original-d="m 80.664063,106.25 c 0.0661,4.10056 0.131208,8.20212 0.195312,12.30469 0.652198,1.75723 1.303083,3.51462 1.953125,5.27343 0.196374,1.69225 0.391625,3.38442 0.585938,5.07813 0.001,1.82286 0.001,3.64483 0,5.46875 -0.585259,2.14862 -1.170875,4.29587 -1.757813,6.44531 0.912961,-1.56436 1.823917,-3.126 2.734375,-4.6875 0.781659,-1.95265 1.5635,-3.90725 2.34375,-5.85937 0.001,2.08104 0.001,4.16566 0,6.25 -0.259542,2.47414 -0.519833,4.94691 -0.78125,7.42187 0.522063,2.47405 1.042667,4.94692 1.5625,7.42188 0.131248,-1.49886 0.261417,-2.99579 0.390625,-4.49219 0.71663,-1.3672 1.433292,-2.73538 2.148438,-4.10156 0.196141,1.23489 0.391625,2.47296 0.585937,3.71093 0.001,1.43225 0.001,2.86359 0,4.29688 1.303992,2.40954 2.605167,4.81671 3.90625,7.22656 -0.910593,1.43151 -1.821917,2.86359 -2.734375,4.29688 -0.650571,1.88855 -1.301083,3.77504 -1.953125,5.66406 0.978184,2.08366 1.954125,4.16567 2.929688,6.25 0.456824,1.106 0.912458,2.21254 1.367187,3.32031 2.08528,0.45494 4.167667,0.91046 6.250005,1.36719 3.84077,-0.39149 7.68329,-0.78225 11.52343,-1.17188 2.279,-0.39151 4.55829,-0.78225 6.83594,-1.17187 0.32636,-2.27851 0.65204,-4.55829 0.97656,-6.83594 0.58665,-2.08331 1.17288,-4.16766 1.75782,-6.25 -0.64968,-1.69274 -1.30109,-3.38641 -1.95313,-5.07812 -1.04034,-0.65184 -2.08233,-1.30309 -3.125,-1.95313 1.75927,-0.97781 3.51663,-1.95412 5.27344,-2.92969 0.45642,-2.08292 0.91246,-4.16766 1.36719,-6.25 0.001,-1.36742 0.001,-2.73537 0,-4.10156 -0.84474,-0.91179 -1.69171,-1.82391 -2.53907,-2.73437 0.78222,-1.23793 1.5635,-2.47496 2.34375,-3.71094 10e-4,-1.04168 10e-4,-2.08433 0,-3.125 1.04167,2.21042 2.08434,4.42608 3.125,6.64062 0.19635,1.17111 0.39163,2.34275 0.58594,3.51563 0.32675,-2.15092 0.65204,-4.29788 0.97656,-6.44531 -0.58463,-1.56268 -1.17087,-3.126 -1.75781,-4.6875 0.58673,-1.49787 1.17288,-2.99579 1.75781,-4.49219 -0.32426,-3.18853 -0.65004,-6.38121 -0.97656,-9.57031 -1.10546,-2.73462 -2.21254,-5.46975 -3.32031,-8.20313 0.32646,-2.93014 0.65204,-5.86037 0.97656,-8.78906 -2.01647,-3.254989 -4.03546,-6.511417 -6.05469,-9.765625 -3.12373,-2.019059 -6.249,-4.037458 -9.375,-6.054688 -2.92892,-1.693843 -5.85837,-3.386416 -8.78906,-5.078125 -3.515005,1.757003 -7.03025,3.514625 -10.546875,5.273438 -2.148171,2.604055 -4.295875,5.207333 -6.445312,7.8125 -0.780576,4.167404 -1.5615,8.33233 -2.34375,12.5 z"
         inkscape:path-effect="#path-effect1520"
         inkscape:connector-curvature="0"
         id="path1518"
         d="m 81.08734,106.21638 c -0.358189,4.1342 -0.293085,8.23576 0.06497,11.16587 0.358056,2.93012 1.008942,4.68751 1.432203,6.41288 0.42326,1.72537 0.618511,3.41754 0.716217,5.17576 0.09771,1.75822 0.09771,3.58019 -0.195262,5.56637 -0.292968,1.98618 -0.878582,4.13343 -0.715389,4.42597 0.163194,0.29254 1.074151,-1.2691 1.920107,-3.02619 0.845956,-1.75709 1.627797,-3.71169 2.01818,-3.64712 0.390383,0.0646 0.390383,2.14918 0.26017,4.42837 -0.130213,2.2792 -0.390505,4.75197 -0.260319,7.22664 0.130186,2.47467 0.65079,4.94754 0.976457,5.43543 0.325667,0.48789 0.455835,-1.00904 0.87902,-2.4409 0.423186,-1.43186 1.139851,-2.80003 1.595115,-2.86549 0.455264,-0.0655 0.650749,1.17261 0.748469,2.50763 0.09772,1.33502 0.09772,2.76636 0.749122,4.6881 0.651401,1.92173 1.952575,4.3289 2.148285,6.24918 0.19571,1.92027 -0.715613,3.35235 -1.49729,5.01326 -0.781676,1.6609 -1.43219,3.54739 -1.269428,5.53411 0.162762,1.98672 1.138704,4.06873 1.854896,5.66387 0.716191,1.59513 1.171825,2.70167 2.442306,3.48335 1.270481,0.78169 3.352868,1.23721 6.31459,1.2697 2.96173,0.0325 6.80425,-0.35828 9.86384,-0.7489 3.0596,-0.39061 5.33889,-0.78134 6.6404,-2.11587 1.30152,-1.33453 1.6272,-3.61431 2.08287,-5.79482 0.45568,-2.18052 1.0419,-4.26487 1.00927,-6.15208 -0.0326,-1.88722 -0.68405,-3.58089 -1.53001,-4.75231 -0.84595,-1.17142 -1.88794,-1.82267 -1.52918,-2.63701 0.35876,-0.81435 2.11612,-1.79066 3.22227,-3.32015 1.10615,-1.52949 1.56218,-3.61423 1.78992,-5.33903 0.22774,-1.7248 0.22774,-3.09275 -0.19515,-4.23126 -0.42288,-1.13851 -1.26986,-2.05063 -1.30204,-3.12539 -0.0322,-1.07476 0.7491,-2.31179 1.13935,-3.45053 0.39026,-1.13875 0.39026,-2.1814 0.91049,-1.59624 0.52024,0.58516 1.5629,2.80082 2.18144,4.49345 0.61855,1.69264 0.81382,2.86428 1.0745,2.3751 0.26069,-0.48918 0.58598,-2.63614 0.45574,-4.4909 -0.13024,-1.85477 -0.71649,-3.41809 -0.71625,-4.9481 2.3e-4,-1.53002 0.58638,-3.02794 0.71643,-5.37024 0.13006,-2.34231 -0.19572,-5.53499 -0.91177,-8.49666 -0.71605,-2.96167 -1.82313,-5.6968 -2.21362,-8.52885 -0.39049,-2.83206 -0.0649,-5.76229 -0.91103,-8.85371 -0.84612,-3.091432 -2.86511,-6.347861 -5.43638,-8.984276 -2.57127,-2.636414 -5.69654,-4.654816 -8.72397,-6.510342 -3.02742,-1.855525 -5.95687,-3.548097 -9.17928,-3.515842 -3.222405,0.03225 -6.73765,1.789877 -9.5702,3.971068 -2.83255,2.181191 -4.980254,4.784469 -6.445601,8.170724 -1.465347,3.386255 -2.24627,7.551178 -2.604459,11.685378 z"
         style="fill:#ca7b41;stroke:#000000;stroke-width:0;stroke-linecap:butt;stroke-linejoin:miter;stroke-opacity:1;fill-opacity:1;stroke-miterlimit:4;stroke-dasharray:none" />
      <path
         transform="translate(0.1953125,5.859375)"
         inkscape:original-d="m 95.3125,175.97656 c 0.652042,0.65004 1.303083,1.30109 1.953125,1.95313 0.456729,1.23598 0.912458,2.47296 1.367188,3.71093 -0.845735,1.36681 -1.691709,2.73338 -2.539063,4.10157 -0.846079,1.43252 -1.691708,2.86358 -2.539062,4.29687 0.782893,2.99626 1.5635,5.98859 2.34375,8.98438 0.78243,1.88745 1.5635,3.77504 2.34375,5.66406 2.605852,0.38973 5.209332,0.78025 7.812502,1.17188 3.32025,-0.0661 6.64162,-0.13121 9.96094,-0.19532 0.84709,-1.88844 1.6937,-3.77704 2.53906,-5.66406 0.13112,-2.34325 0.26141,-4.6885 0.39062,-7.03125 -0.91005,-2.92937 -1.82191,-5.86038 -2.73437,-8.78906 -0.51972,-0.78209 -1.04067,-1.5635 -1.5625,-2.34375 1.04236,-2.40915 2.08433,-4.94892 3.125,-7.42188 -1.69089,-3.31969 -3.38442,-6.64162 -5.07813,-9.96094 -3.96989,-1.17273 -7.94171,-2.34475 -11.91406,-3.51562 -2.147788,0.65015 -4.295875,1.30108 -6.445312,1.95312 0.326701,4.36341 0.652041,8.72296 0.976562,13.08594 z"
         inkscape:path-effect="#path-effect1524"
         inkscape:connector-curvature="0"
         id="path1522"
         d="m 95.475225,174.12063 c 0.488315,2.50697 1.13936,3.15802 1.692643,4.10175 0.553282,0.94373 1.009013,2.18071 0.813973,3.4828 -0.195041,1.30208 -1.041012,2.66865 -1.887743,4.069 -0.846732,1.40035 -1.692359,2.83141 -1.725028,5.04643 -0.03267,2.21502 0.747938,5.20735 1.529264,7.64906 0.781325,2.44172 1.562397,4.32931 3.255967,5.469 1.693569,1.13968 4.297049,1.53021 7.258859,1.69291 2.9618,0.16269 6.28317,0.0976 8.36614,-0.8793 2.08296,-0.97686 2.92958,-2.86546 3.41757,-4.98052 0.488,-2.11506 0.61829,-4.46031 0.22774,-7.09616 -0.39054,-2.63585 -1.30241,-5.56686 -2.01848,-7.42204 -0.71607,-1.85519 -1.23701,-2.6366 -0.98805,-4.23669 0.24895,-1.60009 1.3142,-4.13006 0.98874,-7.02597 -0.32546,-2.89592 -2.019,-6.21785 -4.85037,-8.46359 -2.83138,-2.24573 -6.8032,-3.41775 -9.863,-3.67839 -3.059796,-0.26064 -5.207882,0.3903 -6.11988,2.89774 -0.911999,2.50745 -0.586659,6.867 -0.09835,9.37397 z"
         style="fill:#ca7b41;fill-opacity:1;stroke:#000000;stroke-width:0;stroke-linecap:butt;stroke-linejoin:miter;stroke-miterlimit:4;stroke-dasharray:none;stroke-opacity:1" />
    </g>
  </g>
</svg>
