<?xml version="1.0" encoding="UTF-8" standalone="no"?>
<!-- Created with Inkscape (http://www.inkscape.org/) -->

<svg
   xmlns:dc="http://purl.org/dc/elements/1.1/"
   xmlns:cc="http://creativecommons.org/ns#"
   xmlns:rdf="http://www.w3.org/1999/02/22-rdf-syntax-ns#"
   xmlns:svg="http://www.w3.org/2000/svg"
   xmlns="http://www.w3.org/2000/svg"
   xmlns:sodipodi="http://sodipodi.sourceforge.net/DTD/sodipodi-0.dtd"
   xmlns:inkscape="http://www.inkscape.org/namespaces/inkscape"
   width="200px"
   height="200px"
   viewBox="0 0 200 200"
   version="1.1"
   id="SVGRoot"
   sodipodi:docname="hair-2-9.svg"
   inkscape:version="0.92.4 (5da689c313, 2019-01-14)">
  <defs
     id="defs909">
    <inkscape:path-effect
       effect="bspline"
       id="path-effect12527"
       is_visible="true"
       weight="33.333333"
       steps="2"
       helper_size="0"
       apply_no_weight="true"
       apply_with_weight="true"
       only_selected="false" />
    <inkscape:path-effect
       effect="bspline"
       id="path-effect12520"
       is_visible="true"
       weight="33.333333"
       steps="2"
       helper_size="0"
       apply_no_weight="true"
       apply_with_weight="true"
       only_selected="false" />
    <inkscape:path-effect
       effect="bspline"
       id="path-effect1868"
       is_visible="true"
       weight="33.333333"
       steps="2"
       helper_size="0"
       apply_no_weight="true"
       apply_with_weight="true"
       only_selected="false" />
    <inkscape:path-effect
       effect="bspline"
       id="path-effect1853"
       is_visible="true"
       weight="33.333333"
       steps="2"
       helper_size="0"
       apply_no_weight="true"
       apply_with_weight="true"
       only_selected="false" />
    <inkscape:path-effect
       effect="bspline"
       id="path-effect9104"
       is_visible="true"
       weight="33.333333"
       steps="2"
       helper_size="0"
       apply_no_weight="true"
       apply_with_weight="true"
       only_selected="false" />
    <inkscape:path-effect
       effect="bspline"
       id="path-effect9100"
       is_visible="true"
       weight="33.333333"
       steps="2"
       helper_size="0"
       apply_no_weight="true"
       apply_with_weight="true"
       only_selected="false" />
  </defs>
  <sodipodi:namedview
     id="base"
     pagecolor="#ffffff"
     bordercolor="#666666"
     borderopacity="1.0"
     inkscape:pageopacity="0.0"
     inkscape:pageshadow="2"
     inkscape:zoom="2.56"
     inkscape:cx="-97.15861"
     inkscape:cy="145.64133"
     inkscape:document-units="px"
     inkscape:current-layer="layer1"
     showgrid="false"
     inkscape:window-width="1920"
     inkscape:window-height="1001"
     inkscape:window-x="-9"
     inkscape:window-y="-9"
     inkscape:window-maximized="1"
     showguides="false" />
  <metadata
     id="metadata912">
    <rdf:RDF>
      <cc:Work
         rdf:about="">
        <dc:format>image/svg+xml</dc:format>
        <dc:type
           rdf:resource="http://purl.org/dc/dcmitype/StillImage" />
        <dc:title></dc:title>
      </cc:Work>
    </rdf:RDF>
  </metadata>
  <g
     inkscape:label="Layer 1"
     inkscape:groupmode="layer"
     id="layer1">
    <path
       style="fill:#dd925d;fill-opacity:1;stroke:#000000;stroke-width:0;stroke-linecap:butt;stroke-linejoin:miter;stroke-miterlimit:4;stroke-dasharray:none;stroke-opacity:1"
       d="m 88.67239,59.113416 c 0.976795,-2.539058 2.14867,-4.361975 4.589119,-5.891147 2.440449,-1.529172 6.153754,-2.76694 10.059221,-3.287582 3.90546,-0.520642 8.00835,-0.325267 12.65523,0.919771 4.64689,1.245037 9.84198,3.540704 13.71999,6.421138 3.87801,2.880434 6.44055,6.346304 8.71446,9.894281 2.27391,3.547976 4.25814,7.176424 5.21359,10.733068 0.95545,3.556645 0.88112,7.03883 1.59267,10.311544 0.71155,3.272714 2.20884,6.332404 3.70624,9.3923 -0.97656,-0.716146 -1.95278,-1.432039 -2.44124,-0.586097 -0.48845,0.845942 -0.48845,3.253268 -0.45589,6.086528 0.0326,2.83327 0.0976,6.08607 -0.22795,11.16571 -0.32555,5.07964 -1.04135,11.97739 -1.59485,18.35868 -0.5535,6.38129 -0.94399,12.23855 -0.58598,17.0574 0.358,4.81885 1.46476,8.59486 2.57153,12.3709 -2.83107,-1.67622 -5.66184,-3.35226 -7.59798,-3.50737 -1.93614,-0.15511 -2.97857,1.21308 -4.02024,2.58027 -1.4007,-1.46442 -2.80132,-2.92876 -4.02828,-4.65435 -1.22696,-1.72559 -2.27968,-3.71148 -2.62576,-6.86037 -0.34607,-3.14889 0.0143,-7.45957 -0.26099,-8.6385 -0.2753,-1.17894 -1.18733,0.77541 -2.09879,2.72854 0.45573,-3.1901 0.91162,-6.38133 1.7906,-10.77596 0.87898,-4.39463 2.18103,-9.99344 2.60402,-14.90871 0.42298,-4.91527 -0.0327,-9.14694 -0.78149,-13.18335 -0.74876,-4.03641 -1.7904,-7.877452 -3.60828,-10.832349 -1.81789,-2.954896 -4.41216,-5.024215 -5.44909,-4.757393 -1.03693,0.266822 -0.51589,2.872027 0.005,5.476194 -2.14844,-1.888021 -4.29681,-3.775984 -6.57522,-5.110562 -2.27842,-1.334579 -4.68719,-2.115801 -6.83608,-3.190227 -2.1489,-1.074427 -4.03644,-2.441267 -5.63167,-3.841166 -1.595223,-1.399898 -2.897182,-2.832053 -3.67834,-2.441993 -0.781158,0.390061 -1.041584,2.60368 -0.455455,5.208931 0.586129,2.605251 2.017912,5.598975 3.450205,8.593767 -1.822918,-1.497396 -3.645731,-2.994704 -5.63158,-5.14334 -1.98585,-2.148636 -4.134162,-4.947952 -5.599001,-8.496339 -1.464839,-3.548388 -2.24613,-7.845488 -2.245989,-11.62142 1.4e-4,-3.775931 0.781534,-7.03174 1.75833,-9.570797 z"
       id="path9098"
       inkscape:connector-curvature="0"
       inkscape:path-effect="#path-effect9100"
       inkscape:original-d="m 88.476563,58.398437 c 1.172875,-1.823916 2.34475,-3.646833 3.515625,-5.46875 3.70957,-1.23719 7.422875,-2.474958 11.132812,-3.710937 4.10124,0.194249 8.20413,0.389625 12.30469,0.585937 5.19371,2.293553 10.38881,4.589219 15.58167,6.885398 2.56375,3.465093 5.12629,6.930965 7.68828,10.398494 1.98589,3.628613 3.97012,7.25706 5.95416,10.888039 -0.0734,3.482992 -0.14771,6.965178 -0.22308,10.450484 1.49872,3.059503 4.49219,9.179687 4.49219,9.179687 0,0 -1.95193,-1.433203 -2.92969,-2.148437 0.001,2.408282 0.001,4.815608 0,7.226558 0.0661,3.25556 0.13119,6.50836 0.19531,9.76563 -0.71537,6.90212 -1.43117,13.79987 -2.14844,20.70312 -0.38969,5.8593 -0.78017,11.71656 -1.17187,17.57813 1.10799,3.77572 3.32031,11.32812 3.32031,11.32812 0,0 -5.66111,-3.35348 -8.49322,-5.02866 -1.04075,1.3663 -3.125,4.10156 -3.125,4.10156 0,0 -2.80027,-2.92977 -4.20209,-4.39326 -1.05193,-1.98733 -2.10465,-3.97322 -3.15851,-5.9583 0.36139,-4.31197 0.72177,-8.62265 1.08116,-12.9325 -0.91047,1.9521 -2.73438,5.85938 -2.73438,5.85938 0,0 0.91246,-6.38121 1.36719,-9.57031 1.30311,-5.60011 2.60516,-11.19892 3.90625,-16.79688 -0.45473,-4.23287 -0.91045,-8.46454 -1.36719,-12.69531 -1.04068,-3.84225 -2.08232,-7.683297 -3.125,-11.52344 -2.59338,-2.070461 -5.18766,-4.139778 -7.78305,-6.208128 0.52178,2.602897 1.5625,7.8125 1.5625,7.8125 0,0 -4.29588,-3.777041 -6.44531,-5.664062 -2.40794,-0.782275 -4.81671,-1.5635 -7.22657,-2.34375 -1.8875,-1.368534 -3.77504,-2.735375 -5.66406,-4.101563 -1.301208,-1.433428 -2.603167,-2.865583 -3.90625,-4.296875 -0.259408,2.212465 -0.519833,4.426084 -0.78125,6.640625 1.434005,2.995284 4.29688,8.984375 4.29688,8.984375 0,0 -3.644838,-2.995791 -5.468755,-4.492187 -2.147563,-2.800643 -4.295875,-5.599958 -6.445312,-8.398438 -0.78021,-4.29765 -1.5615,-8.59475 -2.34375,-12.890625 0.782105,-3.255608 1.5635,-6.511416 2.34375,-9.765625 z"
       sodipodi:nodetypes="ccccccccccccccccccccccccccccccccccccc"
       transform="matrix(1,0,0,0.94689672,0.097654,3.0819355)" />
    <path
       transform="translate(0.097654,-3.6260945)"
       style="fill:#dd925d;fill-opacity:1;stroke:#000000;stroke-width:0;stroke-linecap:butt;stroke-linejoin:miter;stroke-miterlimit:4;stroke-dasharray:none;stroke-opacity:1"
       d="m 90.495473,60.058119 c -9.6e-5,-1.724584 -1.888116,-2.375625 -4.860887,-1.770708 -2.972771,0.604917 -7.026953,2.464732 -10.098363,4.925783 -3.071411,2.461052 -5.153222,5.518711 -6.814185,8.840244 -1.660963,3.321532 -2.897062,6.899715 -3.147627,10.886087 -0.250564,3.986372 0.485759,8.373845 1.407537,12.749869 0.921778,4.376026 2.028291,8.736986 2.500876,12.618686 0.472585,3.88169 0.310854,7.28142 0.04577,10.81543 -0.265087,3.53401 -0.63317,7.19691 -0.771385,10.40702 -0.138215,3.2101 -0.0462,5.9618 -0.32401,8.85035 -0.277809,2.88854 -0.925596,5.91037 -1.573366,8.93213 1.732201,-0.74311 3.465608,-1.48674 4.170739,-0.74624 0.705131,0.7405 0.384237,2.96521 -0.590085,5.18489 -0.974322,2.21967 -2.601942,4.43324 -4.229546,6.64678 1.9406,-0.0842 3.882241,-0.16839 6.439716,-0.35583 2.557476,-0.18745 5.731773,-0.4781 7.415995,0.22254 1.684221,0.70064 1.879634,2.39421 2.074947,4.08692 1.041667,-1.82292 2.056974,-3.5997 2.958547,-5.67032 0.901573,-2.07062 1.599132,-4.22671 2.152388,-6.99359 0.553256,-2.76687 0.943882,-6.08719 -0.456006,-10.31854 -1.399887,-4.23135 -4.589993,-9.37458 -6.691726,-13.80977 -2.101733,-4.43519 -3.115078,-8.16193 -3.817023,-11.62044 -0.701944,-3.4585 -1.092568,-6.6486 -1.320392,-9.57835 -0.227824,-2.92974 -0.292928,-5.599014 0.26069,-7.486756 0.553617,-1.887742 1.726079,-2.995067 2.539102,-2.117341 0.813023,0.877726 1.269283,3.745643 1.725012,6.610227 0.520833,-1.822918 1.042006,-3.647024 1.855748,-5.176501 0.813742,-1.529476 1.921235,-2.767262 2.832055,-4.914457 0.91082,-2.147195 1.627575,-5.209694 1.887857,-8.041102 0.260283,-2.831408 0.0649,-5.436571 0.09749,-8.040362 0.0326,-2.603791 0.293103,-5.208878 1.367261,-7.910146 1.074157,-2.701269 2.962968,-5.501919 2.962873,-7.226503 z"
       id="path9102"
       inkscape:connector-curvature="0"
       inkscape:path-effect="#path-effect9104"
       inkscape:original-d="m 92.382813,58.984375 c -1.887021,-0.652042 -3.775042,-1.303083 -5.664063,-1.953125 -4.05714,1.860631 -8.111322,3.720446 -12.170646,5.583161 -2.083073,3.059984 -4.164884,6.117643 -6.25,9.179687 -1.236444,3.581074 -2.472543,7.159257 -3.710938,10.742188 0.737817,4.38942 1.474139,8.776893 2.209709,13.166839 1.108028,4.361995 2.214542,8.722955 3.320313,13.085935 -0.160828,3.40076 -0.32256,6.80049 -0.485407,10.20364 -0.367386,3.66491 -0.735469,7.32781 -1.104854,10.9947 0.0931,2.7532 0.185109,5.5049 0.276214,8.26034 -0.647003,3.02184 -1.943311,9.06527 -1.943311,9.06527 0,0 3.465401,-1.48722 5.196602,-2.22933 -0.319894,2.22371 -0.640788,4.44842 -0.962682,6.67413 -1.627414,2.21365 -4.882812,6.64063 -4.882812,6.64063 0,0 3.882199,-0.16935 5.821799,-0.25252 3.17531,-0.29166 6.349608,-0.58231 9.522921,-0.87197 0.196314,1.69171 0.585938,5.07812 0.585938,5.07812 0,0 2.057297,-3.59952 3.125,-5.46875 0.735734,-2.27199 1.433292,-4.42808 2.148437,-6.64062 0.391626,-3.32131 0.782251,-6.64163 1.171875,-9.96094 -3.189101,-5.14422 -6.379206,-10.28745 -9.570312,-15.42968 -1.012345,-3.72774 -2.02569,-7.45448 -3.040034,-11.18021 -0.389624,-3.1911 -0.780249,-6.3812 -1.171874,-9.57031 -0.0641,-2.67027 -0.129209,-5.339539 -0.195313,-8.00781 1.172289,-1.107217 2.34475,-2.214542 3.515625,-3.320313 0.45633,2.861072 1.367188,8.593753 1.367188,8.593753 0,0 1.042666,-3.646836 1.5625,-5.468753 1.107049,-1.237172 2.214541,-2.474958 3.320312,-3.710937 0.716537,-3.058293 1.433292,-6.120792 2.148438,-9.179688 -0.194238,-2.60417 -0.389625,-5.209333 -0.585938,-7.8125 0.261325,-2.604246 0.521833,-5.209333 0.78125,-7.8125 1.888231,-2.799308 3.777042,-5.599958 5.664063,-8.398437 z"
       sodipodi:nodetypes="cccccccccccccccccccccccccccccccc" />
  </g>
</svg>
