<?xml version="1.0" encoding="UTF-8" standalone="no"?>
<!-- Created with Inkscape (http://www.inkscape.org/) -->

<svg
   xmlns:dc="http://purl.org/dc/elements/1.1/"
   xmlns:cc="http://creativecommons.org/ns#"
   xmlns:rdf="http://www.w3.org/1999/02/22-rdf-syntax-ns#"
   xmlns:svg="http://www.w3.org/2000/svg"
   xmlns="http://www.w3.org/2000/svg"
   xmlns:sodipodi="http://sodipodi.sourceforge.net/DTD/sodipodi-0.dtd"
   xmlns:inkscape="http://www.inkscape.org/namespaces/inkscape"
   width="200px"
   height="200px"
   viewBox="0 0 200 200"
   version="1.1"
   id="SVGRoot"
   sodipodi:docname="hair-3-14.svg"
   inkscape:version="0.92.4 (5da689c313, 2019-01-14)">
  <defs
     id="defs909">
    <inkscape:path-effect
       effect="bspline"
       id="path-effect12527"
       is_visible="true"
       weight="33.333333"
       steps="2"
       helper_size="0"
       apply_no_weight="true"
       apply_with_weight="true"
       only_selected="false" />
    <inkscape:path-effect
       effect="bspline"
       id="path-effect12520"
       is_visible="true"
       weight="33.333333"
       steps="2"
       helper_size="0"
       apply_no_weight="true"
       apply_with_weight="true"
       only_selected="false" />
    <inkscape:path-effect
       effect="bspline"
       id="path-effect1868"
       is_visible="true"
       weight="33.333333"
       steps="2"
       helper_size="0"
       apply_no_weight="true"
       apply_with_weight="true"
       only_selected="false" />
    <inkscape:path-effect
       effect="bspline"
       id="path-effect1853"
       is_visible="true"
       weight="33.333333"
       steps="2"
       helper_size="0"
       apply_no_weight="true"
       apply_with_weight="true"
       only_selected="false" />
    <inkscape:path-effect
       effect="bspline"
       id="path-effect1488"
       is_visible="true"
       weight="33.333333"
       steps="2"
       helper_size="0"
       apply_no_weight="true"
       apply_with_weight="true"
       only_selected="false" />
    <inkscape:path-effect
       effect="bspline"
       id="path-effect1492"
       is_visible="true"
       weight="33.333333"
       steps="2"
       helper_size="0"
       apply_no_weight="true"
       apply_with_weight="true"
       only_selected="false" />
    <inkscape:path-effect
       effect="bspline"
       id="path-effect1496"
       is_visible="true"
       weight="33.333333"
       steps="2"
       helper_size="0"
       apply_no_weight="true"
       apply_with_weight="true"
       only_selected="false" />
    <inkscape:path-effect
       effect="bspline"
       id="path-effect1500"
       is_visible="true"
       weight="33.333333"
       steps="2"
       helper_size="0"
       apply_no_weight="true"
       apply_with_weight="true"
       only_selected="false" />
    <inkscape:path-effect
       effect="bspline"
       id="path-effect5622"
       is_visible="true"
       weight="33.333333"
       steps="2"
       helper_size="0"
       apply_no_weight="true"
       apply_with_weight="true"
       only_selected="false" />
  </defs>
  <sodipodi:namedview
     id="base"
     pagecolor="#ffffff"
     bordercolor="#666666"
     borderopacity="1.0"
     inkscape:pageopacity="0.0"
     inkscape:pageshadow="2"
     inkscape:zoom="2.56"
     inkscape:cx="24.232235"
     inkscape:cy="67.696591"
     inkscape:document-units="px"
     inkscape:current-layer="layer1"
     showgrid="false"
     inkscape:window-width="1920"
     inkscape:window-height="1001"
     inkscape:window-x="-9"
     inkscape:window-y="-9"
     inkscape:window-maximized="1"
     showguides="false" />
  <metadata
     id="metadata912">
    <rdf:RDF>
      <cc:Work
         rdf:about="">
        <dc:format>image/svg+xml</dc:format>
        <dc:type
           rdf:resource="http://purl.org/dc/dcmitype/StillImage" />
        <dc:title></dc:title>
      </cc:Work>
    </rdf:RDF>
  </metadata>
  <g
     inkscape:label="Layer 1"
     inkscape:groupmode="layer"
     id="layer1">
    <path
       transform="matrix(0.93111451,0,0,0.92067977,6.7182654,5.3750019)"
       style="fill:#dd925d;fill-opacity:1;stroke:#000000;stroke-width:0;stroke-linecap:butt;stroke-linejoin:miter;stroke-miterlimit:4;stroke-dasharray:none;stroke-opacity:1"
       d="m 54.368325,28.931778 c -1.058468,0.184277 -4.373031,-0.828506 -6.306707,-0.460749 -1.933677,0.367758 -2.485998,2.116775 -3.637102,3.590529 -1.151104,1.473755 -2.89926,2.669861 -3.221804,4.143835 -0.322543,1.473974 0.781586,3.222179 -0.09264,4.971435 -0.874222,1.749257 -3.727999,3.498347 -6.12223,4.787614 -2.394231,1.289268 -4.326932,2.117568 -5.708727,4.328072 -1.381795,2.210503 -2.209919,5.79904 -2.486311,7.825118 -0.276391,2.026078 -2.68e-4,2.486284 -1.289533,3.82174 -1.289266,1.335456 -4.14165,3.543752 -4.786482,5.892348 -0.644832,2.348596 0.91977,4.833552 1.288341,7.088933 0.368571,2.255381 -0.459982,4.280732 -1.28888,6.352965 -0.828898,2.072233 -1.657045,4.188609 -1.01219,6.353503 0.644855,2.164895 2.761286,4.373345 3.498016,6.720594 0.736729,2.347248 0.09224,4.833146 -0.230165,6.951295 -0.322402,2.11814 -0.322402,3.86666 -3.9e-5,5.20235 0.322363,1.3357 0.966494,2.25589 1.564986,3.26869 0.598492,1.0128 1.150802,2.11742 1.289047,3.54447 0.138245,1.42706 -0.137868,3.17578 0.276743,4.55776 0.414612,1.38198 1.518748,2.39411 2.20921,4.28104 0.690463,1.88694 0.966688,4.64919 1.611313,6.81344 0.644625,2.16424 1.657083,3.72895 2.808656,4.51168 1.151573,0.78273 2.440365,0.78273 4.418368,2.07073 1.978003,1.28801 4.650137,3.868 6.583799,5.47933 1.933663,1.61133 3.130595,2.25584 4.373778,2.20947 1.243183,-0.0464 2.532565,-0.78315 3.63632,-0.41533 1.103756,0.36781 2.025312,1.8423 3.72938,2.71719 1.704068,0.87488 4.189536,1.15104 6.260999,1.05884 2.071462,-0.0922 3.729329,-0.55272 5.109565,-0.46063 1.380235,0.0921 2.48588,0.73706 3.590991,0.96708 1.105111,0.23002 2.210277,0.0458 3.54445,-0.78245 1.334174,-0.82827 2.900996,-2.30293 4.097552,-3.59164 1.196557,-1.2887 2.025743,-2.39428 3.117296,-3.29968 1.091552,-0.90539 2.447148,-1.6126 3.802596,-2.31973 0,0 -1.381068,-4.97184 -1.381068,-4.97184 0.02562,-0.0294 0.05226,-0.06 -0.211467,-1.40831 -0.263729,-1.34826 -0.816684,-4.02088 -1.691168,-6.13799 -0.874483,-2.11711 -2.071751,-3.68277 -2.716204,-5.93878 -0.644452,-2.25602 -0.736532,-5.20257 -0.828614,-7.1819 -0.09208,-1.97933 -0.184184,-2.99245 0.04591,-4.83281 0.230093,-1.84037 0.783012,-4.51281 1.013063,-6.63 0.23005,-2.117185 0.137939,-3.683074 0.322118,-5.385959 0.184179,-1.702884 0.644811,-3.545411 0.920881,-5.202163 0.276071,-1.656752 0.368201,-3.130832 0.644448,-4.465509 0.276247,-1.334676 0.736934,-2.532462 1.473353,-3.268451 0.73642,-0.735988 1.750224,-1.01248 3.406148,-1.886506 1.655925,-0.874026 3.960397,-2.348888 5.387239,-3.407707 1.426841,-1.058819 1.979547,-1.703642 3.956261,-1.933412 1.976714,-0.22977 5.389005,-0.04532 7.828645,0.138823 2.43964,0.184145 3.91319,0.368338 5.20139,1.150425 1.28819,0.782088 2.39369,2.163964 4.41967,3.499216 2.02598,1.335253 4.972,2.624136 6.99716,4.188947 2.02515,1.564811 3.13018,3.406534 3.6827,5.293795 0.55251,1.88726 0.55251,3.820446 1.013,5.93892 0.46049,2.118474 1.38073,4.419061 2.07131,6.122511 0.69059,1.70345 1.15084,2.80806 1.243,4.834 0.0922,2.02594 -0.18392,4.97089 0.045,7.39041 0.22896,2.41952 0.96246,4.30931 0.77747,6.36058 -0.185,2.05126 -1.28936,4.25998 -2.1641,6.33148 -0.87474,2.07151 -1.51881,4.00372 -1.79549,5.432 -0.27667,1.42828 -0.18466,2.34842 -0.32112,3.10577 -0.13645,0.75736 -0.50237,1.35183 -0.8904,1.98197 -0.38804,0.63015 -0.799,1.29726 -1.20918,1.96312 1.60711,0.99143 3.21451,1.98303 5.44544,2.5247 2.23093,0.54168 5.08527,0.63375 7.20215,1.50808 2.11688,0.87433 3.49842,2.53217 5.84663,3.77527 2.34821,1.2431 5.66277,2.07174 8.05655,0.9662 2.39379,-1.10554 3.86693,-4.14389 7.03303,-4.98324 3.16609,-0.83934 8.02505,0.51893 10.54629,-1.47268 2.52123,-1.99161 2.72515,-7.90516 4.73927,-11.39778 2.01412,-3.49262 7.54644,-6.67076 9.18664,-8.846 1.64019,-2.17524 1.20843,-5.41348 1.02459,-7.20662 -0.18384,-1.79313 -0.18384,-2.62276 0.32325,-3.31317 0.50708,-0.69041 1.51967,-1.24273 2.1176,-2.48605 0.59793,-1.24331 0.78204,-3.17653 1.50774,-4.72683 0.7257,-1.55029 1.99174,-2.717242 1.32467,-4.701038 -0.66707,-1.983796 -3.26595,-4.784833 -3.20795,-7.608462 0.058,-2.823628 2.77186,-5.668494 3.34839,-7.965195 0.57654,-2.296701 -0.9832,-4.045996 -1.21307,-6.256335 -0.22988,-2.21034 0.8695,-4.880287 1.05059,-6.767291 0.18108,-1.887004 -0.55544,-2.991794 -1.01576,-4.971747 -0.46031,-1.979953 -0.64445,-4.834015 -1.47308,-6.997245 -0.82863,-2.163231 -2.30172,-3.636322 -3.40669,-5.33994 -1.10497,-1.703618 -1.84152,-3.637055 -2.85414,-5.109881 -1.01263,-1.472826 -2.30148,-2.485494 -3.59075,-4.005003 -1.28928,-1.519509 -2.57814,-3.544867 -3.49888,-5.248345 -0.92075,-1.703478 -1.47315,-3.084484 -3.12998,-4.096926 -1.65684,-1.012443 -4.41811,-1.656739 -6.01988,-2.935185 -1.60177,-1.278445 -2.04119,-3.188638 -2.85956,-5.294909 -0.81837,-2.106271 -2.01503,-4.407535 -3.9019,-6.018413 -1.88686,-1.610878 -4.46528,-2.531742 -7.50399,-3.544651 -3.03871,-1.012908 -6.53664,-2.117517 -8.7001,-2.440154 -2.16347,-0.322636 -2.99196,0.137637 -4.97397,-5.83e-4 -1.98201,-0.13822 -5.10794,-0.873733 -8.10079,-2.070845 -2.99285,-1.1971121 -5.84639,-2.8540117 -8.88452,-3.4526186 -3.03812,-0.5986069 -6.26026,-0.1383014 -8.28623,-0.046099 -2.02597,0.092203 -2.85432,-0.1839143 -4.78895,-0.920914 C 101.64492,6.005351 98.608776,4.8092922 95.662591,4.7169917 92.716405,4.6246912 89.862691,5.6372994 87.422368,6.4200731 84.982045,7.2028468 82.957333,7.7550409 81.115302,7.9853763 79.273271,8.2157116 77.616959,8.1236877 76.235546,8.768 c -1.381414,0.6443124 -2.48564,2.024595 -3.729001,3.129975 -1.243361,1.10538 -2.623332,1.933362 -4.742384,2.071662 -2.119053,0.1383 -4.970829,-0.413657 -6.858397,-0.04584 -1.887568,0.367817 -2.80803,1.656464 -3.821303,3.084254 -1.013273,1.427791 -2.117154,2.991623 -2.209359,4.41967 -0.09221,1.428048 0.827836,2.716107 0.690273,3.452697 -0.137564,0.736591 -1.334314,0.920707 -1.334347,1.704011 -3.3e-5,0.783304 1.195766,2.163071 0.137297,2.347349 z"
       id="path5620"
       inkscape:connector-curvature="0"
       inkscape:path-effect="#path-effect5622"
       inkscape:original-d="m 56.623785,30.128644 c -3.313563,-1.013783 -6.628126,-2.026566 -9.943689,-3.038349 -0.551533,1.748688 -1.103854,3.497705 -1.657281,5.248058 -1.74955,1.196744 -3.497706,2.392851 -5.248059,3.590777 1.106579,1.7495 2.210709,3.497705 3.314563,5.248058 -2.853636,1.748616 -5.707414,3.497705 -8.562621,5.248058 -1.933289,0.827981 -3.86599,1.656282 -5.800485,2.485922 -0.828158,3.592018 -1.656282,7.180554 -2.485922,10.77233 0.277303,0.459506 0.553427,0.919712 0.82864,1.381068 -2.85503,2.210121 -5.707414,4.418417 -8.562621,6.629126 1.566819,2.485889 3.131421,4.970845 4.695631,7.457767 -0.827729,2.024782 -1.656281,4.050133 -2.485922,6.076699 -0.828135,2.117899 -1.656282,4.234275 -2.485922,6.352912 2.119844,2.209968 4.236275,4.418418 6.352912,6.629126 -0.643505,2.484947 -1.287997,4.970845 -1.933495,7.457764 0.001,1.74919 0.001,3.49771 0,5.24806 0.645867,0.92024 1.289997,1.84043 1.933495,2.76214 0.553548,1.10409 1.105855,2.20871 1.657282,3.31456 -0.275314,1.74899 -0.551427,3.49771 -0.828641,5.24806 1.106568,1.01244 2.210709,2.02456 3.314563,3.03835 0.277202,2.76102 0.553427,5.52327 0.828641,8.28641 1.01411,1.56471 2.026566,3.12942 3.038349,4.69563 1.290202,-0.001 2.578994,-0.001 3.86699,0 2.668994,2.57499 5.34113,5.15498 8.010194,7.73398 1.197918,0.64349 2.394851,1.28799 3.590777,1.93349 1.289611,-0.73735 2.578993,-1.47414 3.86699,-2.20971 0.920866,1.47079 1.842424,2.94528 2.762136,4.41942 2.487377,0.27526 4.972845,0.55143 7.457767,0.82864 1.657696,-0.46119 3.315563,-0.92171 4.971844,-1.38107 1.105064,0.64304 2.210709,1.288 3.314564,1.9335 1.105543,-0.18509 2.210708,-0.36929 3.314563,-0.55243 1.564602,-1.47262 3.13142,-2.94728 4.695631,-4.41942 0.829095,-1.10512 1.658281,-2.2107 2.485922,-3.31456 1.355084,-0.70747 4.066345,-2.12139 4.066345,-2.12139 l -1.381068,-4.97184 c 0,0 0.05231,-0.06 0.07686,-0.0883 -0.550898,-2.66851 -1.103855,-5.34113 -1.657282,-8.0102 -1.195584,-1.56576 -2.392851,-3.13142 -3.590776,-4.69563 -0.09106,-2.947 -0.183143,-5.89355 -0.276214,-8.83883 -0.09104,-1.01345 -0.183142,-2.02657 -0.276214,-3.03835 0.552936,-2.66869 1.105855,-5.34113 1.657282,-8.010195 -0.09103,-1.565532 -0.183143,-3.131421 -0.276214,-4.695631 0.46108,-1.841321 0.921712,-3.683848 1.381068,-5.524272 0.09301,-1.473198 0.185143,-2.947278 0.276214,-4.419417 0.461025,-1.197066 0.921712,-2.394852 1.381068,-3.590777 1.012762,-0.276935 2.026566,-0.553427 3.038349,-0.828641 2.300088,-1.472416 4.60456,-2.947278 6.90534,-4.419417 0.553148,-0.645173 1.105854,-1.289997 1.657281,-1.933495 3.401976,0.182836 6.81427,0.367284 10.2199,0.552427 1.47373,0.183091 2.94728,0.367285 4.41942,0.552427 1.10521,1.37926 2.21071,2.761136 3.31456,4.143204 2.94754,1.28811 5.89356,2.576993 8.83884,3.86699 1.10567,1.840129 2.21071,3.681848 3.31456,5.524272 10e-4,1.932804 10e-4,3.86599 0,5.800485 0.92219,2.30197 1.84242,4.60256 2.76214,6.90534 0.46146,1.1041 0.92171,2.20871 1.38106,3.31456 -0.27533,2.94661 -0.55142,5.89156 -0.82864,8.83884 0.73554,1.89118 1.46904,3.78097 2.2025,5.67449 -1.10433,2.20972 -2.20868,4.41844 -3.31456,6.62913 -0.64339,1.93232 -1.28746,3.86453 -1.93349,5.80048 0.0932,0.92028 0.18522,1.84042 0.27621,2.76214 -0.36478,0.59329 -0.73069,1.18776 -1.09765,1.78327 -0.40911,0.66478 -1.23055,1.99757 -1.23055,1.99757 0,0 3.21529,1.98177 4.82133,2.97428 2.85507,0.0911 5.70941,0.18314 8.56262,0.27621 1.3816,1.65572 2.76314,3.31356 4.14321,4.97184 3.31556,0.82765 6.63012,1.65629 9.94368,2.48593 1.47414,-3.03935 2.94728,-6.0777 4.41942,-9.11505 4.85999,1.35717 9.71895,2.71544 14.57688,4.07481 0.18522,-5.34126 0.38914,-11.25481 0.55243,-16.02039 3.86371,-2.22005 9.39603,-5.39819 12.98203,-7.45777 -0.30421,-2.29071 -0.73597,-5.52895 -1.10485,-8.28641 0.001,-0.82865 0.001,-1.65828 0,-2.48592 1.01396,-0.55357 2.02655,-1.10589 3.03835,-1.65728 0.18523,-1.93476 0.36935,-3.86798 0.55242,-5.80049 1.26732,-1.16822 2.53335,-2.335174 3.79854,-3.501249 -2.59816,-2.802501 -5.19704,-5.603539 -7.79718,-8.403693 2.71503,-2.846048 5.4289,-5.690911 8.14185,-8.53486 -1.55876,-1.750489 -3.1185,-3.499782 -4.67937,-5.248059 1.10052,-2.671166 2.1999,-5.341115 3.2983,-8.010194 -0.73552,-1.105982 -1.47205,-2.21077 -2.20971,-3.314563 -0.18307,-2.855357 -0.36721,-5.709418 -0.55243,-8.562621 -1.4721,-1.474267 -2.94519,-2.947357 -4.41941,-4.419417 -0.7355,-1.93459 -1.47205,-3.868026 -2.20971,-5.800485 -1.28795,-1.013895 -2.5768,-2.026562 -3.86699,-3.03835 -1.28804,-2.026834 -2.5769,-4.052194 -3.86699,-6.076699 -0.55136,-1.38217 -1.10376,-2.763176 -1.65728,-4.143204 -2.76115,-0.645606 -5.52242,-1.289902 -8.28641,-1.933495 -0.43859,-1.912318 -0.87801,-3.822512 -1.31862,-5.732088 -1.1962,-2.303296 -2.39286,-4.604559 -3.59078,-6.905339 -2.57657,-0.921561 -5.15499,-1.842424 -7.73398,-2.762136 -3.49848,-1.106099 -6.99641,-2.210709 -10.49612,-3.314563 -0.82779,0.459438 -1.65628,0.919712 -2.48592,1.381068 -3.13391,-0.738626 -6.25984,-1.474139 -9.39126,-2.209709 -2.85387,-1.6586651 -5.70742,-3.3155629 -8.56262,-4.9718444 -3.22185,0.4594065 -6.44399,0.9197119 -9.66748,1.3810679 -0.82793,-0.2773096 -1.65628,-0.5534272 -2.48592,-0.8286408 -3.03955,-1.1987921 -6.075699,-2.394851 -9.115048,-3.5907766 -2.8537,1.0119581 -5.707414,2.0245663 -8.562621,3.0383495 -2.025421,0.55166 -4.050133,1.1038543 -6.076699,1.6572815 C 79.27333,8.214646 77.617018,8.1226287 75.958736,8.0315575 74.854254,9.41241 73.750028,10.792693 72.644173,12.174761 c -1.381165,0.8283 -2.761136,1.656282 -4.143204,2.485923 -2.855638,-0.553898 -5.707414,-1.105855 -8.562621,-1.657282 -0.919962,1.288348 -1.840424,2.576994 -2.762136,3.86699 -1.104827,1.565589 -2.208708,3.129421 -3.314563,4.695631 0.922382,1.288935 1.842424,2.576994 2.762136,3.86699 -1.196101,0.18317 -2.392851,0.367285 -3.590776,0.552428 1.199052,1.381368 2.394851,2.761135 3.590776,4.143203 z"
       sodipodi:nodetypes="cccccccccccccccccccccccccccccccccccccccccccccccccccccccccccccccccccccaacccccccccccccccccccccccccccccccccccccc" />
  </g>
</svg>
