<?xml version="1.0" encoding="UTF-8" standalone="no"?>
<!-- Created with Inkscape (http://www.inkscape.org/) -->

<svg
   xmlns:dc="http://purl.org/dc/elements/1.1/"
   xmlns:cc="http://creativecommons.org/ns#"
   xmlns:rdf="http://www.w3.org/1999/02/22-rdf-syntax-ns#"
   xmlns:svg="http://www.w3.org/2000/svg"
   xmlns="http://www.w3.org/2000/svg"
   xmlns:sodipodi="http://sodipodi.sourceforge.net/DTD/sodipodi-0.dtd"
   xmlns:inkscape="http://www.inkscape.org/namespaces/inkscape"
   width="200px"
   height="200px"
   viewBox="0 0 200 200"
   version="1.1"
   id="SVGRoot"
   sodipodi:docname="hair-18.svg"
   inkscape:version="0.92.4 (5da689c313, 2019-01-14)">
  <defs
     id="defs909">
    <inkscape:path-effect
       effect="bspline"
       id="path-effect13807"
       is_visible="true"
       weight="33.333333"
       steps="2"
       helper_size="0"
       apply_no_weight="true"
       apply_with_weight="true"
       only_selected="false" />
    <inkscape:path-effect
       effect="bspline"
       id="path-effect13802"
       is_visible="true"
       weight="33.333333"
       steps="2"
       helper_size="0"
       apply_no_weight="true"
       apply_with_weight="true"
       only_selected="false" />
    <inkscape:path-effect
       effect="bspline"
       id="path-effect13798"
       is_visible="true"
       weight="33.333333"
       steps="2"
       helper_size="0"
       apply_no_weight="true"
       apply_with_weight="true"
       only_selected="false" />
    <inkscape:path-effect
       effect="bspline"
       id="path-effect13790"
       is_visible="true"
       weight="33.333333"
       steps="2"
       helper_size="0"
       apply_no_weight="true"
       apply_with_weight="true"
       only_selected="false" />
    <inkscape:path-effect
       effect="bspline"
       id="path-effect13786"
       is_visible="true"
       weight="33.333333"
       steps="2"
       helper_size="0"
       apply_no_weight="true"
       apply_with_weight="true"
       only_selected="false" />
    <inkscape:path-effect
       effect="bspline"
       id="path-effect13782"
       is_visible="true"
       weight="33.333333"
       steps="2"
       helper_size="0"
       apply_no_weight="true"
       apply_with_weight="true"
       only_selected="false" />
    <inkscape:path-effect
       effect="bspline"
       id="path-effect13777"
       is_visible="true"
       weight="33.333333"
       steps="2"
       helper_size="0"
       apply_no_weight="true"
       apply_with_weight="true"
       only_selected="false" />
    <inkscape:path-effect
       effect="bspline"
       id="path-effect13771"
       is_visible="true"
       weight="33.333333"
       steps="2"
       helper_size="0"
       apply_no_weight="true"
       apply_with_weight="true"
       only_selected="false" />
    <inkscape:path-effect
       effect="bspline"
       id="path-effect13767"
       is_visible="true"
       weight="33.333333"
       steps="2"
       helper_size="0"
       apply_no_weight="true"
       apply_with_weight="true"
       only_selected="false" />
    <inkscape:path-effect
       effect="bspline"
       id="path-effect13762"
       is_visible="true"
       weight="33.333333"
       steps="2"
       helper_size="0"
       apply_no_weight="true"
       apply_with_weight="true"
       only_selected="false" />
    <inkscape:path-effect
       effect="bspline"
       id="path-effect13758"
       is_visible="true"
       weight="33.333333"
       steps="2"
       helper_size="0"
       apply_no_weight="true"
       apply_with_weight="true"
       only_selected="false" />
    <inkscape:path-effect
       effect="bspline"
       id="path-effect13754"
       is_visible="true"
       weight="33.333333"
       steps="2"
       helper_size="0"
       apply_no_weight="true"
       apply_with_weight="true"
       only_selected="false" />
    <inkscape:path-effect
       effect="bspline"
       id="path-effect13746"
       is_visible="true"
       weight="33.333333"
       steps="2"
       helper_size="0"
       apply_no_weight="true"
       apply_with_weight="true"
       only_selected="false" />
    <inkscape:path-effect
       effect="bspline"
       id="path-effect13517"
       is_visible="true"
       weight="33.333333"
       steps="2"
       helper_size="0"
       apply_no_weight="true"
       apply_with_weight="true"
       only_selected="false" />
    <inkscape:path-effect
       effect="bspline"
       id="path-effect13513"
       is_visible="true"
       weight="33.333333"
       steps="2"
       helper_size="0"
       apply_no_weight="true"
       apply_with_weight="true"
       only_selected="false" />
    <inkscape:path-effect
       effect="bspline"
       id="path-effect13509"
       is_visible="true"
       weight="33.333333"
       steps="2"
       helper_size="0"
       apply_no_weight="true"
       apply_with_weight="true"
       only_selected="false" />
    <inkscape:path-effect
       effect="bspline"
       id="path-effect13505"
       is_visible="true"
       weight="33.333333"
       steps="2"
       helper_size="0"
       apply_no_weight="true"
       apply_with_weight="true"
       only_selected="false" />
    <inkscape:path-effect
       effect="bspline"
       id="path-effect13501"
       is_visible="true"
       weight="33.333333"
       steps="2"
       helper_size="0"
       apply_no_weight="true"
       apply_with_weight="true"
       only_selected="false" />
    <inkscape:path-effect
       effect="bspline"
       id="path-effect13469"
       is_visible="true"
       weight="33.333333"
       steps="2"
       helper_size="0"
       apply_no_weight="true"
       apply_with_weight="true"
       only_selected="false" />
    <inkscape:path-effect
       effect="bspline"
       id="path-effect13465"
       is_visible="true"
       weight="33.333333"
       steps="2"
       helper_size="0"
       apply_no_weight="true"
       apply_with_weight="true"
       only_selected="false" />
    <inkscape:path-effect
       effect="bspline"
       id="path-effect13461"
       is_visible="true"
       weight="33.333333"
       steps="2"
       helper_size="0"
       apply_no_weight="true"
       apply_with_weight="true"
       only_selected="false" />
    <inkscape:path-effect
       effect="bspline"
       id="path-effect13457"
       is_visible="true"
       weight="33.333333"
       steps="2"
       helper_size="0"
       apply_no_weight="true"
       apply_with_weight="true"
       only_selected="false" />
    <inkscape:path-effect
       effect="bspline"
       id="path-effect13453"
       is_visible="true"
       weight="33.333333"
       steps="2"
       helper_size="0"
       apply_no_weight="true"
       apply_with_weight="true"
       only_selected="false" />
    <inkscape:path-effect
       effect="bspline"
       id="path-effect13449"
       is_visible="true"
       weight="33.333333"
       steps="2"
       helper_size="0"
       apply_no_weight="true"
       apply_with_weight="true"
       only_selected="false" />
    <inkscape:path-effect
       effect="bspline"
       id="path-effect13445"
       is_visible="true"
       weight="33.333333"
       steps="2"
       helper_size="0"
       apply_no_weight="true"
       apply_with_weight="true"
       only_selected="false" />
    <inkscape:path-effect
       effect="bspline"
       id="path-effect13441"
       is_visible="true"
       weight="33.333333"
       steps="2"
       helper_size="0"
       apply_no_weight="true"
       apply_with_weight="true"
       only_selected="false" />
    <inkscape:path-effect
       effect="bspline"
       id="path-effect13437"
       is_visible="true"
       weight="33.333333"
       steps="2"
       helper_size="0"
       apply_no_weight="true"
       apply_with_weight="true"
       only_selected="false" />
    <inkscape:path-effect
       effect="bspline"
       id="path-effect13433"
       is_visible="true"
       weight="33.333333"
       steps="2"
       helper_size="0"
       apply_no_weight="true"
       apply_with_weight="true"
       only_selected="false" />
    <inkscape:path-effect
       effect="bspline"
       id="path-effect13429"
       is_visible="true"
       weight="33.333333"
       steps="2"
       helper_size="0"
       apply_no_weight="true"
       apply_with_weight="true"
       only_selected="false" />
    <inkscape:path-effect
       effect="bspline"
       id="path-effect13425"
       is_visible="true"
       weight="33.333333"
       steps="2"
       helper_size="0"
       apply_no_weight="true"
       apply_with_weight="true"
       only_selected="false" />
    <inkscape:path-effect
       effect="bspline"
       id="path-effect13421"
       is_visible="true"
       weight="33.333333"
       steps="2"
       helper_size="0"
       apply_no_weight="true"
       apply_with_weight="true"
       only_selected="false" />
    <inkscape:path-effect
       effect="bspline"
       id="path-effect13417"
       is_visible="true"
       weight="33.333333"
       steps="2"
       helper_size="0"
       apply_no_weight="true"
       apply_with_weight="true"
       only_selected="false" />
    <inkscape:path-effect
       effect="bspline"
       id="path-effect13413"
       is_visible="true"
       weight="33.333333"
       steps="2"
       helper_size="0"
       apply_no_weight="true"
       apply_with_weight="true"
       only_selected="false" />
    <inkscape:path-effect
       effect="bspline"
       id="path-effect13409"
       is_visible="true"
       weight="33.333333"
       steps="2"
       helper_size="0"
       apply_no_weight="true"
       apply_with_weight="true"
       only_selected="false" />
    <inkscape:path-effect
       effect="bspline"
       id="path-effect13405"
       is_visible="true"
       weight="33.333333"
       steps="2"
       helper_size="0"
       apply_no_weight="true"
       apply_with_weight="true"
       only_selected="false" />
    <inkscape:path-effect
       effect="bspline"
       id="path-effect13401"
       is_visible="true"
       weight="33.333333"
       steps="2"
       helper_size="0"
       apply_no_weight="true"
       apply_with_weight="true"
       only_selected="false" />
    <inkscape:path-effect
       only_selected="false"
       apply_with_weight="true"
       apply_no_weight="true"
       helper_size="0"
       steps="2"
       weight="33.333333"
       is_visible="true"
       id="path-effect13397"
       effect="bspline" />
    <inkscape:path-effect
       effect="bspline"
       id="path-effect13393"
       is_visible="true"
       weight="33.333333"
       steps="2"
       helper_size="0"
       apply_no_weight="true"
       apply_with_weight="true"
       only_selected="false" />
    <inkscape:path-effect
       effect="bspline"
       id="path-effect13389"
       is_visible="true"
       weight="33.333333"
       steps="2"
       helper_size="0"
       apply_no_weight="true"
       apply_with_weight="true"
       only_selected="false" />
    <inkscape:path-effect
       effect="bspline"
       id="path-effect13385"
       is_visible="true"
       weight="33.333333"
       steps="2"
       helper_size="0"
       apply_no_weight="true"
       apply_with_weight="true"
       only_selected="false" />
    <inkscape:path-effect
       effect="bspline"
       id="path-effect13377"
       is_visible="true"
       weight="33.333333"
       steps="2"
       helper_size="0"
       apply_no_weight="true"
       apply_with_weight="true"
       only_selected="false" />
    <inkscape:path-effect
       effect="bspline"
       id="path-effect13372"
       is_visible="true"
       weight="33.333333"
       steps="2"
       helper_size="0"
       apply_no_weight="true"
       apply_with_weight="true"
       only_selected="false" />
    <inkscape:path-effect
       effect="bspline"
       id="path-effect13367"
       is_visible="true"
       weight="33.333333"
       steps="2"
       helper_size="0"
       apply_no_weight="true"
       apply_with_weight="true"
       only_selected="false" />
    <inkscape:path-effect
       effect="bspline"
       id="path-effect13363"
       is_visible="true"
       weight="33.333333"
       steps="2"
       helper_size="0"
       apply_no_weight="true"
       apply_with_weight="true"
       only_selected="false" />
    <inkscape:path-effect
       effect="bspline"
       id="path-effect13359"
       is_visible="true"
       weight="33.333333"
       steps="2"
       helper_size="0"
       apply_no_weight="true"
       apply_with_weight="true"
       only_selected="false" />
    <inkscape:path-effect
       effect="bspline"
       id="path-effect13355"
       is_visible="true"
       weight="33.333333"
       steps="2"
       helper_size="0"
       apply_no_weight="true"
       apply_with_weight="true"
       only_selected="false" />
    <inkscape:path-effect
       effect="bspline"
       id="path-effect13351"
       is_visible="true"
       weight="33.333333"
       steps="2"
       helper_size="0"
       apply_no_weight="true"
       apply_with_weight="true"
       only_selected="false" />
    <inkscape:path-effect
       effect="bspline"
       id="path-effect13347"
       is_visible="true"
       weight="33.333333"
       steps="2"
       helper_size="0"
       apply_no_weight="true"
       apply_with_weight="true"
       only_selected="false" />
    <inkscape:path-effect
       effect="bspline"
       id="path-effect13343"
       is_visible="true"
       weight="33.333333"
       steps="2"
       helper_size="0"
       apply_no_weight="true"
       apply_with_weight="true"
       only_selected="false" />
    <inkscape:path-effect
       only_selected="false"
       apply_with_weight="true"
       apply_no_weight="true"
       helper_size="0"
       steps="2"
       weight="33.333333"
       is_visible="true"
       id="path-effect13339"
       effect="bspline" />
    <inkscape:path-effect
       effect="bspline"
       id="path-effect13335"
       is_visible="true"
       weight="33.333333"
       steps="2"
       helper_size="0"
       apply_no_weight="true"
       apply_with_weight="true"
       only_selected="false" />
    <inkscape:path-effect
       effect="bspline"
       id="path-effect13331"
       is_visible="true"
       weight="33.333333"
       steps="2"
       helper_size="0"
       apply_no_weight="true"
       apply_with_weight="true"
       only_selected="false" />
    <inkscape:path-effect
       only_selected="false"
       apply_with_weight="true"
       apply_no_weight="true"
       helper_size="0"
       steps="2"
       weight="33.333333"
       is_visible="true"
       id="path-effect13327"
       effect="bspline" />
    <inkscape:path-effect
       effect="bspline"
       id="path-effect13323"
       is_visible="true"
       weight="33.333333"
       steps="2"
       helper_size="0"
       apply_no_weight="true"
       apply_with_weight="true"
       only_selected="false" />
    <inkscape:path-effect
       effect="bspline"
       id="path-effect13319"
       is_visible="true"
       weight="33.333333"
       steps="2"
       helper_size="0"
       apply_no_weight="true"
       apply_with_weight="true"
       only_selected="false" />
    <inkscape:path-effect
       effect="bspline"
       id="path-effect13315"
       is_visible="true"
       weight="33.333333"
       steps="2"
       helper_size="0"
       apply_no_weight="true"
       apply_with_weight="true"
       only_selected="false" />
    <inkscape:path-effect
       effect="bspline"
       id="path-effect13311"
       is_visible="true"
       weight="33.333333"
       steps="2"
       helper_size="0"
       apply_no_weight="true"
       apply_with_weight="true"
       only_selected="false" />
    <inkscape:path-effect
       only_selected="false"
       apply_with_weight="true"
       apply_no_weight="true"
       helper_size="0"
       steps="2"
       weight="33.333333"
       is_visible="true"
       id="path-effect13307"
       effect="bspline" />
    <inkscape:path-effect
       effect="bspline"
       id="path-effect13303"
       is_visible="true"
       weight="33.333333"
       steps="2"
       helper_size="0"
       apply_no_weight="true"
       apply_with_weight="true"
       only_selected="false" />
    <inkscape:path-effect
       effect="bspline"
       id="path-effect13299"
       is_visible="true"
       weight="33.333333"
       steps="2"
       helper_size="0"
       apply_no_weight="true"
       apply_with_weight="true"
       only_selected="false" />
    <inkscape:path-effect
       only_selected="false"
       apply_with_weight="true"
       apply_no_weight="true"
       helper_size="0"
       steps="2"
       weight="33.333333"
       is_visible="true"
       id="path-effect13287"
       effect="bspline" />
    <inkscape:path-effect
       effect="bspline"
       id="path-effect13283"
       is_visible="true"
       weight="33.333333"
       steps="2"
       helper_size="0"
       apply_no_weight="true"
       apply_with_weight="true"
       only_selected="false" />
    <inkscape:path-effect
       effect="bspline"
       id="path-effect13279"
       is_visible="true"
       weight="33.333333"
       steps="2"
       helper_size="0"
       apply_no_weight="true"
       apply_with_weight="true"
       only_selected="false" />
    <inkscape:path-effect
       effect="bspline"
       id="path-effect13271"
       is_visible="true"
       weight="33.333333"
       steps="2"
       helper_size="0"
       apply_no_weight="true"
       apply_with_weight="true"
       only_selected="false" />
    <inkscape:path-effect
       effect="bspline"
       id="path-effect13267"
       is_visible="true"
       weight="33.333333"
       steps="2"
       helper_size="0"
       apply_no_weight="true"
       apply_with_weight="true"
       only_selected="false" />
    <inkscape:path-effect
       effect="bspline"
       id="path-effect13263"
       is_visible="true"
       weight="33.333333"
       steps="2"
       helper_size="0"
       apply_no_weight="true"
       apply_with_weight="true"
       only_selected="false" />
    <inkscape:path-effect
       effect="bspline"
       id="path-effect13256"
       is_visible="true"
       weight="33.333333"
       steps="2"
       helper_size="0"
       apply_no_weight="true"
       apply_with_weight="true"
       only_selected="false" />
    <inkscape:path-effect
       effect="bspline"
       id="path-effect13252"
       is_visible="true"
       weight="33.333333"
       steps="2"
       helper_size="0"
       apply_no_weight="true"
       apply_with_weight="true"
       only_selected="false" />
    <inkscape:path-effect
       effect="bspline"
       id="path-effect13238"
       is_visible="true"
       weight="33.333333"
       steps="2"
       helper_size="0"
       apply_no_weight="true"
       apply_with_weight="true"
       only_selected="false" />
    <inkscape:path-effect
       effect="bspline"
       id="path-effect13234"
       is_visible="true"
       weight="33.333333"
       steps="2"
       helper_size="0"
       apply_no_weight="true"
       apply_with_weight="true"
       only_selected="false" />
    <inkscape:path-effect
       effect="bspline"
       id="path-effect13230"
       is_visible="true"
       weight="33.333333"
       steps="2"
       helper_size="0"
       apply_no_weight="true"
       apply_with_weight="true"
       only_selected="false" />
    <inkscape:path-effect
       effect="bspline"
       id="path-effect13224"
       is_visible="true"
       weight="33.333333"
       steps="2"
       helper_size="0"
       apply_no_weight="true"
       apply_with_weight="true"
       only_selected="false" />
    <inkscape:path-effect
       effect="bspline"
       id="path-effect13220"
       is_visible="true"
       weight="33.333333"
       steps="2"
       helper_size="0"
       apply_no_weight="true"
       apply_with_weight="true"
       only_selected="false" />
    <inkscape:path-effect
       effect="bspline"
       id="path-effect13216"
       is_visible="true"
       weight="33.333333"
       steps="2"
       helper_size="0"
       apply_no_weight="true"
       apply_with_weight="true"
       only_selected="false" />
    <inkscape:path-effect
       effect="bspline"
       id="path-effect13212"
       is_visible="true"
       weight="33.333333"
       steps="2"
       helper_size="0"
       apply_no_weight="true"
       apply_with_weight="true"
       only_selected="false" />
    <inkscape:path-effect
       effect="bspline"
       id="path-effect13208"
       is_visible="true"
       weight="33.333333"
       steps="2"
       helper_size="0"
       apply_no_weight="true"
       apply_with_weight="true"
       only_selected="false" />
    <inkscape:path-effect
       effect="bspline"
       id="path-effect13204"
       is_visible="true"
       weight="33.333333"
       steps="2"
       helper_size="0"
       apply_no_weight="true"
       apply_with_weight="true"
       only_selected="false" />
    <inkscape:path-effect
       effect="bspline"
       id="path-effect13200"
       is_visible="true"
       weight="33.333333"
       steps="2"
       helper_size="0"
       apply_no_weight="true"
       apply_with_weight="true"
       only_selected="false" />
    <inkscape:path-effect
       effect="bspline"
       id="path-effect13196"
       is_visible="true"
       weight="33.333333"
       steps="2"
       helper_size="0"
       apply_no_weight="true"
       apply_with_weight="true"
       only_selected="false" />
    <inkscape:path-effect
       effect="bspline"
       id="path-effect13192"
       is_visible="true"
       weight="33.333333"
       steps="2"
       helper_size="0"
       apply_no_weight="true"
       apply_with_weight="true"
       only_selected="false" />
    <inkscape:path-effect
       effect="bspline"
       id="path-effect13188"
       is_visible="true"
       weight="33.333333"
       steps="2"
       helper_size="0"
       apply_no_weight="true"
       apply_with_weight="true"
       only_selected="false" />
    <inkscape:path-effect
       effect="bspline"
       id="path-effect12641"
       is_visible="true"
       weight="33.333333"
       steps="2"
       helper_size="0"
       apply_no_weight="true"
       apply_with_weight="true"
       only_selected="false" />
    <inkscape:path-effect
       effect="bspline"
       id="path-effect12637"
       is_visible="true"
       weight="33.333333"
       steps="2"
       helper_size="0"
       apply_no_weight="true"
       apply_with_weight="true"
       only_selected="false" />
    <inkscape:path-effect
       effect="bspline"
       id="path-effect12527"
       is_visible="true"
       weight="33.333333"
       steps="2"
       helper_size="0"
       apply_no_weight="true"
       apply_with_weight="true"
       only_selected="false" />
    <inkscape:path-effect
       effect="bspline"
       id="path-effect12520"
       is_visible="true"
       weight="33.333333"
       steps="2"
       helper_size="0"
       apply_no_weight="true"
       apply_with_weight="true"
       only_selected="false" />
    <inkscape:path-effect
       effect="bspline"
       id="path-effect1868"
       is_visible="true"
       weight="33.333333"
       steps="2"
       helper_size="0"
       apply_no_weight="true"
       apply_with_weight="true"
       only_selected="false" />
    <inkscape:path-effect
       effect="bspline"
       id="path-effect1853"
       is_visible="true"
       weight="33.333333"
       steps="2"
       helper_size="0"
       apply_no_weight="true"
       apply_with_weight="true"
       only_selected="false" />
  </defs>
  <sodipodi:namedview
     id="base"
     pagecolor="#ffffff"
     bordercolor="#666666"
     borderopacity="1.0"
     inkscape:pageopacity="0.0"
     inkscape:pageshadow="2"
     inkscape:zoom="5.12"
     inkscape:cx="70.739049"
     inkscape:cy="117.6737"
     inkscape:document-units="px"
     inkscape:current-layer="layer1"
     showgrid="false"
     inkscape:window-width="1920"
     inkscape:window-height="1001"
     inkscape:window-x="-9"
     inkscape:window-y="-9"
     inkscape:window-maximized="1"
     showguides="false" />
  <metadata
     id="metadata912">
    <rdf:RDF>
      <cc:Work
         rdf:about="">
        <dc:format>image/svg+xml</dc:format>
        <dc:type
           rdf:resource="http://purl.org/dc/dcmitype/StillImage" />
        <dc:title></dc:title>
      </cc:Work>
    </rdf:RDF>
  </metadata>
  <g
     inkscape:label="Layer 1"
     inkscape:groupmode="layer"
     id="layer1">
    <path
       style="fill:#dd925d;stroke:#000000;stroke-width:0;stroke-linecap:butt;stroke-linejoin:miter;stroke-opacity:1;fill-opacity:1;stroke-miterlimit:4;stroke-dasharray:none"
       d="M 80.726562 33.783203 C 79.608446 33.820324 78.561302 34.002878 77.865234 34.277344 C 76.627782 34.765282 76.497723 35.545169 75.552734 35.773438 C 74.607746 36.001705 72.852515 35.676493 71.224609 35.416016 C 69.596704 35.155538 68.099982 34.961241 67.220703 35.449219 C 66.341424 35.937196 66.080355 37.108171 66.503906 38.378906 C 66.510914 38.399931 66.523877 38.422282 66.53125 38.443359 C 66.286671 38.481226 66.017849 38.509367 65.785156 38.552734 C 63.068881 39.05897 61.229163 39.980605 61.275391 40.994141 C 61.321618 42.007676 63.252338 43.110259 63.298828 44.720703 C 63.345319 46.331148 61.505167 48.450688 59.294922 50.384766 C 59.04209 50.606007 58.77417 50.818148 58.513672 51.035156 C 57.11098 50.950829 55.780172 50.502677 54.916016 50.650391 C 53.77657 50.84516 53.449895 52.081508 52.798828 52.960938 C 52.147762 53.840364 51.172386 54.361819 50.488281 54.980469 C 49.804177 55.599119 49.415689 56.313861 49.1875 56.998047 C 48.959311 57.682233 48.893463 58.332502 48.535156 59.179688 C 48.17685 60.026873 47.526297 61.065943 46.875 61.945312 C 46.223703 62.824683 45.573423 63.539915 45.964844 64.224609 C 46.356265 64.909304 47.787779 65.559843 47.658203 66.373047 C 47.528627 67.186251 45.834233 68.162659 44.662109 68.878906 C 43.489986 69.595153 42.839911 70.051631 42.839844 70.736328 C 42.839776 71.421025 43.49014 72.330404 43.783203 73.306641 C 44.076266 74.282877 44.010455 75.324272 43.945312 76.431641 C 43.880171 77.53901 43.815178 78.709873 43.847656 79.458984 C 43.880134 80.208096 44.010912 80.533456 44.173828 80.957031 C 44.336745 81.380607 44.531759 81.899988 44.759766 82.583984 C 44.987773 83.267981 45.247044 84.114499 45.019531 84.863281 C 44.792019 85.612063 44.076073 86.262442 44.173828 87.142578 C 44.204064 87.414809 44.32749 87.714848 44.482422 88.029297 C 44.266582 89.180694 44.223123 90.28071 44.65625 91.125 C 45.068128 91.92787 45.907311 92.495923 46.835938 92.982422 C 46.95535 93.455723 47.046496 93.911748 47.070312 94.302734 C 47.135745 95.37681 46.810482 96.027369 47.136719 96.679688 C 47.462955 97.332006 48.437017 97.981838 48.990234 99.087891 C 49.543451 100.19394 49.674375 101.75756 49.511719 103.22266 C 49.349062 104.68776 48.893381 106.05271 48.958984 106.76953 C 49.024588 107.48635 49.609614 107.55224 49.804688 108.5918 C 49.990046 109.57959 49.839509 111.45522 50.185547 113.34375 C 49.798626 114.48763 49.403608 115.53423 49.121094 116.49023 C 48.522359 118.5163 48.429389 120.17279 49.996094 121.00195 C 50.756334 121.4043 51.909264 121.61084 53.085938 121.85938 C 53.490488 123.17337 53.911845 124.31333 54.65625 124.73828 C 55.398793 125.16217 56.45911 124.89234 57.583984 124.30469 C 58.372148 125.56196 58.747401 127.1018 59.755859 127.9082 C 61.137986 129.01341 63.713833 128.73662 65.785156 128.32227 C 67.585104 127.9622 69.00174 127.48426 70.369141 126.79492 C 70.382419 126.80376 70.397006 126.8135 70.410156 126.82227 C 71.288919 127.40811 71.875432 127.8638 72.494141 127.57031 C 73.112849 127.27683 73.763015 126.23624 74.869141 125.29297 C 75.975266 124.34969 77.540384 123.50186 78.548828 121.77734 C 79.557272 120.05283 80.014177 117.44708 80.535156 115.68945 C 81.056135 113.93183 81.640592 113.01889 81.542969 111.88086 C 81.445345 110.74283 80.663057 109.3746 80.728516 107.97461 C 80.793974 106.57462 81.706745 105.14262 82.064453 103.90625 C 82.422161 102.66988 82.225839 101.62594 82.095703 100.51953 C 81.965567 99.413127 81.90114 98.242056 82.324219 96.517578 C 82.747297 94.7931 83.660105 92.512124 83.5625 90.820312 C 83.464895 89.128501 82.357451 88.019998 81.771484 86.945312 C 81.185518 85.870627 81.119229 84.830641 81.509766 83.333984 C 81.900302 81.837327 82.747655 79.882182 83.105469 78.125 C 83.463282 76.367818 83.33326 74.803937 83.300781 73.697266 C 83.268303 72.590595 83.332468 71.938593 83.917969 71.158203 C 84.503469 70.377813 85.613185 69.465621 86.263672 68.359375 C 86.914158 67.253129 87.10956 65.949324 87.792969 65.396484 C 88.476378 64.843645 89.649281 65.040116 90.462891 64.779297 C 91.258408 64.524278 91.720881 63.825835 92.591797 62.974609 C 93.610924 62.586868 94.622457 62.264074 95.574219 62.033203 C 98.949663 61.214413 103.12805 61.699992 105.98828 59.625 C 106.34876 60.109881 106.84898 60.519523 107.42969 60.886719 C 107.8938 61.748652 108.56711 62.58727 109.17773 63.396484 C 110.2212 64.779316 111.0679 66.080924 112.14258 67.025391 C 113.21726 67.969857 114.51875 68.555262 115.75586 69.173828 C 116.99297 69.792395 118.16533 70.444165 118.7832 71.419922 C 119.40107 72.395679 119.46621 73.69641 119.92188 75.03125 C 120.37752 76.36609 121.22468 77.735141 122.10352 79.134766 C 122.98235 80.53439 123.894 81.967628 124.25195 83.626953 C 124.6099 85.286278 124.41509 87.173522 125.35156 88.222656 C 126.25082 89.230098 128.18435 89.473687 129.41016 90.75 C 129.4981 91.028082 129.60896 91.376725 129.68945 91.632812 C 130.07337 92.854248 130.45663 94.102242 130.95898 95.128906 C 131.02056 95.893694 131.02868 96.684195 130.98047 97.462891 C 130.82573 99.962098 129.85866 103.38735 129.54492 104.91602 C 129.23119 106.44468 128.97146 108.2034 129.00391 109.66797 C 129.02036 110.41067 129.11309 111.07583 129.29297 111.49805 C 129.23865 111.62279 129.18464 111.76571 129.13086 111.88672 C 128.02595 114.37296 127.05978 116.02896 126.13867 117.87109 C 125.21756 119.71323 124.34265 121.73812 123.30664 123.58008 C 122.27063 125.42203 121.07524 127.07788 121.16797 127.72266 C 121.26069 128.36744 122.64093 127.99935 124.32031 126.91797 C 125.24781 126.32074 126.24948 125.51515 127.22852 124.69531 C 127.48993 125.34135 127.94003 125.72232 128.41797 125.8457 C 129.42817 126.1065 130.53527 125.25934 131.38086 125.25977 C 132.22645 125.26019 132.81185 126.10631 133.69141 125.65039 C 134.57096 125.19447 135.74307 123.43672 137.37109 122.52539 C 137.62633 122.38252 137.89448 122.26789 138.16797 122.16602 C 138.16001 123.54232 138.66148 124.69923 139.0957 125.60547 C 139.62519 126.71051 140.04052 127.44841 141.58398 126.94141 C 142.75708 126.55607 144.49914 125.49677 146.06445 124.53516 C 146.1186 124.55892 146.1688 124.58811 146.22461 124.60938 C 147.59269 125.13063 149.47867 124.87024 150.35742 123.73047 C 150.75587 123.21367 150.94446 122.51346 151.08594 121.74805 C 152.00407 121.27133 153.05193 120.64292 153.75977 119.69141 C 154.49571 118.70211 154.86376 117.36463 155.09375 115.57031 C 155.13966 115.21217 155.19073 114.78035 155.23242 114.39062 C 156.05229 113.79098 156.75686 113.34841 157.19336 112.62891 C 157.74658 111.717 157.87708 110.35177 158.39844 109.66797 C 158.91979 108.98417 159.83166 108.98431 160.61328 108.46289 C 161.3949 107.94148 162.04384 106.90053 162.36914 105.24023 C 162.69444 103.57994 162.69609 101.30305 163.44531 100.13086 C 164.19453 98.958667 165.68974 98.893629 166.27539 97.851562 C 166.86104 96.809497 166.53578 94.791134 166.4707 92.902344 C 166.40563 91.013553 166.60103 89.257205 166.37305 87.076172 C 166.24992 85.898245 166.00605 84.599045 165.76953 83.302734 C 165.92064 83.042879 166.09391 82.746343 166.23438 82.494141 C 167.24682 80.676187 167.93766 79.016967 167.43164 77.337891 C 167.08446 76.185896 166.16752 75.031599 165.2207 73.998047 C 165.19061 72.495844 164.98757 71.158447 164.38867 70.410156 C 163.7382 69.597422 162.63224 69.46645 161.78516 68.75 C 160.93807 68.03355 160.35237 66.731598 159.89648 65.494141 C 159.4406 64.256683 159.11379 63.083928 158.69141 62.466797 C 158.26902 61.849665 157.74777 61.783217 156.83594 61.197266 C 155.92411 60.611314 154.62445 59.506108 153.875 58.59375 C 153.12555 57.681392 152.92921 56.965511 152.24609 56.445312 C 151.56298 55.925115 150.39267 55.598885 149.67578 54.751953 C 148.95889 53.905021 148.69728 52.538878 148.20898 51.367188 C 147.72069 50.195497 147.0052 49.218443 145.44336 48.632812 C 144.59059 48.313057 143.49141 48.102278 142.41992 47.845703 C 142.401 47.833484 142.38425 47.818757 142.36523 47.806641 C 141.38129 47.179639 140.27556 46.689967 139.0625 46.322266 C 138.18588 45.502563 137.66199 44.508234 136.91406 44.009766 C 135.9384 43.359521 134.57078 43.554946 133.36719 43.847656 C 132.1636 44.140366 131.12173 44.531035 130.14453 44.238281 C 129.16733 43.945527 128.25354 42.967287 127.11523 42.804688 C 125.97693 42.642088 124.60868 43.293865 123.33984 43.814453 C 122.07101 44.335041 120.90017 44.725688 119.89062 44.595703 C 118.88108 44.465718 118.03313 43.814134 116.99219 44.171875 C 116.44524 44.359844 115.84211 44.83808 115.20117 45.507812 C 114.11621 45.425173 113.16431 45.424741 112.30469 45.6875 C 111.61179 45.899297 110.97544 46.286524 110.37695 46.806641 C 109.26701 43.103647 105.33276 41.040433 101.78516 39.289062 C 101.39647 39.097178 101.02995 38.926206 100.65039 38.742188 C 99.931956 37.371339 98.64513 36.145671 97.039062 35.384766 C 95.184061 34.505922 92.904377 34.245822 91.341797 34.505859 C 90.781309 34.599133 90.329017 34.759149 89.90625 34.921875 C 88.452491 34.713252 87.038585 34.667489 85.677734 34.761719 C 84.98104 34.474327 84.211452 34.165993 83.333984 33.984375 C 82.862042 33.886693 82.361918 33.825889 81.857422 33.796875 C 81.47905 33.775114 81.099269 33.770829 80.726562 33.783203 z "
       id="path13780" />
  </g>
</svg>
