<?xml version="1.0" encoding="UTF-8" standalone="no"?>
<!-- Created with Inkscape (http://www.inkscape.org/) -->

<svg
   xmlns:dc="http://purl.org/dc/elements/1.1/"
   xmlns:cc="http://creativecommons.org/ns#"
   xmlns:rdf="http://www.w3.org/1999/02/22-rdf-syntax-ns#"
   xmlns:svg="http://www.w3.org/2000/svg"
   xmlns="http://www.w3.org/2000/svg"
   xmlns:sodipodi="http://sodipodi.sourceforge.net/DTD/sodipodi-0.dtd"
   xmlns:inkscape="http://www.inkscape.org/namespaces/inkscape"
   width="200px"
   height="200px"
   viewBox="0 0 200 200"
   version="1.1"
   id="SVGRoot"
   sodipodi:docname="hair-1-14.svg"
   inkscape:version="0.92.4 (5da689c313, 2019-01-14)">
  <defs
     id="defs909">
    <inkscape:path-effect
       effect="bspline"
       id="path-effect5626"
       is_visible="true"
       weight="33.333333"
       steps="2"
       helper_size="0"
       apply_no_weight="true"
       apply_with_weight="true"
       only_selected="false" />
    <inkscape:path-effect
       effect="bspline"
       id="path-effect5622"
       is_visible="true"
       weight="33.333333"
       steps="2"
       helper_size="0"
       apply_no_weight="true"
       apply_with_weight="true"
       only_selected="false" />
    <inkscape:path-effect
       effect="bspline"
       id="path-effect12527"
       is_visible="true"
       weight="33.333333"
       steps="2"
       helper_size="0"
       apply_no_weight="true"
       apply_with_weight="true"
       only_selected="false" />
    <inkscape:path-effect
       effect="bspline"
       id="path-effect12520"
       is_visible="true"
       weight="33.333333"
       steps="2"
       helper_size="0"
       apply_no_weight="true"
       apply_with_weight="true"
       only_selected="false" />
    <inkscape:path-effect
       effect="bspline"
       id="path-effect1868"
       is_visible="true"
       weight="33.333333"
       steps="2"
       helper_size="0"
       apply_no_weight="true"
       apply_with_weight="true"
       only_selected="false" />
    <inkscape:path-effect
       effect="bspline"
       id="path-effect1853"
       is_visible="true"
       weight="33.333333"
       steps="2"
       helper_size="0"
       apply_no_weight="true"
       apply_with_weight="true"
       only_selected="false" />
  </defs>
  <sodipodi:namedview
     id="base"
     pagecolor="#ffffff"
     bordercolor="#666666"
     borderopacity="1.0"
     inkscape:pageopacity="0.0"
     inkscape:pageshadow="2"
     inkscape:zoom="3.6203867"
     inkscape:cx="57.219125"
     inkscape:cy="85.455096"
     inkscape:document-units="px"
     inkscape:current-layer="layer1"
     showgrid="false"
     inkscape:window-width="1920"
     inkscape:window-height="1001"
     inkscape:window-x="-9"
     inkscape:window-y="-9"
     inkscape:window-maximized="1"
     showguides="false" />
  <metadata
     id="metadata912">
    <rdf:RDF>
      <cc:Work
         rdf:about="">
        <dc:format>image/svg+xml</dc:format>
        <dc:type
           rdf:resource="http://purl.org/dc/dcmitype/StillImage" />
        <dc:title></dc:title>
      </cc:Work>
    </rdf:RDF>
  </metadata>
  <g
     inkscape:label="Layer 1"
     inkscape:groupmode="layer"
     id="layer1">
    <path
       style="fill:#dd925d;stroke:#000000;stroke-width:0;stroke-linecap:butt;stroke-linejoin:miter;stroke-opacity:1;fill-opacity:1;stroke-miterlimit:4;stroke-dasharray:none"
       d="m 54.368325,28.931778 c -1.058468,0.184277 -4.373031,-0.828506 -6.306707,-0.460749 -1.933677,0.367758 -2.485998,2.116775 -3.637102,3.590529 -1.151104,1.473755 -2.89926,2.669861 -3.221804,4.143835 -0.322543,1.473974 0.781586,3.222179 -0.09264,4.971435 -0.874222,1.749257 -3.727999,3.498347 -6.12223,4.787614 -2.394231,1.289268 -4.326932,2.117568 -5.708727,4.328072 -1.381795,2.210503 -2.209919,5.79904 -2.486311,7.825118 -0.276391,2.026078 -2.68e-4,2.486284 -1.289533,3.82174 -1.289266,1.335456 -4.14165,3.543752 -4.786482,5.892348 -0.644832,2.348596 0.91977,4.833552 1.288341,7.088933 0.368571,2.255381 -0.459982,4.280732 -1.28888,6.352965 -0.828898,2.072233 -1.657045,4.188609 -1.01219,6.353503 0.644855,2.164895 2.761286,4.373345 3.498016,6.720594 0.736729,2.347248 0.09224,4.833146 -0.230165,6.951295 -0.322402,2.11814 -0.322402,3.86666 -3.9e-5,5.20235 0.322363,1.3357 0.966494,2.25589 1.564986,3.26869 0.598492,1.0128 1.150802,2.11742 1.289047,3.54447 0.138245,1.42706 -0.137868,3.17578 0.276743,4.55776 0.414612,1.38198 1.518748,2.39411 2.20921,4.28104 0.690463,1.88694 0.966688,4.64919 1.611313,6.81344 0.644625,2.16424 1.657083,3.72895 2.808656,4.51168 1.151573,0.78273 2.440365,0.78273 4.418368,2.07073 1.978003,1.28801 4.650137,3.868 6.583799,5.47933 1.933663,1.61133 3.130595,2.25584 4.373778,2.20947 1.243183,-0.0464 2.532565,-0.78315 3.63632,-0.41533 1.103756,0.36781 2.025312,1.8423 3.72938,2.71719 1.704068,0.87488 4.189536,1.15104 6.260999,1.05884 2.071462,-0.0922 3.729329,-0.55272 5.109565,-0.46063 1.380235,0.0921 2.48588,0.73706 3.590991,0.96708 1.105111,0.23002 2.210277,0.0458 3.54445,-0.78245 1.334174,-0.82827 2.900996,-2.30293 4.097552,-3.59164 1.196557,-1.2887 2.025743,-2.39428 3.221957,-2.94615 1.196214,-0.55187 2.76301,-0.55187 3.314992,-1.38032 0.551981,-0.82844 0.09133,-2.48678 -0.230877,-3.68358 -0.322208,-1.1968 -0.506423,-1.93366 -0.874434,-3.63572 -0.368011,-1.70207 -0.920966,-4.37469 -1.79545,-6.4918 -0.874483,-2.11711 -2.071751,-3.68277 -2.716204,-5.93878 -0.644452,-2.25602 -0.736532,-5.20257 -0.828614,-7.1819 -0.09208,-1.97933 -0.184184,-2.99245 0.04591,-4.83281 0.230093,-1.84037 0.783012,-4.51281 1.013063,-6.63 0.23005,-2.117185 0.137939,-3.683074 0.322118,-5.385959 0.184179,-1.702884 0.644811,-3.545411 0.920881,-5.202163 0.276071,-1.656752 0.368201,-3.130832 0.644448,-4.465509 0.276247,-1.334676 0.736934,-2.532462 1.473353,-3.268451 0.73642,-0.735988 1.750224,-1.01248 3.406148,-1.886506 1.655925,-0.874026 3.960397,-2.348888 5.387239,-3.407707 1.426841,-1.058819 1.979547,-1.703642 3.956261,-1.933412 1.976714,-0.229771 5.389006,-0.04532 7.828646,0.138823 2.43964,0.184145 3.91319,0.368338 5.20139,1.150425 1.28819,0.782088 2.39369,2.163964 4.41967,3.499216 2.02598,1.335253 4.972,2.624136 6.99716,4.188947 2.02515,1.564811 3.13018,3.406534 3.6827,5.293795 0.55251,1.88726 0.55251,3.820446 1.013,5.93892 0.46049,2.118474 1.38073,4.419061 2.07131,6.122511 0.69059,1.70345 1.15084,2.80806 1.243,4.834 0.0922,2.02594 -0.18392,4.97089 -0.32208,7.54933 -0.13816,2.57844 -0.13816,4.78733 -0.69054,6.99744 -0.55237,2.21011 -1.65673,4.41882 -2.51786,6.44949 -0.86113,2.03067 -1.53292,4.04603 -1.80934,5.47357 -0.27643,1.42755 -0.18442,2.34769 -0.0129,2.90255 0.1715,0.55487 0.65739,0.91929 0.93339,1.42511 0.27601,0.50582 0.46023,1.2427 1.05929,2.07216 0.59906,0.82946 1.61087,1.74929 3.54476,2.25567 1.93389,0.50639 4.78823,0.59846 6.90511,1.47279 2.11688,0.87433 3.49842,2.53217 5.84663,3.77527 2.34821,1.2431 5.66277,2.07174 8.05655,0.9662 2.39379,-1.10554 3.86693,-4.14389 7.87221,-5.4783 4.00528,-1.3344 10.54234,-0.96611 13.90248,-3.45258 3.36015,-2.48646 3.54429,-7.82659 5.80061,-11.73944 2.25632,-3.91285 6.58366,-6.39877 8.56254,-9.02289 1.97888,-2.62412 1.61011,-5.38992 1.42627,-7.183 -0.18384,-1.79308 -0.18384,-2.62282 0.32254,-3.31284 0.50637,-0.69003 1.52038,-1.24312 2.11819,-2.48516 0.59781,-1.24205 0.78216,-3.17782 1.50744,-4.727715 0.72527,-1.549901 1.99216,-2.717639 1.32518,-4.701338 -0.66698,-1.983698 -3.26604,-4.784929 -3.20808,-7.608513 0.058,-2.823585 2.7719,-5.668538 3.34868,-7.964964 0.57678,-2.296426 -0.98344,-4.04627 -1.21335,-6.256552 -0.2299,-2.210282 0.86953,-4.880347 1.05066,-6.767288 0.18113,-1.88694 -0.55548,-2.991856 -1.01577,-4.971439 -0.46029,-1.979583 -0.64448,-4.834386 -1.47284,-6.997352 -0.82837,-2.162965 -2.30199,-3.636586 -3.40695,-5.340174 -1.10496,-1.703589 -1.84153,-3.637084 -2.85396,-5.10976 -1.01244,-1.472676 -2.3018,-2.485744 -3.591,-4.005203 -1.28921,-1.519458 -2.57808,-3.544819 -3.49878,-5.248176 -0.92069,-1.703358 -1.47319,-3.084604 -3.12949,-4.096922 -1.6563,-1.012319 -4.41947,-1.657058 -6.85976,-2.439767 -2.44029,-0.782708 -4.55737,-1.703178 -6.21512,-3.314974 -1.65775,-1.611796 -2.85441,-3.91306 -4.74128,-5.523938 -1.88686,-1.610878 -4.46528,-2.531742 -7.50399,-3.544651 -3.03871,-1.012908 -6.53664,-2.117517 -8.7001,-2.440154 -2.16347,-0.322636 -2.99196,0.137637 -4.97397,-5.83e-4 -1.98201,-0.13822 -5.10794,-0.873733 -8.10079,-2.070845 -2.99285,-1.1971121 -5.84639,-2.8540117 -8.88452,-3.4526186 -3.03812,-0.5986069 -6.26026,-0.1383014 -8.28623,-0.046099 -2.02597,0.092203 -2.85432,-0.1839143 -4.78895,-0.9209139 -1.93464,-0.7369996 -4.970785,-1.9330586 -7.91697,-2.025359 -2.946186,-0.092301 -5.7999,0.9203077 -8.240223,1.7030814 -2.440323,0.7827737 -4.465035,1.3349678 -6.307065,1.5653065 -1.84203,0.2303388 -3.498342,0.1383214 -4.879756,0.7826371 -1.381414,0.6443157 -2.48564,2.0245983 -3.729001,3.1299783 -1.243361,1.10538 -2.623332,1.933362 -4.742384,2.071662 -2.119053,0.1383 -4.970829,-0.413657 -6.858397,-0.04584 -1.887568,0.367817 -2.80803,1.656464 -3.821303,3.084254 -1.013273,1.427791 -2.117154,2.991623 -2.209359,4.41967 -0.09221,1.428048 0.827836,2.716107 0.690273,3.452697 -0.137564,0.736591 -1.334314,0.920707 -1.334347,1.704011 -3.3e-5,0.783304 1.195766,2.163071 0.137297,2.347349 z"
       id="path5620"
       inkscape:connector-curvature="0"
       inkscape:path-effect="#path-effect5622"
       inkscape:original-d="m 56.623785,30.128644 c -3.313563,-1.013783 -6.628126,-2.026566 -9.943689,-3.038349 -0.551533,1.748688 -1.103854,3.497705 -1.657281,5.248058 -1.74955,1.196744 -3.497706,2.392851 -5.248059,3.590777 1.106579,1.7495 2.210709,3.497705 3.314563,5.248058 -2.853636,1.748616 -5.707414,3.497705 -8.562621,5.248058 -1.933289,0.827981 -3.86599,1.656282 -5.800485,2.485922 -0.828158,3.592018 -1.656282,7.180554 -2.485922,10.77233 0.277303,0.459506 0.553427,0.919712 0.82864,1.381068 -2.85503,2.210121 -5.707414,4.418417 -8.562621,6.629126 1.566819,2.485889 3.131421,4.970845 4.695631,7.457767 -0.827729,2.024782 -1.656281,4.050133 -2.485922,6.076699 -0.828135,2.117899 -1.656282,4.234275 -2.485922,6.352912 2.119844,2.209968 4.236275,4.418418 6.352912,6.629126 -0.643505,2.484947 -1.287997,4.970845 -1.933495,7.457764 0.001,1.74919 0.001,3.49771 0,5.24806 0.645867,0.92024 1.289997,1.84043 1.933495,2.76214 0.553548,1.10409 1.105855,2.20871 1.657282,3.31456 -0.275314,1.74899 -0.551427,3.49771 -0.828641,5.24806 1.106568,1.01244 2.210709,2.02456 3.314563,3.03835 0.277202,2.76102 0.553427,5.52327 0.828641,8.28641 1.01411,1.56471 2.026566,3.12942 3.038349,4.69563 1.290202,-0.001 2.578994,-0.001 3.86699,0 2.668994,2.57499 5.34113,5.15498 8.010194,7.73398 1.197918,0.64349 2.394851,1.28799 3.590777,1.93349 1.289611,-0.73735 2.578993,-1.47414 3.86699,-2.20971 0.920866,1.47079 1.842424,2.94528 2.762136,4.41942 2.487377,0.27526 4.972845,0.55143 7.457767,0.82864 1.657696,-0.46119 3.315563,-0.92171 4.971844,-1.38107 1.105064,0.64304 2.210709,1.288 3.314564,1.9335 1.105543,-0.18509 2.210708,-0.36929 3.314563,-0.55243 1.564602,-1.47262 3.13142,-2.94728 4.695631,-4.41942 0.829095,-1.10512 1.658281,-2.2107 2.485922,-3.31456 1.564624,-0.001 3.13142,-0.001 4.695631,0 -0.459062,-1.65722 -0.919712,-3.31556 -1.381068,-4.97184 -0.183068,-0.73728 -0.367285,-1.47414 -0.552427,-2.20971 -0.550898,-2.66851 -1.103855,-5.34113 -1.657282,-8.0102 -1.195584,-1.56576 -2.392851,-3.13142 -3.590776,-4.69563 -0.09106,-2.947 -0.183143,-5.89355 -0.276214,-8.83883 -0.09104,-1.01345 -0.183142,-2.02657 -0.276214,-3.03835 0.552936,-2.66869 1.105855,-5.34113 1.657282,-8.010195 -0.09103,-1.565532 -0.183143,-3.131421 -0.276214,-4.695631 0.46108,-1.841321 0.921712,-3.683848 1.381068,-5.524272 0.09301,-1.473198 0.185143,-2.947278 0.276214,-4.419417 0.461025,-1.197066 0.921712,-2.394852 1.381068,-3.590777 1.012762,-0.276935 2.026566,-0.553427 3.038349,-0.828641 2.300088,-1.472416 4.60456,-2.947278 6.90534,-4.419417 0.553148,-0.645173 1.105854,-1.289997 1.657281,-1.933495 3.401976,0.182836 6.814271,0.367284 10.219901,0.552427 1.47373,0.183091 2.94728,0.367285 4.41942,0.552427 1.10521,1.37926 2.21071,2.761136 3.31456,4.143204 2.94754,1.28811 5.89356,2.576993 8.83884,3.86699 1.10567,1.840129 2.21071,3.681848 3.31456,5.524272 10e-4,1.932804 10e-4,3.86599 0,5.800485 0.92219,2.30197 1.84242,4.60256 2.76214,6.90534 0.46146,1.1041 0.92171,2.20871 1.38106,3.31456 -0.27533,2.94661 -0.55142,5.89156 -0.82864,8.83884 10e-4,2.20952 10e-4,4.41841 0,6.62912 -1.10435,2.20971 -2.20871,4.41842 -3.31456,6.62913 -0.64385,1.84142 -1.288,3.86599 -1.93349,5.80048 0.0931,0.92029 0.18514,1.84043 0.27621,2.76214 0.18532,0.27548 0.73757,0.55143 1.10485,0.82864 0.18507,0.73525 0.36929,1.47214 0.55243,2.20971 1.01475,0.92059 2.02657,1.84042 3.03835,2.76214 2.85507,0.0911 5.70941,0.18314 8.56262,0.27621 1.3816,1.65572 2.76314,3.31356 4.14321,4.97184 3.31556,0.82765 6.63012,1.65629 9.94368,2.48593 1.47414,-3.03935 2.94728,-6.0777 4.41942,-9.11505 6.53806,0.36728 13.07512,0.73557 19.61117,1.10486 0.18514,-5.34113 0.36928,-10.68126 0.55243,-16.02039 4.32834,-2.48693 8.65568,-4.97285 12.98203,-7.45777 -0.36728,-2.76314 -0.73606,-5.52894 -1.10485,-8.28641 0.001,-0.82854 0.001,-1.65828 0,-2.48592 1.01256,-0.55276 2.02656,-1.10586 3.03835,-1.65728 0.18492,-1.93222 0.36928,-3.86799 0.55242,-5.800489 1.26647,-1.167428 2.53336,-2.335167 3.79854,-3.501252 -2.59806,-2.802232 -5.19712,-5.603462 -7.79718,-8.403693 2.71495,-2.845954 5.4289,-5.690907 8.14185,-8.53486 -1.55835,-1.749863 -3.11858,-3.499706 -4.67937,-5.248059 1.10043,-2.671065 2.19987,-5.341128 3.2983,-8.010194 -0.73553,-1.105791 -1.47214,-2.210708 -2.20971,-3.314563 -0.1831,-2.854611 -0.36728,-5.709414 -0.55243,-8.562621 -1.47165,-1.473658 -2.94527,-2.947278 -4.41941,-4.419417 -0.73557,-1.934495 -1.47214,-3.86799 -2.20971,-5.800485 -1.28764,-1.0135 -2.577,-2.026567 -3.86699,-3.03835 -1.28813,-2.026774 -2.577,-4.052132 -3.86699,-6.076699 -0.55136,-1.381891 -1.10386,-2.763136 -1.65728,-4.143204 -2.76011,-0.645257 -5.52328,-1.289996 -8.28641,-1.933495 -2.1172,-0.921954 -4.23428,-1.842424 -6.35291,-2.762136 -1.1962,-2.303296 -2.39286,-4.604559 -3.59078,-6.905339 -2.57657,-0.921561 -5.15499,-1.842424 -7.73398,-2.762136 -3.49848,-1.106099 -6.99641,-2.210709 -10.49612,-3.314563 -0.82779,0.459438 -1.65628,0.919712 -2.48592,1.381068 -3.13391,-0.738626 -6.25984,-1.474139 -9.39126,-2.209709 -2.85387,-1.6586651 -5.70742,-3.3155629 -8.56262,-4.9718444 -3.22185,0.4594065 -6.44399,0.9197119 -9.66748,1.3810679 -0.82793,-0.2773096 -1.65628,-0.5534272 -2.48592,-0.8286408 -3.03955,-1.1987921 -6.0757,-2.394851 -9.115049,-3.5907766 -2.8537,1.0119581 -5.707414,2.0245663 -8.562621,3.0383495 -2.025421,0.55166 -4.050133,1.1038543 -6.076699,1.6572815 C 79.27333,8.214646 77.617018,8.1226287 75.958736,8.0315575 74.854254,9.41241 73.750028,10.792693 72.644173,12.174761 c -1.381165,0.8283 -2.761136,1.656282 -4.143204,2.485923 -2.855638,-0.553898 -5.707414,-1.105855 -8.562621,-1.657282 -0.919962,1.288348 -1.840424,2.576994 -2.762136,3.86699 -1.104827,1.565589 -2.208708,3.129421 -3.314563,4.695631 0.922382,1.288935 1.842424,2.576994 2.762136,3.86699 -1.196101,0.18317 -2.392851,0.367285 -3.590776,0.552428 1.199052,1.381368 2.394851,2.761135 3.590776,4.143203 z"
       sodipodi:nodetypes="cccccccccccccccccccccccccccccccccccccccccccccccccccccccccccccccccccccaacccccccccccccccccccccccccccccccccccccc" />
  </g>
</svg>
