<?xml version="1.0" encoding="UTF-8" standalone="no"?>
<!-- Created with Inkscape (http://www.inkscape.org/) -->

<svg
   xmlns:dc="http://purl.org/dc/elements/1.1/"
   xmlns:cc="http://creativecommons.org/ns#"
   xmlns:rdf="http://www.w3.org/1999/02/22-rdf-syntax-ns#"
   xmlns:svg="http://www.w3.org/2000/svg"
   xmlns="http://www.w3.org/2000/svg"
   xmlns:sodipodi="http://sodipodi.sourceforge.net/DTD/sodipodi-0.dtd"
   xmlns:inkscape="http://www.inkscape.org/namespaces/inkscape"
   width="200px"
   height="200px"
   viewBox="0 0 200 200"
   version="1.1"
   id="SVGRoot"
   sodipodi:docname="hair-1-1.svg"
   inkscape:version="0.92.4 (5da689c313, 2019-01-14)">
  <defs
     id="defs909">
    <inkscape:path-effect
       effect="bspline"
       id="path-effect13467"
       is_visible="true"
       weight="33.333333"
       steps="2"
       helper_size="0"
       apply_no_weight="true"
       apply_with_weight="true"
       only_selected="false" />
    <inkscape:path-effect
       effect="bspline"
       id="path-effect13463"
       is_visible="true"
       weight="33.333333"
       steps="2"
       helper_size="0"
       apply_no_weight="true"
       apply_with_weight="true"
       only_selected="false" />
    <inkscape:path-effect
       only_selected="false"
       apply_with_weight="true"
       apply_no_weight="true"
       helper_size="0"
       steps="2"
       weight="33.333333"
       is_visible="true"
       id="path-effect13459"
       effect="bspline" />
    <inkscape:path-effect
       effect="bspline"
       id="path-effect13451"
       is_visible="true"
       weight="33.333333"
       steps="2"
       helper_size="0"
       apply_no_weight="true"
       apply_with_weight="true"
       only_selected="false" />
    <inkscape:path-effect
       effect="bspline"
       id="path-effect13443"
       is_visible="true"
       weight="33.333333"
       steps="2"
       helper_size="0"
       apply_no_weight="true"
       apply_with_weight="true"
       only_selected="false" />
    <inkscape:path-effect
       effect="bspline"
       id="path-effect12527"
       is_visible="true"
       weight="33.333333"
       steps="2"
       helper_size="0"
       apply_no_weight="true"
       apply_with_weight="true"
       only_selected="false" />
    <inkscape:path-effect
       effect="bspline"
       id="path-effect12520"
       is_visible="true"
       weight="33.333333"
       steps="2"
       helper_size="0"
       apply_no_weight="true"
       apply_with_weight="true"
       only_selected="false" />
    <inkscape:path-effect
       effect="bspline"
       id="path-effect1868"
       is_visible="true"
       weight="33.333333"
       steps="2"
       helper_size="0"
       apply_no_weight="true"
       apply_with_weight="true"
       only_selected="false" />
    <inkscape:path-effect
       effect="bspline"
       id="path-effect1853"
       is_visible="true"
       weight="33.333333"
       steps="2"
       helper_size="0"
       apply_no_weight="true"
       apply_with_weight="true"
       only_selected="false" />
  </defs>
  <sodipodi:namedview
     id="base"
     pagecolor="#ffffff"
     bordercolor="#666666"
     borderopacity="1.0"
     inkscape:pageopacity="0.0"
     inkscape:pageshadow="2"
     inkscape:zoom="2.56"
     inkscape:cx="164.24865"
     inkscape:cy="121.60375"
     inkscape:document-units="px"
     inkscape:current-layer="layer1"
     showgrid="false"
     inkscape:window-width="1920"
     inkscape:window-height="1001"
     inkscape:window-x="-9"
     inkscape:window-y="-9"
     inkscape:window-maximized="1"
     showguides="false" />
  <metadata
     id="metadata912">
    <rdf:RDF>
      <cc:Work
         rdf:about="">
        <dc:format>image/svg+xml</dc:format>
        <dc:type
           rdf:resource="http://purl.org/dc/dcmitype/StillImage" />
        <dc:title></dc:title>
      </cc:Work>
    </rdf:RDF>
  </metadata>
  <g
     inkscape:label="Layer 1"
     inkscape:groupmode="layer"
     id="layer1">
    <path
       style="fill:#dd925d;stroke:#000000;stroke-width:0;stroke-linecap:butt;stroke-linejoin:miter;stroke-opacity:1;stroke-miterlimit:4;stroke-dasharray:none;fill-opacity:1"
       d="m 114.16848,56.092854 c -2.2096,-1.427057 -5.5702,-3.406585 -9.39108,-4.718657 -3.82089,-1.312072 -8.101814,-1.956513 -13.004959,-1.427185 -4.903145,0.529328 -10.426345,2.232315 -14.731224,5.431902 -4.30488,3.199588 -7.388598,7.894204 -10.173842,10.610797 -2.785244,2.716593 -5.270553,3.452981 -7.204696,3.568227 -1.934143,0.115247 -3.315107,-0.391107 -4.696175,-0.897498 1.033801,1.487206 1.962818,2.823673 3.560073,4.015217 1.597255,1.191545 3.221627,1.780276 4.710949,2.081969 1.489323,0.301692 2.547343,0.20969 3.606162,0.117619 -1.749353,0.920712 -3.497511,1.840795 -5.132391,2.301466 -1.63488,0.46067 -3.153017,0.46067 -4.189,0.46067 -1.035982,0 -1.589046,0 -2.141473,0 1.15089,1.058819 2.301824,2.117678 3.591238,2.693131 1.289414,0.575453 2.716571,0.667528 4.304248,0.736549 1.587678,0.06902 3.338173,0.115087 5.616267,-0.322204 2.278094,-0.437292 5.087828,-1.358516 8.60861,-3.383633 3.520782,-2.025118 7.757865,-5.156875 11.60142,-7.458301 3.843555,-2.301426 7.297142,-3.774956 10.680084,-4.534285 3.382939,-0.759329 6.698659,-0.80538 9.437479,-0.92048 2.73882,-0.1151 4.90316,-0.299299 6.35284,-1.174141 1.44968,-0.874842 2.18662,-2.440833 2.02567,-3.659796 -0.16096,-1.218964 -1.22059,-2.09431 -3.4302,-3.521367 z"
       id="path13441"
       inkscape:connector-curvature="0"
       inkscape:path-effect="#path-effect13443"
       inkscape:original-d="m 115.31917,56.645149 c -3.3596,-1.980531 -6.72019,-3.960062 -10.08179,-5.938592 -4.2807,-0.645557 -8.561625,-1.289997 -12.843935,-1.933496 -5.524344,1.702648 -11.047544,3.405635 -16.572816,5.109952 -3.084052,4.695646 -6.16777,9.390262 -9.253155,14.086893 -2.485535,0.735751 -4.970844,1.472139 -7.457766,2.209708 -1.38073,-0.507634 -4.143204,-1.519174 -4.143204,-1.519174 0,0 1.963961,2.822878 3.101402,4.461619 2.056363,0.743938 3.680734,1.33267 5.599326,2.0294 1.059538,-0.09305 3.176456,-0.276214 3.176456,-0.276214 0,0 -3.497706,1.840424 -5.248058,2.762136 -1.519213,-0.001 -3.03735,-0.001 -4.557524,0 -0.551791,-0.001 -1.657282,0 -1.657282,0 0,0 2.30278,2.116638 3.45267,3.176456 1.42805,0.09107 2.855207,0.183143 4.281311,0.276214 1.74921,0.04501 3.499705,0.09107 5.248058,0.138107 2.807609,-0.9212 5.617343,-1.842424 8.424514,-2.762136 4.234467,-3.130084 8.47155,-6.261841 12.705825,-9.391262 3.452753,-1.473748 6.90634,-2.947278 10.35801,-4.419417 3.314408,-0.04702 6.630128,-0.09307 9.943688,-0.138107 2.16401,-0.185086 4.32835,-0.369285 6.49102,-0.552427 0.7372,-1.565431 1.47414,-3.131421 2.20971,-4.695631 -1.05701,-0.875004 -2.11664,-1.750353 -3.17646,-2.624029 z"
       sodipodi:nodetypes="ccccccccccccccccccccccc" />
    <path
       style="fill:#dd925d;fill-opacity:1;stroke:#000000;stroke-width:0;stroke-linecap:butt;stroke-linejoin:miter;stroke-miterlimit:4;stroke-dasharray:none;stroke-opacity:1"
       d="m 71.953639,94.762624 c 0.874676,-0.138107 1.750483,-0.276392 2.394049,0.06823 0.643566,0.344621 1.058421,1.174332 1.265681,2.394364 0.20726,1.220032 0.20726,2.831493 0.20726,4.442743 0,0 2.900243,3.59078 2.900243,3.59078 0.138107,-3.17646 0.276259,-6.353955 0.828642,-10.013169 0.552382,-3.659215 1.519447,-7.803777 2.877269,-13.189012 1.357823,-5.385236 3.107669,-12.016233 2.532775,-15.468245 -0.574893,-3.452012 -3.475653,-3.728274 -5.639434,-3.337268 -2.16378,0.391007 -3.590442,1.449499 -4.810016,3.724548 -1.219574,2.27505 -2.22899,5.760303 -2.620583,10.595389 -0.391592,4.835087 -0.163751,11.013056 0.06411,17.191641 z"
       id="path13449"
       inkscape:connector-curvature="0"
       inkscape:path-effect="#path-effect13451"
       inkscape:original-d="m 71.953639,94.762624 c 0,0 1.750353,-0.277214 2.624029,-0.414321 0.414786,0.826571 0.829641,1.656282 1.242961,2.485922 0.001,1.611024 0,4.833735 0,4.833735 l 2.900243,3.59078 c 0,0 0.277214,-6.353913 0.414321,-9.529369 0.96743,-4.142845 1.934495,-8.287407 2.900242,-12.429611 1.749859,-6.628255 3.499706,-13.259252 5.248058,-19.887379 -2.898725,-0.277164 -5.799485,-0.553427 -8.700728,-0.82864 -1.426544,1.058146 -2.853207,2.116637 -4.28131,3.176456 -1.010265,3.490637 -2.019682,6.97589 -3.03141,10.466671 0.228923,6.179163 0.683594,18.535756 0.683594,18.535756 z"
       sodipodi:nodetypes="cccccccccccc" />
    <path
       style="fill:#dd925d;fill-opacity:1;stroke:#000000;stroke-width:0;stroke-linecap:butt;stroke-linejoin:miter;stroke-miterlimit:4;stroke-dasharray:none;stroke-opacity:1"
       d="M 118.7793 56.486328 C 117.35909 56.426254 116.03382 56.685895 115.05273 57.492188 C 113.483 58.782255 112.79597 61.469656 113.74609 63.287109 C 114.69622 65.104563 117.27794 66.046929 118.75977 67.59375 C 120.24159 69.140571 120.61819 71.287732 121.39258 74.054688 C 121.40774 74.10887 121.4279 74.169963 121.44336 74.224609 C 121.97901 77.002954 122.75968 80.028724 123.44336 82.740234 C 124.80118 88.125469 125.76793 92.270472 126.32031 95.929688 C 126.8727 99.588902 127.01228 102.76495 127.15039 105.94141 L 130.04883 102.35156 C 130.04883 100.74031 130.05055 99.128235 130.25781 97.908203 C 130.46507 96.688171 130.87987 95.858293 131.52344 95.513672 C 132.167 95.16905 133.04134 95.307205 133.91602 95.445312 C 134.13756 89.43811 134.3556 83.442319 134.00781 78.669922 C 134.01031 78.632631 134.01544 78.600396 134.01758 78.5625 C 134.14734 76.267741 133.62613 72.85029 132.51953 69.498047 C 131.41293 66.145804 129.72069 62.858042 127.79102 60.689453 C 125.86134 58.520864 123.69235 57.470281 121.38281 56.890625 C 120.51673 56.673254 119.63142 56.522372 118.7793 56.486328 z "
       id="path13457" />
    <path
       style="fill:#dd925d;fill-opacity:1;stroke:#000000;stroke-width:0;stroke-linecap:butt;stroke-linejoin:miter;stroke-miterlimit:4;stroke-dasharray:none;stroke-opacity:1"
       d="m 116.21102,57.307414 c -0.35804,-0.993405 -0.22783,-2.197832 0.42321,-3.157604 0.65103,-0.959771 1.82397,-1.676567 2.82666,-2.034283 1.00269,-0.357715 1.83703,-0.357715 2.67154,-0.357715 -1.16003,0.390625 -2.31886,0.780846 -3.1598,1.464468 -0.84094,0.683623 -1.36132,1.659336 -1.62205,2.457338 -0.26074,0.798003 -0.26074,1.415736 -0.0652,2.083958 0.19554,0.668222 0.58553,1.383207 0.35758,1.350659 -0.22796,-0.03255 -1.0739,-0.813417 -1.43193,-1.806821 z"
       id="path13465"
       inkscape:connector-curvature="0"
       inkscape:path-effect="#path-effect13467"
       inkscape:original-d="m 115.72266,57.519531 c 0.1312,-1.205427 0.26141,-2.409854 0.39062,-3.613281 1.17181,-0.716495 2.34475,-1.433292 3.51563,-2.148438 0.83467,-0.001 2.50352,0 2.50352,0 0,0 -2.31906,0.78025 -3.48009,1.171875 -0.52028,0.976412 -1.04066,1.952125 -1.5625,2.929688 0.001,0.618246 0.001,1.235979 0,1.855469 0.39226,0.716303 0.78225,1.431291 1.17188,2.148437 -0.84577,-0.782632 -1.69171,-1.5635 -2.53906,-2.34375 z"
       transform="translate(-0.79156556,1.5856796)"
       sodipodi:nodetypes="ccccccccc" />
  </g>
</svg>
