<?xml version="1.0" encoding="UTF-8" standalone="no"?>
<!-- Created with Inkscape (http://www.inkscape.org/) -->

<svg
   xmlns:dc="http://purl.org/dc/elements/1.1/"
   xmlns:cc="http://creativecommons.org/ns#"
   xmlns:rdf="http://www.w3.org/1999/02/22-rdf-syntax-ns#"
   xmlns:svg="http://www.w3.org/2000/svg"
   xmlns="http://www.w3.org/2000/svg"
   xmlns:sodipodi="http://sodipodi.sourceforge.net/DTD/sodipodi-0.dtd"
   xmlns:inkscape="http://www.inkscape.org/namespaces/inkscape"
   width="200px"
   height="200px"
   viewBox="0 0 200 200"
   version="1.1"
   id="SVGRoot"
   sodipodi:docname="hair-6-17.svg"
   inkscape:version="0.92.4 (5da689c313, 2019-01-14)">
  <defs
     id="defs909">
    <inkscape:path-effect
       effect="bspline"
       id="path-effect12527"
       is_visible="true"
       weight="33.333333"
       steps="2"
       helper_size="0"
       apply_no_weight="true"
       apply_with_weight="true"
       only_selected="false" />
    <inkscape:path-effect
       effect="bspline"
       id="path-effect12520"
       is_visible="true"
       weight="33.333333"
       steps="2"
       helper_size="0"
       apply_no_weight="true"
       apply_with_weight="true"
       only_selected="false" />
    <inkscape:path-effect
       effect="bspline"
       id="path-effect1868"
       is_visible="true"
       weight="33.333333"
       steps="2"
       helper_size="0"
       apply_no_weight="true"
       apply_with_weight="true"
       only_selected="false" />
    <inkscape:path-effect
       effect="bspline"
       id="path-effect1853"
       is_visible="true"
       weight="33.333333"
       steps="2"
       helper_size="0"
       apply_no_weight="true"
       apply_with_weight="true"
       only_selected="false" />
    <inkscape:path-effect
       effect="bspline"
       id="path-effect1488"
       is_visible="true"
       weight="33.333333"
       steps="2"
       helper_size="0"
       apply_no_weight="true"
       apply_with_weight="true"
       only_selected="false" />
    <inkscape:path-effect
       effect="bspline"
       id="path-effect1492"
       is_visible="true"
       weight="33.333333"
       steps="2"
       helper_size="0"
       apply_no_weight="true"
       apply_with_weight="true"
       only_selected="false" />
    <inkscape:path-effect
       effect="bspline"
       id="path-effect1496"
       is_visible="true"
       weight="33.333333"
       steps="2"
       helper_size="0"
       apply_no_weight="true"
       apply_with_weight="true"
       only_selected="false" />
    <inkscape:path-effect
       effect="bspline"
       id="path-effect1500"
       is_visible="true"
       weight="33.333333"
       steps="2"
       helper_size="0"
       apply_no_weight="true"
       apply_with_weight="true"
       only_selected="false" />
  </defs>
  <sodipodi:namedview
     id="base"
     pagecolor="#ffffff"
     bordercolor="#666666"
     borderopacity="1.0"
     inkscape:pageopacity="0.0"
     inkscape:pageshadow="2"
     inkscape:zoom="2.56"
     inkscape:cx="-13.072633"
     inkscape:cy="156.70634"
     inkscape:document-units="px"
     inkscape:current-layer="layer1"
     showgrid="false"
     inkscape:window-width="1920"
     inkscape:window-height="1001"
     inkscape:window-x="-9"
     inkscape:window-y="-9"
     inkscape:window-maximized="1"
     showguides="false" />
  <metadata
     id="metadata912">
    <rdf:RDF>
      <cc:Work
         rdf:about="">
        <dc:format>image/svg+xml</dc:format>
        <dc:type
           rdf:resource="http://purl.org/dc/dcmitype/StillImage" />
        <dc:title></dc:title>
      </cc:Work>
    </rdf:RDF>
  </metadata>
  <g
     inkscape:label="Layer 1"
     inkscape:groupmode="layer"
     id="layer1">
    <g
       transform="translate(0.16723586,0.15845091)"
       id="g1507">
      <path
         sodipodi:nodetypes="scssccsssssscsscccccsccsscsssccacaaaaaaaacsssssssssscssssscscc"
         inkscape:connector-curvature="0"
         id="path1461"
         d="m 107.61133,57.257812 c -2.72711,-0.0314 -6.29298,0.115235 -8.441406,0.701173 0.39959,0.474389 2.213976,1.387432 3.173826,1.832031 0.95985,0.444599 2.47854,0.858644 4.32031,1.25 1.84177,0.391355 4.00613,0.760268 5.59375,1.634765 1.58763,0.874497 2.60098,2.256238 3.75196,3.56836 1.15097,1.312121 2.43895,2.554222 3.72851,3.40625 1.28956,0.852027 2.58009,1.311648 3.73047,2.53125 1.15038,1.219601 2.1634,3.200883 3.08398,5.203125 0.92058,2.002241 1.74917,4.028457 2.55469,6.214843 0.80552,2.186386 1.58849,4.534628 2.25586,6.306641 0.66737,1.772013 1.2263,2.985672 1.79492,3.798828 0.56862,0.813156 1.16152,1.259056 1.75391,1.705078 0.0814,-1.009114 0.1631,-2.01932 0.23633,-3.630859 0.0732,-1.611539 0.13742,-3.824694 -0.0254,-6.982422 -0.16281,-3.157728 -0.5574,-7.316393 -1.62891,-10.802734 -0.0533,-0.173322 -0.11527,-0.339215 -0.17187,-0.509766 0.20675,-0.122768 0.38491,-0.266334 0.52539,-0.427734 0.62146,-0.714031 0.57535,-1.72546 0.52929,-2.761719 -0.046,-1.036259 -0.0911,-2.096129 -0.48242,-3.0625 -0.39132,-0.966371 -1.12773,-1.840043 -1.81836,-2.714844 -0.69063,-0.874801 -1.33512,-1.750165 -1.93359,-2.509766 -0.59848,-0.7596 -1.15036,-1.404082 -1.97852,-1.910156 -0.82815,-0.506074 -1.71536,-0.459225 -2.93456,-0.52832 -1.21921,-0.0691 -2.23787,0.160351 -3.29591,0.275391 -0.49785,0.05413 -1.36948,0.695882 -1.73827,0.768555 -1.15518,-0.398103 -2.47511,-1.747655 -3.95118,-2.083985 -2.57134,-0.585895 -5.9057,-1.24008 -8.63281,-1.271485 z m -11.841799,0.228516 c -2.147972,-6.5e-5 -5.600705,1.726224 -8.953125,2.962891 -1.200581,0.44288 -1.414492,-0.424823 -2.121147,-0.639191 -1.343837,-0.407661 -2.656054,-1.21186 -4.029248,-1.230419 -1.298628,0.02422 -2.55467,0.63049 -3.681641,1.276213 -0.989576,0.567 -1.836633,1.37635 -2.601563,2.2223 -0.591456,0.654102 -0.991786,1.458715 -1.507812,2.173828 -0.538889,0.746796 -1.357735,1.339309 -1.658154,2.209857 -0.295389,0.85597 -0.126733,1.813132 -0.05669,2.715924 0.05243,0.675725 0.248284,1.332727 0.355469,2.001954 0.116486,0.7273 -0.0089,1.524757 0.3125,2.1875 0.1495,0.308266 0.617463,0.413985 0.708984,0.74414 0.330962,1.193925 -0.604496,2.349856 -0.8125,3.626953 -0.826153,5.072404 -0.435546,11.8125 -0.240234,17.867188 0.78125,-0.260417 1.366288,-1.204929 1.855469,-1.53125 0.489181,-0.326321 0.684864,-0.715962 1.042968,-1.5625 0.358105,-0.846539 0.854726,-2.090795 1.191407,-3.779297 0.336681,-1.688502 0.467315,-3.706461 0.792969,-5.855469 0.325653,-2.149008 0.845965,-4.426893 1.5625,-6.380859 0.716534,-1.953967 1.627044,-3.580195 2.734374,-4.980469 1.107331,-1.400274 2.40797,-2.569914 3.515626,-3.253906 1.107655,-0.683992 2.019006,-0.878628 2.636718,0.390625 0.617713,1.269252 0.943871,4.005454 0.78125,6.478515 -0.162621,2.473062 -0.812949,4.686873 -1.789062,6.671875 -0.976113,1.985003 -2.279948,3.744141 -3.582032,5.501954 2.01823,-1.692709 4.037596,-3.385544 5.632813,-5.59961 1.595217,-2.214066 2.765025,-4.947521 3.318359,-7.617187 0.553334,-2.669667 0.489379,-5.271709 0.75,-7.388672 0.260622,-2.116964 0.845166,-3.74283 2.212891,-4.84961 1.367725,-1.106779 3.512259,-1.691741 4.816406,-2.246093 1.304144,-0.554353 1.759944,-1.0769 1.173824,-1.466797 -0.586104,-0.389898 -2.213352,-0.650325 -4.361324,-0.650391 z"
         style="fill:#dd925d;fill-opacity:1;stroke:#000000;stroke-width:0;stroke-linecap:butt;stroke-linejoin:miter;stroke-miterlimit:4;stroke-dasharray:none;stroke-opacity:1" />
      <path
         sodipodi:nodetypes="ccccccccccccccccccccccccccccc"
         inkscape:original-d="m 115.52734,64.746094 c -0.29196,-0.09866 -0.58493,-0.196313 -0.8789,-0.292969 -1.59732,-0.03362 -3.18911,-0.0661 -4.78516,-0.09766 -1.75789,0.422437 -3.51462,0.845354 -5.27344,1.269531 -1.17165,-1.564543 -2.34275,-3.126 -3.51562,-4.6875 -0.16174,-0.847267 -0.32452,-1.693708 -0.48828,-2.539062 -0.45431,1.364929 -0.91046,2.733375 -1.36719,4.101562 -0.748355,0.878678 -1.496396,1.756812 -2.246094,2.636719 -1.172306,0.585653 -2.34275,1.170875 -3.515625,1.757812 -1.400173,0.09676 -2.798479,0.194313 -4.199218,0.292969 -0.813421,0.552806 -1.626605,1.105771 -2.441407,1.660156 -1.042137,0.553167 -2.082333,1.105771 -3.125,1.660156 -0.846324,0.390073 -1.691708,0.78025 -2.539062,1.171875 C 81.02295,72.787034 80.892927,73.892229 80.761719,75 c 0.131338,1.758563 0.261416,3.514625 0.390625,5.273437 -0.617814,0.520107 -1.855469,1.5625 -1.855469,1.5625 0,0 0.717146,-1.303083 1.074219,-1.953125 -0.356419,-1.13824 -0.715146,-2.279645 -1.074219,-3.417968 -0.844891,-0.196206 -1.691708,-0.391625 -2.539062,-0.585938 0.359381,-1.760329 0.717145,-3.516625 1.074218,-5.273437 1.985372,-1.39982 3.972354,-2.800479 5.957032,-4.199219 1.855404,-1.53007 3.711937,-3.060896 5.566406,-4.589844 2.375911,-1.042057 4.277041,-2.887719 6.414062,-4.330078 0.824775,0.107665 1.649438,0.216448 2.472657,0.326172 1.984622,0.09656 3.972352,0.194312 5.957032,0.292969 2.34363,0.617194 4.6885,1.235979 7.03125,1.855468 1.10744,0.259341 2.21454,0.519834 3.32031,0.78125 1.92032,1.23517 3.84215,2.472959 5.76172,3.710938 -1.59384,0.09664 -3.1891,0.194312 -4.78516,0.292969 z"
         inkscape:path-effect="#path-effect1488"
         inkscape:connector-curvature="0"
         id="path1486"
         d="m 116.17922,64.648506 c -0.94424,1.33e-4 -1.23721,-0.09752 -2.18267,-0.162752 -0.94545,-0.06523 -2.53724,-0.09772 -4.21411,0.09758 -1.67688,0.19529 -3.43361,0.618206 -4.89949,0.04809 -1.46588,-0.570119 -2.63698,-2.131581 -3.3043,-3.336272 -0.66732,-1.204692 -0.8301,-2.051134 -1.13886,-1.791557 -0.30876,0.259577 -0.76491,1.628023 -1.367196,2.751519 -0.602285,1.123496 -1.350326,2.00163 -2.311185,2.734647 -0.960859,0.733016 -2.131303,1.318238 -3.417895,1.660347 -1.286592,0.34211 -2.684897,0.439666 -3.791935,0.765044 -1.107038,0.325378 -1.920222,0.878343 -2.848669,1.432192 -0.928447,0.553849 -1.968643,1.106453 -2.913133,1.578721 -0.94449,0.472269 -1.789874,0.862446 -2.278786,1.611661 -0.488911,0.749215 -0.618934,1.85441 -0.618968,3.287667 -3.4e-5,1.433258 0.130044,3.18932 -0.113685,4.328786 -0.24373,1.139466 -0.862973,1.660934 -1.481463,2.181767 0.358073,-0.651042 0.7168,-1.303273 0.716702,-2.197131 -9.8e-5,-0.893858 -0.358825,-2.035263 -0.960344,-2.702131 -0.601519,-0.666868 -1.448336,-0.862288 -1.692569,-1.840271 -0.244234,-0.977983 0.11353,-2.734279 1.285204,-4.312418 1.171674,-1.57814 3.158656,-2.978799 5.078671,-4.44325 1.920014,-1.464452 3.776547,-2.995277 5.761406,-4.473826 1.984858,-1.478548 4.146716,-2.937999 5.627465,-3.604902 1.480749,-0.666902 2.305412,-0.558119 3.70938,-0.455013 1.40397,0.103107 3.3917,0.200864 5.55572,0.558857 2.16403,0.357992 4.5089,0.976777 6.23401,1.416186 1.72512,0.439409 2.83221,0.699903 4.34502,1.448193 1.51281,0.74829 3.43464,1.986078 3.59791,2.653275 0.16327,0.667198 -1.43199,0.764867 -2.37623,0.765 z"
         style="fill:#dd925d;fill-opacity:1;stroke:#000000;stroke-width:0;stroke-linecap:butt;stroke-linejoin:miter;stroke-miterlimit:4;stroke-dasharray:none;stroke-opacity:1" />
      <path
         sodipodi:nodetypes="ccccccccccccc"
         inkscape:original-d="m 127.53906,74.902344 c 0.0987,2.179989 0.19632,4.360979 0.29297,6.542968 0.13127,2.441474 0.26142,4.881813 0.39063,7.324219 0.58716,1.822622 1.17287,3.644834 1.75781,5.46875 0.74995,1.464338 2.50505,2.516218 3.75607,3.775827 -0.8604,2.288572 -2.5842,6.868702 -2.5842,6.868702 0,0 1.82392,-2.80048 2.73438,-4.19922 0.19615,-1.009275 -0.0991,-1.780653 -0.15018,-2.669482 0.39244,-0.868066 0.78471,-1.736968 1.17557,-2.603952 C 134.47427,92.7761 134.0342,90.135719 133.59375,87.5 c -0.74747,-2.897245 -1.4964,-5.795271 -2.24609,-8.691406 -0.8777,-2.474365 -1.75682,-4.948917 -2.63672,-7.421875 -0.38954,1.170603 -0.78025,2.34275 -1.17188,3.515625 z"
         inkscape:path-effect="#path-effect1492"
         inkscape:connector-curvature="0"
         id="path1490"
         d="m 127.78338,75.405825 c -0.14671,1.676557 -0.049,3.857545 0.0649,6.169281 0.11396,2.311736 0.24411,4.752075 0.60222,6.884753 0.35812,2.132678 0.94383,3.95489 1.78948,5.422146 0.84565,1.467256 2.24453,2.873493 2.44006,4.646981 0.19554,1.773484 -0.66631,4.064254 -1.52771,6.353824 0.91146,-1.39974 1.82368,-2.80064 2.25104,-3.99748 0.42736,-1.196831 0.38317,-1.982333 0.55416,-2.860913 0.17099,-0.87858 0.56326,-1.747481 0.53942,-3.497804 -0.0238,-1.750323 -0.46389,-4.390705 -1.05787,-7.15713 -0.59399,-2.766424 -1.34291,-5.664451 -2.15662,-8.349639 -0.81371,-2.685189 -1.69283,-5.159742 -2.32725,-5.811231 -0.63442,-0.65149 -1.02513,0.520655 -1.17184,2.197212 z"
         style="fill:#dd925d;fill-opacity:1;stroke:#000000;stroke-width:0;stroke-linecap:butt;stroke-linejoin:miter;stroke-miterlimit:4;stroke-dasharray:none;stroke-opacity:1" />
      <path
         sodipodi:nodetypes="ccccccccccccc"
         inkscape:original-d="m 120.41016,67.1875 c 0.94501,1.626604 1.88902,3.254208 2.83203,4.882812 0.0336,1.464127 0.0661,2.928688 0.0977,4.394532 -0.12929,1.464821 -0.25941,2.928687 -0.39062,4.394531 0.29418,1.562652 0.58694,3.124 0.87891,4.6875 0.39182,0.715506 0.78225,1.431292 1.17187,2.148437 -0.22698,-1.075744 -0.45473,-2.149437 -0.68359,-3.222656 0.37513,-2.110329 0.74978,-4.222633 1.12317,-6.332456 0.78225,-0.91246 1.5635,-1.823916 2.34375,-2.734375 0.9938,-0.819869 1.98659,-1.638738 2.97839,-2.456606 -2.17877,-2.473572 -4.36098,-4.948917 -6.54297,-7.421875 -1.2685,0.55237 -2.53806,1.105771 -3.80859,1.660156 z"
         inkscape:path-effect="#path-effect1496"
         inkscape:connector-curvature="0"
         id="path1494"
         d="m 120.88207,68.001145 c 0.47192,0.813645 1.41593,2.441249 1.9043,3.987283 0.48837,1.546034 0.52093,3.010594 0.47213,4.475875 -0.0488,1.465281 -0.17893,2.929147 -0.0976,4.443543 0.0814,1.514395 0.37412,3.075744 0.716,4.215464 0.34187,1.139721 0.7323,1.855508 0.81364,1.676005 0.0813,-0.179502 -0.14642,-1.253195 -0.0731,-2.845162 0.0733,-1.591968 0.44796,-3.704272 1.02614,-5.215377 0.57818,-1.511106 1.35943,-2.422563 2.24654,-3.28764 0.8871,-0.865077 1.8799,-1.683943 1.28584,-3.32925 -0.59406,-1.645307 -2.77627,-4.12065 -4.50088,-5.081173 -1.72461,-0.960523 -2.99417,-0.407124 -3.62954,-0.130169 -0.63537,0.276956 -0.63542,0.276956 -0.16351,1.090601 z"
         style="fill:#dd925d;fill-opacity:1;stroke:#000000;stroke-width:0;stroke-linecap:butt;stroke-linejoin:miter;stroke-miterlimit:4;stroke-dasharray:none;stroke-opacity:1" />
      <path
         inkscape:original-d="m 75.130096,86.890536 c 0.09307,2.116638 0.185142,4.234275 0.276213,6.352913 0.139169,1.703085 0.277214,3.405634 0.41432,5.109951 0.461603,1.104447 0.921712,2.20871 1.381068,3.31456 -0.874069,-0.55367 -1.748352,-1.10585 -2.624029,-1.65728 -1.03041,-1.469846 -2.061199,-2.937809 -3.093298,-4.405214 0.06534,-2.3072 0.129704,-4.614028 0.193056,-6.919541 0.645211,-1.795589 1.289996,-3.591777 1.933495,-5.386165 0.507052,1.195123 1.013783,2.392851 1.519175,3.590776 z"
         inkscape:path-effect="#path-effect1500"
         inkscape:connector-curvature="0"
         id="path1498"
         d="m 74.922811,87.35017 c 0.299315,1.657049 0.391385,3.774686 0.506489,5.685569 0.115104,1.910882 0.253148,3.613431 0.552437,5.018021 0.299288,1.40459 0.759398,2.50885 0.552277,2.78527 -0.207121,0.27642 -1.081404,-0.27576 -2.03465,-1.286576 -0.953246,-1.01082 -1.984035,-2.478783 -2.467328,-4.366499 -0.483294,-1.887716 -0.418933,-4.194544 -0.06445,-6.245183 0.354483,-2.05064 0.999269,-3.846828 1.574225,-4.146103 0.574955,-0.299275 1.081686,0.898452 1.381,2.555501 z"
         style="fill:#dd925d;fill-opacity:1;stroke:#000000;stroke-width:0;stroke-linecap:butt;stroke-linejoin:miter;stroke-miterlimit:4;stroke-dasharray:none;stroke-opacity:1" />
    </g>
  </g>
</svg>
