<?xml version="1.0" encoding="UTF-8" standalone="no"?>
<!-- Created with Inkscape (http://www.inkscape.org/) -->

<svg
   xmlns:dc="http://purl.org/dc/elements/1.1/"
   xmlns:cc="http://creativecommons.org/ns#"
   xmlns:rdf="http://www.w3.org/1999/02/22-rdf-syntax-ns#"
   xmlns:svg="http://www.w3.org/2000/svg"
   xmlns="http://www.w3.org/2000/svg"
   xmlns:sodipodi="http://sodipodi.sourceforge.net/DTD/sodipodi-0.dtd"
   xmlns:inkscape="http://www.inkscape.org/namespaces/inkscape"
   width="200px"
   height="200px"
   viewBox="0 0 200 200"
   version="1.1"
   id="SVGRoot"
   sodipodi:docname="hair-4-9.svg"
   inkscape:version="0.92.4 (5da689c313, 2019-01-14)">
  <defs
     id="defs909">
    <inkscape:path-effect
       effect="bspline"
       id="path-effect12527"
       is_visible="true"
       weight="33.333333"
       steps="2"
       helper_size="0"
       apply_no_weight="true"
       apply_with_weight="true"
       only_selected="false" />
    <inkscape:path-effect
       effect="bspline"
       id="path-effect12520"
       is_visible="true"
       weight="33.333333"
       steps="2"
       helper_size="0"
       apply_no_weight="true"
       apply_with_weight="true"
       only_selected="false" />
    <inkscape:path-effect
       effect="bspline"
       id="path-effect1868"
       is_visible="true"
       weight="33.333333"
       steps="2"
       helper_size="0"
       apply_no_weight="true"
       apply_with_weight="true"
       only_selected="false" />
    <inkscape:path-effect
       effect="bspline"
       id="path-effect1853"
       is_visible="true"
       weight="33.333333"
       steps="2"
       helper_size="0"
       apply_no_weight="true"
       apply_with_weight="true"
       only_selected="false" />
    <inkscape:path-effect
       effect="bspline"
       id="path-effect1488"
       is_visible="true"
       weight="33.333333"
       steps="2"
       helper_size="0"
       apply_no_weight="true"
       apply_with_weight="true"
       only_selected="false" />
    <inkscape:path-effect
       effect="bspline"
       id="path-effect1492"
       is_visible="true"
       weight="33.333333"
       steps="2"
       helper_size="0"
       apply_no_weight="true"
       apply_with_weight="true"
       only_selected="false" />
    <inkscape:path-effect
       effect="bspline"
       id="path-effect1496"
       is_visible="true"
       weight="33.333333"
       steps="2"
       helper_size="0"
       apply_no_weight="true"
       apply_with_weight="true"
       only_selected="false" />
    <inkscape:path-effect
       effect="bspline"
       id="path-effect1500"
       is_visible="true"
       weight="33.333333"
       steps="2"
       helper_size="0"
       apply_no_weight="true"
       apply_with_weight="true"
       only_selected="false" />
    <inkscape:path-effect
       effect="bspline"
       id="path-effect5622"
       is_visible="true"
       weight="33.333333"
       steps="2"
       helper_size="0"
       apply_no_weight="true"
       apply_with_weight="true"
       only_selected="false" />
    <inkscape:path-effect
       effect="bspline"
       id="path-effect9104"
       is_visible="true"
       weight="33.333333"
       steps="2"
       helper_size="0"
       apply_no_weight="true"
       apply_with_weight="true"
       only_selected="false" />
    <inkscape:path-effect
       effect="bspline"
       id="path-effect9100"
       is_visible="true"
       weight="33.333333"
       steps="2"
       helper_size="0"
       apply_no_weight="true"
       apply_with_weight="true"
       only_selected="false" />
  </defs>
  <sodipodi:namedview
     id="base"
     pagecolor="#ffffff"
     bordercolor="#666666"
     borderopacity="1.0"
     inkscape:pageopacity="0.0"
     inkscape:pageshadow="2"
     inkscape:zoom="2.5600001"
     inkscape:cx="28.44888"
     inkscape:cy="100.83391"
     inkscape:document-units="px"
     inkscape:current-layer="layer1"
     showgrid="false"
     inkscape:window-width="1920"
     inkscape:window-height="1001"
     inkscape:window-x="-9"
     inkscape:window-y="-9"
     inkscape:window-maximized="1"
     showguides="false" />
  <metadata
     id="metadata912">
    <rdf:RDF>
      <cc:Work
         rdf:about="">
        <dc:format>image/svg+xml</dc:format>
        <dc:type
           rdf:resource="http://purl.org/dc/dcmitype/StillImage" />
        <dc:title></dc:title>
      </cc:Work>
    </rdf:RDF>
  </metadata>
  <g
     inkscape:label="Layer 1"
     inkscape:groupmode="layer"
     id="layer1">
    <path
       style="fill:#dd925d;fill-opacity:1;stroke:#000000;stroke-width:0;stroke-linecap:butt;stroke-linejoin:miter;stroke-miterlimit:4;stroke-dasharray:none;stroke-opacity:1"
       d="m 88.67239,59.113416 c 0.976795,-2.539058 2.14867,-4.361975 4.589119,-5.891147 2.440449,-1.529172 6.153754,-2.76694 10.059221,-3.287582 3.90546,-0.520642 8.00835,-0.325267 12.40206,0.944069 4.39371,1.269336 9.0823,3.613631 12.4999,6.445296 3.41759,2.831665 5.56621,6.15226 7.35661,9.602782 1.79039,3.450521 3.22258,7.030979 4.36198,10.611865 1.1394,3.580885 1.98564,7.161097 3.15765,10.481875 1.17201,3.320778 2.6693,6.380467 4.1667,9.440363 -0.97656,-0.716146 -1.95296,-1.432166 -2.62541,-0.537594 -0.67246,0.894572 -1.04052,3.399077 -1.19227,6.281037 -0.15175,2.88196 -0.0867,6.13476 -0.41225,11.2144 -0.32555,5.07964 -1.04136,11.9774 -1.59485,18.35868 -0.5535,6.38129 -0.94399,12.23856 -0.40182,17.00885 0.54218,4.77029 2.01717,8.44894 3.49222,12.12775 -2.27865,-1.6276 -4.5571,-3.25507 -6.21697,-3.38585 -1.65987,-0.13078 -2.7023,1.23741 -3.74397,2.6046 -1.95312,-1.36719 -3.90605,-2.73423 -5.50135,-4.45982 -1.59531,-1.72559 -2.83216,-3.80871 -3.38545,-6.73849 -0.55328,-2.92978 -0.42305,-6.70636 -0.81329,-7.61817 -0.39024,-0.91182 -1.30251,1.04304 -2.21397,2.99617 -0.83327,-3.1901 -1.66671,-6.3809 -0.48813,-10.94591 1.17859,-4.56502 4.36805,-10.50414 5.4353,-15.4193 1.06726,-4.91517 0.0131,-8.80652 -1.03473,-12.67242 -1.04782,-3.8659 -2.08971,-7.70784 -3.42419,-10.930063 -1.33449,-3.222223 -2.96238,-5.826849 -3.51578,-5.827233 -0.5534,-3.84e-4 -0.0324,2.604821 0.48847,5.208988 -2.14844,-1.888021 -4.29681,-3.775984 -6.57522,-5.110562 -2.27842,-1.334579 -4.68719,-2.115801 -6.83608,-3.190227 -2.1489,-1.074427 -4.03644,-2.441267 -5.63167,-3.841166 -1.595223,-1.399898 -2.897182,-2.832053 -3.67834,-2.441993 -0.781158,0.390061 -1.041584,2.60368 -0.455455,5.208931 0.586129,2.605251 2.017912,5.598975 3.450205,8.593767 -1.822918,-1.497396 -3.645731,-2.994704 -5.63158,-5.14334 -1.98585,-2.148636 -4.134162,-4.947952 -5.599001,-8.496339 -1.464839,-3.548388 -2.24613,-7.845488 -2.245989,-11.62142 1.4e-4,-3.775931 0.781534,-7.03174 1.75833,-9.570797 z"
       id="path9098"
       inkscape:connector-curvature="0"
       inkscape:path-effect="#path-effect9100"
       inkscape:original-d="m 88.476563,58.398437 c 1.172875,-1.823916 2.34475,-3.646833 3.515625,-5.46875 3.70957,-1.23719 7.422875,-2.474958 11.132812,-3.710937 4.10124,0.194249 8.20413,0.389625 12.30469,0.585937 4.68741,2.342207 9.376,4.6865 14.0625,7.03125 2.14925,3.31903 4.29787,6.639625 6.44531,9.960938 1.4334,3.579998 2.86558,7.160458 4.29688,10.742187 0.84747,3.580247 1.6937,7.160459 2.53906,10.742188 1.4987,3.059514 4.49219,9.179687 4.49219,9.179687 0,0 -1.95213,-1.433291 -2.92969,-2.148437 -0.36736,2.505536 -0.73541,5.01004 -1.10485,7.51826 0.0661,3.25556 0.13118,6.50836 0.19531,9.76563 -0.71537,6.90212 -1.43118,13.79988 -2.14844,20.70312 -0.38969,5.8593 -0.78018,11.71657 -1.17187,17.57813 1.47634,3.67847 4.42516,11.03642 4.42516,11.03642 0,0 -4.55629,-3.25621 -6.83594,-4.88281 -1.04075,1.3663 -3.125,4.10156 -3.125,4.10156 0,0 -3.90525,-2.73537 -5.85937,-4.10156 -1.23611,-2.08455 -2.47296,-4.16767 -3.71094,-6.25 0.13119,-3.7765 0.26142,-7.55308 0.39063,-11.32813 -0.91021,1.9516 -2.73438,5.85938 -2.73438,5.85938 0,0 -1.66552,-6.38121 -2.4998,-9.57031 3.1906,-5.94044 6.38005,-11.87956 9.56863,-17.81784 -1.05321,-3.89255 -2.10737,-7.78391 -3.16258,-11.67435 -1.04045,-3.84135 -2.08233,-7.683292 -3.125,-11.523438 -1.62632,-2.604706 -3.25421,-5.209333 -4.88281,-7.8125 0.52178,2.602897 1.5625,7.8125 1.5625,7.8125 0,0 -4.29588,-3.777041 -6.44531,-5.664062 -2.40794,-0.782275 -4.81671,-1.5635 -7.22657,-2.34375 -1.8875,-1.368534 -3.77504,-2.735375 -5.66406,-4.101563 -1.301208,-1.433428 -2.603167,-2.865583 -3.90625,-4.296875 -0.259408,2.212465 -0.519833,4.426084 -0.78125,6.640625 1.434005,2.995284 4.29688,8.984375 4.29688,8.984375 0,0 -3.644838,-2.995791 -5.468755,-4.492187 -2.147563,-2.800643 -4.295875,-5.599958 -6.445312,-8.398438 -0.78021,-4.29765 -1.5615,-8.59475 -2.34375,-12.890625 0.782105,-3.255608 1.5635,-6.511416 2.34375,-9.765625 z"
       sodipodi:nodetypes="ccccccccccccccccccccccccccccccccccccc"
       transform="matrix(1,0,0,0.94689672,0.14126545,0.53178502)" />
    <path
       transform="translate(0.14126545,-6.176245)"
       style="fill:#dd925d;fill-opacity:1;stroke:#000000;stroke-width:0;stroke-linecap:butt;stroke-linejoin:miter;stroke-miterlimit:4;stroke-dasharray:none;stroke-opacity:1"
       d="m 90.495473,60.058119 c -9.6e-5,-1.724584 -1.888116,-2.375625 -4.492501,-1.724729 -2.604384,0.650897 -5.923667,2.603416 -8.626059,5.110243 -2.702392,2.506827 -4.784985,5.565635 -6.445557,8.886593 -1.660572,3.320958 -2.897087,6.900343 -3.515784,10.839967 -0.618697,3.939624 -0.618697,8.235057 -0.06527,12.565141 0.553425,4.330086 1.659938,8.691046 2.408702,12.434706 0.748765,3.74366 1.139327,6.86816 1.334694,10.28657 0.195366,3.41841 0.195366,7.12833 0.195366,10.38392 0,3.25558 0,6.0543 -0.162758,8.91936 -0.162758,2.86506 -0.488284,5.79479 -0.813805,8.72448 1.041667,-0.65104 2.084502,-1.30281 2.214758,-0.42549 0.130257,0.87732 -0.65187,3.28888 -1.856483,5.60067 -1.204613,2.31178 -2.832233,4.52535 -4.459837,6.73889 2.539062,-0.13021 5.079174,-0.26047 7.259864,-0.74883 2.18069,-0.48836 4.004362,-1.33507 5.012759,-0.9126 1.008397,0.42246 1.203939,2.11715 1.399252,3.80986 1.041667,-1.82292 2.084009,-3.64702 2.972065,-5.69398 0.888057,-2.04696 1.585614,-4.20305 2.138765,-6.96903 0.553151,-2.76598 0.943987,-6.08809 0.036,-10.27104 -0.907989,-4.18294 -3.11572,-9.2325 -4.840981,-13.36665 -1.72526,-4.13414 -2.968784,-7.35449 -3.785806,-10.55988 -0.817022,-3.20538 -1.207646,-6.39548 -1.43547,-9.32523 -0.227824,-2.92974 -0.292928,-5.599014 0.26069,-7.486756 0.553617,-1.887742 1.726079,-2.995067 2.539102,-2.117341 0.813023,0.877726 1.269283,3.745643 1.725012,6.610227 0.520833,-1.822918 1.042006,-3.647024 1.855748,-5.176501 0.813742,-1.529476 1.921235,-2.767262 2.832055,-4.914457 0.91082,-2.147195 1.627575,-5.209694 1.887857,-8.041102 0.260283,-2.831408 0.0649,-5.436571 0.09749,-8.040362 0.0326,-2.603791 0.293103,-5.208878 1.367261,-7.910146 1.074157,-2.701269 2.962968,-5.501919 2.962873,-7.226503 z"
       id="path9102"
       inkscape:connector-curvature="0"
       inkscape:path-effect="#path-effect9104"
       inkscape:original-d="m 92.382813,58.984375 c -1.887021,-0.652042 -3.775042,-1.303083 -5.664063,-1.953125 -3.320342,1.952731 -6.639625,3.90525 -9.960937,5.859375 -2.083074,3.059983 -4.165667,6.118792 -6.25,9.179687 -1.236444,3.581074 -2.472959,7.160459 -3.710938,10.742188 0.001,4.297317 0.001,8.59275 0,12.890625 1.108028,4.361995 2.214542,8.722955 3.320313,13.085935 0.391687,3.1245 0.78225,6.249 1.171875,9.375 0.001,3.71096 0.001,7.42088 0,11.13281 0.001,2.79924 0.001,5.59796 0,8.39844 -0.324638,2.92974 -0.976563,8.78906 -0.976563,8.78906 0,0 2.084333,-1.30308 3.125,-1.95312 -0.779374,2.40515 -1.5615,4.81671 -2.34375,7.22656 -1.627414,2.21365 -4.882812,6.64063 -4.882812,6.64063 0,0 5.079125,-0.26142 7.617187,-0.39063 1.823164,-0.847 3.646833,-1.69371 5.46875,-2.53906 0.196183,1.69059 0.585938,5.07812 0.585938,5.07812 0,0 2.084333,-3.64683 3.125,-5.46875 0.71668,-2.27816 1.433291,-4.42808 2.148437,-6.64062 0.391414,-3.31952 0.78225,-6.64163 1.171875,-9.96094 -2.205267,-5.04721 -4.412995,-10.09677 -6.620995,-15.14365 -1.242523,-3.22135 -2.486046,-6.4417 -3.730568,-9.66104 -0.389624,-3.1911 -0.780249,-6.3812 -1.171874,-9.57031 -0.0641,-2.67027 -0.129209,-5.339539 -0.195313,-8.00781 1.172289,-1.107217 2.34475,-2.214542 3.515625,-3.320313 0.45633,2.861072 1.367188,8.593753 1.367188,8.593753 0,0 1.042666,-3.646836 1.5625,-5.468753 1.107049,-1.237172 2.214541,-2.474958 3.320312,-3.710937 0.716537,-3.058293 1.433292,-6.120792 2.148438,-9.179688 -0.194238,-2.60417 -0.389625,-5.209333 -0.585938,-7.8125 0.261325,-2.604246 0.521833,-5.209333 0.78125,-7.8125 1.888231,-2.799308 3.777042,-5.599958 5.664063,-8.398437 z"
       sodipodi:nodetypes="cccccccccccccccccccccccccccccccc" />
  </g>
</svg>
