<?xml version="1.0" encoding="UTF-8" standalone="no"?>
<!-- Created with Inkscape (http://www.inkscape.org/) -->

<svg
   xmlns:dc="http://purl.org/dc/elements/1.1/"
   xmlns:cc="http://creativecommons.org/ns#"
   xmlns:rdf="http://www.w3.org/1999/02/22-rdf-syntax-ns#"
   xmlns:svg="http://www.w3.org/2000/svg"
   xmlns="http://www.w3.org/2000/svg"
   xmlns:sodipodi="http://sodipodi.sourceforge.net/DTD/sodipodi-0.dtd"
   xmlns:inkscape="http://www.inkscape.org/namespaces/inkscape"
   width="200px"
   height="200px"
   viewBox="0 0 200 200"
   version="1.1"
   id="SVGRoot"
   sodipodi:docname="hair-4-17.svg"
   inkscape:version="0.92.4 (5da689c313, 2019-01-14)">
  <defs
     id="defs909">
    <inkscape:path-effect
       effect="bspline"
       id="path-effect12527"
       is_visible="true"
       weight="33.333333"
       steps="2"
       helper_size="0"
       apply_no_weight="true"
       apply_with_weight="true"
       only_selected="false" />
    <inkscape:path-effect
       effect="bspline"
       id="path-effect12520"
       is_visible="true"
       weight="33.333333"
       steps="2"
       helper_size="0"
       apply_no_weight="true"
       apply_with_weight="true"
       only_selected="false" />
    <inkscape:path-effect
       effect="bspline"
       id="path-effect1868"
       is_visible="true"
       weight="33.333333"
       steps="2"
       helper_size="0"
       apply_no_weight="true"
       apply_with_weight="true"
       only_selected="false" />
    <inkscape:path-effect
       effect="bspline"
       id="path-effect1853"
       is_visible="true"
       weight="33.333333"
       steps="2"
       helper_size="0"
       apply_no_weight="true"
       apply_with_weight="true"
       only_selected="false" />
    <inkscape:path-effect
       effect="bspline"
       id="path-effect1488"
       is_visible="true"
       weight="33.333333"
       steps="2"
       helper_size="0"
       apply_no_weight="true"
       apply_with_weight="true"
       only_selected="false" />
    <inkscape:path-effect
       effect="bspline"
       id="path-effect1492"
       is_visible="true"
       weight="33.333333"
       steps="2"
       helper_size="0"
       apply_no_weight="true"
       apply_with_weight="true"
       only_selected="false" />
    <inkscape:path-effect
       effect="bspline"
       id="path-effect1496"
       is_visible="true"
       weight="33.333333"
       steps="2"
       helper_size="0"
       apply_no_weight="true"
       apply_with_weight="true"
       only_selected="false" />
    <inkscape:path-effect
       effect="bspline"
       id="path-effect1500"
       is_visible="true"
       weight="33.333333"
       steps="2"
       helper_size="0"
       apply_no_weight="true"
       apply_with_weight="true"
       only_selected="false" />
  </defs>
  <sodipodi:namedview
     id="base"
     pagecolor="#ffffff"
     bordercolor="#666666"
     borderopacity="1.0"
     inkscape:pageopacity="0.0"
     inkscape:pageshadow="2"
     inkscape:zoom="5.1200001"
     inkscape:cx="52.80893"
     inkscape:cy="86.073715"
     inkscape:document-units="px"
     inkscape:current-layer="layer1"
     showgrid="false"
     inkscape:window-width="1920"
     inkscape:window-height="1001"
     inkscape:window-x="-9"
     inkscape:window-y="-9"
     inkscape:window-maximized="1"
     showguides="false" />
  <metadata
     id="metadata912">
    <rdf:RDF>
      <cc:Work
         rdf:about="">
        <dc:format>image/svg+xml</dc:format>
        <dc:type
           rdf:resource="http://purl.org/dc/dcmitype/StillImage" />
        <dc:title></dc:title>
      </cc:Work>
    </rdf:RDF>
  </metadata>
  <g
     inkscape:label="Layer 1"
     inkscape:groupmode="layer"
     id="layer1">
    <g
       transform="translate(-0.29666876,-0.22807867)"
       id="g1507">
      <path
         sodipodi:nodetypes="scssccsssssscsscacccsccsscssscccsaaaaaaaaacsssssssssscssssscscc"
         inkscape:connector-curvature="0"
         id="path1461"
         d="m 107.50006,56.964852 c -2.71881,-0.03164 -4.86212,0.558926 -7.00401,1.14934 0.39837,0.478014 0.79553,0.955222 1.75246,1.403217 0.95693,0.447996 2.47099,0.865204 4.30716,1.25955 1.83616,0.394344 3.99394,0.766076 5.57672,1.647253 1.5828,0.881178 2.59307,2.273475 3.74055,3.595621 1.14746,1.322145 2.43152,2.573735 3.71716,3.432272 1.28563,0.858537 2.57224,1.321669 3.71912,2.550588 1.14687,1.228918 2.15681,3.225336 3.07459,5.242875 0.91778,2.017537 1.74385,4.059232 2.54692,6.262321 0.80306,2.203089 1.58365,4.569271 2.24899,6.354821 0.66534,1.785551 1.22257,3.008482 1.78946,3.82785 0.56689,0.819368 1.15798,1.268675 1.74857,1.718104 0.0812,-1.016823 0.45557,-1.839435 0.52858,-3.463285 0.073,-1.623851 0.23465,-3.560944 0.0724,-6.742796 -0.16232,-3.181852 0.42086,-6.298068 -0.64739,-9.811043 -0.0531,-0.174646 -0.44982,-1.398138 -0.66084,-2.101473 -0.0542,-0.180567 -0.14082,-0.355839 -0.15537,-0.543796 -0.0685,-0.885723 0.37507,-1.600535 0.32915,-2.644711 -0.0459,-1.044175 -0.0908,-2.112142 -0.48095,-3.085896 -0.39013,-0.973753 -1.1243,-1.8541 -1.81283,-2.735584 -0.68853,-0.881484 -1.33106,-1.763536 -1.92771,-2.52894 -0.59665,-0.765403 -1.14685,-1.414808 -1.97249,-1.924748 -0.82563,-0.509941 -1.9292,-0.880943 -3.14469,-0.950566 -1.2155,-0.06963 -2.54748,0.161576 -3.6023,0.277495 -0.49633,0.05454 -0.9272,0.08618 -1.29486,0.159411 -1.15167,-0.401144 -2.37022,-0.727782 -3.8418,-1.066681 -2.56351,-0.590371 -5.88772,-1.249554 -8.60653,-1.281199 z m -11.805764,0.230262 c -2.141435,-6.5e-5 -4.804788,0.263377 -8.147005,1.509492 -1.196928,0.446263 -1.596461,0.132238 -2.893564,0.83196 -0.02638,-0.01832 0.02747,0.01719 0,0 -0.721944,-0.451984 -2.617194,-1.26621 -4.016986,-1.239819 -1.294676,0.0244 -2.546895,0.635307 -3.670436,1.285963 -0.986565,0.571332 -1.831044,1.386865 -2.593646,2.239278 -0.589656,0.659099 -0.988767,1.469859 -1.503223,2.190435 -0.537249,0.752501 -1.353603,1.34954 -1.653107,2.226739 -0.29449,0.862509 -0.126348,1.826984 -0.05652,2.736673 0.05227,0.680887 0.230225,1.34592 0.354387,2.017248 0.130091,0.703381 0.436231,1.391755 0.409205,2.106555 -0.03147,0.832344 -0.423736,1.61136 -0.66036,2.409981 -0.34383,1.160446 -0.895626,2.172495 -1.102997,3.459348 -0.823638,5.111155 1.12828,10.535556 1.322997,16.636499 0.778873,-0.262406 1.36213,-1.214134 1.849822,-1.542948 0.487693,-0.328814 0.68278,-0.721432 1.039794,-1.574437 0.357015,-0.853006 0.852125,-2.106768 1.187781,-3.808169 0.335657,-1.701402 0.465893,-3.734777 0.790556,-5.900202 0.324662,-2.165426 0.843391,-4.460713 1.557745,-6.429606 0.714353,-1.968895 1.622092,-3.607547 2.726052,-5.018518 1.103961,-1.410971 2.400642,-2.589547 3.504927,-3.278764 1.104284,-0.689218 2.012861,-0.885341 2.628693,0.393609 0.615833,1.278948 0.940999,4.036054 0.778873,6.528008 -0.162126,2.491955 -0.810475,4.722679 -1.783618,6.722845 -0.973142,2.000168 -2.273009,3.772745 -3.57113,5.543987 2.012088,-1.705641 4.025308,-3.411408 5.61567,-5.642389 1.590362,-2.23098 2.75661,-4.985318 3.30826,-7.675379 0.55165,-2.690062 0.48789,-5.311983 0.747718,-7.445118 0.259828,-2.133137 0.842593,-3.771424 2.206156,-4.886659 1.363562,-1.115235 3.50157,-1.704665 4.801748,-2.263252 1.300172,-0.558588 1.754592,-1.085127 1.170252,-1.478003 -0.584321,-0.392877 -2.206616,-0.655293 -4.348051,-0.65536 z"
         style="fill:#dd925d;fill-opacity:1;stroke:#000000;stroke-width:0;stroke-linecap:butt;stroke-linejoin:miter;stroke-miterlimit:4;stroke-dasharray:none;stroke-opacity:1" />
      <path
         sodipodi:nodetypes="ccccccccccccccccccccccccccccc"
         inkscape:original-d="m 115.52734,64.746094 c -0.29196,-0.09866 -0.58493,-0.196313 -0.8789,-0.292969 -1.59732,-0.03362 -3.18911,-0.0661 -4.78516,-0.09766 -1.75789,0.422437 -3.51462,0.845354 -5.27344,1.269531 -1.17165,-1.564543 -2.34275,-3.126 -3.51562,-4.6875 -0.16174,-0.847267 -0.32452,-1.693708 -0.48828,-2.539062 -0.45431,1.364929 -0.91046,2.733375 -1.36719,4.101562 -0.748355,0.878678 -1.496396,1.756812 -2.246094,2.636719 -1.172306,0.585653 -2.34275,1.170875 -3.515625,1.757812 -1.400173,0.09676 -2.798479,0.194313 -4.199218,0.292969 -0.813421,0.552806 -1.626605,1.105771 -2.441407,1.660156 -1.042137,0.553167 -2.082333,1.105771 -3.125,1.660156 -0.846324,0.390073 -1.691708,0.78025 -2.539062,1.171875 C 81.02295,72.787034 80.892927,73.892229 80.761719,75 c 0.131338,1.758563 0.261416,3.514625 0.390625,5.273437 -0.617814,0.520107 -1.855469,1.5625 -1.855469,1.5625 0,0 0.717146,-1.303083 1.074219,-1.953125 -0.356419,-1.13824 -0.715146,-2.279645 -1.074219,-3.417968 -0.844891,-0.196206 -1.691708,-0.391625 -2.539062,-0.585938 0.359381,-1.760329 0.717145,-3.516625 1.074218,-5.273437 1.985372,-1.39982 3.972354,-2.800479 5.957032,-4.199219 1.855404,-1.53007 3.711937,-3.060896 5.566406,-4.589844 2.375911,-1.042057 4.277041,-2.887719 6.414062,-4.330078 0.824775,0.107665 1.649438,0.216448 2.472657,0.326172 1.984622,0.09656 3.972352,0.194312 5.957032,0.292969 2.34363,0.617194 4.6885,1.235979 7.03125,1.855468 1.10744,0.259341 2.21454,0.519834 3.32031,0.78125 1.92032,1.23517 3.84215,2.472959 5.76172,3.710938 -1.59384,0.09664 -3.1891,0.194312 -4.78516,0.292969 z"
         inkscape:path-effect="#path-effect1488"
         inkscape:connector-curvature="0"
         id="path1486"
         d="m 116.17922,64.648506 c -0.94424,1.33e-4 -1.23721,-0.09752 -2.18267,-0.162752 -0.94545,-0.06523 -2.53724,-0.09772 -4.21411,0.09758 -1.67688,0.19529 -3.43361,0.618206 -4.89949,0.04809 -1.46588,-0.570119 -2.63698,-2.131581 -3.3043,-3.336272 -0.66732,-1.204692 -0.8301,-2.051134 -1.13886,-1.791557 -0.30876,0.259577 -0.76491,1.628023 -1.367196,2.751519 -0.602285,1.123496 -1.350326,2.00163 -2.311185,2.734647 -0.960859,0.733016 -2.131303,1.318238 -3.417895,1.660347 -1.286592,0.34211 -2.684897,0.439666 -3.791935,0.765044 -1.107038,0.325378 -1.920222,0.878343 -2.848669,1.432192 -0.928447,0.553849 -1.968643,1.106453 -2.913133,1.578721 -0.94449,0.472269 -1.789874,0.862446 -2.278786,1.611661 -0.488911,0.749215 -0.618934,1.85441 -0.618968,3.287667 -3.4e-5,1.433258 0.130044,3.18932 -0.113685,4.328786 -0.24373,1.139466 -0.862973,1.660934 -1.481463,2.181767 0.358073,-0.651042 0.7168,-1.303273 0.716702,-2.197131 -9.8e-5,-0.893858 -0.358825,-2.035263 -0.960344,-2.702131 -0.601519,-0.666868 -1.448336,-0.862288 -1.692569,-1.840271 -0.244234,-0.977983 0.11353,-2.734279 1.285204,-4.312418 1.171674,-1.57814 3.158656,-2.978799 5.078671,-4.44325 1.920014,-1.464452 3.776547,-2.995277 5.761406,-4.473826 1.984858,-1.478548 4.146716,-2.937999 5.627465,-3.604902 1.480749,-0.666902 2.305412,-0.558119 3.70938,-0.455013 1.40397,0.103107 3.3917,0.200864 5.55572,0.558857 2.16403,0.357992 4.5089,0.976777 6.23401,1.416186 1.72512,0.439409 2.83221,0.699903 4.34502,1.448193 1.51281,0.74829 3.43464,1.986078 3.59791,2.653275 0.16327,0.667198 -1.43199,0.764867 -2.37623,0.765 z"
         style="fill:#dd925d;fill-opacity:1;stroke:#000000;stroke-width:0;stroke-linecap:butt;stroke-linejoin:miter;stroke-miterlimit:4;stroke-dasharray:none;stroke-opacity:1" />
      <path
         sodipodi:nodetypes="ccccccccccccc"
         inkscape:original-d="m 127.53906,74.902344 c 0.0987,2.179989 0.19632,4.360979 0.29297,6.542968 0.13127,2.441474 0.26142,4.881813 0.39063,7.324219 0.58716,1.822622 1.17287,3.644834 1.75781,5.46875 0.74995,1.464338 2.50505,2.516218 3.75607,3.775827 -0.8604,2.288572 -2.5842,6.868702 -2.5842,6.868702 0,0 1.82392,-2.80048 2.73438,-4.19922 0.19615,-1.009275 -0.0991,-1.780653 -0.15018,-2.669482 0.39244,-0.868066 0.78471,-1.736968 1.17557,-2.603952 C 134.47427,92.7761 134.0342,90.135719 133.59375,87.5 c -0.74747,-2.897245 -1.4964,-5.795271 -2.24609,-8.691406 -0.8777,-2.474365 -1.75682,-4.948917 -2.63672,-7.421875 -0.38954,1.170603 -0.78025,2.34275 -1.17188,3.515625 z"
         inkscape:path-effect="#path-effect1492"
         inkscape:connector-curvature="0"
         id="path1490"
         d="m 127.78338,75.405825 c -0.14671,1.676557 -0.049,3.857545 0.0649,6.169281 0.11396,2.311736 0.24411,4.752075 0.60222,6.884753 0.35812,2.132678 0.94383,3.95489 1.78948,5.422146 0.84565,1.467256 2.24453,2.873493 2.44006,4.646981 0.19554,1.773484 -0.66631,4.064254 -1.52771,6.353824 0.91146,-1.39974 1.82368,-2.80064 2.25104,-3.99748 0.42736,-1.196831 0.38317,-1.982333 0.55416,-2.860913 0.17099,-0.87858 0.56326,-1.747481 0.53942,-3.497804 -0.0238,-1.750323 -0.46389,-4.390705 -1.05787,-7.15713 -0.59399,-2.766424 -1.34291,-5.664451 -2.15662,-8.349639 -0.81371,-2.685189 -1.69283,-5.159742 -2.32725,-5.811231 -0.63442,-0.65149 -1.02513,0.520655 -1.17184,2.197212 z"
         style="fill:#dd925d;fill-opacity:1;stroke:#000000;stroke-width:0;stroke-linecap:butt;stroke-linejoin:miter;stroke-miterlimit:4;stroke-dasharray:none;stroke-opacity:1" />
      <path
         sodipodi:nodetypes="ccccccccccccc"
         inkscape:original-d="m 120.41016,67.1875 c 0.94501,1.626604 1.88902,3.254208 2.83203,4.882812 0.0336,1.464127 0.0661,2.928688 0.0977,4.394532 -0.12929,1.464821 -0.25941,2.928687 -0.39062,4.394531 0.29418,1.562652 0.58694,3.124 0.87891,4.6875 0.39182,0.715506 0.78225,1.431292 1.17187,2.148437 -0.22698,-1.075744 -0.45473,-2.149437 -0.68359,-3.222656 0.37513,-2.110329 0.74978,-4.222633 1.12317,-6.332456 0.78225,-0.91246 1.5635,-1.823916 2.34375,-2.734375 0.9938,-0.819869 1.98659,-1.638738 2.97839,-2.456606 -2.17877,-2.473572 -4.36098,-4.948917 -6.54297,-7.421875 -1.2685,0.55237 -2.53806,1.105771 -3.80859,1.660156 z"
         inkscape:path-effect="#path-effect1496"
         inkscape:connector-curvature="0"
         id="path1494"
         d="m 120.88207,68.001145 c 0.47192,0.813645 1.41593,2.441249 1.9043,3.987283 0.48837,1.546034 0.52093,3.010594 0.47213,4.475875 -0.0488,1.465281 -0.17893,2.929147 -0.0976,4.443543 0.0814,1.514395 0.37412,3.075744 0.716,4.215464 0.34187,1.139721 0.7323,1.855508 0.81364,1.676005 0.0813,-0.179502 -0.14642,-1.253195 -0.0731,-2.845162 0.0733,-1.591968 0.44796,-3.704272 1.02614,-5.215377 0.57818,-1.511106 1.35943,-2.422563 2.24654,-3.28764 0.8871,-0.865077 1.8799,-1.683943 1.28584,-3.32925 -0.59406,-1.645307 -2.77627,-4.12065 -4.50088,-5.081173 -1.72461,-0.960523 -2.99417,-0.407124 -3.62954,-0.130169 -0.63537,0.276956 -0.63542,0.276956 -0.16351,1.090601 z"
         style="fill:#dd925d;fill-opacity:1;stroke:#000000;stroke-width:0;stroke-linecap:butt;stroke-linejoin:miter;stroke-miterlimit:4;stroke-dasharray:none;stroke-opacity:1" />
      <path
         inkscape:original-d="m 75.130096,86.890536 c 0.09307,2.116638 0.185142,4.234275 0.276213,6.352913 0.139169,1.703085 0.277214,3.405634 0.41432,5.109951 0.461603,1.104447 0.921712,2.20871 1.381068,3.31456 -0.874069,-0.55367 -1.748352,-1.10585 -2.624029,-1.65728 -1.03041,-1.469846 -2.061199,-2.937809 -3.093298,-4.405214 0.06534,-2.3072 0.129704,-4.614028 0.193056,-6.919541 0.645211,-1.795589 1.289996,-3.591777 1.933495,-5.386165 0.507052,1.195123 1.013783,2.392851 1.519175,3.590776 z"
         inkscape:path-effect="#path-effect1500"
         inkscape:connector-curvature="0"
         id="path1498"
         d="m 74.922811,87.35017 c 0.299315,1.657049 0.391385,3.774686 0.506489,5.685569 0.115104,1.910882 0.253148,3.613431 0.552437,5.018021 0.299288,1.40459 0.759398,2.50885 0.552277,2.78527 -0.207121,0.27642 -1.081404,-0.27576 -2.03465,-1.286576 -0.953246,-1.01082 -1.984035,-2.478783 -2.467328,-4.366499 -0.483294,-1.887716 -0.418933,-4.194544 -0.06445,-6.245183 0.354483,-2.05064 0.999269,-3.846828 1.574225,-4.146103 0.574955,-0.299275 1.081686,0.898452 1.381,2.555501 z"
         style="fill:#dd925d;fill-opacity:1;stroke:#000000;stroke-width:0;stroke-linecap:butt;stroke-linejoin:miter;stroke-miterlimit:4;stroke-dasharray:none;stroke-opacity:1" />
    </g>
  </g>
</svg>
