<?xml version="1.0" encoding="UTF-8" standalone="no"?>
<!-- Created with Inkscape (http://www.inkscape.org/) -->

<svg
   xmlns:dc="http://purl.org/dc/elements/1.1/"
   xmlns:cc="http://creativecommons.org/ns#"
   xmlns:rdf="http://www.w3.org/1999/02/22-rdf-syntax-ns#"
   xmlns:svg="http://www.w3.org/2000/svg"
   xmlns="http://www.w3.org/2000/svg"
   xmlns:sodipodi="http://sodipodi.sourceforge.net/DTD/sodipodi-0.dtd"
   xmlns:inkscape="http://www.inkscape.org/namespaces/inkscape"
   width="200px"
   height="200px"
   viewBox="0 0 200 200"
   version="1.1"
   id="SVGRoot"
   sodipodi:docname="hair-4-13.svg"
   inkscape:version="0.92.4 (5da689c313, 2019-01-14)">
  <defs
     id="defs909">
    <inkscape:path-effect
       effect="bspline"
       id="path-effect12527"
       is_visible="true"
       weight="33.333333"
       steps="2"
       helper_size="0"
       apply_no_weight="true"
       apply_with_weight="true"
       only_selected="false" />
    <inkscape:path-effect
       effect="bspline"
       id="path-effect12520"
       is_visible="true"
       weight="33.333333"
       steps="2"
       helper_size="0"
       apply_no_weight="true"
       apply_with_weight="true"
       only_selected="false" />
    <inkscape:path-effect
       effect="bspline"
       id="path-effect1868"
       is_visible="true"
       weight="33.333333"
       steps="2"
       helper_size="0"
       apply_no_weight="true"
       apply_with_weight="true"
       only_selected="false" />
    <inkscape:path-effect
       effect="bspline"
       id="path-effect1853"
       is_visible="true"
       weight="33.333333"
       steps="2"
       helper_size="0"
       apply_no_weight="true"
       apply_with_weight="true"
       only_selected="false" />
    <inkscape:path-effect
       effect="bspline"
       id="path-effect1488"
       is_visible="true"
       weight="33.333333"
       steps="2"
       helper_size="0"
       apply_no_weight="true"
       apply_with_weight="true"
       only_selected="false" />
    <inkscape:path-effect
       effect="bspline"
       id="path-effect1492"
       is_visible="true"
       weight="33.333333"
       steps="2"
       helper_size="0"
       apply_no_weight="true"
       apply_with_weight="true"
       only_selected="false" />
    <inkscape:path-effect
       effect="bspline"
       id="path-effect1496"
       is_visible="true"
       weight="33.333333"
       steps="2"
       helper_size="0"
       apply_no_weight="true"
       apply_with_weight="true"
       only_selected="false" />
    <inkscape:path-effect
       effect="bspline"
       id="path-effect1500"
       is_visible="true"
       weight="33.333333"
       steps="2"
       helper_size="0"
       apply_no_weight="true"
       apply_with_weight="true"
       only_selected="false" />
    <inkscape:path-effect
       effect="bspline"
       id="path-effect5622"
       is_visible="true"
       weight="33.333333"
       steps="2"
       helper_size="0"
       apply_no_weight="true"
       apply_with_weight="true"
       only_selected="false" />
    <inkscape:path-effect
       effect="bspline"
       id="path-effect9104"
       is_visible="true"
       weight="33.333333"
       steps="2"
       helper_size="0"
       apply_no_weight="true"
       apply_with_weight="true"
       only_selected="false" />
    <inkscape:path-effect
       effect="bspline"
       id="path-effect9100"
       is_visible="true"
       weight="33.333333"
       steps="2"
       helper_size="0"
       apply_no_weight="true"
       apply_with_weight="true"
       only_selected="false" />
    <inkscape:path-effect
       only_selected="false"
       apply_with_weight="true"
       apply_no_weight="true"
       helper_size="0"
       steps="2"
       weight="33.333333"
       is_visible="true"
       id="path-effect13461"
       effect="bspline" />
    <inkscape:path-effect
       only_selected="false"
       apply_with_weight="true"
       apply_no_weight="true"
       helper_size="0"
       steps="2"
       weight="33.333333"
       is_visible="true"
       id="path-effect13465"
       effect="bspline" />
  </defs>
  <sodipodi:namedview
     id="base"
     pagecolor="#ffffff"
     bordercolor="#666666"
     borderopacity="1.0"
     inkscape:pageopacity="0.0"
     inkscape:pageshadow="2"
     inkscape:zoom="3.6203868"
     inkscape:cx="52.340243"
     inkscape:cy="145.51343"
     inkscape:document-units="px"
     inkscape:current-layer="layer1"
     showgrid="false"
     inkscape:window-width="1920"
     inkscape:window-height="1001"
     inkscape:window-x="-9"
     inkscape:window-y="-9"
     inkscape:window-maximized="1"
     showguides="false" />
  <metadata
     id="metadata912">
    <rdf:RDF>
      <cc:Work
         rdf:about="">
        <dc:format>image/svg+xml</dc:format>
        <dc:type
           rdf:resource="http://purl.org/dc/dcmitype/StillImage" />
        <dc:title></dc:title>
      </cc:Work>
    </rdf:RDF>
  </metadata>
  <g
     inkscape:label="Layer 1"
     inkscape:groupmode="layer"
     id="layer1">
    <g
       id="layer1-1"
       inkscape:label="Layer 1"
       transform="matrix(1.0699435,0,0,1.0830768,-6.3294822,-7.2112995)">
      <path
         inkscape:original-d="m 98.884465,52.916264 c -2.945279,0.183143 -5.891557,0.367285 -8.838835,0.552428 -2.531868,0.505573 -5.062916,1.011783 -7.595874,1.519174 -3.364702,1.735081 -6.725843,3.468767 -10.092682,5.205834 -1.852231,4.152708 -3.703009,8.300988 -5.556727,12.454685 -0.859546,3.182179 -1.719504,6.36335 -2.580688,9.54652 -1.702861,0.597654 -3.405634,1.195925 -5.109951,1.795388 1.981928,-10e-4 3.960061,-10e-4 5.938592,0 -0.275074,1.057284 -0.551427,2.116638 -0.828641,3.176456 -0.367695,2.165086 -0.735569,4.326346 -1.104854,6.49102 -1.887452,2.486229 -3.773919,4.970844 -5.662379,7.457771 -1.10435,0.27533 -3.314563,0.82864 -3.314563,0.82864 0,0 2.671065,0.91971 4.005097,1.38106 -1.011339,2.02368 -2.024566,4.05014 -3.038349,6.0767 -1.519075,0.96632 -4.557524,2.90025 -4.557524,2.90025 0,0 3.13142,1.01178 4.695631,1.51917 1.303791,0.007 2.607617,0.0155 3.909949,0.0246 -0.388479,1.81017 -0.777676,3.62026 -1.168286,5.4335 1.758493,0.0369 3.513879,0.0747 5.269336,0.11347 0.737214,1.04209 1.473481,2.08508 2.208903,3.12913 -2.303027,1.56574 -6.905339,4.69563 -6.905339,4.69563 0,0 3.591776,0.73557 5.386165,1.10485 -0.321113,1.05737 -0.966748,3.17646 -0.966748,3.17646 0,0 3.591777,-1.10585 5.386165,-1.65728 0.36904,0.59706 0.73757,1.19592 1.104854,1.79539 -0.505627,0.73591 -1.519174,2.20971 -1.519174,2.20971 0,0 5.525271,-0.6455 8.286407,-0.96675 0.961965,-1.22658 1.923123,-2.45237 2.883164,-3.67698 1.837011,-1.32863 5.508624,-3.98341 5.508624,-3.98341 0,0 -2.166229,-7.07582 -3.250727,-10.61228 -0.838066,-1.13761 -1.677138,-2.27439 -2.517032,-3.4101 -1.700946,-0.001 -3.405634,-0.001 -5.109951,0 -0.782065,-1.8435 -1.56421,-3.68385 -2.347815,-5.52427 -0.597305,-1.5658 -1.195926,-3.13142 -1.795389,-4.69563 -0.08207,-1.680707 -0.165135,-3.361584 -0.249099,-5.040899 1.372914,-0.06997 2.745043,-0.139032 4.116089,-0.20716 0.64513,1.471295 1.289997,2.945278 1.933496,4.419419 -0.321353,0.78185 -0.966748,2.34781 -0.966748,2.34781 0,0 2.486922,-2.671061 3.728883,-4.005094 0.277,-2.990995 0.553428,-5.985627 0.828641,-8.976941 1.243511,-2.209909 2.486922,-4.420418 3.728884,-6.629126 0.875206,1.701402 1.750352,3.405634 2.624029,5.109951 -0.137138,2.117116 -0.275214,4.234275 -0.414321,6.352913 -0.920173,2.163756 -2.762136,6.491017 -2.762136,6.491017 0,0 2.486923,-3.591775 3.728884,-5.386163 1.197163,-2.439332 2.394851,-4.880773 3.590777,-7.31966 0.369103,-2.071582 0.737569,-4.144204 1.104854,-6.214806 0.231051,-0.645143 0.461356,-1.289997 0.690534,-1.933495 1.471388,1.147741 2.947278,2.30078 4.419417,3.45267 -0.777799,0.822835 -2.336572,2.471668 -2.336572,2.471668 0,0 3.03196,-0.0835 4.546281,-0.123853 1.287897,-1.609621 2.578993,-3.223492 3.866993,-4.833737 0.73707,-2.577238 1.47414,-5.156987 2.20971,-7.733981 -0.64321,-1.565488 -1.288,-3.131421 -1.9335,-4.695631 1.79581,-1.335603 3.59178,-2.671065 5.38617,-4.005097 0.047,-2.209327 0.0931,-4.420417 0.1381,-6.629126 -2.8979,-1.657516 -5.79948,-3.315563 -8.700725,-4.971845 z"
         inkscape:path-effect="#path-effect13461"
         inkscape:connector-curvature="0"
         id="path13459"
         d="m 97.411855,53.008302 c -1.472611,0.09204 -4.418889,0.276181 -7.158414,0.621457 -2.739525,0.345276 -5.270573,0.851485 -8.21939,1.972511 -2.948817,1.121026 -6.309958,2.854712 -8.919801,5.799328 -2.609843,2.944615 -4.460621,7.092895 -5.817354,10.760844 -1.356733,3.667949 -2.216692,6.84912 -3.498293,8.739907 -1.281602,1.890787 -2.984375,2.489059 -2.845671,2.788501 0.138704,0.299443 2.116837,0.299443 2.968219,0.827995 0.851383,0.528551 0.575029,1.587905 0.252518,3.200379 -0.322512,1.612474 -0.690386,3.773734 -1.818427,6.099196 -1.128041,2.325463 -3.014507,4.810078 -4.510748,6.19162 -1.49624,1.38154 -2.601777,1.65793 -3.706631,1.93414 1.335032,0.46035 2.670652,0.92091 2.832005,2.16272 0.161352,1.24182 -0.851877,3.26828 -2.118021,4.76495 -1.266145,1.49667 -2.785585,2.46359 -4.30476,3.43034 1.56521,0.50639 3.131032,1.01298 4.565223,1.27018 1.434191,0.25719 2.738019,0.2654 3.194597,1.1745 0.456578,0.90911 0.06738,2.7192 0.751664,3.64483 0.684282,0.92563 2.439668,0.96343 3.685485,1.50375 1.245816,0.54032 1.982081,1.58331 1.198883,2.88794 -0.783198,1.30463 -3.083878,2.86909 -5.385658,4.4343 1.795388,0.36828 3.591539,0.73672 4.327978,1.44937 0.736438,0.71266 0.413688,1.77312 0.09144,2.83194 1.795388,-0.55243 3.591971,-1.10522 4.673001,-1.08236 1.08103,0.0229 1.449559,0.62172 1.380869,1.28898 -0.06869,0.66726 -0.575634,1.40463 -1.082025,2.1412 2.762136,-0.32225 5.525373,-0.64463 7.386814,-1.41903 1.861441,-0.77439 2.822598,-2.00018 4.221241,-3.27668 1.398644,-1.27649 3.233932,-2.60363 5.07014,-3.93143 -1.083576,-3.53743 -2.167343,-7.07548 -3.128591,-9.4123 -0.961248,-2.33682 -1.800319,-3.4736 -3.070216,-4.04184 -1.269898,-0.56824 -2.974586,-0.56824 -4.218379,-1.48973 -1.243794,-0.9215 -2.025942,-2.76185 -2.716397,-4.46498 -0.690454,-1.70314 -1.289074,-3.26876 -1.629728,-4.89142 -0.340654,-1.622669 -0.423715,-3.303546 0.22127,-4.177777 0.644986,-0.874232 2.017115,-0.94329 3.024577,-0.24188 1.007463,0.701411 1.65233,2.175394 1.813756,3.303022 0.161426,1.127625 -0.161219,1.911195 -0.483468,2.693795 1.242961,-1.33503 2.486884,-2.671096 3.245933,-4.833634 0.75905,-2.162538 1.035477,-5.15717 1.795124,-7.757833 0.759646,-2.600664 2.003057,-4.811172 3.061209,-5.064425 1.058151,-0.253252 1.933297,1.45098 2.301699,3.361359 0.368403,1.910378 0.230327,4.027537 -0.299091,6.168661 -0.529418,2.141124 -1.450182,4.30492 -2.370894,6.468592 1.242961,-1.795388 2.486715,-3.591919 3.706176,-5.708808 1.21946,-2.116888 2.417149,-4.558329 3.19947,-6.813534 0.782321,-2.255205 1.150787,-4.327827 1.450069,-5.68573 0.299281,-1.357904 0.529586,-2.002758 1.379722,-1.749981 0.850136,0.252776 2.326026,1.405815 2.673612,2.392609 0.347585,0.986794 -0.432298,1.811769 -1.211155,2.635658 1.515427,-0.04128 3.031985,-0.0826 4.433021,-0.908085 1.401036,-0.825486 2.692133,-2.439356 3.704393,-4.533144 1.01227,-2.093788 1.74934,-4.673537 1.79525,-6.744436 0.0459,-2.0709 -0.59889,-3.63683 -0.0231,-5.086902 0.57582,-1.450072 2.37179,-2.785535 3.29194,-4.557307 0.92015,-1.771772 0.96621,-3.982863 -0.46007,-5.915372 -1.42629,-1.93251 -4.32787,-3.590556 -5.77815,-4.41929 -1.450285,-0.828734 -1.450285,-0.828704 -2.922895,-0.736666 z"
         style="fill:#dd925d;fill-opacity:1;stroke:#000000;stroke-width:0;stroke-linecap:butt;stroke-linejoin:miter;stroke-miterlimit:4;stroke-dasharray:none;stroke-opacity:1"
         sodipodi:nodetypes="cccccccccccccccccccccccccccccccccccccccccccccccccccccccccc" />
      <path
         inkscape:original-d="m 106.20412,58.578643 c 0.92172,-1.15189 1.84243,-2.30278 2.76214,-3.45267 2.43856,-0.09298 4.88077,-0.185142 7.31966,-0.276214 1.47351,0.367129 2.94728,0.73557 4.41942,1.104855 1.7035,1.149338 3.40763,2.30078 5.10995,3.45267 3.19539,2.058225 6.39068,4.117911 9.58469,6.178298 0.40045,1.756814 0.79979,3.513783 1.19852,5.273131 0.20477,1.862956 0.40838,3.724801 0.61125,5.589365 0.30003,0.881621 0.59896,1.763667 0.89704,2.646896 -0.45942,0.572035 -0.91863,1.143566 -1.38106,1.718863 0.55481,0.829717 1.10585,1.656281 1.65728,2.485922 2.25737,1.886985 4.51249,3.773919 6.76723,5.662379 0.34464,-0.605664 1.03113,-1.814221 1.03113,-1.814221 0,0 0.74595,1.977763 1.11801,2.969295 -0.82461,2.085011 -1.64837,4.166468 -2.47451,6.252472 1.40509,1.665466 4.21059,4.996956 4.21059,4.996956 0,0 -4.15433,1.58099 -6.23303,2.37292 1.02165,0.80726 2.04071,1.61413 3.06039,2.42315 1.10673,1.25938 2.21148,2.51848 3.31583,3.77911 0.7125,2.31342 2.13471,6.943 2.13471,6.943 0,0 -2.72668,-0.93835 -4.09152,-1.40618 0.75604,1.82068 1.51006,3.63967 2.26394,5.4615 -1.62875,0.43442 -3.25763,0.86954 -4.88797,1.30573 -1.11366,0.58847 -2.22642,1.1769 -3.34144,1.76695 -0.25556,0.92702 -0.51193,1.85448 -0.76931,2.78316 -0.91854,2.049 -2.75838,6.14968 -2.75838,6.14968 0,0 -1.10558,-2.9236 -1.65977,-4.38404 -1.4245,2.03304 -4.27624,6.10182 -4.27624,6.10182 0,0 -2.11669,-2.11858 -3.17645,-3.17646 -0.96492,1.38013 -2.89756,4.1432 -2.89756,4.1432 0,0 -1.196,-4.69661 -1.79539,-7.04344 -1.3226,-0.98584 -3.9706,-2.95476 -3.9706,-2.95476 0,0 1.7701,-5.23307 2.65371,-7.84809 0.79388,-2.00164 1.58692,-4.00257 2.37893,-6.00235 1.56653,0.0805 3.13234,0.16203 4.69697,0.24443 1.15093,-0.87495 2.30278,-1.75035 3.45267,-2.62403 0.73686,-1.97861 1.47414,-3.96006 2.20971,-5.93859 0.13902,-1.97932 0.27721,-3.96006 0.41432,-5.938591 -1.33332,-0.139033 -2.84277,0.04902 -4.26566,0.07503 -1.30814,1.951117 -3.92479,5.852491 -3.92479,5.852491 0,0 -0.063,-5.42584 -0.096,-8.137229 0.18506,-1.841609 0.36929,-3.683848 0.55243,-5.524272 -0.78114,-1.335242 -1.56421,-2.671064 -2.34782,-4.005097 -1.2877,-0.599324 -2.57699,-1.197925 -3.86699,-1.795388 0.23126,-1.658848 0.46136,-3.315563 0.69054,-4.971845 -0.50505,0.459046 -1.01179,0.919712 -1.51918,1.381068 -1.18053,0.859684 -2.35613,1.716012 -3.53738,2.576702 0.35178,1.305165 1.05146,3.914318 1.05146,3.914318 0,0 -3.31356,-0.553427 -4.97185,-0.828641 -0.36746,-1.060337 -0.73556,-2.118638 -1.10485,-3.176456 -0.50511,-1.887423 -1.01178,-3.775919 -1.51917,-5.662379 -1.71752,0.747002 -3.43603,1.494952 -5.15753,2.24472 1.20733,1.782942 3.61626,5.347279 3.61626,5.347279 0,0 -3.39101,-1.195281 -5.08786,-1.791514 -0.68935,-1.703857 -1.38007,-3.407634 -2.0716,-5.109951 -0.45922,-2.624242 -0.91971,-5.249058 -1.38107,-7.872087 1.79584,-3.82079 3.59178,-7.642909 5.38616,-11.462864 z"
         inkscape:path-effect="#path-effect13465"
         inkscape:connector-curvature="0"
         id="path13463"
         d="m 106.66492,58.002648 c 0.46079,-0.575996 1.38151,-1.726884 3.06072,-2.347791 1.67922,-0.620907 4.12143,-0.713066 6.07746,-0.57493 1.95604,0.138136 3.42981,0.506578 5.01738,1.265877 1.58758,0.759299 3.29171,1.910739 5.74061,3.515761 2.4489,1.605022 5.64419,3.664708 7.44122,5.572893 1.79703,1.908186 2.19637,3.665155 2.49815,5.476239 0.30178,1.811084 0.50539,3.672929 0.7568,5.046155 0.2514,1.373226 0.55033,2.255273 0.47016,2.982667 -0.0802,0.727395 -0.53938,1.298926 -0.49371,2.001865 0.0457,0.702939 0.59672,1.529502 2.00124,2.887971 1.40453,1.358469 3.65964,3.245405 4.95963,3.886175 1.29999,0.64077 1.64308,0.03713 1.98679,-0.567613 0.37267,0.989765 0.74483,1.978184 0.51887,3.516148 -0.22596,1.537965 -1.04972,3.619419 -0.7605,5.495675 0.28922,1.876256 1.69219,3.541248 3.09572,5.2069 -2.07768,0.79097 -4.15414,1.58149 -4.68316,2.38134 -0.52903,0.79986 0.49003,1.60673 1.55315,2.64085 1.06312,1.03412 2.16787,2.29322 3.07623,4.07999 0.90836,1.78676 1.62011,4.10167 2.33168,6.416 -1.36384,-0.46873 -2.72706,-0.93724 -3.03183,-0.26114 -0.30478,0.67611 0.44925,2.4951 0.0125,3.6233 -0.43679,1.12821 -2.06567,1.56333 -3.43767,2.07551 -1.37199,0.51219 -2.48475,1.10061 -3.17045,1.85889 -0.68569,0.75828 -0.94206,1.68575 -1.52992,3.17458 -0.58786,1.48883 -1.50781,3.53981 -2.42727,5.5897 -0.55326,-1.46135 -1.1067,-2.92318 -2.09558,-2.63716 -0.98888,0.28603 -2.41502,2.321 -3.84043,4.35494 -1.05882,-1.05882 -2.11763,-2.11764 -3.12959,-1.95705 -1.01197,0.16059 -1.97857,1.54272 -2.94442,2.92379 -0.59846,-2.34781 -1.19711,-4.69633 -2.15793,-6.36228 -0.96083,-1.66596 -2.28453,-2.651 -3.60806,-3.63592 0.88457,-2.61603 1.76954,-5.23326 2.60832,-7.54159 0.83878,-2.30833 1.63182,-4.30926 2.81131,-5.2683 1.17949,-0.95903 2.7453,-0.87755 4.10316,-1.27423 1.35787,-0.39669 2.50971,-1.27209 3.45275,-2.69841 0.94304,-1.42633 1.68033,-3.40778 2.11744,-5.38663 0.43711,-1.97885 0.5753,-3.959594 -0.0209,-4.937127 -0.59621,-0.977532 -2.1085,-0.950932 -3.47414,0.03707 -1.36563,0.987999 -2.6738,2.938689 -3.98206,4.889519 -0.032,-2.71241 -0.064,-5.425828 0.0121,-7.702377 0.0761,-2.27655 0.26032,-4.118789 -0.0388,-5.706231 -0.29914,-1.587441 -1.08221,-2.923264 -2.11756,-3.889687 -1.03534,-0.966423 -2.32463,-1.565022 -2.85414,-2.693839 -0.52952,-1.128818 -0.29941,-2.785532 -0.43691,-3.384067 -0.13749,-0.598535 -0.64422,-0.137867 -1.48815,0.522706 -0.84393,0.660572 -2.01952,1.516903 -2.43487,2.5999 -0.41535,1.082997 -0.065,2.387079 0.28544,3.691852 -1.65728,-0.276214 -3.31375,-0.552291 -4.32713,-1.220425 -1.01339,-0.668134 -1.38149,-1.726434 -1.81868,-3.199105 -0.43718,-1.472672 -0.94385,-3.361169 -2.05562,-3.930839 -1.11177,-0.56967 -2.83028,0.17828 -3.088,1.44478 -0.25771,1.266499 0.94687,3.047686 2.15229,4.830112 -1.69595,-0.597171 -3.3914,-1.194165 -4.58491,-2.344524 -1.1935,-1.150359 -1.88422,-2.854136 -2.45957,-5.01756 -0.57534,-2.163423 -1.03583,-4.788238 -0.36824,-8.01035 0.6676,-3.222112 2.46353,-7.044234 3.36094,-8.954108 0.89741,-1.909874 0.89745,-1.909875 1.35825,-2.48587 z"
         style="fill:#dd925d;fill-opacity:1;stroke:#000000;stroke-width:0;stroke-linecap:butt;stroke-linejoin:miter;stroke-miterlimit:4;stroke-dasharray:none;stroke-opacity:1"
         sodipodi:nodetypes="cccccccccccccccccccccccccccccccccccccccccccccccccccccccccc" />
    </g>
  </g>
</svg>
