<?xml version="1.0" encoding="UTF-8" standalone="no"?>
<!-- Created with Inkscape (http://www.inkscape.org/) -->

<svg
   xmlns:dc="http://purl.org/dc/elements/1.1/"
   xmlns:cc="http://creativecommons.org/ns#"
   xmlns:rdf="http://www.w3.org/1999/02/22-rdf-syntax-ns#"
   xmlns:svg="http://www.w3.org/2000/svg"
   xmlns="http://www.w3.org/2000/svg"
   xmlns:sodipodi="http://sodipodi.sourceforge.net/DTD/sodipodi-0.dtd"
   xmlns:inkscape="http://www.inkscape.org/namespaces/inkscape"
   width="200px"
   height="200px"
   viewBox="0 0 200 200"
   version="1.1"
   id="SVGRoot"
   sodipodi:docname="hair-4-14.svg"
   inkscape:version="0.92.4 (5da689c313, 2019-01-14)">
  <defs
     id="defs909">
    <inkscape:path-effect
       effect="bspline"
       id="path-effect12527"
       is_visible="true"
       weight="33.333333"
       steps="2"
       helper_size="0"
       apply_no_weight="true"
       apply_with_weight="true"
       only_selected="false" />
    <inkscape:path-effect
       effect="bspline"
       id="path-effect12520"
       is_visible="true"
       weight="33.333333"
       steps="2"
       helper_size="0"
       apply_no_weight="true"
       apply_with_weight="true"
       only_selected="false" />
    <inkscape:path-effect
       effect="bspline"
       id="path-effect1868"
       is_visible="true"
       weight="33.333333"
       steps="2"
       helper_size="0"
       apply_no_weight="true"
       apply_with_weight="true"
       only_selected="false" />
    <inkscape:path-effect
       effect="bspline"
       id="path-effect1853"
       is_visible="true"
       weight="33.333333"
       steps="2"
       helper_size="0"
       apply_no_weight="true"
       apply_with_weight="true"
       only_selected="false" />
    <inkscape:path-effect
       effect="bspline"
       id="path-effect1488"
       is_visible="true"
       weight="33.333333"
       steps="2"
       helper_size="0"
       apply_no_weight="true"
       apply_with_weight="true"
       only_selected="false" />
    <inkscape:path-effect
       effect="bspline"
       id="path-effect1492"
       is_visible="true"
       weight="33.333333"
       steps="2"
       helper_size="0"
       apply_no_weight="true"
       apply_with_weight="true"
       only_selected="false" />
    <inkscape:path-effect
       effect="bspline"
       id="path-effect1496"
       is_visible="true"
       weight="33.333333"
       steps="2"
       helper_size="0"
       apply_no_weight="true"
       apply_with_weight="true"
       only_selected="false" />
    <inkscape:path-effect
       effect="bspline"
       id="path-effect1500"
       is_visible="true"
       weight="33.333333"
       steps="2"
       helper_size="0"
       apply_no_weight="true"
       apply_with_weight="true"
       only_selected="false" />
    <inkscape:path-effect
       effect="bspline"
       id="path-effect5622"
       is_visible="true"
       weight="33.333333"
       steps="2"
       helper_size="0"
       apply_no_weight="true"
       apply_with_weight="true"
       only_selected="false" />
  </defs>
  <sodipodi:namedview
     id="base"
     pagecolor="#ffffff"
     bordercolor="#666666"
     borderopacity="1.0"
     inkscape:pageopacity="0.0"
     inkscape:pageshadow="2"
     inkscape:zoom="1.28"
     inkscape:cx="-110.19165"
     inkscape:cy="224.68801"
     inkscape:document-units="px"
     inkscape:current-layer="layer1"
     showgrid="false"
     inkscape:window-width="1920"
     inkscape:window-height="1001"
     inkscape:window-x="-9"
     inkscape:window-y="-9"
     inkscape:window-maximized="1"
     showguides="false" />
  <metadata
     id="metadata912">
    <rdf:RDF>
      <cc:Work
         rdf:about="">
        <dc:format>image/svg+xml</dc:format>
        <dc:type
           rdf:resource="http://purl.org/dc/dcmitype/StillImage" />
        <dc:title />
      </cc:Work>
    </rdf:RDF>
  </metadata>
  <g
     inkscape:label="Layer 1"
     inkscape:groupmode="layer"
     id="layer1">
    <path
       transform="translate(0.37145883,-0.31614086)"
       style="fill:#dd925d;fill-opacity:1;stroke:#000000;stroke-width:0;stroke-linecap:butt;stroke-linejoin:miter;stroke-miterlimit:4;stroke-dasharray:none;stroke-opacity:1"
       d="m 54.368325,28.931778 c -1.058468,0.184277 -4.373031,-0.828506 -6.306707,-0.460749 -1.933677,0.367758 -2.485998,2.116775 -3.637102,3.590529 -1.151104,1.473755 -2.89926,2.669861 -3.221804,4.143835 -0.322543,1.473974 0.781586,3.222179 -0.09264,4.971435 -0.874222,1.749257 -3.727999,3.498347 -6.12223,4.787614 -2.394231,1.289268 -4.326932,2.117568 -5.708727,4.328072 -1.381795,2.210503 -2.209919,5.79904 -2.486311,7.825118 -0.276391,2.026078 -2.68e-4,2.486284 -1.289533,3.82174 -1.289266,1.335456 -4.14165,3.543752 -4.786482,5.892348 -0.644832,2.348596 0.91977,4.833552 1.288341,7.088933 0.368571,2.255381 -0.459982,4.280732 -1.28888,6.352965 -0.828898,2.072233 -1.657045,4.188609 -1.01219,6.353503 0.644855,2.164895 2.761286,4.373345 3.498016,6.720594 0.736729,2.347248 0.09224,4.833146 0.138192,6.951545 0.04596,2.1184 0.781753,3.86592 1.472715,5.20186 0.690961,1.33594 1.334953,2.25593 1.933514,3.26883 0.598562,1.0129 1.150668,2.11711 1.289015,3.54437 0.138347,1.42726 -0.137587,3.17484 0.276935,4.55739 0.414522,1.38255 1.518656,2.39467 2.209125,4.28167 0.69047,1.887 0.966595,4.64825 1.611263,6.81294 0.644669,2.16468 1.656966,3.72914 2.80862,4.512 1.151654,0.78285 2.440446,0.78285 4.419484,2.07185 1.979038,1.28901 4.6491,3.867 6.582769,5.47833 1.933669,1.61134 3.130589,2.25583 4.373966,2.20936 1.243376,-0.0465 2.532372,-0.78304 3.63655,-0.41455 1.104177,0.36849 2.024721,1.84136 3.728872,2.71638 1.704152,0.87502 4.189621,1.15118 6.261377,1.0589 2.071756,-0.0923 3.729035,-0.55264 5.109667,-0.46032 1.380631,0.0923 2.485485,0.73683 3.590751,0.96682 1.105267,0.23 2.210122,0.0459 3.545101,-0.78318 1.33498,-0.82903 2.90019,-2.30217 4.09702,-3.59124 1.19683,-1.28907 2.025468,-2.39392 3.076072,-3.07612 1.050604,-0.68219 2.321684,-0.94237 3.593925,-1.20279 -0.167387,-1.39686 -0.334878,-2.7946 -0.510679,-3.86123 -0.175801,-1.06664 -0.359943,-1.80321 -0.728219,-3.50655 -0.368275,-1.70335 -0.920701,-4.37341 -2.048585,-7.13532 -1.127883,-2.76191 -2.831197,-5.61611 -3.728818,-8.51669 -0.897622,-2.90058 -0.989693,-5.84685 -1.08179,-7.82634 -0.0921,-1.9795 -0.184169,-2.99229 -0.644586,-4.55731 -0.460416,-1.56502 -1.28906,-3.682664 -1.74934,-5.524293 -0.46028,-1.841629 -0.552352,-3.40684 -0.368035,-5.110276 0.184317,-1.703436 0.644673,-3.54486 0.920773,-5.202083 0.276099,-1.657222 0.368171,-3.130361 0.644583,-4.465467 0.276413,-1.335106 0.736769,-2.532033 1.473699,-3.268161 0.736929,-0.736128 1.749713,-1.012341 3.729216,-1.380553 1.979503,-0.368211 4.925781,-0.828567 7.572865,-1.611367 2.647085,-0.7828 4.994901,-1.887655 7.227425,-2.255586 2.232524,-0.367932 4.350167,3.54e-4 6.582677,0.161405 2.2325,0.16105 4.58097,0.115002 6.30675,0.782466 1.72577,0.667464 2.83053,2.048413 5.20201,3.08444 2.37148,1.036027 6.00798,1.726501 8.37833,2.992258 2.37036,1.265756 3.47503,3.106887 3.59047,5.1093 0.11544,2.002413 -0.75864,4.16462 -0.73596,6.398846 0.0227,2.234226 0.94271,4.534299 1.6334,6.238007 0.69069,1.703704 1.15073,2.807814 0.96678,4.810924 -0.18395,2.0031 -1.01192,4.90097 -1.58765,7.38784 -0.57574,2.48687 -0.89773,4.55677 -1.79562,7.06681 -0.89789,2.51004 -2.37036,5.45499 -3.42927,7.89487 -1.05892,2.43989 -1.70301,4.37217 -2.10618,5.81171 -0.40316,1.43954 -0.56419,2.38269 -0.82867,3.19979 -0.26449,0.8171 -0.63341,1.50884 -1.0017,2.19937 1.17391,0.29923 2.3474,0.59835 3.44146,1.20884 1.09407,0.61049 2.10588,1.53032 4.31605,2.05973 2.21017,0.52941 5.61679,0.66751 8.00989,1.56486 2.3931,0.89734 3.77464,2.55518 5.29409,3.75226 1.51944,1.19708 3.17672,1.93365 4.74199,0.78206 1.56527,-1.15159 3.03841,-4.18994 6.16897,-5.38621 3.13055,-1.19627 7.91825,-0.55177 10.40377,-2.90015 2.48552,-2.34839 2.68923,-8.2561 4.7058,-11.75306 2.01657,-3.49695 7.53654,-6.668 9.18025,-8.84782 1.64371,-2.17982 1.21258,-5.4133 1.02874,-7.20638 -0.18384,-1.79308 -0.18384,-2.62282 0.32315,-3.31318 0.50698,-0.69036 1.51976,-1.24278 2.11768,-2.48596 0.59792,-1.24319 0.78206,-3.17668 1.50769,-4.7269 0.72563,-1.550234 1.99181,-2.717317 1.32483,-4.701016 -0.66698,-1.983698 -3.26604,-4.784928 -3.20808,-7.608513 0.058,-2.823585 2.7719,-5.668538 3.34846,-7.96521 0.57657,-2.296671 -0.98322,-4.046024 -1.21313,-6.256306 -0.2299,-2.210282 0.86953,-4.880345 1.05064,-6.767317 0.18111,-1.886973 -0.55546,-2.991827 -0.37088,-4.419398 0.18459,-1.427571 1.28944,-3.176921 1.28897,-5.294209 -4.7e-4,-2.117287 -1.10532,-4.603205 -2.02603,-6.812955 -0.92072,-2.20975 -1.65729,-4.143244 -2.6699,-5.616059 -1.01261,-1.472815 -2.30148,-2.485497 -3.59076,-4.00501 -1.28927,-1.519513 -2.57814,-3.544871 -2.62368,-5.386731 -0.0455,-1.841861 1.15138,-3.499147 0.36925,-4.649264 -0.78214,-1.150117 -3.54531,-1.794856 -5.9856,-2.577565 -2.44029,-0.782708 -4.55737,-1.703178 -6.21512,-3.314974 -1.65775,-1.611796 -2.85441,-3.91306 -4.74128,-5.523938 -1.88686,-1.610878 -4.46528,-2.531742 -7.50399,-3.544651 -3.03871,-1.012908 -6.53664,-2.117517 -8.7001,-2.440154 -2.16347,-0.322636 -2.99196,0.137637 -4.97397,-5.83e-4 -1.98201,-0.13822 -5.10794,-0.873733 -8.10079,-2.070845 -2.99285,-1.1971121 -5.84639,-2.8540117 -8.88452,-3.4526186 -3.03812,-0.5986069 -6.26026,-0.1383014 -8.28623,-0.046099 -2.02597,0.092203 -2.85432,-0.1839143 -4.78895,-0.9209139 -1.93464,-0.7369996 -4.970785,-1.9330586 -7.91697,-2.025359 -2.946186,-0.092301 -5.7999,0.9203077 -8.240223,1.7030814 -2.440323,0.7827737 -4.465035,1.3349678 -6.307065,1.5653065 -1.84203,0.2303388 -3.498342,0.1383214 -4.879756,0.7826371 -1.381414,0.6443157 -2.48564,2.0245983 -3.729001,3.1299783 -1.243361,1.10538 -2.623332,1.933362 -4.742384,2.071662 -2.119053,0.1383 -4.970829,-0.413657 -6.858397,-0.04584 -1.887568,0.367817 -2.80803,1.656464 -3.821303,3.084254 -1.013273,1.427791 -2.117154,2.991623 -2.209359,4.41967 -0.09221,1.428048 0.827836,2.716107 0.690273,3.452697 -0.137564,0.736591 -1.334314,0.920707 -1.334347,1.704011 -3.3e-5,0.783304 1.195766,2.163071 0.137297,2.347349 z"
       id="path5620"
       inkscape:connector-curvature="0"
       inkscape:path-effect="#path-effect5622"
       inkscape:original-d="m 56.623785,30.128644 c -3.313563,-1.013783 -6.628126,-2.026566 -9.943689,-3.038349 -0.551533,1.748688 -1.103854,3.497705 -1.657281,5.248058 -1.74955,1.196744 -3.497706,2.392851 -5.248059,3.590777 1.106579,1.7495 2.210709,3.497705 3.314563,5.248058 -2.853636,1.748616 -5.707414,3.497705 -8.562621,5.248058 -1.933289,0.827981 -3.86599,1.656282 -5.800485,2.485922 -0.828158,3.592018 -1.656282,7.180554 -2.485922,10.77233 0.277303,0.459506 0.553427,0.919712 0.82864,1.381068 -2.85503,2.210121 -5.707414,4.418417 -8.562621,6.629126 1.566819,2.485889 3.131421,4.970845 4.695631,7.457767 -0.827729,2.024782 -1.656281,4.050133 -2.485922,6.076699 -0.828135,2.117899 -1.656282,4.234275 -2.485922,6.352912 2.119844,2.209968 4.236275,4.418418 6.352912,6.629126 -0.643505,2.484947 -1.287997,4.970845 -1.933495,7.457764 0.737922,1.74919 1.473718,3.49671 2.209709,5.24806 0.645867,0.92024 1.289858,1.84023 1.933495,2.76214 0.553546,1.10409 1.105653,2.2083 1.657282,3.31456 -0.275315,1.74899 -0.551249,3.49657 -0.828641,5.24806 1.106569,1.01244 2.210705,2.02456 3.314563,3.03835 0.277214,2.76114 0.553338,5.52239 0.828641,8.28641 1.014107,1.56471 2.026404,3.12917 3.038349,4.69563 1.290202,-0.001 2.578994,-0.001 3.86699,0 2.671063,2.57699 5.341126,5.15498 8.010194,7.73398 1.197927,0.6435 2.394849,1.28799 3.590777,1.93349 1.289998,-0.73757 2.578993,-1.47414 3.86699,-2.20971 0.921712,1.47214 1.842255,2.94501 2.762136,4.41942 2.487376,0.27526 4.972845,0.55143 7.457767,0.82864 1.658281,-0.46136 3.315562,-0.92171 4.971844,-1.38107 1.105855,0.6435 2.210709,1.288 3.314564,1.9335 1.105854,-0.18514 2.210708,-0.36929 3.314563,-0.55243 1.56621,-1.47414 3.13142,-2.94728 4.695631,-4.41942 0.82964,-1.10585 1.658278,-2.2107 2.485922,-3.31456 1.273246,-0.26142 3.816724,-0.78125 3.816724,-0.78125 0,0 -0.333774,-2.79473 -0.502161,-4.19059 -0.183143,-0.73757 -0.367285,-1.47414 -0.552427,-2.20971 -0.551428,-2.67107 -1.103854,-5.34113 -1.657282,-8.0102 -1.702319,-2.85521 -3.405634,-5.70941 -5.109951,-8.56262 -0.09107,-2.94728 -0.183143,-5.89355 -0.276214,-8.83883 -0.09107,-1.01378 -0.183143,-2.02657 -0.276214,-3.03835 -0.827638,-2.11863 -1.656281,-4.236276 -2.485922,-6.352914 -0.09107,-1.56621 -0.183142,-3.131421 -0.276214,-4.695631 0.461356,-1.842423 0.921712,-3.683848 1.381068,-5.524272 0.09307,-1.474139 0.185143,-2.947278 0.276214,-4.419417 0.461356,-1.197925 0.921712,-2.394852 1.381068,-3.590777 1.013783,-0.277213 2.026566,-0.553427 3.038349,-0.828641 2.947279,-0.461356 5.893557,-0.921711 8.838835,-1.381067 2.348816,-1.105855 4.696632,-2.210709 7.043446,-3.314563 2.118636,0.367284 4.236281,0.73557 6.352911,1.104854 2.34816,-0.04702 4.69663,-0.09307 7.04345,-0.138107 1.10585,1.380068 2.21061,2.761014 3.31456,4.143204 3.63813,0.689595 7.27463,1.380068 10.91044,2.071602 1.10585,1.840424 2.21053,3.681553 3.31456,5.524272 -0.87382,2.163019 -1.7479,4.325227 -2.62403,6.491019 0.92219,2.30197 1.84222,4.602043 2.76214,6.90534 0.46146,1.104098 0.9215,2.208208 1.38106,3.314558 -0.82801,2.90055 -1.65597,5.79842 -2.48592,8.70073 -0.32137,2.07137 -0.64335,4.14127 -0.96675,6.2148 -1.4728,2.94662 -2.94527,5.89157 -4.41941,8.83884 -0.6435,1.9325 -1.28759,3.86478 -1.93349,5.80048 -0.16023,0.94332 -0.32125,1.88647 -0.48338,2.8312 -0.36728,0.68953 -1.10486,2.0716 -1.10486,2.0716 0,0 2.3477,0.59718 3.52173,0.89769 1.01475,0.92059 2.02656,1.84043 3.03835,2.76214 3.40764,0.13711 6.81426,0.27521 10.2199,0.41432 1.3816,1.65572 2.76314,3.31356 4.14321,4.97184 1.65828,0.73557 3.31556,1.47214 4.97184,2.20972 1.47414,-3.03935 2.94727,-6.0777 4.41942,-9.11505 4.7887,0.6435 9.5764,1.288 14.36311,1.9335 0.18514,-5.34113 0.38886,-11.24884 0.55243,-16.02039 3.86841,-2.22271 9.38838,-5.39376 12.98203,-7.45777 -0.30493,-2.29546 -0.73606,-5.52894 -1.10485,-8.28641 0.001,-0.82854 0.001,-1.65828 0,-2.48592 1.01378,-0.55343 2.02656,-1.10585 3.03835,-1.65728 0.18514,-1.9345 0.36928,-3.86799 0.55242,-5.800492 1.26718,-1.168085 2.53336,-2.335167 3.79854,-3.501252 -2.59806,-2.802232 -5.19712,-5.603461 -7.79718,-8.403693 2.71495,-2.845954 5.4289,-5.690907 8.14185,-8.53486 -1.55879,-1.750353 -3.11858,-3.499706 -4.67937,-5.248059 1.10043,-2.671065 2.19986,-5.341129 3.2983,-8.010194 -0.73557,-1.105854 -1.47214,-2.210708 -2.20971,-3.314563 1.10585,-1.750353 2.2107,-3.499705 3.31456,-5.248058 -1.10385,-2.486922 -2.2087,-4.972841 -3.31456,-7.457766 -0.73557,-1.934497 -1.47214,-3.86799 -2.20971,-5.800485 -1.28799,-1.013784 -2.57686,-2.026463 -3.86699,-3.03835 -1.28813,-2.026775 -2.57699,-4.052135 -3.86699,-6.076699 1.19793,-1.65828 2.39486,-3.315566 3.59078,-4.971845 -2.76011,-0.645257 -5.52328,-1.289996 -8.28641,-1.933495 -2.1172,-0.921954 -4.23428,-1.842424 -6.35291,-2.762136 -1.1962,-2.303296 -2.39286,-4.604559 -3.59078,-6.905339 -2.57657,-0.921561 -5.15499,-1.842424 -7.73398,-2.762136 -3.49848,-1.106099 -6.99641,-2.210709 -10.49612,-3.314563 -0.82779,0.459438 -1.65628,0.919712 -2.48592,1.381068 -3.13391,-0.738626 -6.25984,-1.474139 -9.39126,-2.209709 -2.85387,-1.6586651 -5.70742,-3.3155629 -8.56262,-4.9718444 -3.22185,0.4594065 -6.44399,0.9197119 -9.66748,1.3810679 -0.82793,-0.2773096 -1.65628,-0.5534272 -2.48592,-0.8286408 -3.03955,-1.1987921 -6.0757,-2.394851 -9.115049,-3.5907766 -2.8537,1.0119581 -5.707414,2.0245663 -8.562621,3.0383495 -2.025421,0.55166 -4.050133,1.1038543 -6.076699,1.6572815 C 79.27333,8.214646 77.617018,8.1226287 75.958736,8.0315575 74.854254,9.41241 73.750028,10.792693 72.644173,12.174761 c -1.381165,0.8283 -2.761136,1.656282 -4.143204,2.485923 -2.855638,-0.553898 -5.707414,-1.105855 -8.562621,-1.657282 -0.919962,1.288348 -1.840424,2.576994 -2.762136,3.86699 -1.104827,1.565589 -2.208708,3.129421 -3.314563,4.695631 0.922382,1.288935 1.842424,2.576994 2.762136,3.86699 -1.196101,0.18317 -2.392851,0.367285 -3.590776,0.552428 1.199052,1.381368 2.394851,2.761135 3.590776,4.143203 z"
       sodipodi:nodetypes="cccccccccccccccccccccccccccccccccccccccccccccccccccccccccccccccccccccaacccccccccccccccccccccccccccccccccccccc" />
  </g>
</svg>
