<?xml version="1.0" encoding="UTF-8" standalone="no"?>
<!-- Created with Inkscape (http://www.inkscape.org/) -->

<svg
   xmlns:dc="http://purl.org/dc/elements/1.1/"
   xmlns:cc="http://creativecommons.org/ns#"
   xmlns:rdf="http://www.w3.org/1999/02/22-rdf-syntax-ns#"
   xmlns:svg="http://www.w3.org/2000/svg"
   xmlns="http://www.w3.org/2000/svg"
   xmlns:xlink="http://www.w3.org/1999/xlink"
   xmlns:sodipodi="http://sodipodi.sourceforge.net/DTD/sodipodi-0.dtd"
   xmlns:inkscape="http://www.inkscape.org/namespaces/inkscape"
   width="200px"
   height="200px"
   viewBox="0 0 200 200"
   version="1.1"
   id="SVGRoot"
   sodipodi:docname="jumper-car.svg"
   inkscape:version="0.92.4 (5da689c313, 2019-01-14)">
  <defs
     id="defs909">
    <inkscape:path-effect
       effect="bspline"
       id="path-effect2786"
       is_visible="true"
       weight="33.333333"
       steps="2"
       helper_size="0"
       apply_no_weight="true"
       apply_with_weight="true"
       only_selected="false" />
    <inkscape:path-effect
       effect="bspline"
       id="path-effect2782"
       is_visible="true"
       weight="33.333333"
       steps="2"
       helper_size="0"
       apply_no_weight="true"
       apply_with_weight="true"
       only_selected="false" />
    <linearGradient
       inkscape:collect="always"
       id="linearGradient2607">
      <stop
         style="stop-color:#ffffff;stop-opacity:0.19607843"
         offset="0"
         id="stop2603" />
      <stop
         style="stop-color:#ffffff;stop-opacity:0"
         offset="1"
         id="stop2605" />
    </linearGradient>
    <inkscape:path-effect
       effect="bspline"
       id="path-effect1868"
       is_visible="true"
       weight="33.333333"
       steps="2"
       helper_size="0"
       apply_no_weight="true"
       apply_with_weight="true"
       only_selected="false" />
    <inkscape:path-effect
       effect="bspline"
       id="path-effect1853"
       is_visible="true"
       weight="33.333333"
       steps="2"
       helper_size="0"
       apply_no_weight="true"
       apply_with_weight="true"
       only_selected="false" />
    <radialGradient
       inkscape:collect="always"
       xlink:href="#linearGradient2607"
       id="radialGradient2609"
       cx="95.480751"
       cy="183.02492"
       fx="95.480751"
       fy="183.02492"
       r="34.153321"
       gradientTransform="matrix(1.1989405,0.44929185,-0.25913179,0.69149617,22.431755,9.516139)"
       gradientUnits="userSpaceOnUse" />
  </defs>
  <sodipodi:namedview
     id="base"
     pagecolor="#ffffff"
     bordercolor="#666666"
     borderopacity="1.0"
     inkscape:pageopacity="0.0"
     inkscape:pageshadow="2"
     inkscape:zoom="5.12"
     inkscape:cx="157.94285"
     inkscape:cy="20.174669"
     inkscape:document-units="px"
     inkscape:current-layer="layer1"
     showgrid="false"
     inkscape:window-width="1920"
     inkscape:window-height="1001"
     inkscape:window-x="-9"
     inkscape:window-y="-9"
     inkscape:window-maximized="1"
     showguides="false" />
  <metadata
     id="metadata912">
    <rdf:RDF>
      <cc:Work
         rdf:about="">
        <dc:format>image/svg+xml</dc:format>
        <dc:type
           rdf:resource="http://purl.org/dc/dcmitype/StillImage" />
        <dc:title></dc:title>
      </cc:Work>
    </rdf:RDF>
  </metadata>
  <g
     inkscape:label="Layer 1"
     inkscape:groupmode="layer"
     id="layer1">
    <path
       sodipodi:nodetypes="ccsccccccsccccscc"
       inkscape:connector-curvature="0"
       id="path1882"
       d="m 74.043213,155.94189 c -1.438501,-0.0585 1.404302,10.1852 0.253662,11.7046 -1.841025,2.43103 -2.443336,3.86505 -2.675781,7.49609 -0.232445,3.63104 2.155014,7.59522 3.511718,9.88672 0.460109,3.36117 -0.412109,9.30273 -0.412109,9.30273 l -3.591808,8.21137 c 0,0 8.678571,0.32857 23.436645,0.27873 14.75808,-0.0498 37.3702,1.2359 37.3702,1.2359 0,0 -1.73837,-2.45677 -1.50019,-11.97991 -0.34776,-5.71455 3.59537,-12.84808 5.08203,-15.52937 1.48666,-2.68129 -5.78711,-21.41984 -5.78711,-21.41984 l -4.97266,-0.91016 c 0,0 -5.71289,10.19336 -8.82988,14.09732 -3.94021,2.58007 -13.50801,7.8401 -13.50801,7.8401 0,0 -9.373346,-3.27796 -12.722654,-7.07227 -5.094851,-5.77176 -9.000182,-14.51757 -9.863282,-14.55265 z"
       style="fill:#292558;fill-opacity:1;stroke:#000000;stroke-width:0;stroke-linecap:butt;stroke-linejoin:miter;stroke-miterlimit:4;stroke-dasharray:none;stroke-opacity:1" />
    <path
       sodipodi:nodetypes="cccccccsccccscsccccccccccccccccsccscccscsc"
       inkscape:connector-curvature="0"
       id="path1888"
       d="m 83.453125,153.61719 -3.619141,0.91406 c 0.750675,1.93979 1.276871,3.10314 2.039063,5.16016 0.897537,2.42227 2.262548,5.05747 4.964844,7.85742 2.702297,2.79994 6.738222,5.763 9.472659,7.63476 2.73443,1.87176 4.16732,2.65235 5.59961,3.4336 1.08828,-0.40549 2.17711,-0.81103 4.68359,-2.35742 2.50649,-1.5464 6.43153,-4.23345 9.05273,-6.31836 2.62119,-2.0849 3.90687,-3.53175 5.19727,-6.47266 1.23603,-2.81702 2.46814,-6.97247 3.91406,-9.25 -1.13198,-0.20173 -2.18367,-0.39237 -3.36914,-0.60156 -1.02409,3.64583 -2.04785,7.29315 -3.56836,9.94531 -1.5205,2.65216 -3.65979,4.56684 -6.30084,6.49364 -2.64105,1.9268 -9.60624,5.40664 -9.60624,5.40664 0,0 -5.11436,-2.84332 -8.084009,-4.98403 -2.969656,-2.14071 -4.924019,-3.81671 -7.266721,-7.10766 -2.342701,-3.29094 -2.726278,-6.52225 -3.109375,-9.7539 z m 46.277345,1.51172 c -0.11763,1.49515 -0.20213,3.00177 -0.18359,4.54297 0.0325,2.70251 0.35841,5.49978 1.1289,7.79882 0.77049,2.29905 1.98409,4.09712 3.19922,5.89453 -1.15003,2.30415 -2.29855,4.60589 -3.28125,7.41993 -0.98269,2.81404 -1.79456,6.1316 -0.58398,10.08789 0.12111,0.39582 0.27294,0.80009 0.42578,1.20507 0.27275,-1.96653 0.65818,-3.97349 1.30664,-6.07226 1.23728,-4.00455 3.40104,-8.33268 5.56445,-12.66211 -1.74023,-3.58073 -3.48053,-7.1603 -4.26953,-10.10742 -0.78899,-2.94712 -0.62565,-5.25716 -0.46289,-7.56836 -0.88021,-0.17022 -1.89516,-0.35929 -2.84375,-0.53906 z m -55.687257,0.81298 -2.058594,0.51953 c 0.358073,1.98568 0.716726,3.97202 0.716797,6.10352 7.1e-5,2.1315 0.270846,4.30167 -0.51001,6.38428 -0.780857,2.08262 -1.986979,3.97135 -3.191406,5.85937 1.692708,3.54818 3.386196,7.09636 4.378906,10.85547 0.739452,2.8001 1.089627,5.71981 1.341797,8.66797 l 0.285156,-0.91992 c 0.439268,-1.41541 0.440397,-1.41614 0.515625,-2.63672 0.07523,-1.22059 0.224834,-3.66022 -0.287109,-6.51367 -0.511943,-2.85346 -1.68537,-6.12139 -2.859375,-9.38867 1.431333,-2.45816 2.86363,-4.91751 3.162109,-8.59571 0.236652,-2.91631 -0.871554,-6.49326 -1.493896,-10.33545 z"
       style="fill:#292558;fill-opacity:1;stroke:#000000;stroke-width:0;stroke-linecap:butt;stroke-linejoin:miter;stroke-miterlimit:4;stroke-dasharray:none;stroke-opacity:1" />
    <path
       style="font-style:normal;font-variant:normal;font-weight:normal;font-stretch:normal;font-size:35.27777481px;line-height:1.25;font-family:Lato;-inkscape-font-specification:Lato;letter-spacing:0px;word-spacing:0px;fill:#f7f7f7;fill-opacity:1;stroke:none;stroke-width:0.14067671"
       d="m 99.02683,186.15698 v 1.59727 h 0.93385 v 1.6919 c -0.57277,0.11385 -1.12227,0.2747 -1.6457,0.48723 -1.11889,0.44925 -2.08086,1.08498 -2.88612,1.9072 -0.80526,0.82221 -1.43261,1.80549 -1.88186,2.94981 -0.44079,1.14432 -0.66082,2.40322 -0.66082,3.7764 0,1.37317 0.20747,2.6317 0.62281,3.77602 0.41536,1.14432 1.00007,2.1276 1.75448,2.94981 0.7544,0.81374 1.66574,1.44947 2.73377,1.90721 0.61346,0.25803 1.26888,0.4396 1.96344,0.54942 v 1.18158 h -1.00202 v 1.59727 h 1.06348 1.86622 1.13165 v -1.59727 h -1.13165 v -1.06349 c 1.3628,-0.0322 2.53838,-0.26982 3.52161,-0.71818 0.85649,-0.38746 1.60725,-0.90006 2.25659,-1.53283 l 0.65597,0.59413 1.07243,-1.1838 -2.27261,-2.05806 -1.07205,1.18381 0.12813,0.11622 c -0.25622,0.21683 -0.51224,0.41067 -0.76846,0.57924 -0.31363,0.20343 -0.657,0.37283 -1.02996,0.50846 -0.36449,0.13562 -0.76268,0.23726 -1.19497,0.30507 -0.38715,0.0531 -0.82116,0.0813 -1.29668,0.0868 v -1.2177 c 0.0656,0.001 0.13079,0.004 0.19743,0.004 0.9761,0 1.81131,-0.15743 2.50543,-0.47195 0.69953,-0.31452 1.28769,-0.76705 1.7649,-1.35814 l -0.86197,-0.93571 c -0.0868,-0.0922 -0.18987,-0.1382 -0.30917,-0.1382 -0.0705,0 -0.13554,0.0163 -0.19519,0.0488 -0.0596,0.0271 -0.11675,0.0651 -0.17098,0.11398 -0.17895,0.16268 -0.36059,0.30072 -0.54497,0.4146 -0.17894,0.10845 -0.3713,0.19807 -0.57736,0.26856 -0.20065,0.0705 -0.42313,0.12206 -0.66715,0.15459 -0.2386,0.0326 -0.50709,0.0488 -0.80534,0.0488 -0.11375,0 -0.22527,-0.006 -0.33563,-0.0157 v -3.46722 h 1.34622 v 1.46877 h 1.59727 v -1.46877 -1.59728 -1.46876 h -1.59727 v 1.46876 h -1.34622 v -3.19045 c 0.17757,-0.0224 0.35966,-0.0343 0.5472,-0.0343 0.47178,0 0.85964,0.0488 1.16332,0.14638 0.30909,0.0976 0.56372,0.20313 0.76437,0.317 0.20064,0.11388 0.36602,0.21977 0.49617,0.31738 0.13014,0.0976 0.25782,0.14639 0.38255,0.14639 0.11931,0 0.21132,-0.0242 0.27639,-0.073 0.0705,-0.0488 0.1276,-0.10591 0.17098,-0.17098 l 0.73197,-1.01692 c -0.46637,-0.46094 -1.02755,-0.82939 -1.68371,-1.10595 -0.65072,-0.28198 -1.41258,-0.42316 -2.28565,-0.42316 -0.19162,0 -0.37893,0.008 -0.56359,0.022 v -1.14879 c 0.0465,-4.1e-4 0.0924,-0.003 0.13932,-0.003 0.54249,0 1.02139,0.0426 1.43673,0.12739 0.41534,0.0763 0.78002,0.17374 1.09365,0.29242 0.31363,0.11866 0.58468,0.24581 0.81354,0.38143 0.22886,0.13563 0.42834,0.26277 0.59786,0.38144 0.12087,0.0846 0.21305,0.15017 0.30806,0.21754 l -0.18737,0.20711 1.1838,1.07205 2.05843,-2.27224 -1.18417,-1.07242 -0.44924,0.49616 c -0.65768,-0.54975 -1.39021,-0.99857 -2.19998,-1.34361 -0.9663,-0.41533 -2.119,-0.62318 -3.45827,-0.62318 -0.0513,0 -0.10136,0.003 -0.15236,0.003 v -1.49595 h 4.88794 v 1.46875 h 1.59727 v -3.06548 h -6.48521 -1.48478 z m 0.93385,5.51522 v 1.30263 c -0.72247,0.29191 -1.34589,0.69849 -1.86882,1.22143 -0.53143,0.53142 -0.9435,1.16597 -1.23633,1.90346 -0.29283,0.73208 -0.43918,1.53994 -0.43918,2.42385 0,0.87307 0.13009,1.67854 0.39038,2.41603 0.26572,0.7375 0.64526,1.37204 1.13873,1.90348 0.49347,0.53142 1.08755,0.94626 1.78167,1.24451 0.0767,0.0327 0.1548,0.0625 0.23355,0.0916 v 1.33802 c -0.24875,-0.0686 -0.49259,-0.15077 -0.7301,-0.24994 -0.77135,-0.32211 -1.44096,-0.78844 -2.00888,-1.39874 -0.55945,-0.61877 -1.00446,-1.3729 -1.33504,-2.26293 -0.3221,-0.89003 -0.48313,-1.903 -0.48313,-3.03884 0,-1.10194 0.16103,-2.09817 0.48313,-2.98819 0.33058,-0.89003 0.78816,-1.64416 1.37303,-2.26293 0.58488,-0.61878 1.27999,-1.09349 2.08525,-1.42406 0.20031,-0.0835 0.40568,-0.15649 0.61574,-0.21941 z m 0,3.57748 v 6.60255 c -0.0926,-0.0818 -0.18174,-0.16867 -0.26633,-0.26187 -0.31995,-0.35248 -0.57458,-0.78635 -0.76437,-1.30151 -0.18437,-0.51516 -0.27677,-1.1037 -0.27677,-1.76528 0,-0.63989 0.0924,-1.21455 0.27677,-1.72429 0.18979,-0.51517 0.44997,-0.9518 0.78075,-1.3097 0.0797,-0.0849 0.1632,-0.16447 0.24995,-0.2399 z"
       id="text10278"
       inkscape:connector-curvature="0" />
    <path
       id="path2601"
       d="m 83.452295,153.61708 -3.619141,0.91406 -5.791015,1.41016 c -0.04941,-0.002 -0.09317,0.0117 -0.132813,0.0332 l -1.925781,0.48633 c 0.358073,1.98568 0.716726,3.97201 0.716797,6.10351 7.1e-5,2.1315 0.27109,4.30216 -0.509766,6.38477 -0.780857,2.08262 -1.986979,3.97135 -3.191406,5.85937 1.692708,3.54818 3.386196,7.09636 4.378906,10.85547 0.739452,2.8001 1.089627,5.71981 1.341797,8.66797 l -1.398437,2.93555 0.113281,0.002 -2.306641,5.27344 c 0,0 8.679426,0.32914 23.437504,0.2793 14.75808,-0.0498 37.36914,1.23632 37.36914,1.23632 0,0 -0.94431,-1.36457 -1.34375,-5.9082 l 0.17578,0.002 -0.33399,-3.77539 c -0.007,-0.73508 -0.0191,-1.45632 0.002,-2.29883 0.27275,-1.96653 0.65818,-3.97349 1.30664,-6.07226 1.23728,-4.00455 3.40104,-8.33268 5.56445,-12.66211 -1.74023,-3.58073 -3.48053,-7.1603 -4.26953,-10.10742 -0.78899,-2.94712 -0.62565,-5.25716 -0.46289,-7.56836 -0.88021,-0.17022 -1.89516,-0.35929 -2.84375,-0.53906 l -4.97266,-0.91016 c -1.13198,-0.20173 -2.18367,-0.39237 -3.36914,-0.60156 -1.02409,3.64583 -2.04785,7.29315 -3.56836,9.94531 -1.5205,2.65216 -3.65973,4.56734 -6.30078,6.49414 -2.64105,1.9268 -9.60547,5.40625 -9.60547,5.40625 0,0 -5.11433,-2.84366 -8.083982,-4.98437 -2.969656,-2.14071 -4.924876,-3.81648 -7.267578,-7.10743 -2.342701,-3.29094 -2.726278,-6.52225 -3.109375,-9.7539 z m -8.003906,32.25976 c 0.172974,0.70457 0.200956,1.58833 0.164062,2.51563 -0.0064,-5.6e-4 -0.01309,-0.001 -0.01953,-0.002 -0.0036,-0.74967 -0.04768,-1.59361 -0.144531,-2.51367 z"
       style="fill:url(#radialGradient2609);fill-opacity:1;stroke:#000000;stroke-width:0;stroke-linecap:butt;stroke-linejoin:miter;stroke-miterlimit:4;stroke-dasharray:none;stroke-opacity:1"
       inkscape:connector-curvature="0" />
  </g>
</svg>
