<?xml version="1.0" encoding="UTF-8" standalone="no"?>
<!-- Created with Inkscape (http://www.inkscape.org/) -->

<svg
   xmlns:dc="http://purl.org/dc/elements/1.1/"
   xmlns:cc="http://creativecommons.org/ns#"
   xmlns:rdf="http://www.w3.org/1999/02/22-rdf-syntax-ns#"
   xmlns:svg="http://www.w3.org/2000/svg"
   xmlns="http://www.w3.org/2000/svg"
   xmlns:xlink="http://www.w3.org/1999/xlink"
   xmlns:sodipodi="http://sodipodi.sourceforge.net/DTD/sodipodi-0.dtd"
   xmlns:inkscape="http://www.inkscape.org/namespaces/inkscape"
   width="200px"
   height="200px"
   viewBox="0 0 200 200"
   version="1.1"
   id="SVGRoot"
   sodipodi:docname="jumper-wce.svg"
   inkscape:version="0.92.4 (5da689c313, 2019-01-14)">
  <defs
     id="defs909">
    <inkscape:path-effect
       effect="bspline"
       id="path-effect11211"
       is_visible="true"
       weight="33.333333"
       steps="2"
       helper_size="0"
       apply_no_weight="true"
       apply_with_weight="true"
       only_selected="false" />
    <inkscape:path-effect
       effect="bspline"
       id="path-effect11207"
       is_visible="true"
       weight="33.333333"
       steps="2"
       helper_size="0"
       apply_no_weight="true"
       apply_with_weight="true"
       only_selected="false" />
    <inkscape:path-effect
       effect="bspline"
       id="path-effect8288"
       is_visible="true"
       weight="33.333333"
       steps="2"
       helper_size="0"
       apply_no_weight="true"
       apply_with_weight="true"
       only_selected="false" />
    <inkscape:path-effect
       effect="bspline"
       id="path-effect8115"
       is_visible="true"
       weight="33.333333"
       steps="2"
       helper_size="0"
       apply_no_weight="true"
       apply_with_weight="true"
       only_selected="false" />
    <linearGradient
       inkscape:collect="always"
       id="linearGradient2607">
      <stop
         style="stop-color:#ffffff;stop-opacity:0.19607843"
         offset="0"
         id="stop2603" />
      <stop
         style="stop-color:#ffffff;stop-opacity:0"
         offset="1"
         id="stop2605" />
    </linearGradient>
    <inkscape:path-effect
       effect="bspline"
       id="path-effect1868"
       is_visible="true"
       weight="33.333333"
       steps="2"
       helper_size="0"
       apply_no_weight="true"
       apply_with_weight="true"
       only_selected="false" />
    <inkscape:path-effect
       effect="bspline"
       id="path-effect1853"
       is_visible="true"
       weight="33.333333"
       steps="2"
       helper_size="0"
       apply_no_weight="true"
       apply_with_weight="true"
       only_selected="false" />
    <radialGradient
       inkscape:collect="always"
       xlink:href="#linearGradient2607"
       id="radialGradient2609"
       cx="95.480751"
       cy="183.02492"
       fx="95.480751"
       fy="183.02492"
       r="34.153321"
       gradientTransform="matrix(1.1989405,0.44929185,-0.25913179,0.69149617,28.431755,13.516139)"
       gradientUnits="userSpaceOnUse" />
    <inkscape:path-effect
       effect="bspline"
       id="path-effect16998"
       is_visible="true"
       weight="33.333333"
       steps="2"
       helper_size="0"
       apply_no_weight="true"
       apply_with_weight="true"
       only_selected="false" />
    <inkscape:path-effect
       effect="bspline"
       id="path-effect17002"
       is_visible="true"
       weight="33.333333"
       steps="2"
       helper_size="0"
       apply_no_weight="true"
       apply_with_weight="true"
       only_selected="false" />
    <inkscape:path-effect
       effect="bspline"
       id="path-effect17010"
       is_visible="true"
       weight="33.333333"
       steps="2"
       helper_size="0"
       apply_no_weight="true"
       apply_with_weight="true"
       only_selected="false" />
    <inkscape:path-effect
       effect="bspline"
       id="path-effect17034"
       is_visible="true"
       weight="33.333333"
       steps="2"
       helper_size="0"
       apply_no_weight="true"
       apply_with_weight="true"
       only_selected="false" />
    <inkscape:path-effect
       effect="bspline"
       id="path-effect17038"
       is_visible="true"
       weight="33.333333"
       steps="2"
       helper_size="0"
       apply_no_weight="true"
       apply_with_weight="true"
       only_selected="false" />
    <inkscape:path-effect
       effect="bspline"
       id="path-effect17046"
       is_visible="true"
       weight="33.333333"
       steps="2"
       helper_size="0"
       apply_no_weight="true"
       apply_with_weight="true"
       only_selected="false" />
    <inkscape:path-effect
       effect="bspline"
       id="path-effect17050"
       is_visible="true"
       weight="33.333333"
       steps="2"
       helper_size="0"
       apply_no_weight="true"
       apply_with_weight="true"
       only_selected="false" />
  </defs>
  <sodipodi:namedview
     id="base"
     pagecolor="#ffffff"
     bordercolor="#666666"
     borderopacity="1.0"
     inkscape:pageopacity="0.0"
     inkscape:pageshadow="2"
     inkscape:zoom="5.12"
     inkscape:cx="128.27957"
     inkscape:cy="50.250457"
     inkscape:document-units="px"
     inkscape:current-layer="g2526"
     showgrid="false"
     inkscape:window-width="1920"
     inkscape:window-height="1001"
     inkscape:window-x="-9"
     inkscape:window-y="-9"
     inkscape:window-maximized="1"
     showguides="false" />
  <metadata
     id="metadata912">
    <rdf:RDF>
      <cc:Work
         rdf:about="">
        <dc:format>image/svg+xml</dc:format>
        <dc:type
           rdf:resource="http://purl.org/dc/dcmitype/StillImage" />
        <dc:title></dc:title>
      </cc:Work>
    </rdf:RDF>
  </metadata>
  <g
     inkscape:label="Layer 1"
     inkscape:groupmode="layer"
     id="layer1">
    <g
       id="g2526"
       transform="translate(-6,-4)">
      <path
         style="fill:#274f8b;fill-opacity:1;stroke:#000000;stroke-width:0;stroke-linecap:butt;stroke-linejoin:miter;stroke-miterlimit:4;stroke-dasharray:none;stroke-opacity:1"
         d="m 80.043213,159.94189 c -1.438501,-0.0585 1.404302,10.1852 0.253662,11.7046 -1.841025,2.43103 -2.443336,3.86505 -2.675781,7.49609 -0.232445,3.63104 2.155014,7.59522 3.511718,9.88672 -0.202231,3.30832 -0.412109,9.30273 -0.412109,9.30273 l -3.591808,8.21137 c 0,0 8.678571,0.32857 23.436645,0.27873 14.75808,-0.0498 37.3702,1.2359 37.3702,1.2359 0,0 -1.73837,-2.45677 -1.50019,-11.97991 -0.34776,-5.71455 3.59537,-12.84808 5.08203,-15.52937 1.48666,-2.68129 -5.78711,-21.41984 -5.78711,-21.41984 l -4.97266,-0.91016 c 0,0 -5.71289,10.19336 -8.82988,14.09732 -3.94021,2.58007 -13.50801,7.8401 -13.50801,7.8401 0,0 -9.373346,-3.27796 -12.722654,-7.07227 -5.094851,-5.77176 -9.000182,-14.51757 -9.863282,-14.55265 z"
         id="path1882"
         inkscape:connector-curvature="0"
         sodipodi:nodetypes="ccsccccccsccccscc" />
      <path
         style="fill:#e2c322;fill-opacity:1;stroke:#000000;stroke-width:0;stroke-linecap:butt;stroke-linejoin:miter;stroke-miterlimit:4;stroke-dasharray:none;stroke-opacity:1"
         d="m 79.833984,154.53125 -5.791015,1.41016 c -1.438501,-0.0585 1.404546,10.18567 0.253906,11.70507 -1.841025,2.43103 -2.443336,3.86506 -2.675781,7.4961 -0.232445,3.63104 2.155014,7.59522 3.511718,9.88672 -0.20223,3.30832 -0.412109,9.30273 -0.412109,9.30273 0,0 8.263976,-0.5515 12.935448,-3.60016 2.962245,-1.9332 5.000533,-10.73989 4.934911,-19.5503 -9.997268,-5.80758 -11.966344,-16.61818 -12.757078,-16.65032 z"
         transform="translate(6,4)"
         id="path16990"
         inkscape:connector-curvature="0"
         sodipodi:nodetypes="cccsccscc" />
      <path
         style="fill:#e2c322;fill-opacity:1;stroke:#000000;stroke-width:0;stroke-linecap:butt;stroke-linejoin:miter;stroke-miterlimit:4;stroke-dasharray:none;stroke-opacity:1"
         d="M 124.75781 154.21875 C 124.75781 154.21875 123.66892 156.23337 122.05078 158.88281 C 120.13795 162.11537 117.66861 166.136 115.92773 168.31641 C 115.53141 168.57592 115.04551 168.87793 114.55078 169.18359 C 113.13151 170.67935 111.72507 171.84467 110.45117 172.32227 C 110.81745 182.21606 111.93327 188.90095 114.84766 191.83594 C 123.07801 198.63864 130.31445 196.70117 130.31445 196.70117 C 130.31445 196.70117 130.43861 196.13142 130.4668 196 C 130.4212 194.83595 130.39818 193.57227 130.43555 192.07812 C 130.08779 186.36357 134.03092 179.23012 135.51758 176.54883 C 137.00424 173.86754 129.73047 155.12891 129.73047 155.12891 L 124.75781 154.21875 z "
         transform="translate(6,4)"
         id="path16941" />
      <path
         style="fill:#274f8b;fill-opacity:1;stroke:#000000;stroke-width:0;stroke-linecap:butt;stroke-linejoin:miter;stroke-miterlimit:4;stroke-dasharray:none;stroke-opacity:1"
         d="m 89.453125,157.61719 -3.619141,0.91406 c 0.750675,1.93979 1.276871,3.10314 2.039063,5.16016 0.897537,2.42227 2.262548,5.05747 4.964844,7.85742 2.702297,2.79994 6.738222,5.763 9.472659,7.63476 2.73443,1.87176 4.16732,2.65235 5.59961,3.4336 1.08828,-0.40549 2.17711,-0.81103 4.68359,-2.35742 2.50649,-1.5464 6.43153,-4.23345 9.05273,-6.31836 2.62119,-2.0849 3.90687,-3.53175 5.19727,-6.47266 1.23603,-2.81702 2.46814,-6.97247 3.91406,-9.25 -1.13198,-0.20173 -2.18367,-0.39237 -3.36914,-0.60156 -1.02409,3.64583 -2.04785,7.29315 -3.56836,9.94531 -1.5205,2.65216 -3.65979,4.56684 -6.30084,6.49364 -2.64105,1.9268 -9.60624,5.40664 -9.60624,5.40664 0,0 -5.11436,-2.84332 -8.084009,-4.98403 -2.969656,-2.14071 -4.924019,-3.81671 -7.266721,-7.10766 -2.342701,-3.29094 -2.726278,-6.52225 -3.109375,-9.7539 z m 46.277345,1.51172 c -0.11763,1.49515 -0.20213,3.00177 -0.18359,4.54297 0.0325,2.70251 0.35841,5.49978 1.1289,7.79882 0.77049,2.29905 1.98409,4.09712 3.19922,5.89453 -1.15003,2.30415 -2.29855,4.60589 -3.28125,7.41993 -0.98269,2.81404 -1.79456,6.1316 -0.58398,10.08789 0.12111,0.39582 0.27294,0.80009 0.42578,1.20507 0.27275,-1.96653 0.65818,-3.97349 1.30664,-6.07226 1.23728,-4.00455 3.40104,-8.33268 5.56445,-12.66211 -1.74023,-3.58073 -3.48053,-7.1603 -4.26953,-10.10742 -0.78899,-2.94712 -0.62565,-5.25716 -0.46289,-7.56836 -0.88021,-0.17022 -1.89516,-0.35929 -2.84375,-0.53906 z m -55.687257,0.81298 -2.058594,0.51953 c 0.358073,1.98568 0.716726,3.97202 0.716797,6.10352 7.1e-5,2.1315 0.270846,4.30167 -0.51001,6.38428 -0.780857,2.08262 -1.986979,3.97135 -3.191406,5.85937 1.692708,3.54818 3.386196,7.09636 4.378906,10.85547 0.739452,2.8001 1.089627,5.71981 1.341797,8.66797 l 0.285156,-0.91992 c 0.439268,-1.41541 0.440397,-1.41614 0.515625,-2.63672 0.07523,-1.22059 0.224834,-3.66022 -0.287109,-6.51367 -0.511943,-2.85346 -1.68537,-6.12139 -2.859375,-9.38867 1.431333,-2.45816 2.86363,-4.91751 3.162109,-8.59571 0.236652,-2.91631 -0.871554,-6.49326 -1.493896,-10.33545 z"
         id="path1888"
         inkscape:connector-curvature="0"
         sodipodi:nodetypes="cccccccsccccscsccccccccccccccccsccscccscsc" />
      <g
         id="g17073"
         transform="matrix(0.34021481,0.02427375,-0.02522359,0.32740329,76.838332,140.22741)">
        <path
           transform="matrix(0.49131256,0,0,0.54693213,77.647229,79.284371)"
           sodipodi:nodetypes="cccccccc"
           inkscape:original-d="m 86.951084,166.88409 c 4.230918,-1.21588 8.460619,-2.43106 12.690884,-3.64606 5.568532,1.33086 11.111632,2.65624 16.702352,3.9936 -0.71645,5.87382 -2.14167,17.54805 -2.14167,17.54805 0,0 -9.93325,-6.01382 -14.900277,-9.02034 -9.153858,0.73473 -18.307698,1.46971 -27.461945,2.20497 -2.071137,0.31156 -6.214015,0.93544 -6.214015,0.93544 0,0 14.216697,-8.01079 21.324671,-12.01566 z"
           inkscape:path-effect="#path-effect16998"
           inkscape:connector-curvature="0"
           id="path16996"
           d="m 85.512647,168.27882 c 5.669447,-2.61029 9.899148,-3.82547 14.798433,-3.76742 4.89928,0.0581 10.44239,1.38343 12.87938,4.98872 2.43699,3.60528 1.72608,9.43021 1.01219,15.27956 -4.96676,-3.00678 -9.93344,-6.01351 -16.993776,-7.14944 -7.060339,-1.13592 -16.214179,-0.40094 -21.826865,0.12245 -5.612685,0.5234 -7.684258,0.83525 -9.755596,1.14706 7.108224,-4.00522 14.216787,-8.01063 19.886234,-10.62093 z"
           style="fill:#e2c322;fill-opacity:1;stroke:#000000;stroke-width:0;stroke-linecap:butt;stroke-linejoin:miter;stroke-miterlimit:4;stroke-dasharray:none;stroke-opacity:1" />
        <path
           transform="matrix(0.53918952,0.10540233,-0.10540233,0.53918951,85.770643,68.890116)"
           sodipodi:nodetypes="ccccc"
           inkscape:original-d="m 104.6994,181.1503 c 0,0 -2.0786,4.09448 -3.1183,6.14212 -5.197713,1.41736 -15.591517,4.25223 -15.591517,4.25223 0,0 4.220998,-4.59898 6.3311,-6.89807 4.126011,-1.16555 12.378717,-3.49628 12.378717,-3.49628 z"
           inkscape:path-effect="#path-effect17002"
           inkscape:connector-curvature="0"
           id="path17000"
           d="m 104.6994,181.1503 c -1.03943,2.04737 -2.0787,4.09443 -5.197334,5.82705 -3.118629,1.73261 -8.315311,3.14989 -13.512483,4.5673 2.110367,-2.29936 4.220987,-4.59899 7.339074,-6.33122 3.118086,-1.73223 7.244503,-2.8977 11.370743,-4.06313 z"
           style="fill:#e2c322;fill-opacity:1;stroke:#000000;stroke-width:0;stroke-linecap:butt;stroke-linejoin:miter;stroke-miterlimit:4;stroke-dasharray:none;stroke-opacity:1" />
        <path
           transform="matrix(0.68673517,0,0,0.68673517,40.209811,53.555836)"
           sodipodi:nodetypes="ccccccc"
           inkscape:original-d="m 98.166477,173.42073 c 0.779802,0.82381 1.559336,1.6479 2.338603,2.47224 1.29208,-0.0893 2.58388,-0.22299 3.87541,-0.33408 1.24725,-0.98004 3.74178,-2.93997 3.74178,-2.93997 0,0 -2.44971,0.71245 -3.67496,1.06908 -2.09388,-0.5795 -6.280833,-1.73725 -6.280833,-1.73725 0,0 2.65e-4,0.97972 0,1.46998 z"
           inkscape:path-effect="#path-effect17010"
           inkscape:connector-curvature="0"
           id="path17008"
           d="m 98.55624,173.58764 c 0.389763,0.65716 1.169302,1.48125 2.20417,1.83768 1.03486,0.35643 2.32857,0.2449 3.59796,-0.30076 1.2694,-0.54567 2.51664,-1.52565 3.7639,-2.50564 -1.22499,0.35636 -2.44966,0.71263 -4.10929,0.60126 -1.65964,-0.11136 -3.75289,-0.69035 -5.846503,-1.26943 0,0.48999 0,0.97972 0.389763,1.63689 z"
           style="fill:#e2c322;fill-opacity:1;stroke:#000000;stroke-width:0;stroke-linecap:butt;stroke-linejoin:miter;stroke-miterlimit:4;stroke-dasharray:none;stroke-opacity:1" />
        <g
           style="stroke-width:1.31392753"
           transform="matrix(0.68414948,-0.15534684,0.18282014,0.80514221,3.4259441,51.285647)"
           id="g17062">
          <g
             style="stroke-width:1.31392753"
             id="g17055">
            <path
               transform="matrix(0.96612315,0,0,0.96612317,3.7110577,6.4884104)"
               sodipodi:nodetypes="ccccscccc"
               inkscape:original-d="m 105.71684,183.17607 c -0.1111,-0.0226 -0.22246,-0.0448 -0.33409,-0.0668 -3.54753,1.24927 -7.082375,2.49425 -10.62396,3.74177 -1.82586,2.12158 -5.477834,6.36487 -5.477834,6.36487 0,0 1.135362,4.32648 1.702562,6.49019 0.924657,0.99324 2.773011,2.98067 2.773011,2.98067 0,0 3.430224,-8.24108 5.14494,-12.36123 2.272051,-2.38341 4.543851,-4.76657 6.815371,-7.14945 z"
               inkscape:path-effect="#path-effect17034"
               inkscape:connector-curvature="0"
               id="path17032"
               d="m 105.66125,183.16496 c -0.0556,-0.0111 -0.16693,-0.0334 -1.99645,0.58018 -1.82953,0.61355 -5.364372,1.85853 -8.048134,3.54299 -2.683763,1.68447 -4.509765,3.80616 -6.33571,5.92778 0.567521,2.1634 1.134985,4.32658 1.880937,5.90516 0.745953,1.57858 1.670299,2.57214 2.594636,3.5657 1.71498,-4.12041 3.430091,-8.24114 5.423538,-11.49289 1.993443,-3.25176 4.265243,-5.63492 5.401013,-6.82635 1.13576,-1.19144 1.13576,-1.19146 1.08017,-1.20257 z"
               style="fill:#e2c322;fill-opacity:1;stroke:#000000;stroke-width:0;stroke-linecap:butt;stroke-linejoin:miter;stroke-miterlimit:4;stroke-dasharray:none;stroke-opacity:1" />
            <path
               transform="matrix(0.89942737,-0.07114566,0.07114566,0.89942738,-2.2676381,27.251366)"
               sodipodi:nodetypes="cccccccccc"
               inkscape:original-d="m 106.11775,185.71513 c -1.6756,1.62094 -3.35116,3.24181 -5.02767,4.86354 -1.403998,2.4442 -4.212443,7.33241 -4.212443,7.33241 0,0 2.908628,3.31707 4.362433,4.97611 1.96024,0.48973 5.87994,1.46999 5.87994,1.46999 0,0 -0.40064,-3.96477 -0.60136,-5.94675 0.0671,-2.04933 0.1339,-4.0984 0.20045,-6.1472 0.33432,-2.07137 0.66844,-4.0984 1.00226,-6.1472 0.2675,-0.73515 0.80181,-2.20497 0.80181,-2.20497 0,0 -1.60335,1.20244 -2.40542,1.80407 z"
               inkscape:path-effect="#path-effect17038"
               inkscape:connector-curvature="0"
               id="path17036"
               d="m 105.68099,186.2248 c -1.23886,1.11125 -2.91442,2.73211 -4.45474,4.76505 -1.540308,2.03294 -2.944465,4.47709 -4.348613,6.92123 1.454144,1.6587 2.908269,3.31738 4.615433,4.39177 1.70716,1.07438 3.66696,1.56433 5.62694,2.05433 -0.20045,-1.98225 -0.40093,-3.96474 -0.46773,-5.98041 -0.0668,-2.01568 10e-6,-4.06475 0.20223,-6.12456 0.20222,-2.05981 0.53281,-4.08742 0.83351,-5.4794 0.30069,-1.39199 0.56788,-2.12676 0.83515,-2.86175 -0.80181,0.60136 -1.60331,1.20249 -2.84218,2.31374 z"
               style="fill:#e2c322;fill-opacity:1;stroke:#000000;stroke-width:0;stroke-linecap:butt;stroke-linejoin:miter;stroke-miterlimit:4;stroke-dasharray:none;stroke-opacity:1" />
            <path
               transform="translate(0.90255923,-0.48309099)"
               sodipodi:nodetypes="cccccccccccccccccccccccccccccccccccccccccccccccc"
               inkscape:original-d="m 115.30522,172.9572 9.99201,-2.06911 c 0,0 -3.11971,-4.01368 -4.68011,-6.01999 -2.22677,-1.71508 -4.45423,-3.43022 -6.68174,-5.14493 -4.25385,-1.29209 -8.50782,-2.58387 -12.76212,-3.87541 -8.497681,-0.15437 -16.993638,-0.30845 -25.492364,-0.46233 -4.693594,1.7324 -14.080776,5.19743 -14.080776,5.19743 l 12.178056,-0.25349 c 0,0 -5.98962,1.42171 -8.985859,2.13311 -2.128072,2.16105 -6.384502,6.48278 -6.384502,6.48278 0,0 9.254733,-1.6238 13.881815,-2.43541 1.099245,0.17834 3.296194,0.53571 3.296194,0.53571 0,0 -2.745873,1.04567 -4.119813,1.56899 -2.457689,1.55776 -4.914878,3.11516 -7.373251,4.67327 -2.308637,2.97061 -6.926781,8.91193 -6.926781,8.91193 0,0 9.984802,-4.33697 14.976925,-6.50527 2.38222,-0.0261 7.145865,-0.0774 7.145865,-0.0774 0,0 -1.223521,0.71823 -1.835679,1.07775 -3.003081,2.17256 -6.005378,4.34463 -9.008884,6.51765 -0.793319,2.7876 -2.380529,8.36282 -2.380529,8.36282 0,0 4.875968,-2.43703 7.313552,-3.65515 2.451276,-0.75876 7.353843,-2.27572 7.353843,-2.27572 0,0 -0.625984,1.91778 -0.939375,2.87708 -0.689324,1.3859 -1.378675,2.77159 -2.068558,4.15807 -0.309628,2.46628 -0.929543,7.39855 -0.929543,7.39855 0,0 4.137154,-4.40836 6.205335,-6.61214 3.541178,-2.69492 7.082906,-5.3902 10.623963,-8.0849 2.516844,-0.9579 5.033842,-1.9157 7.550366,-2.87315 1.31434,-0.44572 2.62842,-0.89117 3.94222,-1.33635 1.20298,-0.1339 3.60814,-0.4009 3.60814,-0.4009 0,0 -2.22698,-2.09388 -3.34087,-3.14042 -2.36089,0.0888 -4.72149,0.17792 -7.082639,0.26727 -2.739565,1.02439 -8.218538,3.0736 -8.218538,3.0736 0,0 1.648428,-2.22751 2.472243,-3.34087 2.427316,-1.02452 4.855662,-2.04933 7.283095,-3.0736 0.980129,-0.17842 1.960239,-0.35662 2.939969,-0.53453 -1.73645,-0.44558 -3.474242,-0.89117 -5.211761,-1.33635 -3.185035,0.17793 -9.554884,0.53454 -9.554884,0.53454 0,0 2.58387,-1.38116 3.875407,-2.07134 2.226966,-0.44561 4.454758,-0.89117 6.68174,-1.33635 1.648198,0.22243 4.944488,0.66817 4.944488,0.66817 0,0 -3.29606,-2.40569 -4.944488,-3.60813 -3.207062,-0.60164 -9.621705,-1.80407 -9.621705,-1.80407 0,0 4.588393,-0.6239 6.882191,-0.93545 2.895311,0.95733 5.835652,1.91517 8.753082,2.87315 1.73742,1.06875 3.47476,2.13789 5.21175,3.20723 1.83771,0.91419 5.51252,2.74366 5.51252,2.74366 z"
               inkscape:path-effect="#path-effect17046"
               inkscape:connector-curvature="0"
               id="path17044"
               d="m 115.30522,172.9572 c 0,0 9.99201,-2.06911 9.99201,-2.06911 -1.56004,-2.00666 -3.12011,-4.01337 -5.01361,-5.87407 -1.8935,-1.8607 -4.12096,-3.57585 -7.36157,-5.07924 -3.24062,-1.50338 -7.49459,-2.79517 -13.87053,-3.51815 -6.375946,-0.72298 -14.871903,-0.87707 -21.468048,-0.0879 -6.596145,0.78917 -11.28976,2.52165 -15.983352,4.25413 0,0 12.178056,-0.25349 12.178056,-0.25349 -2.995286,0.71104 -5.989589,1.42184 -8.551815,2.85795 -2.562226,1.4361 -4.690379,3.59701 -6.818546,5.75794 4.627272,-0.8118 9.25476,-1.62364 12.117885,-1.9402 2.863125,-0.31656 3.961393,-0.13807 5.060124,0.0405 -1.373271,0.523 -2.74585,1.04573 -4.661686,2.08622 -1.915835,1.0405 -4.373024,2.5979 -6.756602,4.86221 -2.383578,2.26431 -4.69263,5.23512 -7.001557,8.20576 4.992308,-2.16842 9.984818,-4.33693 13.671983,-5.434 3.687165,-1.09707 6.068852,-1.12287 8.450807,-1.14867 -0.611893,0.35925 -1.223471,0.71832 -3.031097,1.98434 -1.807627,1.26602 -4.809924,3.43809 -6.708442,5.91835 -1.898518,2.48026 -2.692043,5.26792 -3.485553,8.05553 2.437851,-1.21838 4.87602,-2.43693 7.320451,-3.42533 2.44443,-0.98841 4.895663,-1.74697 7.346944,-2.50554 -0.313125,0.95903 -0.626144,1.91773 -1.127475,3.09033 -0.501331,1.1726 -1.190684,2.55829 -1.690499,4.48468 -0.499815,1.92639 -0.809654,4.39251 -1.119502,6.85869 2.068445,-2.20405 4.137147,-4.40837 6.941845,-6.85769 2.804698,-2.44933 6.346428,-5.14461 9.375389,-6.97086 3.028962,-1.82625 5.545961,-2.78405 7.46139,-3.48562 1.91543,-0.70158 3.22951,-1.14703 4.48789,-1.43653 1.25838,-0.28951 2.4608,-0.42311 3.66351,-0.55674 -1.11362,-1.04681 -2.22724,-2.09361 -3.96449,-2.57247 -1.73726,-0.47886 -4.09786,-0.38978 -6.648196,0.16704 -2.550335,0.55681 -5.289848,1.58135 -8.029361,2.60588 0.824081,-1.11362 1.648382,-2.22754 3.273997,-3.2964 1.625615,-1.06886 4.053962,-2.09367 5.757735,-2.69498 1.703775,-0.6013 2.683885,-0.7795 2.305465,-1.09119 -0.37842,-0.31169 -2.116213,-0.75728 -4.577443,-0.89094 -2.461229,-0.13366 -5.646131,0.0445 -8.831092,0.2227 1.291802,-0.69045 2.583922,-1.38106 4.343168,-1.9489 1.759247,-0.56784 3.987039,-1.0134 5.924588,-1.12473 1.937549,-0.11134 3.585719,0.11139 5.233879,0.33411 -1.64816,-1.20271 -3.29628,-2.40539 -5.723944,-3.30743 -2.427663,-0.90203 -5.635014,-1.50341 -8.842249,-2.10477 2.294064,-0.31182 4.588424,-0.62367 7.183994,-0.30404 2.59557,0.31964 5.533749,1.28408 7.861129,2.29744 2.32738,1.01336 4.06472,2.0825 5.85207,3.07429 1.78735,0.9918 3.62484,1.90635 5.46235,2.8209 z"
               style="fill:#e2c322;fill-opacity:1;stroke:#000000;stroke-width:0;stroke-linecap:butt;stroke-linejoin:miter;stroke-miterlimit:4;stroke-dasharray:none;stroke-opacity:1" />
          </g>
          <path
             style="fill:#e2c322;fill-opacity:1;stroke:#000000;stroke-width:0;stroke-linecap:butt;stroke-linejoin:miter;stroke-miterlimit:4;stroke-dasharray:none;stroke-opacity:1"
             d="m 114.01647,160.25909 c -3.48002,-1.54762 -6.95946,-3.09499 -11.55011,-4.25986 -4.590646,-1.16487 -10.289853,-1.94653 -15.390079,-2.23669 -5.100226,-0.29015 -9.598446,-0.0885 -14.096886,0.11324 4.750506,1.25738 9.500922,2.51474 12.598684,3.65884 3.097762,1.14409 4.542135,2.17448 9.006515,2.60964 4.46438,0.43516 11.947966,0.275 19.431876,0.11483 z"
             id="path17048"
             inkscape:connector-curvature="0"
             inkscape:path-effect="#path-effect17050"
             inkscape:original-d="m 114.01647,160.25909 c 0,0 -6.95929,-3.09537 -10.44005,-4.64286 -5.700662,-0.78219 -11.399868,-1.56386 -17.101704,-2.34555 -4.498672,0.20146 -13.495321,0.6051 -13.495321,0.6051 0,0 9.50101,2.51441 14.251517,3.77215 1.445196,1.03041 2.889566,2.0608 4.33382,3.09166 7.484237,-0.16043 22.451738,-0.4805 22.451738,-0.4805 z"
             sodipodi:nodetypes="ccccccc"
             transform="translate(0.11217533,-0.63379139)" />
        </g>
      </g>
      <path
         id="path2601"
         d="m 89.452295,157.61708 -3.619141,0.91406 -5.791015,1.41016 c -0.04941,-0.002 -0.09317,0.0117 -0.132813,0.0332 l -1.925781,0.48633 c 0.358073,1.98568 0.716726,3.97201 0.716797,6.10351 7.1e-5,2.1315 0.27109,4.30216 -0.509766,6.38477 -0.780857,2.08262 -1.986979,3.97135 -3.191406,5.85937 1.692708,3.54818 3.386196,7.09636 4.378906,10.85547 0.739452,2.8001 1.089627,5.71981 1.341797,8.66797 l -1.398437,2.93555 0.113281,0.002 -2.306641,5.27344 c 0,0 8.679426,0.32914 23.437504,0.2793 14.75808,-0.0498 37.36914,1.23632 37.36914,1.23632 0,0 -0.94431,-1.36457 -1.34375,-5.9082 l 0.17578,0.002 -0.33399,-3.77539 c -0.007,-0.73508 -0.0191,-1.45632 0.002,-2.29883 0.27275,-1.96653 0.65818,-3.97349 1.30664,-6.07226 1.23728,-4.00455 3.40104,-8.33268 5.56445,-12.66211 -1.74023,-3.58073 -3.48053,-7.1603 -4.26953,-10.10742 -0.78899,-2.94712 -0.62565,-5.25716 -0.46289,-7.56836 -0.88021,-0.17022 -1.89516,-0.35929 -2.84375,-0.53906 l -4.97266,-0.91016 c -1.13198,-0.20173 -2.18367,-0.39237 -3.36914,-0.60156 -1.02409,3.64583 -2.04785,7.29315 -3.56836,9.94531 -1.5205,2.65216 -3.65973,4.56734 -6.30078,6.49414 -2.64105,1.9268 -9.60547,5.40625 -9.60547,5.40625 0,0 -5.11433,-2.84366 -8.083982,-4.98437 -2.969656,-2.14071 -4.924876,-3.81648 -7.267578,-7.10743 -2.342701,-3.29094 -2.726278,-6.52225 -3.109375,-9.7539 z m -8.003906,32.25976 c 0.172974,0.70457 0.200956,1.58833 0.164062,2.51563 -0.0064,-5.6e-4 -0.01309,-0.001 -0.01953,-0.002 -0.0036,-0.74967 -0.04768,-1.59361 -0.144531,-2.51367 z"
         style="fill:url(#radialGradient2609);fill-opacity:1;stroke:#000000;stroke-width:0;stroke-linecap:butt;stroke-linejoin:miter;stroke-miterlimit:4;stroke-dasharray:none;stroke-opacity:1"
         inkscape:connector-curvature="0" />
    </g>
  </g>
</svg>
