<?xml version="1.0" encoding="UTF-8" standalone="no"?>
<!-- Created with Inkscape (http://www.inkscape.org/) -->

<svg
   xmlns:dc="http://purl.org/dc/elements/1.1/"
   xmlns:cc="http://creativecommons.org/ns#"
   xmlns:rdf="http://www.w3.org/1999/02/22-rdf-syntax-ns#"
   xmlns:svg="http://www.w3.org/2000/svg"
   xmlns="http://www.w3.org/2000/svg"
   xmlns:xlink="http://www.w3.org/1999/xlink"
   xmlns:sodipodi="http://sodipodi.sourceforge.net/DTD/sodipodi-0.dtd"
   xmlns:inkscape="http://www.inkscape.org/namespaces/inkscape"
   width="200px"
   height="200px"
   viewBox="0 0 200 200"
   version="1.1"
   id="SVGRoot"
   sodipodi:docname="jumper-syd.svg"
   inkscape:version="0.92.4 (5da689c313, 2019-01-14)">
  <defs
     id="defs909">
    <inkscape:path-effect
       effect="bspline"
       id="path-effect8288"
       is_visible="true"
       weight="33.333333"
       steps="2"
       helper_size="0"
       apply_no_weight="true"
       apply_with_weight="true"
       only_selected="false" />
    <inkscape:path-effect
       effect="bspline"
       id="path-effect8115"
       is_visible="true"
       weight="33.333333"
       steps="2"
       helper_size="0"
       apply_no_weight="true"
       apply_with_weight="true"
       only_selected="false" />
    <linearGradient
       inkscape:collect="always"
       id="linearGradient2607">
      <stop
         style="stop-color:#ffffff;stop-opacity:0.19607843"
         offset="0"
         id="stop2603" />
      <stop
         style="stop-color:#ffffff;stop-opacity:0"
         offset="1"
         id="stop2605" />
    </linearGradient>
    <inkscape:path-effect
       effect="bspline"
       id="path-effect1868"
       is_visible="true"
       weight="33.333333"
       steps="2"
       helper_size="0"
       apply_no_weight="true"
       apply_with_weight="true"
       only_selected="false" />
    <inkscape:path-effect
       effect="bspline"
       id="path-effect1853"
       is_visible="true"
       weight="33.333333"
       steps="2"
       helper_size="0"
       apply_no_weight="true"
       apply_with_weight="true"
       only_selected="false" />
    <radialGradient
       inkscape:collect="always"
       xlink:href="#linearGradient2607"
       id="radialGradient2609"
       cx="95.480751"
       cy="183.02492"
       fx="95.480751"
       fy="183.02492"
       r="34.153321"
       gradientTransform="matrix(1.1989405,0.44929185,-0.25913179,0.69149617,28.431755,13.516139)"
       gradientUnits="userSpaceOnUse" />
  </defs>
  <sodipodi:namedview
     id="base"
     pagecolor="#ffffff"
     bordercolor="#666666"
     borderopacity="1.0"
     inkscape:pageopacity="0.0"
     inkscape:pageshadow="2"
     inkscape:zoom="3.6203867"
     inkscape:cx="78.927711"
     inkscape:cy="48.115406"
     inkscape:document-units="px"
     inkscape:current-layer="g2526"
     showgrid="false"
     inkscape:window-width="1920"
     inkscape:window-height="1001"
     inkscape:window-x="-9"
     inkscape:window-y="-9"
     inkscape:window-maximized="1"
     showguides="false" />
  <metadata
     id="metadata912">
    <rdf:RDF>
      <cc:Work
         rdf:about="">
        <dc:format>image/svg+xml</dc:format>
        <dc:type
           rdf:resource="http://purl.org/dc/dcmitype/StillImage" />
        <dc:title></dc:title>
      </cc:Work>
    </rdf:RDF>
  </metadata>
  <g
     inkscape:label="Layer 1"
     inkscape:groupmode="layer"
     id="layer1">
    <g
       id="g2526"
       transform="translate(-6,-4)">
      <path
         style="fill:#f7f7f7;fill-opacity:1;stroke:#000000;stroke-width:0;stroke-linecap:butt;stroke-linejoin:miter;stroke-miterlimit:4;stroke-dasharray:none;stroke-opacity:1"
         d="m 80.043213,159.94189 c -1.438501,-0.0585 1.404302,10.1852 0.253662,11.7046 -1.841025,2.43103 -2.443336,3.86505 -2.675781,7.49609 -0.232445,3.63104 2.155014,7.59522 3.511718,9.88672 -0.202231,3.30832 -0.412109,9.30273 -0.412109,9.30273 l -3.591808,8.21137 c 0,0 8.678571,0.32857 23.436645,0.27873 14.75808,-0.0498 37.3702,1.2359 37.3702,1.2359 0,0 -1.73837,-2.45677 -1.50019,-11.97991 -0.34776,-5.71455 3.59537,-12.84808 5.08203,-15.52937 1.48666,-2.68129 -5.78711,-21.41984 -5.78711,-21.41984 l -4.97266,-0.91016 c 0,0 -5.71289,10.19336 -8.82988,14.09732 -3.94021,2.58007 -13.50801,7.8401 -13.50801,7.8401 0,0 -9.373346,-3.27796 -12.722654,-7.07227 -5.094851,-5.77176 -9.000182,-14.51757 -9.863282,-14.55265 z"
         id="path1882"
         inkscape:connector-curvature="0"
         sodipodi:nodetypes="ccsccccccsccccscc" />
      <path
         style="fill:#e04b38;fill-opacity:1;stroke:#000000;stroke-width:0;stroke-linecap:butt;stroke-linejoin:miter;stroke-miterlimit:4;stroke-dasharray:none;stroke-opacity:1"
         d="m 124.75781,154.21875 c 0,0 -5.71309,10.1937 -8.83008,14.09766 -3.94021,2.58007 -13.50781,7.83984 -13.50781,7.83984 0,0 -9.373346,-3.27796 -12.722654,-7.07227 -5.094851,-5.77176 -9.000182,-14.51765 -9.863282,-14.55273 l -5.791015,1.41016 c -1.438501,-0.0585 1.404546,10.18567 0.253906,11.70507 -0.167154,0.22073 -1.774494,7.01989 -1.921875,7.22657 3.196148,1.57328 5.534332,3.10212 9.298829,5.18945 4.704398,2.60848 6.250214,3.55478 10.351562,6.47656 4.559157,3.24792 7.261452,4.47656 9.474999,7.21093 3.90625,-4.13411 6.06741,-4.72789 10.38242,-8.0078 4.41037,-3.3524 7.15671,-4.80919 10.97461,-7.21875 4.13924,-2.61235 5.7934,-3.64479 11.01758,-5.15821 0.16604,-0.14651 0.0728,-4.436 0.23242,-4.58203 -1.68103,-5.25096 -4.37695,-13.65429 -4.37695,-13.65429 z"
         transform="translate(6,4)"
         id="path8286"
         inkscape:connector-curvature="0"
         sodipodi:nodetypes="ccccccccsscsscccc" />
      <path
         style="fill:#e04b38;fill-opacity:1;stroke:#000000;stroke-width:0;stroke-linecap:butt;stroke-linejoin:miter;stroke-miterlimit:4;stroke-dasharray:none;stroke-opacity:1"
         d="m 89.453125,157.61719 -3.619141,0.91406 c 0.750675,1.93979 1.276871,3.10314 2.039063,5.16016 0.897537,2.42227 2.262548,5.05747 4.964844,7.85742 2.702297,2.79994 6.738222,5.763 9.472659,7.63476 2.73443,1.87176 4.16732,2.65235 5.59961,3.4336 1.08828,-0.40549 2.17711,-0.81103 4.68359,-2.35742 2.50649,-1.5464 6.43153,-4.23345 9.05273,-6.31836 2.62119,-2.0849 3.90687,-3.53175 5.19727,-6.47266 1.23603,-2.81702 2.46814,-6.97247 3.91406,-9.25 -1.13198,-0.20173 -2.18367,-0.39237 -3.36914,-0.60156 -1.02409,3.64583 -2.04785,7.29315 -3.56836,9.94531 -1.5205,2.65216 -3.65979,4.56684 -6.30084,6.49364 -2.64105,1.9268 -9.60624,5.40664 -9.60624,5.40664 0,0 -5.11436,-2.84332 -8.084009,-4.98403 -2.969656,-2.14071 -4.924019,-3.81671 -7.266721,-7.10766 -2.342701,-3.29094 -2.726278,-6.52225 -3.109375,-9.7539 z m 46.277345,1.51172 c -0.11763,1.49515 -0.20213,3.00177 -0.18359,4.54297 0.0325,2.70251 0.35841,5.49978 1.1289,7.79882 0.77049,2.29905 1.98409,4.09712 3.19922,5.89453 -1.15003,2.30415 -2.29855,4.60589 -3.28125,7.41993 -0.98269,2.81404 -1.79456,6.1316 -0.58398,10.08789 0.12111,0.39582 0.27294,0.80009 0.42578,1.20507 0.27275,-1.96653 0.65818,-3.97349 1.30664,-6.07226 1.23728,-4.00455 3.40104,-8.33268 5.56445,-12.66211 -1.74023,-3.58073 -3.48053,-7.1603 -4.26953,-10.10742 -0.78899,-2.94712 -0.62565,-5.25716 -0.46289,-7.56836 -0.88021,-0.17022 -1.89516,-0.35929 -2.84375,-0.53906 z m -55.687257,0.81298 -2.058594,0.51953 c 0.358073,1.98568 0.716726,3.97202 0.716797,6.10352 7.1e-5,2.1315 0.270846,4.30167 -0.51001,6.38428 -0.780857,2.08262 -1.986979,3.97135 -3.191406,5.85937 1.692708,3.54818 3.386196,7.09636 4.378906,10.85547 0.739452,2.8001 1.089627,5.71981 1.341797,8.66797 l 0.285156,-0.91992 c 0.439268,-1.41541 0.440397,-1.41614 0.515625,-2.63672 0.07523,-1.22059 0.224834,-3.66022 -0.287109,-6.51367 -0.511943,-2.85346 -1.68537,-6.12139 -2.859375,-9.38867 1.431333,-2.45816 2.86363,-4.91751 3.162109,-8.59571 0.236652,-2.91631 -0.871554,-6.49326 -1.493896,-10.33545 z"
         id="path1888"
         inkscape:connector-curvature="0"
         sodipodi:nodetypes="cccccccsccccscsccccccccccccccccsccscccscsc" />
      <path
         style="fill:#f7f7f7;fill-opacity:1;stroke:#000000;stroke-width:0;stroke-linecap:butt;stroke-linejoin:miter;stroke-miterlimit:4;stroke-dasharray:none;stroke-opacity:1"
         d="m 105.91823,183.4116 c 0.18765,0.54099 0.37513,1.08208 0.52593,1.84637 0.15078,0.76427 0.26451,1.75203 0.16384,2.80689 -0.045,0.47619 -0.13711,0.9668 -0.26974,1.47351 -1.18001,-1.15497 -2.62004,-1.67185 -4.06077,-2.18679 0.46344,1.18224 0.92704,2.36426 0.94752,3.79252 -2e-5,0.0695 -1.1e-4,0.14039 -0.001,0.21108 -0.91986,-0.80041 -2.00709,-1.19079 -3.09467,-1.57951 0.37899,0.96678 0.75821,1.93343 0.77495,3.10141 0.0168,1.16798 -0.32886,2.53769 -0.67437,3.90717 1.22142,0.43348 2.44254,0.86705 3.40678,0.70551 0.31434,-0.0528 0.60051,-0.16958 0.84382,-0.34233 0.41308,0.74206 1.04729,1.57476 2.06706,2.03875 1.5571,0.70843 4.00254,0.55156 5.13717,-0.50508 0.34886,-0.32488 0.57468,-0.71637 0.70976,-1.16011 0.44034,-0.0587 0.88962,-0.13099 1.34017,-0.20516 -0.12971,-1.7443 -0.2596,-3.48886 0.0251,-4.9471 0.28474,-1.45826 0.98383,-2.63095 1.68305,-3.8035 -1.4667,0.31113 -2.9326,0.62446 -4.26277,1.47914 -0.19941,-0.53055 -0.41233,-1.04187 -0.64058,-1.52611 -0.73621,-1.5618 -1.6133,-2.86978 -2.40686,-3.67848 -0.79359,-0.8087 -1.50386,-1.11858 -2.21422,-1.42818 z"
         id="path14423"
         inkscape:connector-curvature="0" />
      <path
         id="path2601"
         d="m 89.452295,157.61708 -3.619141,0.91406 -5.791015,1.41016 c -0.04941,-0.002 -0.09317,0.0117 -0.132813,0.0332 l -1.925781,0.48633 c 0.358073,1.98568 0.716726,3.97201 0.716797,6.10351 7.1e-5,2.1315 0.27109,4.30216 -0.509766,6.38477 -0.780857,2.08262 -1.986979,3.97135 -3.191406,5.85937 1.692708,3.54818 3.386196,7.09636 4.378906,10.85547 0.739452,2.8001 1.089627,5.71981 1.341797,8.66797 l -1.398437,2.93555 0.113281,0.002 -2.306641,5.27344 c 0,0 8.679426,0.32914 23.437504,0.2793 14.75808,-0.0498 37.36914,1.23632 37.36914,1.23632 0,0 -0.94431,-1.36457 -1.34375,-5.9082 l 0.17578,0.002 -0.33399,-3.77539 c -0.007,-0.73508 -0.0191,-1.45632 0.002,-2.29883 0.27275,-1.96653 0.65818,-3.97349 1.30664,-6.07226 1.23728,-4.00455 3.40104,-8.33268 5.56445,-12.66211 -1.74023,-3.58073 -3.48053,-7.1603 -4.26953,-10.10742 -0.78899,-2.94712 -0.62565,-5.25716 -0.46289,-7.56836 -0.88021,-0.17022 -1.89516,-0.35929 -2.84375,-0.53906 l -4.97266,-0.91016 c -1.13198,-0.20173 -2.18367,-0.39237 -3.36914,-0.60156 -1.02409,3.64583 -2.04785,7.29315 -3.56836,9.94531 -1.5205,2.65216 -3.65973,4.56734 -6.30078,6.49414 -2.64105,1.9268 -9.60547,5.40625 -9.60547,5.40625 0,0 -5.11433,-2.84366 -8.083982,-4.98437 -2.969656,-2.14071 -4.924876,-3.81648 -7.267578,-7.10743 -2.342701,-3.29094 -2.726278,-6.52225 -3.109375,-9.7539 z m -8.003906,32.25976 c 0.172974,0.70457 0.200956,1.58833 0.164062,2.51563 -0.0064,-5.6e-4 -0.01309,-0.001 -0.01953,-0.002 -0.0036,-0.74967 -0.04768,-1.59361 -0.144531,-2.51367 z"
         style="fill:url(#radialGradient2609);fill-opacity:1;stroke:#000000;stroke-width:0;stroke-linecap:butt;stroke-linejoin:miter;stroke-miterlimit:4;stroke-dasharray:none;stroke-opacity:1"
         inkscape:connector-curvature="0" />
    </g>
  </g>
</svg>
