<?xml version="1.0" encoding="UTF-8" standalone="no"?>
<!-- Created with Inkscape (http://www.inkscape.org/) -->

<svg
   xmlns:dc="http://purl.org/dc/elements/1.1/"
   xmlns:cc="http://creativecommons.org/ns#"
   xmlns:rdf="http://www.w3.org/1999/02/22-rdf-syntax-ns#"
   xmlns:svg="http://www.w3.org/2000/svg"
   xmlns="http://www.w3.org/2000/svg"
   xmlns:xlink="http://www.w3.org/1999/xlink"
   xmlns:sodipodi="http://sodipodi.sourceforge.net/DTD/sodipodi-0.dtd"
   xmlns:inkscape="http://www.inkscape.org/namespaces/inkscape"
   width="200px"
   height="200px"
   viewBox="0 0 200 200"
   version="1.1"
   id="SVGRoot"
   sodipodi:docname="jumper-bri.svg"
   inkscape:version="0.92.4 (5da689c313, 2019-01-14)">
  <defs
     id="defs909">
    <inkscape:path-effect
       effect="bspline"
       id="path-effect2786"
       is_visible="true"
       weight="33.333333"
       steps="2"
       helper_size="0"
       apply_no_weight="true"
       apply_with_weight="true"
       only_selected="false" />
    <inkscape:path-effect
       effect="bspline"
       id="path-effect2782"
       is_visible="true"
       weight="33.333333"
       steps="2"
       helper_size="0"
       apply_no_weight="true"
       apply_with_weight="true"
       only_selected="false" />
    <linearGradient
       inkscape:collect="always"
       id="linearGradient2607">
      <stop
         style="stop-color:#ffffff;stop-opacity:0.19607843"
         offset="0"
         id="stop2603" />
      <stop
         style="stop-color:#ffffff;stop-opacity:0"
         offset="1"
         id="stop2605" />
    </linearGradient>
    <inkscape:path-effect
       effect="bspline"
       id="path-effect1868"
       is_visible="true"
       weight="33.333333"
       steps="2"
       helper_size="0"
       apply_no_weight="true"
       apply_with_weight="true"
       only_selected="false" />
    <inkscape:path-effect
       effect="bspline"
       id="path-effect1853"
       is_visible="true"
       weight="33.333333"
       steps="2"
       helper_size="0"
       apply_no_weight="true"
       apply_with_weight="true"
       only_selected="false" />
    <radialGradient
       inkscape:collect="always"
       xlink:href="#linearGradient2607"
       id="radialGradient2609"
       cx="95.480751"
       cy="183.02492"
       fx="95.480751"
       fy="183.02492"
       r="34.153321"
       gradientTransform="matrix(1.1989405,0.44929185,-0.25913179,0.69149617,22.431755,9.516139)"
       gradientUnits="userSpaceOnUse" />
  </defs>
  <sodipodi:namedview
     id="base"
     pagecolor="#ffffff"
     bordercolor="#666666"
     borderopacity="1.0"
     inkscape:pageopacity="0.0"
     inkscape:pageshadow="2"
     inkscape:zoom="7.2407734"
     inkscape:cx="123.00736"
     inkscape:cy="5.7791618"
     inkscape:document-units="px"
     inkscape:current-layer="layer1"
     showgrid="false"
     inkscape:window-width="1920"
     inkscape:window-height="1001"
     inkscape:window-x="-9"
     inkscape:window-y="-9"
     inkscape:window-maximized="1"
     showguides="false" />
  <metadata
     id="metadata912">
    <rdf:RDF>
      <cc:Work
         rdf:about="">
        <dc:format>image/svg+xml</dc:format>
        <dc:type
           rdf:resource="http://purl.org/dc/dcmitype/StillImage" />
        <dc:title></dc:title>
      </cc:Work>
    </rdf:RDF>
  </metadata>
  <g
     inkscape:label="Layer 1"
     inkscape:groupmode="layer"
     id="layer1">
    <path
       sodipodi:nodetypes="ccsccccccsccccscc"
       inkscape:connector-curvature="0"
       id="path1882"
       d="m 74.043213,155.94189 c -1.438501,-0.0585 1.404302,10.1852 0.253662,11.7046 -1.841025,2.43103 -2.443336,3.86505 -2.675781,7.49609 -0.232445,3.63104 2.155014,7.59522 3.511718,9.88672 0.460109,3.36117 -0.412109,9.30273 -0.412109,9.30273 l -3.591808,8.21137 c 0,0 8.678571,0.32857 23.436645,0.27873 14.75808,-0.0498 37.3702,1.2359 37.3702,1.2359 0,0 -1.73837,-2.45677 -1.50019,-11.97991 -0.34776,-5.71455 3.59537,-12.84808 5.08203,-15.52937 1.48666,-2.68129 -5.78711,-21.41984 -5.78711,-21.41984 l -4.97266,-0.91016 c 0,0 -5.71289,10.19336 -8.82988,14.09732 -3.94021,2.58007 -13.50801,7.8401 -13.50801,7.8401 0,0 -9.373346,-3.27796 -12.722654,-7.07227 -5.094851,-5.77176 -9.000182,-14.51757 -9.863282,-14.55265 z"
       style="fill:#821438;fill-opacity:1;stroke:#000000;stroke-width:0;stroke-linecap:butt;stroke-linejoin:miter;stroke-miterlimit:4;stroke-dasharray:none;stroke-opacity:1" />
    <path
       inkscape:connector-curvature="0"
       id="path16178"
       d="m 103.18898,193.34204 c -0.0178,0.001 -0.0375,0.006 -0.059,0.0144 -0.17164,0.0672 -0.46607,0.37265 -0.60708,0.60456 -0.14101,0.2319 -0.12876,0.39075 -0.1165,0.54947 -0.13491,0.32968 -0.26976,0.65927 -0.20846,0.98898 0.0613,0.32972 0.31875,0.6592 0.68675,0.89122 0.368,0.23203 0.84618,0.36629 1.30007,0.36018 0.45389,-0.006 0.8832,-0.15258 1.50873,-0.33574 0.62552,-0.18316 1.44697,-0.40283 2.09709,-0.53104 0.65012,-0.12822 1.12847,-0.16484 1.45339,-0.0245 0.32492,0.14041 0.49677,0.45804 0.3803,0.76323 -0.11647,0.30518 -0.52137,0.5982 -0.99965,0.79967 -0.47828,0.20147 -1.03024,0.3114 -1.5208,0.32973 -0.34473,0.0129 -0.65457,-0.0198 -0.88556,-0.0529 -0.0823,-0.0398 -0.16838,-0.0766 -0.26238,-0.10697 -0.98117,-0.31733 -2.62769,-0.0891 -3.6185,-0.0773 -0.9908,0.0118 -1.32593,-0.19297 -1.69344,-0.3115 -0.17086,-0.0551 -0.34876,-0.0912 -0.53041,-0.11779 -0.15381,-0.24348 -0.31348,-0.48049 -0.5127,-0.67367 -0.23607,-0.22891 -0.52727,-0.39667 -0.56402,-0.502 -0.0368,-0.10533 0.18071,-0.14817 0.39841,-0.19091 -0.35261,-0.30525 -0.70518,-0.61049 -0.97188,-0.80429 -0.26669,-0.19378 -0.44765,-0.27618 -0.44308,-0.35255 0.005,-0.0764 0.19463,-0.14654 0.38473,-0.21675 -0.48139,-0.1801 -0.96279,-0.36023 -1.35822,-0.4411 -0.39542,-0.0809 -0.70481,-0.0625 -0.81995,-0.11599 -0.11515,-0.0535 -0.0357,-0.17853 0.0441,-0.30368 -0.35261,0.006 -0.70509,0.0122 -1.13124,0.0595 -0.42615,0.0473 -0.92614,0.13587 -1.329034,0.26823 -0.4029,0.13235 -0.70906,0.30866 -0.86222,0.39683 -0.0264,0.0152 -0.0409,0.0248 -0.0571,0.0354 -0.0318,0.0178 -0.0643,0.0349 -0.096,0.0527 l 0.22275,0.8155 -0.43483,0.43008 -0.10665,0.0445 c -0.10654,0.0445 -0.31967,0.13363 -0.56864,0.27323 -0.24896,0.13961 -0.53385,0.32991 -0.81855,0.52003 -0.0224,0.18699 -0.0448,0.37387 -0.0127,0.54507 0.0321,0.17121 0.12628,0.33966 0.23542,0.41947 0.10914,0.0798 0.24779,0.0971 0.50345,0.0172 0.25566,-0.0799 0.62803,-0.25688 0.84994,-0.20713 0.22191,0.0497 0.29353,0.32619 0.15997,0.52543 -0.13356,0.19925 -0.47234,0.32135 -0.71111,0.38582 -0.23876,0.0645 -0.3775,0.0713 -0.37406,0.20273 0.003,0.13141 0.14912,0.38742 0.45435,0.43509 0.30523,0.0477 0.76929,-0.11299 1.23366,-0.27364 0.2006,0.49642 0.40128,0.9927 0.846934,1.34195 0.44564,0.34925 1.13608,0.55123 1.82664,0.7532 0.16421,0.27869 0.3284,0.55651 0.49298,0.8159 -0.3765,0.38048 -0.96765,0.96955 -0.96765,0.96955 -0.65911,0.23311 -1.31804,0.46613 -1.825444,0.59535 -0.5074,0.12922 -0.88031,0.15575 -1.17088,0.15145 -0.29057,-0.004 -0.50718,-0.039 -0.70668,0.0517 -0.19949,0.0906 -0.38166,0.3065 -0.46843,0.46194 -0.0868,0.15544 -0.0781,0.25038 -0.0694,0.34535 h 1.95141 c 0.3122,-0.0691 0.62439,-0.13821 1.053574,-0.19431 0.17072,-0.0223 0.36335,-0.0421 0.5638,-0.0611 0.0961,0.15244 0.15926,0.29918 0.22034,0.44551 0.32317,-0.15262 0.64589,-0.30485 0.84008,-0.41185 0.19419,-0.107 0.25903,-0.16815 0.33281,-0.14063 0.0738,0.0275 0.15675,0.14362 0.23985,0.25961 0.15697,-0.11599 0.31412,-0.232 0.40646,-0.35416 0.0924,-0.12215 0.11994,-0.25042 0.20303,-0.26562 0.0831,-0.0152 0.22168,0.0824 0.36018,0.18008 0.0831,-0.18314 0.16611,-0.36628 0.20766,-0.54947 0.0252,-0.11136 0.0343,-0.22263 0.0382,-0.33394 0.26393,0.0813 0.57876,0.11722 0.90065,0.12841 0.12758,0.29201 0.25641,0.65505 0.30384,1.03845 0.0782,0.6326 -0.0653,1.31757 -0.20886,2.00241 -0.16073,0.0811 -0.32129,0.16189 -0.52176,0.21634 -0.20047,0.0545 -0.43885,0.082 -0.54348,0.22476 -0.10465,0.14271 -0.0728,0.39723 -0.0406,0.65324 l 1.9995,-0.0256 c 0.21885,-0.60382 0.43692,-1.20617 0.62417,-1.75039 0.001,2.7e-4 0.002,2.7e-4 0.003,0.001 0.0965,0.0346 0.20901,0.12304 0.32174,0.21153 0.0585,-0.16188 0.11726,-0.3239 0.13784,-0.46854 0.0205,-0.14465 0.003,-0.27191 -0.0153,-0.41226 -0.0184,-0.14035 -0.0378,-0.2934 0.0316,-0.34515 0.0694,-0.0518 0.22746,-0.002 0.38574,0.0475 -0.026,-0.21584 -0.0519,-0.43176 -0.11047,-0.63681 -0.0585,-0.20505 -0.14964,-0.39914 -0.0867,-0.48117 0.0629,-0.082 0.27959,-0.0519 0.49641,-0.0216 -0.004,-0.12519 -0.009,-0.25046 -0.15816,-0.52023 -0.0465,-0.0838 -0.11018,-0.18474 -0.18029,-0.29207 0.0528,-0.0397 0.10474,-0.0798 0.15634,-0.12019 0.82389,0.0259 1.64791,0.0518 2.47619,0.0561 0.15237,10e-4 0.30409,-2.7e-4 0.45576,-0.002 0.0192,0.0831 0.0396,0.166 0.0624,0.24759 0.15178,0.54399 0.38587,1.02749 0.45093,1.48938 0.0651,0.46189 -0.039,0.90221 -0.15172,1.24759 -0.11274,0.34538 -0.23414,0.59577 -0.35555,0.84615 -0.28619,0.009 -0.57233,0.0172 -0.79199,0.16787 -0.21966,0.15058 -0.37275,0.44303 -0.52578,0.73557 l 2.25424,0.003 c 0.33822,-0.50939 0.67666,-1.01891 0.95417,-1.26923 0.2775,-0.25032 0.49429,-0.2418 0.7111,-0.23317 -0.026,-0.22447 -0.0521,-0.44902 -0.13441,-0.65184 -0.0824,-0.20282 -0.22123,-0.3842 -0.20384,-0.47916 0.0174,-0.095 0.19076,-0.10355 0.36421,-0.11218 -0.0347,-0.25038 -0.0693,-0.50076 -0.17768,-0.72516 -0.10837,-0.2244 -0.29065,-0.42306 -0.31229,-0.51803 -0.0216,-0.095 0.11699,-0.0864 0.25575,-0.0777 -0.0163,-0.10688 -0.0348,-0.2169 -0.0579,-0.33313 0.4507,0.25091 0.93867,0.46023 1.34413,0.60777 0.61219,0.22276 1.03443,0.30676 1.389,0.55889 0.35458,0.25214 0.64155,0.67246 0.77268,1.10536 0.13113,0.43291 0.10542,0.89542 0.0801,1.34936 -0.21954,0.0252 -0.43895,0.0504 -0.60788,0.18069 -0.16894,0.1303 -0.28724,0.36558 -0.40546,0.60096 l 1.97596,-0.0252 c 0.22798,-0.34465 0.4561,-0.68941 0.5785,-0.98778 0.1224,-0.29837 0.13922,-0.55052 0.10121,-0.79847 -0.038,-0.24796 -0.13558,-0.50377 -0.0994,-0.6276 0.0362,-0.12383 0.21343,-0.14164 0.38231,-0.15846 -0.23643,-0.28581 -0.47291,-0.57148 -0.70929,-0.74799 -0.23639,-0.17652 -0.47273,-0.24381 -0.49379,-0.29848 -0.0211,-0.0547 0.17282,-0.0968 0.36703,-0.13882 -0.12666,-0.20175 -0.25317,-0.40343 -0.47266,-0.58833 -0.2195,-0.18491 -0.53205,-0.35304 -0.77268,-0.44552 -0.24063,-0.0925 -0.40953,-0.10937 -0.40103,-0.14303 0.009,-0.0337 0.19414,-0.084 0.3799,-0.13441 -0.18576,-0.15131 -0.37161,-0.30264 -0.57428,-0.49178 -0.20266,-0.18915 -0.42206,-0.41607 -0.56139,-0.69352 -0.13933,-0.27743 -0.19852,-0.60539 -0.48977,-0.99198 -0.21787,-0.28921 -0.56592,-0.61144 -0.99783,-0.84695 0.37838,-0.085 0.75187,-0.14538 1.13809,-0.24278 0.45998,-0.11602 0.93818,-0.28679 1.28779,-0.53106 0.34961,-0.24426 0.57024,-0.56174 0.66221,-0.91585 0.092,-0.35412 0.0552,-0.7448 -0.10424,-1.05609 -0.15943,-0.3113 -0.44153,-0.54328 -0.81553,-0.65926 -0.374,-0.11597 -0.84011,-0.11613 -1.3061,-0.0673 -0.46599,0.0488 -0.944,0.14902 -1.45319,0.30649 -0.50919,0.15747 -1.07356,0.37733 -1.56406,0.52384 -0.49052,0.1465 -0.90757,0.21982 -1.25098,0.20151 -0.3434,-0.0183 -0.61315,-0.12819 -0.8278,-0.2564 -0.21466,-0.12822 -0.37398,-0.27467 -0.44147,-0.44571 -0.0675,-0.17104 -0.043,-0.36634 -0.0185,-0.5617 0.11038,-0.061 0.23023,-0.12723 0.35435,-0.22235 0.12412,-0.0951 0.27121,-0.22949 0.33864,-0.41267 0.0674,-0.18317 0.0552,-0.41508 0.0246,-0.61658 -0.0268,-0.17631 -0.0678,-0.32922 -0.19256,-0.31971 z m -10.115384,11.0951 a 1.8157871,1.1172118 0 0 0 -1.81579,1.11719 1.8157871,1.1172118 0 0 0 1.81579,1.11718 1.8157871,1.1172118 0 0 0 1.815774,-1.11718 1.8157871,1.1172118 0 0 0 -1.815774,-1.11719 z"
       style="fill:#e2c322;fill-opacity:1;stroke:#000000;stroke-width:0;stroke-linecap:butt;stroke-linejoin:miter;stroke-miterlimit:4;stroke-dasharray:none;stroke-opacity:1" />
    <path
       sodipodi:nodetypes="ccccccccscccccscc"
       inkscape:connector-curvature="0"
       id="path2784"
       d="m 124.75781,154.21875 c -0.85269,1.50988 -5.98523,10.53455 -8.83008,14.09766 -3.94021,2.58007 -13.50781,7.83984 -13.50781,7.83984 0,0 -9.373346,-3.27796 -12.722654,-7.07227 -4.35318,-4.93155 -8.402579,-12.56742 -9.863282,-14.55273 -1.791088,0.10168 -2.823552,0.82646 -4.273437,1.04102 l -1.517578,0.36914 c -1.438501,-0.0585 1.404546,10.18567 0.253906,11.70507 -1.841025,2.43103 -2.443336,3.86506 -2.675781,7.4961 -0.232445,3.63104 1.05016,7.52617 2.406864,9.81767 0.443874,0.7497 0.05384,-1.34929 0,0 8.929089,2.48501 17.967017,3.73815 27.470402,3.66483 11.22116,0.0615 19.78206,0.10489 28.68233,-2.43099 0,0 0.78625,0.44893 0.98728,0.26489 1.1535,-4.13495 3.32963,-8.07055 4.34961,-9.91015 1.42678,-2.57329 -5.24971,-20.02534 -5.78711,-21.41992 -1.68073,-0.41961 -3.00217,-0.76907 -4.97266,-0.91016 z"
       style="fill:#356bbd;fill-opacity:1;stroke:#000000;stroke-width:0;stroke-linecap:butt;stroke-linejoin:miter;stroke-miterlimit:4;stroke-dasharray:none;stroke-opacity:1" />
    <path
       sodipodi:nodetypes="cccccccsccccscsccccccccccccccccsccscccscsc"
       inkscape:connector-curvature="0"
       id="path1888"
       d="m 83.453125,153.61719 -3.619141,0.91406 c 0.750675,1.93979 1.276871,3.10314 2.039063,5.16016 0.897537,2.42227 2.262548,5.05747 4.964844,7.85742 2.702297,2.79994 6.738222,5.763 9.472659,7.63476 2.73443,1.87176 4.16732,2.65235 5.59961,3.4336 1.08828,-0.40549 2.17711,-0.81103 4.68359,-2.35742 2.50649,-1.5464 6.43153,-4.23345 9.05273,-6.31836 2.62119,-2.0849 3.90687,-3.53175 5.19727,-6.47266 1.23603,-2.81702 2.46814,-6.97247 3.91406,-9.25 -1.13198,-0.20173 -2.18367,-0.39237 -3.36914,-0.60156 -1.02409,3.64583 -2.04785,7.29315 -3.56836,9.94531 -1.5205,2.65216 -3.65979,4.56684 -6.30084,6.49364 -2.64105,1.9268 -9.60624,5.40664 -9.60624,5.40664 0,0 -5.11436,-2.84332 -8.084009,-4.98403 -2.969656,-2.14071 -4.924019,-3.81671 -7.266721,-7.10766 -2.342701,-3.29094 -2.726278,-6.52225 -3.109375,-9.7539 z m 46.277345,1.51172 c -0.11763,1.49515 -0.20213,3.00177 -0.18359,4.54297 0.0325,2.70251 0.35841,5.49978 1.1289,7.79882 0.77049,2.29905 1.98409,4.09712 3.19922,5.89453 -1.15003,2.30415 -2.29855,4.60589 -3.28125,7.41993 -0.98269,2.81404 -1.79456,6.1316 -0.58398,10.08789 0.12111,0.39582 0.27294,0.80009 0.42578,1.20507 0.27275,-1.96653 0.65818,-3.97349 1.30664,-6.07226 1.23728,-4.00455 3.40104,-8.33268 5.56445,-12.66211 -1.74023,-3.58073 -3.48053,-7.1603 -4.26953,-10.10742 -0.78899,-2.94712 -0.62565,-5.25716 -0.46289,-7.56836 -0.88021,-0.17022 -1.89516,-0.35929 -2.84375,-0.53906 z m -55.687257,0.81298 -2.058594,0.51953 c 0.358073,1.98568 0.716726,3.97202 0.716797,6.10352 7.1e-5,2.1315 0.270846,4.30167 -0.51001,6.38428 -0.780857,2.08262 -1.986979,3.97135 -3.191406,5.85937 1.692708,3.54818 3.386196,7.09636 4.378906,10.85547 0.739452,2.8001 1.089627,5.71981 1.341797,8.66797 l 0.285156,-0.91992 c 0.439268,-1.41541 0.440397,-1.41614 0.515625,-2.63672 0.07523,-1.22059 0.224834,-3.66022 -0.287109,-6.51367 -0.511943,-2.85346 -1.68537,-6.12139 -2.859375,-9.38867 1.431333,-2.45816 2.86363,-4.91751 3.162109,-8.59571 0.236652,-2.91631 -0.871554,-6.49326 -1.493896,-10.33545 z"
       style="fill:#e2c322;fill-opacity:1;stroke:#000000;stroke-width:0;stroke-linecap:butt;stroke-linejoin:miter;stroke-miterlimit:4;stroke-dasharray:none;stroke-opacity:1" />
    <path
       id="path2601"
       d="m 83.452295,153.61708 -3.619141,0.91406 -5.791015,1.41016 c -0.04941,-0.002 -0.09317,0.0117 -0.132813,0.0332 l -1.925781,0.48633 c 0.358073,1.98568 0.716726,3.97201 0.716797,6.10351 7.1e-5,2.1315 0.27109,4.30216 -0.509766,6.38477 -0.780857,2.08262 -1.986979,3.97135 -3.191406,5.85937 1.692708,3.54818 3.386196,7.09636 4.378906,10.85547 0.739452,2.8001 1.089627,5.71981 1.341797,8.66797 l -1.398437,2.93555 0.113281,0.002 -2.306641,5.27344 c 0,0 8.679426,0.32914 23.437504,0.2793 14.75808,-0.0498 37.36914,1.23632 37.36914,1.23632 0,0 -0.94431,-1.36457 -1.34375,-5.9082 l 0.17578,0.002 -0.33399,-3.77539 c -0.007,-0.73508 -0.0191,-1.45632 0.002,-2.29883 0.27275,-1.96653 0.65818,-3.97349 1.30664,-6.07226 1.23728,-4.00455 3.40104,-8.33268 5.56445,-12.66211 -1.74023,-3.58073 -3.48053,-7.1603 -4.26953,-10.10742 -0.78899,-2.94712 -0.62565,-5.25716 -0.46289,-7.56836 -0.88021,-0.17022 -1.89516,-0.35929 -2.84375,-0.53906 l -4.97266,-0.91016 c -1.13198,-0.20173 -2.18367,-0.39237 -3.36914,-0.60156 -1.02409,3.64583 -2.04785,7.29315 -3.56836,9.94531 -1.5205,2.65216 -3.65973,4.56734 -6.30078,6.49414 -2.64105,1.9268 -9.60547,5.40625 -9.60547,5.40625 0,0 -5.11433,-2.84366 -8.083982,-4.98437 -2.969656,-2.14071 -4.924876,-3.81648 -7.267578,-7.10743 -2.342701,-3.29094 -2.726278,-6.52225 -3.109375,-9.7539 z m -8.003906,32.25976 c 0.172974,0.70457 0.200956,1.58833 0.164062,2.51563 -0.0064,-5.6e-4 -0.01309,-0.001 -0.01953,-0.002 -0.0036,-0.74967 -0.04768,-1.59361 -0.144531,-2.51367 z"
       style="fill:url(#radialGradient2609);fill-opacity:1;stroke:#000000;stroke-width:0;stroke-linecap:butt;stroke-linejoin:miter;stroke-miterlimit:4;stroke-dasharray:none;stroke-opacity:1"
       inkscape:connector-curvature="0" />
  </g>
</svg>
