<?xml version="1.0" encoding="UTF-8" standalone="no"?>
<!-- Created with Inkscape (http://www.inkscape.org/) -->

<svg
   xmlns:dc="http://purl.org/dc/elements/1.1/"
   xmlns:cc="http://creativecommons.org/ns#"
   xmlns:rdf="http://www.w3.org/1999/02/22-rdf-syntax-ns#"
   xmlns:svg="http://www.w3.org/2000/svg"
   xmlns="http://www.w3.org/2000/svg"
   xmlns:xlink="http://www.w3.org/1999/xlink"
   xmlns:sodipodi="http://sodipodi.sourceforge.net/DTD/sodipodi-0.dtd"
   xmlns:inkscape="http://www.inkscape.org/namespaces/inkscape"
   width="200px"
   height="200px"
   viewBox="0 0 200 200"
   version="1.1"
   id="SVGRoot"
   sodipodi:docname="jumper-fre.svg"
   inkscape:version="0.92.4 (5da689c313, 2019-01-14)">
  <defs
     id="defs909">
    <inkscape:path-effect
       effect="bspline"
       id="path-effect6857"
       is_visible="true"
       weight="33.333333"
       steps="2"
       helper_size="0"
       apply_no_weight="true"
       apply_with_weight="true"
       only_selected="false" />
    <inkscape:path-effect
       effect="bspline"
       id="path-effect6853"
       is_visible="true"
       weight="33.333333"
       steps="2"
       helper_size="0"
       apply_no_weight="true"
       apply_with_weight="true"
       only_selected="false" />
    <inkscape:path-effect
       effect="bspline"
       id="path-effect6849"
       is_visible="true"
       weight="33.333333"
       steps="2"
       helper_size="0"
       apply_no_weight="true"
       apply_with_weight="true"
       only_selected="false" />
    <inkscape:path-effect
       effect="bspline"
       id="path-effect4558"
       is_visible="true"
       weight="33.333333"
       steps="2"
       helper_size="0"
       apply_no_weight="true"
       apply_with_weight="true"
       only_selected="false" />
    <inkscape:path-effect
       effect="bspline"
       id="path-effect4553"
       is_visible="true"
       weight="33.333333"
       steps="2"
       helper_size="0"
       apply_no_weight="true"
       apply_with_weight="true"
       only_selected="false" />
    <inkscape:path-effect
       effect="bspline"
       id="path-effect4549"
       is_visible="true"
       weight="33.333333"
       steps="2"
       helper_size="0"
       apply_no_weight="true"
       apply_with_weight="true"
       only_selected="false" />
    <inkscape:path-effect
       effect="bspline"
       id="path-effect4545"
       is_visible="true"
       weight="33.333333"
       steps="2"
       helper_size="0"
       apply_no_weight="true"
       apply_with_weight="true"
       only_selected="false" />
    <inkscape:path-effect
       effect="bspline"
       id="path-effect4541"
       is_visible="true"
       weight="33.333333"
       steps="2"
       helper_size="0"
       apply_no_weight="true"
       apply_with_weight="true"
       only_selected="false" />
    <inkscape:path-effect
       effect="bspline"
       id="path-effect4537"
       is_visible="true"
       weight="33.333333"
       steps="2"
       helper_size="0"
       apply_no_weight="true"
       apply_with_weight="true"
       only_selected="false" />
    <inkscape:path-effect
       effect="bspline"
       id="path-effect4533"
       is_visible="true"
       weight="33.333333"
       steps="2"
       helper_size="0"
       apply_no_weight="true"
       apply_with_weight="true"
       only_selected="false" />
    <inkscape:path-effect
       effect="bspline"
       id="path-effect2786"
       is_visible="true"
       weight="33.333333"
       steps="2"
       helper_size="0"
       apply_no_weight="true"
       apply_with_weight="true"
       only_selected="false" />
    <inkscape:path-effect
       effect="bspline"
       id="path-effect2782"
       is_visible="true"
       weight="33.333333"
       steps="2"
       helper_size="0"
       apply_no_weight="true"
       apply_with_weight="true"
       only_selected="false" />
    <linearGradient
       inkscape:collect="always"
       id="linearGradient2607">
      <stop
         style="stop-color:#ffffff;stop-opacity:0.19607843"
         offset="0"
         id="stop2603" />
      <stop
         style="stop-color:#ffffff;stop-opacity:0"
         offset="1"
         id="stop2605" />
    </linearGradient>
    <inkscape:path-effect
       effect="bspline"
       id="path-effect1868"
       is_visible="true"
       weight="33.333333"
       steps="2"
       helper_size="0"
       apply_no_weight="true"
       apply_with_weight="true"
       only_selected="false" />
    <inkscape:path-effect
       effect="bspline"
       id="path-effect1853"
       is_visible="true"
       weight="33.333333"
       steps="2"
       helper_size="0"
       apply_no_weight="true"
       apply_with_weight="true"
       only_selected="false" />
    <radialGradient
       inkscape:collect="always"
       xlink:href="#linearGradient2607"
       id="radialGradient2609"
       cx="95.480751"
       cy="183.02492"
       fx="95.480751"
       fy="183.02492"
       r="34.153321"
       gradientTransform="matrix(1.1989405,0.44929185,-0.25913179,0.69149617,22.431755,9.516139)"
       gradientUnits="userSpaceOnUse" />
  </defs>
  <sodipodi:namedview
     id="base"
     pagecolor="#ffffff"
     bordercolor="#666666"
     borderopacity="1.0"
     inkscape:pageopacity="0.0"
     inkscape:pageshadow="2"
     inkscape:zoom="5.12"
     inkscape:cx="97.521749"
     inkscape:cy="19.479404"
     inkscape:document-units="px"
     inkscape:current-layer="layer1"
     showgrid="false"
     inkscape:window-width="1920"
     inkscape:window-height="1001"
     inkscape:window-x="-9"
     inkscape:window-y="-9"
     inkscape:window-maximized="1"
     showguides="true" />
  <metadata
     id="metadata912">
    <rdf:RDF>
      <cc:Work
         rdf:about="">
        <dc:format>image/svg+xml</dc:format>
        <dc:type
           rdf:resource="http://purl.org/dc/dcmitype/StillImage" />
        <dc:title></dc:title>
      </cc:Work>
    </rdf:RDF>
  </metadata>
  <g
     inkscape:label="Layer 1"
     inkscape:groupmode="layer"
     id="layer1">
    <path
       sodipodi:nodetypes="ccsccccccsccccscc"
       inkscape:connector-curvature="0"
       id="path1882"
       d="m 74.043213,155.94189 c -1.438501,-0.0585 1.404302,10.1852 0.253662,11.7046 -1.841025,2.43103 -2.443336,3.86505 -2.675781,7.49609 -0.232445,3.63104 2.155014,7.59522 3.511718,9.88672 0.460109,3.36117 -0.412109,9.30273 -0.412109,9.30273 l -3.591808,8.21137 c 0,0 8.678571,0.32857 23.436645,0.27873 14.75808,-0.0498 37.3702,1.2359 37.3702,1.2359 0,0 -1.73837,-2.45677 -1.50019,-11.97991 -0.34776,-5.71455 3.59537,-12.84808 5.08203,-15.52937 1.48666,-2.68129 -5.78711,-21.41984 -5.78711,-21.41984 l -4.97266,-0.91016 c 0,0 -5.71289,10.19336 -8.82988,14.09732 -3.94021,2.58007 -13.50801,7.8401 -13.50801,7.8401 0,0 -9.373346,-3.27796 -12.722654,-7.07227 -5.094851,-5.77176 -9.000182,-14.51757 -9.863282,-14.55265 z"
       style="fill:#4e1e6b;fill-opacity:1;stroke:#000000;stroke-width:0;stroke-linecap:butt;stroke-linejoin:miter;stroke-miterlimit:4;stroke-dasharray:none;stroke-opacity:1" />
    <path
       style="fill:#f7f7f7;fill-opacity:1;stroke:#000000;stroke-width:0;stroke-linecap:butt;stroke-linejoin:miter;stroke-miterlimit:4;stroke-dasharray:none;stroke-opacity:1"
       d="M 132.95312 162.87695 C 127.27612 166.20248 121.61956 169.53675 116.52148 173.14453 C 111.23124 176.88831 106.54297 180.92448 101.85547 184.96094 C 97.265624 181.51041 92.676429 178.06056 87.728516 174.88672 C 82.950694 171.82198 77.838065 169.01469 72.714844 166.2168 C 72.66321 167.13715 72.528033 168.05141 72.191406 168.94922 C 72.181453 168.97576 72.168294 169.00086 72.158203 169.02734 C 77.044065 171.89984 81.927601 174.79923 86.767578 178.1582 C 91.92684 181.73877 97.037757 185.83984 102.14844 189.94141 C 107.61719 184.99349 113.08763 180.04467 118.47852 176.06445 C 123.70893 172.20271 128.91274 169.2279 134.09375 166.28906 C 133.67159 165.22462 133.29236 164.18976 133.03711 163.23633 C 133.00419 163.11337 132.9828 162.99774 132.95312 162.87695 z M 135.49805 169.53906 C 128.82004 172.83499 122.17837 176.15484 116.7168 180.30273 C 111.07041 184.591 106.68521 189.76022 102.29883 194.92969 C 98.03052 191.09525 93.760696 187.26262 88.289062 183.29688 C 83.173137 179.58894 77.000165 175.76411 70.763672 171.93359 C 70.211309 172.90825 69.605847 173.85889 69 174.80859 C 75.232881 178.51014 81.465548 182.21147 86.761719 185.98047 C 92.05789 189.74947 96.418543 193.58604 98.892578 195.80664 C 101.36661 198.02724 101.95472 198.6318 102.54297 199.23633 C 103.27443 198.33652 104.00598 197.43558 106.38867 194.68555 C 108.77137 191.93552 112.80604 187.33608 118.23438 183.4707 C 123.66271 179.60533 130.48414 176.47472 137.30664 173.34375 C 136.68384 172.06227 136.07725 170.79131 135.49805 169.53906 z M 135.3457 177.33203 C 130.05392 180.33743 124.77332 183.41183 119.44922 187.70312 C 114.16385 191.9632 108.86627 197.40503 103.56836 202.92969 C 105.08386 202.96254 106.57991 202.99618 108.10742 203.04102 C 112.25759 198.7669 116.29273 194.76092 119.92383 191.70117 C 124.70148 187.67526 128.79123 185.25418 132.81445 182.99023 C 133.54387 181.14437 134.42126 179.24627 135.3457 177.33203 z M 70.601562 178.24414 C 71.2613 179.69756 71.886029 181.16219 72.423828 182.65234 C 76.398166 185.4426 80.437018 188.36013 85.039062 192.41602 C 88.425294 195.40037 92.127051 199.02068 95.923828 202.83203 C 97.499993 202.83468 99.106622 202.84228 100.79883 202.86914 C 95.675306 197.93973 90.573788 193.0836 85.742188 189.11328 C 80.48286 184.79148 75.541005 181.51426 70.601562 178.24414 z "
       id="path6847" />
    <path
       sodipodi:nodetypes="cccccccsccccscsccccccccccccccccsccscccscsc"
       inkscape:connector-curvature="0"
       id="path1888"
       d="m 83.453125,153.61719 -3.619141,0.91406 c 0.750675,1.93979 1.276871,3.10314 2.039063,5.16016 0.897537,2.42227 2.262548,5.05747 4.964844,7.85742 2.702297,2.79994 6.738222,5.763 9.472659,7.63476 2.73443,1.87176 4.16732,2.65235 5.59961,3.4336 1.08828,-0.40549 2.17711,-0.81103 4.68359,-2.35742 2.50649,-1.5464 6.43153,-4.23345 9.05273,-6.31836 2.62119,-2.0849 3.90687,-3.53175 5.19727,-6.47266 1.23603,-2.81702 2.46814,-6.97247 3.91406,-9.25 -1.13198,-0.20173 -2.18367,-0.39237 -3.36914,-0.60156 -1.02409,3.64583 -2.04785,7.29315 -3.56836,9.94531 -1.5205,2.65216 -3.65979,4.56684 -6.30084,6.49364 -2.64105,1.9268 -9.60624,5.40664 -9.60624,5.40664 0,0 -5.11436,-2.84332 -8.084009,-4.98403 -2.969656,-2.14071 -4.924019,-3.81671 -7.266721,-7.10766 -2.342701,-3.29094 -2.726278,-6.52225 -3.109375,-9.7539 z m 46.277345,1.51172 c -0.11763,1.49515 -0.20213,3.00177 -0.18359,4.54297 0.0325,2.70251 0.35841,5.49978 1.1289,7.79882 0.77049,2.29905 1.98409,4.09712 3.19922,5.89453 -1.15003,2.30415 -2.29855,4.60589 -3.28125,7.41993 -0.98269,2.81404 -1.79456,6.1316 -0.58398,10.08789 0.12111,0.39582 0.27294,0.80009 0.42578,1.20507 0.27275,-1.96653 0.65818,-3.97349 1.30664,-6.07226 1.23728,-4.00455 3.40104,-8.33268 5.56445,-12.66211 -1.74023,-3.58073 -3.48053,-7.1603 -4.26953,-10.10742 -0.78899,-2.94712 -0.62565,-5.25716 -0.46289,-7.56836 -0.88021,-0.17022 -1.89516,-0.35929 -2.84375,-0.53906 z m -55.687257,0.81298 -2.058594,0.51953 c 0.358073,1.98568 0.716726,3.97202 0.716797,6.10352 7.1e-5,2.1315 0.270846,4.30167 -0.51001,6.38428 -0.780857,2.08262 -1.986979,3.97135 -3.191406,5.85937 1.692708,3.54818 3.386196,7.09636 4.378906,10.85547 0.739452,2.8001 1.089627,5.71981 1.341797,8.66797 l 0.285156,-0.91992 c 0.439268,-1.41541 0.440397,-1.41614 0.515625,-2.63672 0.07523,-1.22059 0.224834,-3.66022 -0.287109,-6.51367 -0.511943,-2.85346 -1.68537,-6.12139 -2.859375,-9.38867 1.431333,-2.45816 2.86363,-4.91751 3.162109,-8.59571 0.236652,-2.91631 -0.871554,-6.49326 -1.493896,-10.33545 z"
       style="fill:#4e1e6b;fill-opacity:1;stroke:#000000;stroke-width:0;stroke-linecap:butt;stroke-linejoin:miter;stroke-miterlimit:4;stroke-dasharray:none;stroke-opacity:1" />
    <path
       id="path2601"
       d="m 83.452295,153.61708 -3.619141,0.91406 -5.791015,1.41016 c -0.04941,-0.002 -0.09317,0.0117 -0.132813,0.0332 l -1.925781,0.48633 c 0.358073,1.98568 0.716726,3.97201 0.716797,6.10351 7.1e-5,2.1315 0.27109,4.30216 -0.509766,6.38477 -0.780857,2.08262 -1.986979,3.97135 -3.191406,5.85937 1.692708,3.54818 3.386196,7.09636 4.378906,10.85547 0.739452,2.8001 1.089627,5.71981 1.341797,8.66797 l -1.398437,2.93555 0.113281,0.002 -2.306641,5.27344 c 0,0 8.679426,0.32914 23.437504,0.2793 14.75808,-0.0498 37.36914,1.23632 37.36914,1.23632 0,0 -0.94431,-1.36457 -1.34375,-5.9082 l 0.17578,0.002 -0.33399,-3.77539 c -0.007,-0.73508 -0.0191,-1.45632 0.002,-2.29883 0.27275,-1.96653 0.65818,-3.97349 1.30664,-6.07226 1.23728,-4.00455 3.40104,-8.33268 5.56445,-12.66211 -1.74023,-3.58073 -3.48053,-7.1603 -4.26953,-10.10742 -0.78899,-2.94712 -0.62565,-5.25716 -0.46289,-7.56836 -0.88021,-0.17022 -1.89516,-0.35929 -2.84375,-0.53906 l -4.97266,-0.91016 c -1.13198,-0.20173 -2.18367,-0.39237 -3.36914,-0.60156 -1.02409,3.64583 -2.04785,7.29315 -3.56836,9.94531 -1.5205,2.65216 -3.65973,4.56734 -6.30078,6.49414 -2.64105,1.9268 -9.60547,5.40625 -9.60547,5.40625 0,0 -5.11433,-2.84366 -8.083982,-4.98437 -2.969656,-2.14071 -4.924876,-3.81648 -7.267578,-7.10743 -2.342701,-3.29094 -2.726278,-6.52225 -3.109375,-9.7539 z m -8.003906,32.25976 c 0.172974,0.70457 0.200956,1.58833 0.164062,2.51563 -0.0064,-5.6e-4 -0.01309,-0.001 -0.01953,-0.002 -0.0036,-0.74967 -0.04768,-1.59361 -0.144531,-2.51367 z"
       style="fill:url(#radialGradient2609);fill-opacity:1;stroke:#000000;stroke-width:0;stroke-linecap:butt;stroke-linejoin:miter;stroke-miterlimit:4;stroke-dasharray:none;stroke-opacity:1"
       inkscape:connector-curvature="0" />
  </g>
</svg>
