<?xml version="1.0" encoding="UTF-8" standalone="no"?>
<!-- Created with Inkscape (http://www.inkscape.org/) -->

<svg
   xmlns:dc="http://purl.org/dc/elements/1.1/"
   xmlns:cc="http://creativecommons.org/ns#"
   xmlns:rdf="http://www.w3.org/1999/02/22-rdf-syntax-ns#"
   xmlns:svg="http://www.w3.org/2000/svg"
   xmlns="http://www.w3.org/2000/svg"
   xmlns:sodipodi="http://sodipodi.sourceforge.net/DTD/sodipodi-0.dtd"
   xmlns:inkscape="http://www.inkscape.org/namespaces/inkscape"
   width="200px"
   height="200px"
   viewBox="0 0 200 200"
   version="1.1"
   id="SVGRoot"
   sodipodi:docname="nose-5.svg"
   inkscape:version="0.92.4 (5da689c313, 2019-01-14)">
  <defs
     id="defs909">
    <inkscape:path-effect
       effect="bspline"
       id="path-effect56117"
       is_visible="true"
       weight="33.333333"
       steps="2"
       helper_size="0"
       apply_no_weight="true"
       apply_with_weight="true"
       only_selected="false" />
    <inkscape:path-effect
       effect="bspline"
       id="path-effect13267"
       is_visible="true"
       weight="33.333333"
       steps="2"
       helper_size="0"
       apply_no_weight="true"
       apply_with_weight="true"
       only_selected="false" />
    <inkscape:path-effect
       effect="bspline"
       id="path-effect13263"
       is_visible="true"
       weight="33.333333"
       steps="2"
       helper_size="0"
       apply_no_weight="true"
       apply_with_weight="true"
       only_selected="false" />
    <inkscape:path-effect
       effect="bspline"
       id="path-effect13256"
       is_visible="true"
       weight="33.333333"
       steps="2"
       helper_size="0"
       apply_no_weight="true"
       apply_with_weight="true"
       only_selected="false" />
    <inkscape:path-effect
       effect="bspline"
       id="path-effect13252"
       is_visible="true"
       weight="33.333333"
       steps="2"
       helper_size="0"
       apply_no_weight="true"
       apply_with_weight="true"
       only_selected="false" />
    <inkscape:path-effect
       effect="bspline"
       id="path-effect13238"
       is_visible="true"
       weight="33.333333"
       steps="2"
       helper_size="0"
       apply_no_weight="true"
       apply_with_weight="true"
       only_selected="false" />
    <inkscape:path-effect
       effect="bspline"
       id="path-effect13234"
       is_visible="true"
       weight="33.333333"
       steps="2"
       helper_size="0"
       apply_no_weight="true"
       apply_with_weight="true"
       only_selected="false" />
    <inkscape:path-effect
       effect="bspline"
       id="path-effect13230"
       is_visible="true"
       weight="33.333333"
       steps="2"
       helper_size="0"
       apply_no_weight="true"
       apply_with_weight="true"
       only_selected="false" />
    <inkscape:path-effect
       effect="bspline"
       id="path-effect13224"
       is_visible="true"
       weight="33.333333"
       steps="2"
       helper_size="0"
       apply_no_weight="true"
       apply_with_weight="true"
       only_selected="false" />
    <inkscape:path-effect
       effect="bspline"
       id="path-effect13220"
       is_visible="true"
       weight="33.333333"
       steps="2"
       helper_size="0"
       apply_no_weight="true"
       apply_with_weight="true"
       only_selected="false" />
    <inkscape:path-effect
       effect="bspline"
       id="path-effect13216"
       is_visible="true"
       weight="33.333333"
       steps="2"
       helper_size="0"
       apply_no_weight="true"
       apply_with_weight="true"
       only_selected="false" />
    <inkscape:path-effect
       effect="bspline"
       id="path-effect13212"
       is_visible="true"
       weight="33.333333"
       steps="2"
       helper_size="0"
       apply_no_weight="true"
       apply_with_weight="true"
       only_selected="false" />
    <inkscape:path-effect
       effect="bspline"
       id="path-effect13208"
       is_visible="true"
       weight="33.333333"
       steps="2"
       helper_size="0"
       apply_no_weight="true"
       apply_with_weight="true"
       only_selected="false" />
    <inkscape:path-effect
       effect="bspline"
       id="path-effect13204"
       is_visible="true"
       weight="33.333333"
       steps="2"
       helper_size="0"
       apply_no_weight="true"
       apply_with_weight="true"
       only_selected="false" />
    <inkscape:path-effect
       effect="bspline"
       id="path-effect13200"
       is_visible="true"
       weight="33.333333"
       steps="2"
       helper_size="0"
       apply_no_weight="true"
       apply_with_weight="true"
       only_selected="false" />
    <inkscape:path-effect
       effect="bspline"
       id="path-effect13196"
       is_visible="true"
       weight="33.333333"
       steps="2"
       helper_size="0"
       apply_no_weight="true"
       apply_with_weight="true"
       only_selected="false" />
    <inkscape:path-effect
       effect="bspline"
       id="path-effect13192"
       is_visible="true"
       weight="33.333333"
       steps="2"
       helper_size="0"
       apply_no_weight="true"
       apply_with_weight="true"
       only_selected="false" />
    <inkscape:path-effect
       effect="bspline"
       id="path-effect13188"
       is_visible="true"
       weight="33.333333"
       steps="2"
       helper_size="0"
       apply_no_weight="true"
       apply_with_weight="true"
       only_selected="false" />
    <inkscape:path-effect
       effect="bspline"
       id="path-effect12641"
       is_visible="true"
       weight="33.333333"
       steps="2"
       helper_size="0"
       apply_no_weight="true"
       apply_with_weight="true"
       only_selected="false" />
    <inkscape:path-effect
       effect="bspline"
       id="path-effect12637"
       is_visible="true"
       weight="33.333333"
       steps="2"
       helper_size="0"
       apply_no_weight="true"
       apply_with_weight="true"
       only_selected="false" />
    <inkscape:path-effect
       effect="bspline"
       id="path-effect12527"
       is_visible="true"
       weight="33.333333"
       steps="2"
       helper_size="0"
       apply_no_weight="true"
       apply_with_weight="true"
       only_selected="false" />
    <inkscape:path-effect
       effect="bspline"
       id="path-effect12520"
       is_visible="true"
       weight="33.333333"
       steps="2"
       helper_size="0"
       apply_no_weight="true"
       apply_with_weight="true"
       only_selected="false" />
    <inkscape:path-effect
       effect="bspline"
       id="path-effect1868"
       is_visible="true"
       weight="33.333333"
       steps="2"
       helper_size="0"
       apply_no_weight="true"
       apply_with_weight="true"
       only_selected="false" />
    <inkscape:path-effect
       effect="bspline"
       id="path-effect1853"
       is_visible="true"
       weight="33.333333"
       steps="2"
       helper_size="0"
       apply_no_weight="true"
       apply_with_weight="true"
       only_selected="false" />
  </defs>
  <sodipodi:namedview
     id="base"
     pagecolor="#ffffff"
     bordercolor="#666666"
     borderopacity="1.0"
     inkscape:pageopacity="0.0"
     inkscape:pageshadow="2"
     inkscape:zoom="20.48"
     inkscape:cx="84.614326"
     inkscape:cy="89.09681"
     inkscape:document-units="px"
     inkscape:current-layer="layer1"
     showgrid="false"
     inkscape:window-width="1920"
     inkscape:window-height="1001"
     inkscape:window-x="-9"
     inkscape:window-y="-9"
     inkscape:window-maximized="1"
     showguides="false" />
  <metadata
     id="metadata912">
    <rdf:RDF>
      <cc:Work
         rdf:about="">
        <dc:format>image/svg+xml</dc:format>
        <dc:type
           rdf:resource="http://purl.org/dc/dcmitype/StillImage" />
        <dc:title />
      </cc:Work>
    </rdf:RDF>
  </metadata>
  <g
     inkscape:label="Layer 1"
     inkscape:groupmode="layer"
     id="layer1">
    <path
       style="fill:#dec2a8;stroke:#000000;stroke-width:0;stroke-linecap:butt;stroke-linejoin:miter;stroke-opacity:1;fill-opacity:1;stroke-miterlimit:4;stroke-dasharray:none"
       d="m 106.34214,100.61456 c 0.069,0.2586 0.20707,0.7765 0.3856,1.24305 0.17853,0.46654 0.39691,0.88031 0.47182,1.58245 0.0749,0.70213 0.006,1.69102 -0.0344,2.52004 -0.0403,0.82902 -0.0518,1.49582 0.34612,1.99156 0.39793,0.49574 1.20232,0.8175 1.78335,1.06488 0.58104,0.24738 0.93805,0.42013 1.23683,0.73032 0.29879,0.3102 0.54076,0.75958 0.61572,1.2658 0.075,0.50623 -0.017,1.06973 -0.21249,1.42692 -0.19544,0.35719 -0.49407,0.5065 -1.06547,0.66239 -0.5714,0.15588 -1.40818,0.31636 -2.17399,0.62714 -0.76582,0.31078 -1.45541,0.77051 -2.07157,1.07584 -0.61616,0.30533 -1.15617,0.4547 -1.73254,0.44902 -0.57636,-0.006 -1.18499,-0.16645 -1.62863,-0.41422 -0.44363,-0.24778 -0.71953,-0.58116 -1.21387,-0.81119 -0.49433,-0.23004 -1.208101,-0.35667 -1.852819,-0.42004 -0.644718,-0.0634 -1.219519,-0.0634 -1.75558,-0.28239 -0.536062,-0.21902 -1.030084,-0.6556 -1.260249,-1.08778 -0.230165,-0.43217 -0.195643,-0.85795 -0.08047,-1.22015 0.115176,-0.36219 0.311324,-0.66218 0.714773,-0.97629 0.40345,-0.31411 1.019016,-0.64618 1.570948,-0.97392 0.551932,-0.32775 1.044551,-0.6536 1.232307,-1.04582 0.187757,-0.39223 0.0724,-0.85366 -0.0311,-1.29645 -0.103503,-0.44279 -0.195715,-0.86927 -0.06327,-1.40408 0.132448,-0.53482 0.489848,-1.18045 0.783108,-1.71523 0.29326,-0.53477 0.52386,-0.96138 0.65588,-1.45541 0.13201,-0.49403 0.16664,-1.05953 0.33946,-1.48505 0.17283,-0.42551 0.48416,-0.713774 0.8174,-0.92621 0.33325,-0.212437 0.69122,-0.351005 1.19643,-0.448548 0.50522,-0.09754 1.16345,-0.155282 1.68047,0.02853 0.51703,0.18381 0.89744,0.610336 1.08736,0.82328 0.18993,0.21295 0.1899,0.21295 0.25886,0.47156 z"
       id="path56115"
       inkscape:connector-curvature="0"
       inkscape:path-effect="#path-effect56117"
       inkscape:original-d="m 106.27318,100.35595 c 0.1391,0.5169 0.27721,1.0348 0.41432,1.5537 0.21996,0.41387 0.43834,0.82764 0.65601,1.24296 -0.0681,0.98965 -0.13711,1.97853 -0.20716,2.9693 -0.0105,0.66723 -0.022,1.33403 -0.0345,2.00255 0.80785,0.32174 1.61224,0.64349 2.41687,0.96674 0.35754,0.17153 0.71455,0.34427 1.07033,0.5179 0.2424,0.44732 0.48437,0.8967 0.72506,1.34654 -0.0911,0.56339 -0.18315,1.12688 -0.27622,1.69181 -0.29883,0.14892 -0.59746,0.29823 -0.89769,0.44885 -0.84252,0.16077 -1.6793,0.32125 -2.52045,0.48337 -0.69048,0.45999 -1.38007,0.91972 -2.0716,1.38107 -0.54082,0.14887 -1.08084,0.29823 -1.62276,0.44885 -0.61031,-0.16248 -1.21894,-0.32325 -1.82991,-0.48338 -0.27553,-0.33513 -0.55143,-0.66851 -0.82864,-1.00127 -0.71234,-0.12756 -1.426107,-0.2542 -2.140659,-0.37979 -0.575088,-0.001 -1.149889,-0.001 -1.726334,0 -0.494743,-0.4391 -0.988766,-0.87568 -1.484648,-1.31202 0.03553,-0.42688 0.07005,-0.85266 0.10358,-1.27749 0.196157,-0.29947 0.392302,-0.59946 0.586953,-0.89769 0.611816,-0.3305 1.227381,-0.66257 1.839571,-0.99236 0.491708,-0.32559 0.984328,-0.65144 1.474993,-0.97566 -0.113819,-0.46028 -0.229178,-0.92171 -0.345267,-1.38107 -0.09093,-0.42618 -0.183143,-0.85266 -0.276214,-1.27749 0.357148,-0.64436 0.714555,-1.28999 1.070325,-1.93349 0.23076,-0.42605 0.46136,-0.85266 0.69054,-1.27749 0.0354,-0.56336 0.07,-1.12887 0.10358,-1.69181 0.31115,-0.28818 0.62248,-0.576443 0.93222,-0.863166 0.35658,-0.138646 0.71455,-0.277213 1.07033,-0.41432 0.65478,-0.05835 1.31301,-0.116089 1.96802,-0.172634 0.38017,0.424129 0.76058,0.850659 1.13938,1.27749 z" />
    <path
       style="fill:#000000;fill-opacity:1;stroke:#000000;stroke-width:0;stroke-linecap:butt;stroke-linejoin:miter;stroke-miterlimit:4;stroke-dasharray:none;stroke-opacity:1"
       d="m 96.135033,108.87028 c -0.300515,0.0812 -0.902729,0.24398 -1.505557,0.53712 -0.602827,0.29315 -1.203859,0.71549 -1.38333,1.32668 -0.17947,0.6112 0.06421,1.40722 0.439011,1.95298 0.374802,0.54577 0.87896,0.83851 1.595185,0.96048 0.716226,0.12197 1.644539,0.0731 2.270685,0.12198 0.626146,0.0489 0.952034,0.19553 1.211983,0.52033 0.259948,0.3248 0.455533,0.83006 1.075211,1.13881 0.619679,0.30875 1.692609,0.4243 2.465669,0.42416 0.77305,-1.3e-4 1.26173,-0.11416 1.6029,-0.48009 0.34117,-0.36594 0.53695,-0.98591 1.00044,-1.31083 0.46349,-0.32492 1.19733,-0.35755 1.99424,-0.39009 0.79691,-0.0325 1.66077,-0.0651 2.16482,-0.50466 0.50405,-0.4395 0.6507,-1.28687 0.60184,-1.94535 -0.0489,-0.65848 -0.29333,-1.13112 -0.57801,-1.63542 -0.28469,-0.5043 -0.61047,-1.04184 -1.24436,-1.2615 -0.63388,-0.21967 -1.57839,-0.12196 -2.1488,-0.40745 -0.57042,-0.28548 -0.76551,-0.95202 -0.69425,-1.62504 0.0713,-0.67302 0.40895,-1.35251 0.4411,-2.04391 0.0322,-0.69139 -0.24011,-1.39603 -0.51441,-2.00835 -0.2743,-0.61232 -0.55134,-1.13381 -0.70589,-1.64662 -0.15455,-0.5128 -0.18714,-1.017707 -0.27631,-1.042676 -0.0892,-0.02497 -0.23593,0.4316 -0.19523,0.888326 0.0407,0.45673 0.26796,0.91126 0.49849,1.53787 0.23052,0.62662 0.46329,1.42296 0.36797,2.08907 -0.0953,0.66611 -0.51943,1.20101 -0.6411,2.04804 -0.12168,0.84703 0.0606,2.00071 0.72713,2.55582 0.66652,0.55512 1.81416,0.50796 2.59916,0.76074 0.785,0.25277 1.20859,0.80669 1.33898,1.40034 0.1304,0.59364 -0.0323,1.22824 -0.50725,1.54992 -0.47493,0.32168 -1.29064,0.32937 -2.04232,0.3288 -0.75169,-5.7e-4 -1.44859,-0.009 -1.8934,0.19531 -0.44481,0.20458 -0.63305,0.62226 -0.78631,0.98371 -0.15327,0.36144 -0.27069,0.66474 -0.68551,0.8134 -0.41481,0.14865 -1.12039,0.13917 -1.60367,0.0367 -0.48328,-0.10249 -0.73866,-0.29759 -0.90496,-0.53736 -0.1663,-0.23978 -0.242911,-0.52321 -0.580597,-0.79231 -0.337687,-0.2691 -0.93659,-0.52453 -1.709624,-0.57638 -0.773035,-0.0519 -1.718222,0.10042 -2.428103,-0.11665 -0.70988,-0.21708 -1.181339,-0.80234 -1.311186,-1.28298 -0.129847,-0.48064 0.08178,-0.85506 0.544759,-1.27727 0.462976,-0.42222 1.18139,-0.89572 1.506886,-1.13135 0.325495,-0.23562 0.260287,-0.23562 0.227235,-0.23562 -0.03305,0 -0.033,1.1e-4 -0.333517,0.0813 z"
       id="path13265"
       inkscape:connector-curvature="0"
       inkscape:path-effect="#path-effect13267"
       inkscape:original-d="m 96.435548,108.78906 c -0.601214,0.16176 -1.203428,0.32452 -1.806641,0.48828 -0.602397,0.42301 -1.203427,0.84536 -1.806641,1.26953 0.245603,0.79804 0.489282,1.59406 0.732422,2.39258 0.505959,0.2922 1.010115,0.58494 1.513672,0.87891 0.928158,-0.0498 1.856469,-0.0987 2.783203,-0.14649 0.326153,0.14532 0.652042,0.29197 0.976563,0.43946 0.196038,0.50285 0.391625,1.00811 0.585937,1.51367 1.043767,0.11305 2.116887,0.22686 3.173827,0.3418 0.48888,-0.11484 0.97756,-0.22887 1.46485,-0.3418 0.19584,-0.61801 0.39162,-1.23798 0.58593,-1.85547 0.73201,-0.0335 1.46585,-0.0661 2.19727,-0.0977 0.8624,-0.0335 1.72626,-0.0661 2.58789,-0.0977 0.14731,-0.84634 0.29397,-1.69371 0.43945,-2.53906 -0.24281,-0.47237 -0.48728,-0.94501 -0.73242,-1.41602 -0.32426,-0.53768 -0.65004,-1.07522 -0.97656,-1.61133 -0.94251,0.0966 -1.88702,0.19431 -2.83203,0.29297 -0.19454,-0.66909 -0.38963,-1.33563 -0.58594,-2.00195 0.33804,-0.67917 0.67573,-1.35866 1.0121,-2.03649 -0.27126,-0.70563 -0.54353,-1.41027 -0.81679,-2.1139 -0.27534,-0.52118 -0.55238,-1.04267 -0.83008,-1.5625 -0.0315,-0.50521 -0.0641,-1.010118 -0.0977,-1.513675 -0.14522,0.453888 -0.29197,0.910458 -0.43946,1.367185 0.22947,0.45593 0.45673,0.91046 0.6836,1.36719 0.23417,0.79675 0.46694,1.59309 0.69891,2.39114 -0.42367,0.53462 -0.84778,1.06952 -1.27401,1.60684 0.18388,1.15646 0.36617,2.31014 0.54793,3.46781 1.15011,-0.0482 2.29775,-0.0954 3.44514,-0.14157 0.42377,0.55185 0.84735,1.10577 1.26953,1.66016 -0.16181,0.63393 -0.32452,1.26853 -0.48828,1.90429 -0.78681,0.006 -1.60252,0.0141 -2.40688,0.0227 -0.69898,-0.01 -1.39589,-0.0184 -2.09716,-0.0262 -0.1879,0.41814 -0.37614,0.83582 -0.56571,1.25523 -0.11688,0.30348 -0.23431,0.60678 -0.35365,0.91344 -0.71081,-0.0106 -1.41639,-0.0201 -2.12719,-0.0286 -0.25492,-0.19652 -0.5103,-0.39162 -0.76695,-0.58594 -0.0756,-0.28444 -0.152225,-0.56787 -0.229839,-0.8503 -0.598428,-0.25666 -1.197334,-0.51208 -1.798263,-0.76695 -0.945786,0.15154 -1.890973,0.30382 -2.837955,0.45723 -0.47155,-0.58762 -0.943011,-1.17288 -1.416016,-1.75782 0.212546,-0.37527 0.424177,-0.74969 0.634766,-1.12304 0.714876,-0.47151 1.433291,-0.94501 2.148437,-1.41602 -0.064,-0.001 -0.129208,-0.001 -0.195312,0 z"
       transform="translate(2.3102397,0.1953125)"
       sodipodi:nodetypes="cccccccccccccccccccccccccccccccccccccccccccc" />
  </g>
</svg>
