<?xml version="1.0" encoding="UTF-8" standalone="no"?>
<!-- Created with Inkscape (http://www.inkscape.org/) -->

<svg
   xmlns:dc="http://purl.org/dc/elements/1.1/"
   xmlns:cc="http://creativecommons.org/ns#"
   xmlns:rdf="http://www.w3.org/1999/02/22-rdf-syntax-ns#"
   xmlns:svg="http://www.w3.org/2000/svg"
   xmlns="http://www.w3.org/2000/svg"
   xmlns:sodipodi="http://sodipodi.sourceforge.net/DTD/sodipodi-0.dtd"
   xmlns:inkscape="http://www.inkscape.org/namespaces/inkscape"
   width="37.284027mm"
   height="52.702728mm"
   viewBox="0 0 37.284027 52.702728"
   version="1.1"
   id="svg8"
   inkscape:version="0.92.4 (5da689c313, 2019-01-14)"
   sodipodi:docname="checkmark.svg">
  <defs
     id="defs2" />
  <sodipodi:namedview
     id="base"
     pagecolor="#ffffff"
     bordercolor="#666666"
     borderopacity="1.0"
     inkscape:pageopacity="0.0"
     inkscape:pageshadow="2"
     inkscape:zoom="0.98994949"
     inkscape:cx="-234.60106"
     inkscape:cy="261.13057"
     inkscape:document-units="mm"
     inkscape:current-layer="layer1"
     showgrid="false"
     inkscape:window-width="1920"
     inkscape:window-height="1001"
     inkscape:window-x="-9"
     inkscape:window-y="-9"
     inkscape:window-maximized="1" />
  <metadata
     id="metadata5">
    <rdf:RDF>
      <cc:Work
         rdf:about="">
        <dc:format>image/svg+xml</dc:format>
        <dc:type
           rdf:resource="http://purl.org/dc/dcmitype/StillImage" />
        <dc:title></dc:title>
      </cc:Work>
    </rdf:RDF>
  </metadata>
  <g
     inkscape:label="Layer 1"
     inkscape:groupmode="layer"
     id="layer1"
     transform="translate(-57.117961,-58.344241)">
    <path
       style="fill:#3e0000;fill-opacity:0;stroke-width:0.29595473"
       id="path866"
       d="m 64.024614,92.545637 c 0.289731,0.64027 0.691895,1.551545 1.008813,2.113778 0.273554,0.485303 0.583448,0.946339 0.889272,1.409101 0.840059,1.271138 1.754499,2.484901 2.659692,3.702862 0.894396,1.205152 1.83527,2.369742 2.743427,3.562782 0.344649,0.53494 0.801848,0.96657 1.189375,1.46219 0.09359,0.15441 0.220477,0.27886 0.31866,0.42933 0.04562,0.0698 0.08484,0.18481 0.164382,0.22199 0.0086,-0.007 0.0232,-0.0107 0.02569,-0.0212 0.0071,-0.0317 0.02808,-0.11312 8.58e-4,-0.0981 -2.254418,1.24 -4.476527,2.54617 -6.725703,3.79699 -0.12974,0.0722 0.269482,-0.14168 0.365284,-0.2598 0.295295,-0.36414 0.551067,-0.76438 0.794323,-1.17011 0.389006,-0.64886 0.733653,-1.3269 1.100481,-1.99036 2.068913,-3.73806 3.996716,-7.565574 5.863275,-11.422832 0.778638,-1.609066 1.558928,-3.217664 2.299498,-4.847143 1.557732,-3.427487 2.502417,-5.817783 3.921504,-9.27749 2.1928,-5.383249 4.214325,-10.844564 6.051017,-16.377768 0.406142,-1.262005 0.224616,-0.681481 0.548932,-1.74001 0,0 6.542162,-3.178815 6.542162,-3.178815 v 0 c -0.700047,1.230673 -0.321245,0.558723 -1.133458,2.017749 -0.745471,1.397729 -1.196733,2.226753 -1.935512,3.695359 -2.289323,4.550914 -4.398838,9.202236 -6.514733,13.84686 -1.776646,3.966274 -2.417047,5.33936 -4.123388,9.381626 -0.654723,1.551023 -1.282842,3.114726 -1.926866,4.670859 -1.307225,3.158613 -1.97503,4.597627 -3.061737,7.746295 -0.308171,0.8929 -0.559834,1.80696 -0.839752,2.71043 -0.166478,0.56775 -0.357794,1.12785 -0.499436,1.70324 -0.08154,0.33126 -0.111931,0.67453 -0.168858,1.01163 -0.02342,0.13868 0.0416,0.34455 -0.07219,0.41569 -3.75589,2.34784 -5.274362,6.03562 -7.187691,3.68963 -0.153929,-0.23804 -0.256522,-0.5079 -0.412013,-0.74613 -0.353739,-0.52797 -0.715925,-1.05058 -1.044735,-1.59655 -0.740975,-1.29796 -1.396236,-2.64962 -2.123327,-3.95644 -0.75732,-1.31317 -1.530338,-2.6094 -2.424967,-3.82324 -0.329579,-0.447179 -0.659447,-0.896435 -1.028075,-1.307286 -0.729411,-0.812949 -0.996638,-0.973089 -1.75439,-1.548338 0,0 6.490187,-4.226599 6.490187,-4.226599 z"
       inkscape:connector-curvature="0" />
    <path
       id="path884"
       style="fill:#f47d33;fill-opacity:1;stroke-width:0.29162091"
       d="m 64.972108,96.160404 c 0.185977,0.381053 0.264242,0.56144 0.50836,0.947646 0.142544,0.225509 0.300269,0.438781 0.451545,0.657207 0.549889,0.793973 1.121655,1.567769 1.685546,2.349543 1.277458,1.79408 2.512726,3.62348 3.795496,5.41309 0.454112,0.66419 0.957035,1.28304 1.460186,1.90107 0.270836,0.33267 0.533367,0.66528 0.827183,0.97309 0.168667,0.10446 0.255074,0.33216 0.431737,0.42353 0.02801,0.0144 0.12282,0.0143 0.0919,0.0139 -7.553713,-0.0815 -7.266649,0.42173 -5.00487,-1.61398 1.150753,-2.04534 0.06044,-3.01678 1.094971,-5.13286 0.685782,-1.40272 1.404579,-2.785394 2.095904,-4.184783 0.77065,-1.559954 1.488292,-3.152418 2.289959,-4.693091 0.885418,-1.70163 1.846388,-3.353689 2.769582,-5.030533 2.456509,-3.999977 3.812543,-6.370424 6.54637,-10.164681 1.300665,-1.805182 5.441552,-7.015025 6.932146,-8.903227 l 3.285354,0.275533 v 0 c -1.243667,1.359057 -2.542481,2.658924 -3.731008,4.077168 -3.793723,4.526962 -7.038052,9.56506 -9.841078,14.896396 -0.780257,1.676442 -1.615376,3.322959 -2.340774,5.029332 -1.648696,3.878272 -2.933354,7.848466 -3.610388,12.074176 -0.11394,0.71115 -0.150172,1.43491 -0.226168,2.15224 -0.03972,0.37486 -0.08064,0.74954 -0.120953,1.12429 -0.01641,0.24784 0.174129,0.71905 -0.04924,0.7435 -7.239262,0.79229 -6.245515,2.27153 -7.970123,-0.52338 -0.560909,-0.9916 -1.120157,-1.98498 -1.719094,-2.94927 -0.02438,-0.0373 -1.147436,-1.75445 -1.150303,-1.7587 -0.842048,-1.24565 -1.748633,-2.43611 -2.654124,-3.62512 -0.597304,-0.785244 -1.198012,-1.567714 -1.82724,-2.322179 -0.30909,-0.370611 -0.72392,-0.852118 -1.070568,-1.1937 -0.123793,-0.121989 -0.258659,-0.229464 -0.387988,-0.344195 l 7.43768,-0.612052 z" />
  </g>
</svg>
