<?xml version="1.0" encoding="UTF-8" standalone="no"?>
<!-- Created with Inkscape (http://www.inkscape.org/) -->

<svg
   xmlns:dc="http://purl.org/dc/elements/1.1/"
   xmlns:cc="http://creativecommons.org/ns#"
   xmlns:rdf="http://www.w3.org/1999/02/22-rdf-syntax-ns#"
   xmlns:svg="http://www.w3.org/2000/svg"
   xmlns="http://www.w3.org/2000/svg"
   xmlns:xlink="http://www.w3.org/1999/xlink"
   xmlns:sodipodi="http://sodipodi.sourceforge.net/DTD/sodipodi-0.dtd"
   xmlns:inkscape="http://www.inkscape.org/namespaces/inkscape"
   width="149.67865mm"
   height="74.839294mm"
   viewBox="0 0 149.67865 74.839294"
   version="1.1"
   id="svg9653"
   inkscape:version="0.92.4 (5da689c313, 2019-01-14)"
   sodipodi:docname="brisbane-flag.svg">
  <defs
     id="defs9647">
    <inkscape:path-effect
       effect="bspline"
       id="path-effect16218"
       is_visible="true"
       weight="33.333333"
       steps="2"
       helper_size="0"
       apply_no_weight="true"
       apply_with_weight="true"
       only_selected="false" />
    <inkscape:path-effect
       effect="bspline"
       id="path-effect16214"
       is_visible="true"
       weight="33.333333"
       steps="2"
       helper_size="0"
       apply_no_weight="true"
       apply_with_weight="true"
       only_selected="false" />
    <inkscape:path-effect
       effect="bspline"
       id="path-effect16210"
       is_visible="true"
       weight="33.333333"
       steps="2"
       helper_size="0"
       apply_no_weight="true"
       apply_with_weight="true"
       only_selected="false" />
    <inkscape:path-effect
       effect="bspline"
       id="path-effect16206"
       is_visible="true"
       weight="33.333333"
       steps="2"
       helper_size="0"
       apply_no_weight="true"
       apply_with_weight="true"
       only_selected="false" />
    <inkscape:path-effect
       effect="bspline"
       id="path-effect16202"
       is_visible="true"
       weight="33.333333"
       steps="2"
       helper_size="0"
       apply_no_weight="true"
       apply_with_weight="true"
       only_selected="false" />
    <inkscape:path-effect
       effect="bspline"
       id="path-effect16196"
       is_visible="true"
       weight="33.333333"
       steps="2"
       helper_size="0"
       apply_no_weight="true"
       apply_with_weight="true"
       only_selected="false" />
    <inkscape:path-effect
       effect="bspline"
       id="path-effect16192"
       is_visible="true"
       weight="33.333333"
       steps="2"
       helper_size="0"
       apply_no_weight="true"
       apply_with_weight="true"
       only_selected="false" />
    <inkscape:path-effect
       effect="bspline"
       id="path-effect16188"
       is_visible="true"
       weight="33.333333"
       steps="2"
       helper_size="0"
       apply_no_weight="true"
       apply_with_weight="true"
       only_selected="false" />
    <inkscape:path-effect
       effect="bspline"
       id="path-effect16184"
       is_visible="true"
       weight="33.333333"
       steps="2"
       helper_size="0"
       apply_no_weight="true"
       apply_with_weight="true"
       only_selected="false" />
    <inkscape:path-effect
       effect="bspline"
       id="path-effect16180"
       is_visible="true"
       weight="33.333333"
       steps="2"
       helper_size="0"
       apply_no_weight="true"
       apply_with_weight="true"
       only_selected="false" />
    <linearGradient
       inkscape:collect="always"
       id="linearGradient10219">
      <stop
         style="stop-color:#ffffff;stop-opacity:0.19607843"
         offset="0"
         id="stop10215" />
      <stop
         style="stop-color:#000000;stop-opacity:0"
         offset="1"
         id="stop10217" />
    </linearGradient>
    <radialGradient
       inkscape:collect="always"
       xlink:href="#linearGradient10219"
       id="radialGradient10221"
       cx="87.036469"
       cy="197.31425"
       fx="87.036469"
       fy="197.31425"
       r="74.839287"
       gradientTransform="matrix(0.53850714,1.4538482,-1.6799039,0.62223852,358.1156,-81.015237)"
       gradientUnits="userSpaceOnUse" />
  </defs>
  <sodipodi:namedview
     id="base"
     pagecolor="#ffffff"
     bordercolor="#666666"
     borderopacity="1.0"
     inkscape:pageopacity="0.0"
     inkscape:pageshadow="2"
     inkscape:zoom="0.7"
     inkscape:cx="331.41865"
     inkscape:cy="211.55739"
     inkscape:document-units="mm"
     inkscape:current-layer="layer1"
     showgrid="false"
     inkscape:window-width="1920"
     inkscape:window-height="1001"
     inkscape:window-x="-9"
     inkscape:window-y="-9"
     inkscape:window-maximized="1" />
  <metadata
     id="metadata9650">
    <rdf:RDF>
      <cc:Work
         rdf:about="">
        <dc:format>image/svg+xml</dc:format>
        <dc:type
           rdf:resource="http://purl.org/dc/dcmitype/StillImage" />
        <dc:title />
      </cc:Work>
    </rdf:RDF>
  </metadata>
  <g
     inkscape:label="Layer 1"
     inkscape:groupmode="layer"
     id="layer1"
     transform="translate(-31.75,-139.00595)">
    <rect
       style="fill:#821438;fill-opacity:1;stroke:#caa165;stroke-width:0;stroke-linejoin:round;stroke-miterlimit:4;stroke-dasharray:none;stroke-opacity:1"
       id="rect9655"
       width="149.67857"
       height="74.839287"
       x="31.75"
       y="139.00595" />
    <rect
       style="fill:#356bbd;fill-opacity:1;stroke:#caa165;stroke-width:0;stroke-linejoin:round;stroke-miterlimit:4;stroke-dasharray:none;stroke-opacity:1"
       id="rect9663"
       width="149.67865"
       height="24.946442"
       x="31.75"
       y="139.00595" />
    <path
       style="fill:#e2c322;fill-opacity:1;stroke:#000000;stroke-width:0;stroke-linecap:butt;stroke-linejoin:miter;stroke-miterlimit:4;stroke-dasharray:none;stroke-opacity:1"
       d="m 110.78945,169.2146 c -0.0469,0.003 -0.0987,0.0158 -0.15516,0.038 -0.45174,0.17676 -1.22665,0.9808 -1.59778,1.59116 -0.37112,0.61035 -0.33891,1.02842 -0.30663,1.44618 -0.35507,0.86767 -0.70997,1.73513 -0.54864,2.60292 0.16132,0.86779 0.83893,1.73494 1.80747,2.34562 0.96855,0.61068 2.22709,0.96405 3.42168,0.94796 1.1946,-0.0161 2.32451,-0.40158 3.97086,-0.88363 1.64633,-0.48207 3.80831,-1.06022 5.51937,-1.39768 1.71106,-0.33746 2.97005,-0.43385 3.82522,-0.0644 0.85516,0.36954 1.30745,1.20553 1.00093,2.00874 -0.30655,0.80322 -1.37222,1.57444 -2.63101,2.10469 -1.25879,0.53024 -2.71153,0.81958 -4.00262,0.86781 -0.90731,0.0339 -1.72278,-0.0521 -2.33073,-0.13919 -0.21654,-0.10473 -0.44318,-0.20152 -0.69058,-0.28154 -2.58235,-0.8352 -6.91587,-0.23454 -9.5236,-0.20351 -2.60772,0.031 -3.48974,-0.50788 -4.457,-0.81984 -0.44969,-0.14502 -0.91793,-0.24014 -1.39601,-0.31 -0.40482,-0.64082 -0.82504,-1.26461 -1.34939,-1.77306 -0.62131,-0.60248 -1.387715,-1.044 -1.484437,-1.32123 -0.09674,-0.27722 0.475617,-0.38998 1.048577,-0.50245 -0.928039,-0.80339 -1.855989,-1.60678 -2.557909,-2.11682 -0.701908,-0.51002 -1.178202,-0.7269 -1.166151,-0.9279 0.01207,-0.20101 0.512237,-0.38569 1.012572,-0.57046 -1.266977,-0.47401 -2.533993,-0.94811 -3.574726,-1.16096 -1.040721,-0.21288 -1.855017,-0.16453 -2.158067,-0.30526 -0.303057,-0.14071 -0.09384,-0.46988 0.115974,-0.79927 -0.928038,0.016 -1.855752,0.0322 -2.977344,0.15658 -1.121593,0.12449 -2.437552,0.3576 -3.497932,0.70596 -1.060385,0.34834 -1.866175,0.81237 -2.269291,1.04443 -0.06946,0.04 -0.107749,0.0654 -0.150401,0.0933 -0.08358,0.0467 -0.16923,0.0918 -0.252613,0.13866 l 0.586254,2.14634 -1.144443,1.13195 -0.28068,0.11705 c -0.280426,0.11721 -0.841363,0.3517 -1.49662,0.71913 -0.655254,0.36744 -1.40505,0.8683 -2.154367,1.36868 -0.05902,0.49213 -0.117942,0.98398 -0.03336,1.43459 0.08458,0.4506 0.332375,0.89395 0.619617,1.104 0.287245,0.21005 0.652155,0.25558 1.325031,0.0453 0.672877,-0.21023 1.652933,-0.67608 2.236984,-0.54515 0.58405,0.13092 0.772547,0.85851 0.421023,1.3829 -0.351525,0.52441 -1.243157,0.84577 -1.871568,1.01545 -0.628409,0.16967 -0.993553,0.18769 -0.984505,0.53356 0.009,0.34585 0.392464,1.01966 1.195812,1.14513 0.803348,0.12545 2.02471,-0.29739 3.246909,-0.7202 0.527943,1.30654 1.056126,2.61269 2.229037,3.53189 1.172915,0.91921 2.990096,1.4508 4.807607,1.98238 0.432195,0.7335 0.864324,1.46468 1.297496,2.14739 -0.990935,1.00138 -2.546795,2.55178 -2.546795,2.55178 -1.734717,0.61352 -3.468989,1.22681 -4.804429,1.56691 -1.335441,0.34009 -2.316912,0.40993 -3.081679,0.39859 -0.764763,-0.0113 -1.334853,-0.10253 -1.859913,0.13601 -0.525063,0.23855 -1.004505,0.80668 -1.232883,1.21579 -0.228379,0.40911 -0.205535,0.65897 -0.182709,0.90893 h 5.135952 c 0.821706,-0.18178 1.643366,-0.36376 2.772925,-0.5114 0.449335,-0.0588 0.956328,-0.1107 1.483909,-0.16081 0.252956,0.40121 0.419161,0.78741 0.579901,1.17255 0.850579,-0.40168 1.69994,-0.80235 2.211031,-1.08398 0.511097,-0.2816 0.681757,-0.44253 0.875942,-0.37011 0.194185,0.0724 0.412553,0.378 0.631267,0.68328 0.41314,-0.30528 0.826725,-0.61063 1.06977,-0.93213 0.243046,-0.3215 0.315677,-0.65908 0.534358,-0.6991 0.218676,-0.04 0.583433,0.2169 0.94796,0.47397 0.218719,-0.48203 0.437192,-0.96404 0.546541,-1.44617 0.06647,-0.29308 0.0904,-0.58595 0.100616,-0.8789 0.694619,0.21399 1.523247,0.30851 2.370431,0.33796 0.335775,0.76855 0.674862,1.72404 0.799689,2.73313 0.205945,1.66495 -0.171823,3.46773 -0.549717,5.27017 -0.423018,0.21337 -0.845593,0.42608 -1.37322,0.5694 -0.527635,0.14332 -1.155019,0.21594 -1.43042,0.59155 -0.275406,0.3756 -0.191585,1.04548 -0.106979,1.71928 l 5.262533,-0.0674 c 0.57599,-1.58923 1.14995,-3.17457 1.64278,-4.60691 0.003,8.3e-4 0.005,8.3e-4 0.008,0.003 0.25393,0.091 0.55009,0.32384 0.84681,0.55675 0.15407,-0.42606 0.30862,-0.85248 0.36277,-1.23318 0.0541,-0.3807 0.008,-0.71565 -0.0402,-1.08503 -0.0484,-0.36938 -0.0996,-0.77219 0.0831,-0.90842 0.18274,-0.13623 0.59865,-0.006 1.01522,0.12496 -0.0685,-0.56808 -0.13665,-1.13637 -0.29075,-1.67605 -0.15409,-0.53968 -0.39383,-1.0505 -0.22825,-1.2664 0.16558,-0.2159 0.73586,-0.13647 1.3065,-0.0569 -0.0113,-0.32949 -0.0225,-0.65919 -0.41626,-1.3692 -0.12226,-0.22048 -0.28997,-0.48622 -0.4745,-0.7687 0.13885,-0.10447 0.27567,-0.2101 0.41147,-0.31633 2.1684,0.0682 4.33718,0.13626 6.51713,0.14761 0.40103,0.003 0.80036,-8.4e-4 1.19952,-0.004 0.0506,0.21866 0.10426,0.43691 0.16417,0.65165 0.39947,1.43173 1.01557,2.70427 1.18681,3.91993 0.17124,1.21565 -0.10258,2.37454 -0.39932,3.28356 -0.29672,0.90902 -0.61622,1.56803 -0.93577,2.227 -0.75324,0.0228 -1.50633,0.0454 -2.08447,0.44182 -0.57813,0.39633 -0.98103,1.16602 -1.38381,1.93597 l 5.93298,0.008 c 0.89018,-1.34069 1.78094,-2.68169 2.51132,-3.34052 0.73035,-0.65882 1.30092,-0.6364 1.87155,-0.61369 -0.0685,-0.59079 -0.137,-1.18178 -0.35376,-1.71558 -0.21676,-0.53381 -0.58226,-1.0112 -0.53648,-1.26114 0.0458,-0.24994 0.50206,-0.27252 0.95856,-0.29523 -0.0913,-0.65899 -0.1824,-1.31796 -0.46763,-1.90857 -0.28521,-0.5906 -0.76498,-1.11346 -0.82192,-1.36341 -0.0569,-0.24994 0.30791,-0.22728 0.6731,-0.20456 -0.0429,-0.28129 -0.0916,-0.57087 -0.15252,-0.87678 1.18623,0.66039 2.47052,1.2113 3.53767,1.59961 1.61122,0.58629 2.72253,0.80737 3.65574,1.47096 0.93321,0.6636 1.68851,1.76986 2.03363,2.90922 0.34511,1.13938 0.27744,2.35668 0.21077,3.55141 -0.57781,0.0664 -1.15526,0.13262 -1.59989,0.47556 -0.44462,0.34295 -0.75599,0.96219 -1.06712,1.58168 l 5.20057,-0.0664 c 0.60003,-0.90711 1.20041,-1.81447 1.52256,-2.59976 0.32214,-0.7853 0.36643,-1.44893 0.26638,-2.10153 -0.10002,-0.6526 -0.35684,-1.32588 -0.26161,-1.6518 0.0952,-0.32591 0.56173,-0.37278 1.00621,-0.41703 -0.62227,-0.75224 -1.24465,-1.50409 -1.8668,-1.96866 -0.62215,-0.46458 -1.24418,-0.64169 -1.29961,-0.78557 -0.0555,-0.14389 0.45483,-0.25474 0.96598,-0.36537 -0.33336,-0.53099 -0.66632,-1.0618 -1.244,-1.54845 -0.5777,-0.48666 -1.4003,-0.92917 -2.03363,-1.17257 -0.63333,-0.24338 -1.07785,-0.28784 -1.05547,-0.37643 0.0224,-0.0886 0.51094,-0.22102 0.99986,-0.35377 -0.48892,-0.39824 -0.97805,-0.79651 -1.51145,-1.29433 -0.5334,-0.49783 -1.11084,-1.09505 -1.47755,-1.82527 -0.36671,-0.7302 -0.5225,-1.59335 -1.28902,-2.61083 -0.57343,-0.76117 -1.48948,-1.60926 -2.62623,-2.22911 0.99587,-0.22362 1.97887,-0.38262 2.99536,-0.63899 1.21064,-0.30534 2.46922,-0.75479 3.38936,-1.39768 0.92016,-0.64289 1.50083,-1.47847 1.74289,-2.41047 0.24203,-0.932 0.14527,-1.96023 -0.27433,-2.77953 -0.41961,-0.81932 -1.1621,-1.42988 -2.14642,-1.73512 -0.98434,-0.30523 -2.21112,-0.30565 -3.43757,-0.17714 -1.22645,0.12851 -2.48453,0.3922 -3.82468,0.80666 -1.34015,0.41446 -2.82551,0.99311 -4.11649,1.3787 -1.29101,0.38558 -2.38865,0.57855 -3.29247,0.53037 -0.90381,-0.0481 -1.61378,-0.3374 -2.17872,-0.67484 -0.56495,-0.33744 -0.98427,-0.7229 -1.16192,-1.17307 -0.17765,-0.45017 -0.11328,-0.96418 -0.0488,-1.47835 0.29051,-0.16067 0.60593,-0.33485 0.93261,-0.58521 0.32667,-0.25037 0.71382,-0.60398 0.89129,-1.0861 0.17747,-0.48211 0.14534,-1.09247 0.0647,-1.6228 -0.0706,-0.46403 -0.17837,-0.86648 -0.50682,-0.84145 z m -26.622949,29.20146 a 4.779012,2.9404156 0 0 0 -4.779007,2.94035 4.779012,2.9404156 0 0 0 4.779007,2.94034 4.779012,2.9404156 0 0 0 4.779009,-2.94034 4.779012,2.9404156 0 0 0 -4.779009,-2.94035 z"
       id="path16178"
       inkscape:connector-curvature="0" />
    <rect
       style="fill:url(#radialGradient10221);fill-opacity:1;stroke:#caa165;stroke-width:0;stroke-linejoin:round;stroke-miterlimit:4;stroke-dasharray:none;stroke-opacity:1"
       id="rect10213"
       width="149.67857"
       height="74.839294"
       x="31.75"
       y="139.00595" />
  </g>
</svg>
