<?xml version="1.0" encoding="UTF-8" standalone="no"?>
<!-- Created with Inkscape (http://www.inkscape.org/) -->

<svg
   xmlns:dc="http://purl.org/dc/elements/1.1/"
   xmlns:cc="http://creativecommons.org/ns#"
   xmlns:rdf="http://www.w3.org/1999/02/22-rdf-syntax-ns#"
   xmlns:svg="http://www.w3.org/2000/svg"
   xmlns="http://www.w3.org/2000/svg"
   xmlns:xlink="http://www.w3.org/1999/xlink"
   xmlns:sodipodi="http://sodipodi.sourceforge.net/DTD/sodipodi-0.dtd"
   xmlns:inkscape="http://www.inkscape.org/namespaces/inkscape"
   width="149.67865mm"
   height="74.839294mm"
   viewBox="0 0 149.67865 74.839294"
   version="1.1"
   id="svg9653"
   inkscape:version="0.92.4 (5da689c313, 2019-01-14)"
   sodipodi:docname="flag-na.svg">
  <defs
     id="defs9647">
    <linearGradient
       inkscape:collect="always"
       id="linearGradient10219">
      <stop
         style="stop-color:#ffffff;stop-opacity:0.19607843"
         offset="0"
         id="stop10215" />
      <stop
         style="stop-color:#000000;stop-opacity:0"
         offset="1"
         id="stop10217" />
    </linearGradient>
    <radialGradient
       inkscape:collect="always"
       xlink:href="#linearGradient10219"
       id="radialGradient10221"
       cx="87.036469"
       cy="197.31425"
       fx="87.036469"
       fy="197.31425"
       r="74.839287"
       gradientTransform="matrix(0.53850714,1.4538482,-1.6799039,0.62223852,358.1156,-81.015237)"
       gradientUnits="userSpaceOnUse" />
  </defs>
  <sodipodi:namedview
     id="base"
     pagecolor="#ffffff"
     bordercolor="#666666"
     borderopacity="1.0"
     inkscape:pageopacity="0.0"
     inkscape:pageshadow="2"
     inkscape:zoom="0.98994949"
     inkscape:cx="39.086978"
     inkscape:cy="135.69914"
     inkscape:document-units="mm"
     inkscape:current-layer="layer1"
     showgrid="false"
     inkscape:window-width="1920"
     inkscape:window-height="1001"
     inkscape:window-x="-9"
     inkscape:window-y="-9"
     inkscape:window-maximized="1"
     showguides="false" />
  <metadata
     id="metadata9650">
    <rdf:RDF>
      <cc:Work
         rdf:about="">
        <dc:format>image/svg+xml</dc:format>
        <dc:type
           rdf:resource="http://purl.org/dc/dcmitype/StillImage" />
        <dc:title></dc:title>
      </cc:Work>
    </rdf:RDF>
  </metadata>
  <g
     inkscape:label="Layer 1"
     inkscape:groupmode="layer"
     id="layer1"
     transform="translate(-31.75,-139.00595)">
    <rect
       style="fill:#737373;fill-opacity:1;stroke:#caa165;stroke-width:0;stroke-linejoin:round;stroke-miterlimit:4;stroke-dasharray:none;stroke-opacity:1"
       id="rect9655"
       width="149.67857"
       height="74.839287"
       x="31.75"
       y="139.00595" />
    <path
       inkscape:connector-curvature="0"
       id="path6451"
       d="m 114.44171,146.59551 a 24.916767,33.977418 44.999999 0 0 -25.486598,12.15316 24.916767,33.977418 44.999999 0 0 -7.845764,39.99504 c 0.133582,-1.50436 0.31607,-3.08044 0.569599,-4.65892 0.837858,-5.21668 2.441294,-10.44677 5.202171,-15.38846 2.760883,-4.94168 6.679521,-9.59578 10.60698,-13.52623 3.927542,-3.93037 7.864032,-7.13792 12.148962,-9.86461 4.28492,-2.72669 8.919,-4.97312 13.17506,-6.27465 0.70435,-0.21533 1.3974,-0.40269 2.08277,-0.5706 a 24.916767,33.977418 44.999999 0 0 -10.45317,-1.86468 z m 12.77717,3.08184 c -0.50514,0.13121 -1.01449,0.27494 -1.53,0.43232 -4.25605,1.30153 -8.89014,3.54795 -13.17505,6.27465 -4.28493,2.72668 -8.22151,5.93417 -12.14896,9.86461 -3.927545,3.93037 -7.846107,8.58453 -10.606983,13.52623 -2.760881,4.9417 -4.364311,10.17178 -5.202177,15.38846 -0.354176,2.20512 -0.570462,4.4056 -0.706197,6.41054 a 24.916767,33.977418 44.999999 0 0 40.343037,-7.588 24.916767,33.977418 44.999999 0 0 6.40701,-41.64446 24.916767,33.977418 44.999999 0 0 -3.38067,-2.6643 z"
       style="fill:#adadad;fill-opacity:1;stroke:#f8a978;stroke-width:0;stroke-miterlimit:4;stroke-dasharray:none;stroke-opacity:1" />
    <text
       xml:space="preserve"
       style="font-style:normal;font-variant:normal;font-weight:normal;font-stretch:normal;font-size:35.27777481px;line-height:1.25;font-family:Lato;-inkscape-font-specification:Lato;letter-spacing:0px;word-spacing:0px;fill:#737373;fill-opacity:1;stroke:none;stroke-width:0.26458332"
       x="51.811428"
       y="189.12146"
       id="text17260"><tspan
         sodipodi:role="line"
         id="tspan17258"
         x="51.811428"
         y="221.92979"
         style="font-style:normal;font-variant:normal;font-weight:normal;font-stretch:normal;font-family:Lato;-inkscape-font-specification:Lato;fill:#737373;fill-opacity:1;stroke-width:0.26458332" /></text>
    <rect
       style="fill:url(#radialGradient10221);fill-opacity:1;stroke:#caa165;stroke-width:0;stroke-linejoin:round;stroke-miterlimit:4;stroke-dasharray:none;stroke-opacity:1"
       id="rect10213"
       width="149.67857"
       height="74.839294"
       x="31.75"
       y="139.00595" />
    <text
       xml:space="preserve"
       style="font-style:normal;font-variant:normal;font-weight:normal;font-stretch:normal;font-size:35.27777481px;line-height:1.25;font-family:Georgia;-inkscape-font-specification:Georgia;letter-spacing:0px;word-spacing:0px;fill:#000000;fill-opacity:1;stroke:none;stroke-width:0.26458332"
       x="98.273811"
       y="177.9375"
       id="text17336"><tspan
         sodipodi:role="line"
         id="tspan17334"
         x="98.273811"
         y="209.76582"
         style="stroke-width:0.26458332" /></text>
  </g>
</svg>
