<?xml version="1.0" encoding="UTF-8" standalone="no"?>
<!-- Created with Inkscape (http://www.inkscape.org/) -->

<svg
   xmlns:dc="http://purl.org/dc/elements/1.1/"
   xmlns:cc="http://creativecommons.org/ns#"
   xmlns:rdf="http://www.w3.org/1999/02/22-rdf-syntax-ns#"
   xmlns:svg="http://www.w3.org/2000/svg"
   xmlns="http://www.w3.org/2000/svg"
   xmlns:xlink="http://www.w3.org/1999/xlink"
   xmlns:sodipodi="http://sodipodi.sourceforge.net/DTD/sodipodi-0.dtd"
   xmlns:inkscape="http://www.inkscape.org/namespaces/inkscape"
   width="149.67865mm"
   height="74.839294mm"
   viewBox="0 0 149.67865 74.839294"
   version="1.1"
   id="svg9653"
   inkscape:version="0.92.4 (5da689c313, 2019-01-14)"
   sodipodi:docname="carlton-flag.svg">
  <defs
     id="defs9647">
    <linearGradient
       inkscape:collect="always"
       id="linearGradient10219">
      <stop
         style="stop-color:#ffffff;stop-opacity:0.19607843"
         offset="0"
         id="stop10215" />
      <stop
         style="stop-color:#000000;stop-opacity:0"
         offset="1"
         id="stop10217" />
    </linearGradient>
    <radialGradient
       inkscape:collect="always"
       xlink:href="#linearGradient10219"
       id="radialGradient10221"
       cx="87.036469"
       cy="197.31425"
       fx="87.036469"
       fy="197.31425"
       r="74.839287"
       gradientTransform="matrix(0.53850714,1.4538482,-1.6799039,0.62223852,358.1156,-81.015237)"
       gradientUnits="userSpaceOnUse" />
  </defs>
  <sodipodi:namedview
     id="base"
     pagecolor="#ffffff"
     bordercolor="#666666"
     borderopacity="1.0"
     inkscape:pageopacity="0.0"
     inkscape:pageshadow="2"
     inkscape:zoom="0.98994949"
     inkscape:cx="-9.6809142"
     inkscape:cy="149.89277"
     inkscape:document-units="mm"
     inkscape:current-layer="layer1"
     showgrid="false"
     inkscape:window-width="1920"
     inkscape:window-height="1001"
     inkscape:window-x="-9"
     inkscape:window-y="-9"
     inkscape:window-maximized="1" />
  <metadata
     id="metadata9650">
    <rdf:RDF>
      <cc:Work
         rdf:about="">
        <dc:format>image/svg+xml</dc:format>
        <dc:type
           rdf:resource="http://purl.org/dc/dcmitype/StillImage" />
        <dc:title />
      </cc:Work>
    </rdf:RDF>
  </metadata>
  <g
     inkscape:label="Layer 1"
     inkscape:groupmode="layer"
     id="layer1"
     transform="translate(-31.75,-139.00595)">
    <rect
       style="fill:#292558;fill-opacity:1;stroke:#caa165;stroke-width:0;stroke-linejoin:round;stroke-miterlimit:4;stroke-dasharray:none;stroke-opacity:1"
       id="rect9655"
       width="149.67857"
       height="74.839287"
       x="31.75"
       y="139.00595" />
    <path
       style="font-style:normal;font-variant:normal;font-weight:normal;font-stretch:normal;font-size:35.27777481px;line-height:1.25;font-family:Lato;-inkscape-font-specification:Lato;letter-spacing:0px;word-spacing:0px;fill:#f7f7f7;fill-opacity:1;stroke:none;stroke-width:0.26458332"
       d="m 102.48896,153.9928 v 3.00414 h 1.75638 v 3.18209 c -1.07726,0.21412 -2.11075,0.51666 -3.09522,0.91637 -2.104391,0.84495 -3.913661,2.04063 -5.428191,3.58704 -1.51452,1.54641 -2.694443,3.39577 -3.53939,5.54799 -0.829003,2.15222 -1.24285,4.51994 -1.24285,7.1026 0,2.58266 0.390216,4.94969 1.171389,7.10191 0.781176,2.15222 1.880921,4.00158 3.299791,5.54798 1.41887,1.53047 3.13291,2.72615 5.141651,3.58704 1.15379,0.48532 2.3865,0.82681 3.69282,1.03337 v 2.22228 h -1.8846 v 3.00414 h 2.0002 3.50996 2.1284 v -3.00414 h -2.1284 v -2.00019 c 2.56314,-0.0607 4.77415,-0.50748 6.6234,-1.35074 1.61089,-0.72874 3.0229,-1.69283 4.24419,-2.88294 l 1.23374,1.11744 2.01701,-2.22648 -4.27431,-3.87077 -2.01631,2.22648 0.241,0.21859 c -0.48189,0.40782 -0.96342,0.77238 -1.44532,1.08942 -0.58986,0.38262 -1.23567,0.70123 -1.93714,0.95631 -0.68552,0.25508 -1.43443,0.44624 -2.24749,0.57378 -0.72813,0.0999 -1.54442,0.1528 -2.43877,0.16324 v -2.29024 c 0.12343,0.003 0.24599,0.008 0.37132,0.008 1.83583,0 3.4067,-0.29611 4.71218,-0.88765 1.31568,-0.59155 2.42189,-1.44266 3.31941,-2.55436 l -1.62117,-1.75989 c -0.16319,-0.17339 -0.35711,-0.25992 -0.58149,-0.25992 -0.13259,0 -0.25492,0.0306 -0.36711,0.0918 -0.11219,0.051 -0.21959,0.12259 -0.32158,0.21438 -0.33657,0.30597 -0.6782,0.56558 -1.02496,0.77976 -0.33657,0.20398 -0.69836,0.37254 -1.08592,0.50512 -0.37737,0.13259 -0.7958,0.22956 -1.25476,0.29075 -0.44876,0.0612 -0.95373,0.0918 -1.51468,0.0918 -0.21392,0 -0.42367,-0.0114 -0.63124,-0.0294 v -6.52112 h 2.53195 v 2.76244 h 3.00414 v -2.76244 -3.00414 -2.76243 h -3.00414 v 2.76243 h -2.53195 v -6.00057 c 0.33398,-0.0422 0.67644,-0.0644 1.02917,-0.0644 0.88732,0 1.6168,0.0917 2.18795,0.27533 0.58135,0.18358 1.06025,0.38202 1.43762,0.5962 0.37736,0.21418 0.68841,0.41333 0.93319,0.59691 0.24477,0.18358 0.48493,0.27533 0.71951,0.27533 0.22438,0 0.39745,-0.0455 0.51984,-0.13731 0.13259,-0.0918 0.23997,-0.19919 0.32157,-0.32158 l 1.37666,-1.91261 c -0.87712,-0.86693 -1.93259,-1.55991 -3.16668,-2.08006 -1.22389,-0.53035 -2.65678,-0.79587 -4.29883,-0.79587 -0.3604,0 -0.71269,0.0156 -1.06,0.0413 v -2.16063 c 0.0876,-0.001 0.17376,-0.006 0.26203,-0.006 1.02031,0 1.92101,0.0802 2.70218,0.2396 0.78118,0.14348 1.46707,0.32677 2.05694,0.54996 0.58987,0.2232 1.09965,0.46233 1.53009,0.71741 0.43044,0.25508 0.80561,0.49421 1.12445,0.71741 0.22733,0.15913 0.40069,0.28243 0.57939,0.40914 l -0.3524,0.38953 2.22649,2.01631 3.87147,-4.27362 -2.22718,-2.017 -0.84492,0.93319 c -1.23696,-1.03398 -2.6147,-1.87811 -4.1377,-2.52704 -1.81742,-0.78117 -3.9854,-1.17209 -6.50429,-1.17209 -0.0965,0 -0.19063,0.005 -0.28655,0.006 v -2.81358 h 9.19318 v 2.76243 h 3.00414 v -5.76553 h -12.19732 -2.79256 z m 1.75638,10.37297 v 2.44997 c -1.35883,0.54901 -2.53133,1.3137 -3.51487,2.29724 -0.999507,0.99951 -1.774521,2.19295 -2.325271,3.58003 -0.55075,1.37687 -0.826,2.8963 -0.826,4.55875 0,1.64205 0.24467,3.15697 0.73422,4.54404 0.49976,1.38708 1.213604,2.58052 2.141711,3.58003 0.92812,0.99951 2.04545,1.77973 3.35094,2.34068 0.14419,0.0615 0.29116,0.11761 0.43927,0.17234 v 2.51653 c -0.46785,-0.12909 -0.92647,-0.28357 -1.37316,-0.47009 -1.45076,-0.60581 -2.71016,-1.48288 -3.778301,-2.63073 -1.05219,-1.16379 -1.88916,-2.58215 -2.51092,-4.2561 -0.60581,-1.67395 -0.90867,-3.57915 -0.90867,-5.71543 0,-2.07251 0.30286,-3.9462 0.90867,-5.62015 0.62176,-1.67395 1.48236,-3.09231 2.58238,-4.2561 1.100031,-1.16379 2.407391,-2.05661 3.921921,-2.67836 0.37673,-0.15697 0.763,-0.29432 1.15808,-0.41265 z m 0,6.72849 v 12.418 c -0.17409,-0.15391 -0.34181,-0.31722 -0.50092,-0.49252 -0.60175,-0.66294 -1.08065,-1.47896 -1.43762,-2.44787 -0.34677,-0.96891 -0.52054,-2.07582 -0.52054,-3.32011 0,-1.20349 0.17377,-2.28433 0.52054,-3.24304 0.35697,-0.96891 0.8463,-1.79014 1.46844,-2.46328 0.14997,-0.15964 0.30694,-0.30932 0.4701,-0.45118 z"
       id="text10278"
       inkscape:connector-curvature="0" />
    <rect
       style="fill:url(#radialGradient10221);fill-opacity:1;stroke:#caa165;stroke-width:0;stroke-linejoin:round;stroke-miterlimit:4;stroke-dasharray:none;stroke-opacity:1"
       id="rect10213"
       width="149.67857"
       height="74.839294"
       x="31.75"
       y="139.00595" />
  </g>
</svg>
