<?xml version="1.0" encoding="UTF-8" standalone="no"?>
<!-- Created with Inkscape (http://www.inkscape.org/) -->

<svg
   xmlns:dc="http://purl.org/dc/elements/1.1/"
   xmlns:cc="http://creativecommons.org/ns#"
   xmlns:rdf="http://www.w3.org/1999/02/22-rdf-syntax-ns#"
   xmlns:svg="http://www.w3.org/2000/svg"
   xmlns="http://www.w3.org/2000/svg"
   xmlns:sodipodi="http://sodipodi.sourceforge.net/DTD/sodipodi-0.dtd"
   xmlns:inkscape="http://www.inkscape.org/namespaces/inkscape"
   width="37.284027mm"
   height="52.702728mm"
   viewBox="0 0 37.284027 52.702728"
   version="1.1"
   id="svg8"
   inkscape:version="0.92.4 (5da689c313, 2019-01-14)"
   sodipodi:docname="lock-unlocked.svg">
  <defs
     id="defs2" />
  <sodipodi:namedview
     id="base"
     pagecolor="#ffffff"
     bordercolor="#666666"
     borderopacity="1.0"
     inkscape:pageopacity="0.0"
     inkscape:pageshadow="2"
     inkscape:zoom="1.979899"
     inkscape:cx="90.136295"
     inkscape:cy="76.903784"
     inkscape:document-units="mm"
     inkscape:current-layer="layer1"
     showgrid="false"
     inkscape:window-width="1920"
     inkscape:window-height="1001"
     inkscape:window-x="-9"
     inkscape:window-y="-9"
     inkscape:window-maximized="1" />
  <metadata
     id="metadata5">
    <rdf:RDF>
      <cc:Work
         rdf:about="">
        <dc:format>image/svg+xml</dc:format>
        <dc:type
           rdf:resource="http://purl.org/dc/dcmitype/StillImage" />
        <dc:title></dc:title>
      </cc:Work>
    </rdf:RDF>
  </metadata>
  <g
     inkscape:label="Layer 1"
     inkscape:groupmode="layer"
     id="layer1"
     transform="translate(-57.117961,-58.344241)">
    <path
       style="fill:#f47d33;fill-opacity:1;stroke-width:0.99999994"
       d="m 234.77734,312.88281 c -10.46929,0 -18.89843,3.37088 -18.89843,7.5586 v 91.70507 c 0,4.18772 8.42914,7.5586 18.89843,7.5586 h 103.1211 c 10.46929,0 18.89648,-3.37088 18.89648,-7.5586 v -91.70507 c 0,-4.18772 -8.42719,-7.5586 -18.89648,-7.5586 z m 52.99024,30.57617 a 12.500638,12.500638 0 0 1 12.5,12.50196 12.500638,12.500638 0 0 1 -8.83789,11.93945 v 20.01563 c 0,2.09385 -1.68545,3.77929 -3.7793,3.77929 h -0.26953 c -2.09385,0 -3.7793,-1.68544 -3.7793,-3.77929 v -20.18555 a 12.500638,12.500638 0 0 1 -8.33398,-11.76953 12.500638,12.500638 0 0 1 12.5,-12.50196 z"
       transform="scale(0.26458333)"
       id="rect40"
       inkscape:connector-curvature="0" />
    <path
       style="fill:#f47d33;stroke-width:0.99436027;fill-opacity:1"
       d="m 285.36719,220.51367 a 57.578665,55.305847 0 0 0 -57.57813,55.30664 57.578665,55.305847 0 0 0 0.008,0.19141 h -0.008 v 39.72266 h 16.66797 v -36.79493 a 40.439373,36.546691 0 0 1 -0.0664,-1.6914 40.439373,36.546691 0 0 1 0.0664,-1.20508 v -0.53711 h 0.0293 a 40.439373,36.546691 0 0 1 40.34375,-34.80469 40.439373,36.546691 0 0 1 40.37109,34.80469 h 0.0684 v 1.74219 11.70117 h 17.67774 v -12.9375 h -0.01 a 57.578665,55.305847 0 0 0 0.01,-0.19141 57.578665,55.305847 0 0 0 -57.58008,-55.30664 z"
       transform="scale(0.26458333)"
       id="path14"
       inkscape:connector-curvature="0" />
  </g>
</svg>
