<?xml version="1.0" standalone="no"?>
<!DOCTYPE svg PUBLIC "-//W3C//DTD SVG 20010904//EN"
 "http://www.w3.org/TR/2001/REC-SVG-20010904/DTD/svg10.dtd">
<svg version="1.0" xmlns="http://www.w3.org/2000/svg"
 width="700.000000pt" height="700.000000pt" viewBox="0 0 700.000000 700.000000"
 preserveAspectRatio="xMidYMid meet">
<metadata>
Created by potrace 1.11, written by Peter Selinger 2001-2013
</metadata>
<g transform="translate(0.000000,700.000000) scale(0.100000,-0.100000)"
fill="#000000" stroke="none">
<path d="M4349 6996 c-2 -2 -42 -7 -89 -10 -47 -3 -96 -8 -110 -10 -14 -3 -47
-7 -74 -11 -177 -22 -473 -91 -666 -155 -489 -162 -983 -422 -1395 -733 -108
-82 -159 -121 -165 -127 -3 -3 -32 -27 -65 -55 -393 -328 -749 -725 -1030
-1150 -107 -162 -110 -168 -206 -339 -138 -248 -265 -534 -349 -786 -60 -183
-129 -452 -146 -570 -2 -19 -6 -44 -9 -55 -2 -11 -7 -42 -10 -70 -4 -27 -8
-61 -11 -75 -12 -76 -19 -218 -19 -395 0 -216 6 -307 30 -460 3 -16 7 -48 10
-70 16 -110 88 -358 145 -500 68 -171 231 -458 301 -530 19 -19 19 -19 20 10
2 37 5 76 12 135 3 25 9 72 12 105 4 33 8 67 10 75 2 8 7 39 10 69 4 30 8 61
10 70 1 9 6 36 10 61 11 71 14 93 20 120 3 14 8 41 11 60 5 30 12 63 39 191
32 153 110 426 174 613 46 134 101 277 111 291 4 6 11 21 15 35 20 64 176 386
240 495 25 42 45 77 45 80 0 7 151 245 219 345 95 139 368 500 401 530 3 3 40
46 82 95 173 203 267 305 498 535 243 243 401 390 570 530 41 34 88 73 103 87
173 151 567 431 837 597 69 42 132 80 140 86 134 84 511 279 705 365 83 36
159 70 170 75 113 50 387 145 548 189 154 42 154 42 42 84 -149 56 -295 98
-430 123 -49 9 -99 18 -110 20 -11 2 -47 6 -80 10 -33 3 -67 8 -75 11 -16 6
-495 14 -501 9z"/>
<path d="M5860 6620 c-14 -5 -92 -30 -173 -55 -198 -63 -374 -131 -576 -222
-79 -35 -362 -175 -446 -220 -246 -133 -473 -274 -781 -485 -83 -57 -367 -274
-410 -313 -6 -5 -29 -23 -50 -40 -231 -180 -706 -634 -979 -936 -92 -102 -309
-356 -337 -394 -4 -5 -20 -26 -36 -45 -147 -182 -432 -591 -432 -620 0 -5 -3
-10 -7 -10 -5 0 -13 -10 -19 -23 -6 -12 -35 -62 -64 -112 -48 -82 -220 -417
-220 -429 0 -3 -12 -31 -26 -63 -74 -164 -142 -348 -213 -578 -31 -103 -111
-418 -130 -515 -22 -115 -47 -254 -56 -315 -3 -22 -10 -67 -15 -100 -5 -33
-11 -87 -15 -120 -4 -33 -8 -76 -11 -95 -12 -107 -14 -130 -29 -318 -6 -71 -6
-74 21 -95 364 -287 827 -462 1339 -506 95 -9 505 -6 565 3 19 3 58 8 85 11
47 5 111 14 145 20 8 1 35 6 60 10 25 4 95 18 155 32 61 13 117 26 125 28 8 1
63 17 122 34 505 147 990 387 1448 714 92 66 344 265 400 316 19 18 53 48 75
68 153 135 396 389 539 563 42 52 84 103 92 114 82 99 274 379 362 526 137
231 261 481 355 720 115 294 213 663 243 915 3 28 7 56 9 63 10 30 20 240 20
412 0 166 -7 289 -20 375 -2 17 -6 46 -9 65 -13 89 -19 123 -48 240 -137 560
-453 1027 -907 1339 -75 51 -100 58 -151 41z"/>
</g>
</svg>
