<?xml version="1.0" standalone="no"?>
<!DOCTYPE svg PUBLIC "-//W3C//DTD SVG 20010904//EN"
 "http://www.w3.org/TR/2001/REC-SVG-20010904/DTD/svg10.dtd">
<svg version="1.0" xmlns="http://www.w3.org/2000/svg"
 width="120.000000pt" height="120.000000pt" viewBox="0 0 120.000000 120.000000"
 preserveAspectRatio="xMidYMid meet">
<metadata>
Created by potrace 1.11, written by Peter Selinger 2001-2013
</metadata>
<g transform="translate(0.000000,120.000000) scale(0.100000,-0.100000)"
fill="#000000" stroke="none">
<path d="M715 1144 c-143 -32 -256 -85 -359 -170 l-67 -56 53 -56 c29 -31 70
-75 90 -96 l36 -39 43 41 c89 82 116 104 194 156 98 65 148 91 244 126 l74 27
-28 19 c-63 41 -201 65 -280 48z"/>
<path d="M939 1026 c-131 -65 -269 -163 -377 -268 l-63 -61 38 -39 37 -38 173
172 173 173 0 -320 1 -320 34 40 c92 106 166 319 159 461 -5 116 -51 235 -92
233 -9 0 -47 -15 -83 -33z"/>
<path d="M204 807 c-43 -66 -53 -86 -78 -147 -56 -138 -71 -303 -36 -406 20
-58 41 -94 54 -94 5 0 7 3 3 6 -7 7 36 130 64 186 18 34 19 59 17 263 l-3 224
-21 -32z"/>
<path d="M330 641 l0 -84 36 48 37 47 -37 36 -36 37 0 -84z"/>
<path d="M696 597 l-119 -119 -72 72 -72 72 -52 -63 -51 -64 0 -152 0 -153
-50 0 -49 0 -3 63 -3 62 -18 -35 c-10 -19 -27 -57 -38 -84 -23 -60 -16 -72 64
-107 66 -28 209 -31 307 -5 71 18 209 84 253 119 l27 23 -2 245 -3 244 -119
-118z"/>
</g>
</svg>
